<svg width="56" height="57" viewBox="0 0 56 57" fill="none" xmlns="http://www.w3.org/2000/svg">
<g clip-path="url(#clip0_32_1517)">
<path d="M53.7589 28.1354L49.5168 18.5949C48.4175 16.1216 46.6244 14.0202 44.3549 12.5454C42.0853 11.0706 39.4367 10.2857 36.7301 10.2858H33.5818L32.0426 4.12445C31.8156 3.22019 31.2931 2.41767 30.5579 1.84428C29.8228 1.27089 28.9172 0.959473 27.9848 0.959473C27.0525 0.959473 26.1469 1.27089 25.4118 1.84428C24.6766 2.41767 24.1541 3.22019 23.927 4.12445L22.3879 10.2858H11.6603C8.56897 10.2895 5.60527 11.5192 3.41933 13.7051C1.23339 15.891 0.003703 18.8547 0 21.9461L0 40.6027C0.00500369 42.074 0.474696 43.5062 1.34203 44.6948C2.20937 45.8833 3.43001 46.7675 4.82972 47.2211C4.72415 47.7291 4.66869 48.2461 4.66414 48.7649C4.66414 50.9297 5.52409 53.0058 7.05481 54.5365C8.58552 56.0672 10.6616 56.9272 12.8264 56.9272C14.9911 56.9272 17.0672 56.0672 18.598 54.5365C20.1287 53.0058 20.9886 50.9297 20.9886 48.7649C20.985 48.3745 20.953 47.9848 20.893 47.5989H35.0767C35.0167 47.9848 34.9847 48.3745 34.9811 48.7649C34.9811 50.9297 35.841 53.0058 37.3717 54.5365C38.9024 56.0672 40.9785 56.9272 43.1433 56.9272C45.3081 56.9272 47.3842 56.0672 48.9149 54.5365C50.4456 53.0058 51.3055 50.9297 51.3055 48.7649C51.301 48.2461 51.2455 47.7291 51.14 47.2211C52.5397 46.7675 53.7603 45.8833 54.6276 44.6948C55.495 43.5062 55.9647 42.074 55.9697 40.6027V38.5551C55.9748 34.965 55.2214 31.4142 53.7589 28.1354ZM45.2562 20.4909L47.9777 26.6103H39.6452C39.0267 26.6103 38.4335 26.3646 37.9962 25.9272C37.5588 25.4899 37.3131 24.8967 37.3131 24.2782V14.9919C39.0129 15.0961 40.6518 15.6637 42.052 16.633C43.4522 17.6024 44.5603 18.9366 45.2562 20.4909ZM16.3245 48.7649C16.3245 49.6927 15.9559 50.5824 15.2999 51.2385C14.6439 51.8945 13.7541 52.263 12.8264 52.263C11.8986 52.263 11.0089 51.8945 10.3529 51.2385C9.69683 50.5824 9.32828 49.6927 9.32828 48.7649C9.32971 48.3664 9.40319 47.9713 9.54516 47.5989H16.1076C16.2496 47.9713 16.3231 48.3664 16.3245 48.7649ZM43.1433 52.263C42.2155 52.263 41.3258 51.8945 40.6698 51.2385C40.0137 50.5824 39.6452 49.6927 39.6452 48.7649C39.6466 48.3664 39.7201 47.9713 39.8621 47.5989H46.4245C46.5665 47.9713 46.64 48.3664 46.6414 48.7649C46.6414 49.6927 46.2729 50.5824 45.6168 51.2385C44.9608 51.8945 44.071 52.263 43.1433 52.263ZM51.3055 40.6027C51.3055 41.2212 51.0598 41.8144 50.6225 42.2517C50.1852 42.6891 49.592 42.9348 48.9735 42.9348H6.99621C6.37771 42.9348 5.78454 42.6891 5.34719 42.2517C4.90984 41.8144 4.66414 41.2212 4.66414 40.6027V21.9461C4.66414 20.0906 5.40124 18.3111 6.71328 16.9991C8.02533 15.687 9.80484 14.9499 11.6603 14.9499H32.649V24.2782C32.649 26.1337 33.3861 27.9132 34.6981 29.2253C36.0102 30.5373 37.7897 31.2744 39.6452 31.2744H49.9739C50.8497 33.6021 51.3007 36.0681 51.3055 38.5551V40.6027Z" fill="#1D884A"/>
<path d="M24.9697 30.5914C25.4071 30.1541 25.6528 29.5609 25.6528 28.9424C25.6528 28.3239 25.4071 27.7307 24.9697 27.2934C24.5324 26.856 23.9392 26.6103 23.3207 26.6103H20.9886V24.2782C20.9886 23.6597 20.7429 23.0666 20.3056 22.6292C19.8682 22.1919 19.2751 21.9462 18.6566 21.9462C18.0381 21.9462 17.4449 22.1919 17.0075 22.6292C16.5702 23.0666 16.3245 23.6597 16.3245 24.2782V26.6103H13.9924C13.3739 26.6103 12.7807 26.856 12.3434 27.2934C11.906 27.7307 11.6603 28.3239 11.6603 28.9424C11.6603 29.5609 11.906 30.1541 12.3434 30.5914C12.7807 31.0287 13.3739 31.2744 13.9924 31.2744H16.3245V33.6065C16.3245 34.225 16.5702 34.8182 17.0075 35.2555C17.4449 35.6929 18.0381 35.9386 18.6566 35.9386C19.2751 35.9386 19.8682 35.6929 20.3056 35.2555C20.7429 34.8182 20.9886 34.225 20.9886 33.6065V31.2744H23.3207C23.9392 31.2744 24.5324 31.0287 24.9697 30.5914Z" fill="#1D884A"/>
</g>
<defs>
<clipPath id="clip0_32_1517">
<rect width="55.9697" height="55.9697" fill="white" transform="translate(0 0.957397)"/>
</clipPath>
</defs>
</svg>
