<svg width="160" height="15" viewBox="0 0 160 15" fill="none" xmlns="http://www.w3.org/2000/svg">
<path d="M0.92 14C0.6 14 0.366667 13.9333 0.22 13.8C0.0866667 13.6533 0.0200001 13.4333 0.0200001 13.14V1.28C0.0200001 0.986666 0.0866667 0.766666 0.22 0.619999C0.366667 0.473333 0.6 0.4 0.92 0.4H6.78C8.24667 0.4 9.34667 0.74 10.08 1.42C10.8133 2.08667 11.18 3.01333 11.18 4.2C11.18 4.82667 11.0267 5.38667 10.72 5.88C10.4267 6.37333 10.02 6.72667 9.5 6.94C10.8733 7.39333 11.56 8.4 11.56 9.96C11.56 10.72 11.38 11.4067 11.02 12.02C10.6733 12.6333 10.14 13.12 9.42 13.48C8.71333 13.8267 7.83333 14 6.78 14H0.92ZM6.22 5.9C6.75333 5.9 7.16667 5.76667 7.46 5.5C7.75333 5.23333 7.9 4.84667 7.9 4.34C7.9 3.79333 7.76 3.40667 7.48 3.18C7.21333 2.94 6.79333 2.82 6.22 2.82H3.32V5.9H6.22ZM6.54 11.58C7.12667 11.58 7.56 11.4267 7.84 11.12C8.13333 10.8 8.28 10.3867 8.28 9.88C8.28 9.30667 8.11333 8.88 7.78 8.6C7.44667 8.30667 6.98 8.16 6.38 8.16H3.32V11.58H6.54ZM17.0236 14.3C15.7436 14.3 14.7169 13.9 13.9436 13.1C13.1836 12.3 12.8036 11.1733 12.8036 9.72C12.8036 8.6 13.0636 7.62 13.5836 6.78C14.1036 5.92667 14.8303 5.26667 15.7636 4.8C16.6969 4.33333 17.7769 4.1 19.0036 4.1C19.9503 4.1 20.7836 4.20667 21.5036 4.42C22.2369 4.63333 22.9036 4.94 23.5036 5.34V13.42C23.5036 13.6467 23.4569 13.8 23.3636 13.88C23.2836 13.96 23.1169 14 22.8636 14H21.2836C21.1369 14 21.0236 13.9733 20.9436 13.92C20.8769 13.8667 20.8236 13.78 20.7836 13.66L20.5636 12.96C20.1636 13.4267 19.6769 13.7667 19.1036 13.98C18.5303 14.1933 17.8369 14.3 17.0236 14.3ZM18.2436 12.02C18.8303 12.02 19.3369 11.8533 19.7636 11.52C20.2036 11.1867 20.4236 10.7333 20.4236 10.16V6.66C20.0236 6.46 19.5436 6.36 18.9836 6.36C18.1036 6.36 17.3969 6.65333 16.8636 7.24C16.3436 7.81333 16.0836 8.62 16.0836 9.66C16.0836 10.46 16.2636 11.0533 16.6236 11.44C16.9836 11.8267 17.5236 12.02 18.2436 12.02ZM30.5073 14.3C29.5473 14.3 28.614 14.1733 27.7073 13.92C26.814 13.6667 26.094 13.34 25.5473 12.94V1.28C25.5473 0.986666 25.614 0.766666 25.7473 0.619999C25.894 0.473333 26.1273 0.4 26.4473 0.4H27.8873C28.2207 0.4 28.454 0.473333 28.5873 0.619999C28.7207 0.753333 28.7873 0.973333 28.7873 1.28V4.84C29.094 4.6 29.494 4.42 29.9873 4.3C30.4807 4.16667 30.994 4.1 31.5273 4.1C33.074 4.1 34.254 4.51333 35.0673 5.34C35.894 6.15333 36.3073 7.31333 36.3073 8.82C36.3073 10.5533 35.814 11.9 34.8273 12.86C33.854 13.82 32.414 14.3 30.5073 14.3ZM30.3473 12.02C31.254 12.02 31.9273 11.76 32.3673 11.24C32.8073 10.7067 33.0273 9.91333 33.0273 8.86C33.0273 8.00667 32.854 7.38 32.5073 6.98C32.174 6.58 31.6207 6.38 30.8473 6.38C30.2873 6.38 29.8007 6.52667 29.3873 6.82C28.9873 7.1 28.7873 7.51333 28.7873 8.06V11.68C28.974 11.7867 29.2073 11.8733 29.4873 11.94C29.7673 11.9933 30.054 12.02 30.3473 12.02ZM41.2619 14.3C39.9819 14.3 38.9552 13.9 38.1819 13.1C37.4219 12.3 37.0419 11.1733 37.0419 9.72C37.0419 8.6 37.3019 7.62 37.8219 6.78C38.3419 5.92667 39.0685 5.26667 40.0019 4.8C40.9352 4.33333 42.0152 4.1 43.2419 4.1C44.1885 4.1 45.0219 4.20667 45.7419 4.42C46.4752 4.63333 47.1419 4.94 47.7419 5.34V13.42C47.7419 13.6467 47.6952 13.8 47.6019 13.88C47.5219 13.96 47.3552 14 47.1019 14H45.5219C45.3752 14 45.2619 13.9733 45.1819 13.92C45.1152 13.8667 45.0619 13.78 45.0219 13.66L44.8019 12.96C44.4019 13.4267 43.9152 13.7667 43.3419 13.98C42.7685 14.1933 42.0752 14.3 41.2619 14.3ZM42.4819 12.02C43.0685 12.02 43.5752 11.8533 44.0019 11.52C44.4419 11.1867 44.6619 10.7333 44.6619 10.16V6.66C44.2619 6.46 43.7819 6.36 43.2219 6.36C42.3419 6.36 41.6352 6.65333 41.1019 7.24C40.5819 7.81333 40.3219 8.62 40.3219 9.66C40.3219 10.46 40.5019 11.0533 40.8619 11.44C41.2219 11.8267 41.7619 12.02 42.4819 12.02ZM61.2327 14C60.8993 14 60.6593 13.9333 60.5127 13.8C60.3793 13.6533 60.3127 13.4333 60.3127 13.14V2.84H57.0327C56.7127 2.84 56.4927 2.78 56.3727 2.66C56.2527 2.52667 56.1927 2.30667 56.1927 2V1.26C56.1927 0.953333 56.2527 0.733333 56.3727 0.6C56.4927 0.466666 56.7127 0.4 57.0327 0.4H66.9127C67.2327 0.4 67.4527 0.466666 67.5727 0.6C67.706 0.733333 67.7727 0.953333 67.7727 1.26V2C67.7727 2.29333 67.706 2.50667 67.5727 2.64C67.4527 2.77333 67.2327 2.84 66.9127 2.84H63.6327V13.14C63.6327 13.4333 63.5593 13.6533 63.4127 13.8C63.2793 13.9333 63.046 14 62.7127 14H61.2327ZM74.3044 14.3C73.2244 14.3 72.251 14.12 71.3844 13.76C70.531 13.3867 69.851 12.8333 69.3444 12.1C68.851 11.3533 68.6044 10.4333 68.6044 9.34C68.6044 7.63333 69.071 6.33333 70.0044 5.44C70.951 4.54667 72.2977 4.1 74.0444 4.1C75.7644 4.1 77.0644 4.53333 77.9444 5.4C78.8377 6.26667 79.2844 7.5 79.2844 9.1C79.2844 9.66 79.031 9.94 78.5244 9.94H71.7244C71.7244 10.66 71.991 11.22 72.5244 11.62C73.071 12.0067 73.8177 12.2 74.7644 12.2C75.3244 12.2 75.811 12.1467 76.2244 12.04C76.6377 11.92 77.0377 11.7533 77.4244 11.54C77.5577 11.4733 77.651 11.44 77.7044 11.44C77.7977 11.44 77.8844 11.5133 77.9644 11.66L78.5444 12.74C78.5977 12.8333 78.6244 12.9133 78.6244 12.98C78.6244 13.0867 78.551 13.1933 78.4044 13.3C77.871 13.6467 77.271 13.9 76.6044 14.06C75.9377 14.22 75.171 14.3 74.3044 14.3ZM76.3244 8.22C76.3244 7.55333 76.1377 7.03333 75.7644 6.66C75.391 6.28667 74.8244 6.1 74.0644 6.1C73.3044 6.1 72.7244 6.29333 72.3244 6.68C71.9244 7.05333 71.7244 7.56667 71.7244 8.22H76.3244ZM81.8184 14C81.4984 14 81.2651 13.9333 81.1184 13.8C80.9851 13.6533 80.9184 13.4333 80.9184 13.14V1.28C80.9184 0.986666 80.9851 0.766666 81.1184 0.619999C81.2651 0.473333 81.4984 0.4 81.8184 0.4H83.3184C83.6518 0.4 83.8851 0.473333 84.0184 0.619999C84.1518 0.753333 84.2184 0.973333 84.2184 1.28V13.14C84.2184 13.4333 84.1518 13.6533 84.0184 13.8C83.8851 13.9333 83.6518 14 83.3184 14H81.8184ZM91.5505 14.3C90.4705 14.3 89.4971 14.12 88.6305 13.76C87.7771 13.3867 87.0971 12.8333 86.5905 12.1C86.0971 11.3533 85.8505 10.4333 85.8505 9.34C85.8505 7.63333 86.3171 6.33333 87.2505 5.44C88.1971 4.54667 89.5438 4.1 91.2905 4.1C93.0105 4.1 94.3105 4.53333 95.1905 5.4C96.0838 6.26667 96.5305 7.5 96.5305 9.1C96.5305 9.66 96.2771 9.94 95.7705 9.94H88.9705C88.9705 10.66 89.2371 11.22 89.7705 11.62C90.3171 12.0067 91.0638 12.2 92.0105 12.2C92.5705 12.2 93.0571 12.1467 93.4705 12.04C93.8838 11.92 94.2838 11.7533 94.6705 11.54C94.8038 11.4733 94.8971 11.44 94.9505 11.44C95.0438 11.44 95.1305 11.5133 95.2105 11.66L95.7905 12.74C95.8438 12.8333 95.8705 12.9133 95.8705 12.98C95.8705 13.0867 95.7971 13.1933 95.6505 13.3C95.1171 13.6467 94.5171 13.9 93.8505 14.06C93.1838 14.22 92.4171 14.3 91.5505 14.3ZM93.5705 8.22C93.5705 7.55333 93.3838 7.03333 93.0105 6.66C92.6371 6.28667 92.0705 6.1 91.3105 6.1C90.5505 6.1 89.9705 6.29333 89.5705 6.68C89.1705 7.05333 88.9705 7.56667 88.9705 8.22H93.5705ZM99.0845 14C98.7512 14 98.5112 13.9333 98.3645 13.8C98.2312 13.6533 98.1645 13.4333 98.1645 13.14V0.98C98.1645 0.753333 98.2045 0.599999 98.2845 0.52C98.3645 0.44 98.5245 0.4 98.7645 0.4H100.625C100.865 0.4 101.025 0.44 101.105 0.52C101.198 0.599999 101.245 0.753333 101.245 0.98V5.24C102.111 4.48 103.238 4.1 104.625 4.1C105.718 4.1 106.591 4.4 107.245 5C107.911 5.58667 108.245 6.46667 108.245 7.64V13.14C108.245 13.4333 108.171 13.6533 108.025 13.8C107.891 13.9333 107.665 14 107.345 14H105.845C105.511 14 105.271 13.9333 105.125 13.8C104.991 13.6533 104.925 13.4333 104.925 13.14V7.84C104.925 7.32 104.805 6.94667 104.565 6.72C104.325 6.49333 103.958 6.38 103.465 6.38C102.918 6.38 102.445 6.53333 102.045 6.84C101.658 7.13333 101.465 7.52 101.465 8V13.14C101.465 13.4333 101.398 13.6533 101.265 13.8C101.131 13.9333 100.898 14 100.565 14H99.0845ZM115.476 14.3C114.396 14.3 113.423 14.12 112.556 13.76C111.703 13.3867 111.023 12.8333 110.516 12.1C110.023 11.3533 109.776 10.4333 109.776 9.34C109.776 7.63333 110.243 6.33333 111.176 5.44C112.123 4.54667 113.47 4.1 115.216 4.1C116.936 4.1 118.236 4.53333 119.116 5.4C120.01 6.26667 120.456 7.5 120.456 9.1C120.456 9.66 120.203 9.94 119.696 9.94H112.896C112.896 10.66 113.163 11.22 113.696 11.62C114.243 12.0067 114.99 12.2 115.936 12.2C116.496 12.2 116.983 12.1467 117.396 12.04C117.81 11.92 118.21 11.7533 118.596 11.54C118.73 11.4733 118.823 11.44 118.876 11.44C118.97 11.44 119.056 11.5133 119.136 11.66L119.716 12.74C119.77 12.8333 119.796 12.9133 119.796 12.98C119.796 13.0867 119.723 13.1933 119.576 13.3C119.043 13.6467 118.443 13.9 117.776 14.06C117.11 14.22 116.343 14.3 115.476 14.3ZM117.496 8.22C117.496 7.55333 117.31 7.03333 116.936 6.66C116.563 6.28667 115.996 6.1 115.236 6.1C114.476 6.1 113.896 6.29333 113.496 6.68C113.096 7.05333 112.896 7.56667 112.896 8.22H117.496ZM125.91 14.3C124.63 14.3 123.604 13.9 122.83 13.1C122.07 12.3 121.69 11.1733 121.69 9.72C121.69 8.6 121.95 7.62 122.47 6.78C122.99 5.92667 123.717 5.26667 124.65 4.8C125.584 4.33333 126.664 4.1 127.89 4.1C128.837 4.1 129.67 4.20667 130.39 4.42C131.124 4.63333 131.79 4.94 132.39 5.34V13.42C132.39 13.6467 132.344 13.8 132.25 13.88C132.17 13.96 132.004 14 131.75 14H130.17C130.024 14 129.91 13.9733 129.83 13.92C129.764 13.8667 129.71 13.78 129.67 13.66L129.45 12.96C129.05 13.4267 128.564 13.7667 127.99 13.98C127.417 14.1933 126.724 14.3 125.91 14.3ZM127.13 12.02C127.717 12.02 128.224 11.8533 128.65 11.52C129.09 11.1867 129.31 10.7333 129.31 10.16V6.66C128.91 6.46 128.43 6.36 127.87 6.36C126.99 6.36 126.284 6.65333 125.75 7.24C125.23 7.81333 124.97 8.62 124.97 9.66C124.97 10.46 125.15 11.0533 125.51 11.44C125.87 11.8267 126.41 12.02 127.13 12.02ZM135.334 14C135.014 14 134.781 13.9333 134.634 13.8C134.501 13.6533 134.434 13.4333 134.434 13.14V1.28C134.434 0.986666 134.501 0.766666 134.634 0.619999C134.781 0.473333 135.014 0.4 135.334 0.4H136.834C137.167 0.4 137.401 0.473333 137.534 0.619999C137.667 0.753333 137.734 0.973333 137.734 1.28V13.14C137.734 13.4333 137.667 13.6533 137.534 13.8C137.401 13.9333 137.167 14 136.834 14H135.334ZM144.466 14.3C143.253 14.3 142.333 13.9667 141.706 13.3C141.079 12.6333 140.766 11.7133 140.766 10.54V6.72H139.786C139.466 6.72 139.253 6.66 139.146 6.54C139.039 6.42 138.986 6.20667 138.986 5.9V5.24C138.986 4.93333 139.039 4.72 139.146 4.6C139.253 4.46667 139.466 4.4 139.786 4.4H140.766V3.6C140.766 3.30667 140.826 3.02 140.946 2.74C141.079 2.44667 141.266 2.08667 141.506 1.66C141.613 1.47333 141.713 1.35333 141.806 1.3C141.899 1.23333 142.066 1.2 142.306 1.2H143.226C143.533 1.2 143.746 1.26667 143.866 1.4C143.999 1.53333 144.066 1.74667 144.066 2.04V4.4H146.046C146.366 4.4 146.579 4.46667 146.686 4.6C146.793 4.72 146.846 4.93333 146.846 5.24V5.9C146.846 6.20667 146.793 6.42 146.686 6.54C146.579 6.66 146.366 6.72 146.046 6.72H144.066V10.46C144.066 10.98 144.159 11.3533 144.346 11.58C144.533 11.8067 144.846 11.92 145.286 11.92C145.553 11.92 145.773 11.8867 145.946 11.82C146.133 11.7533 146.339 11.6467 146.566 11.5C146.673 11.4333 146.753 11.4 146.806 11.4C146.926 11.4 147.026 11.4733 147.106 11.62L147.846 12.88C147.913 12.9867 147.946 13.0733 147.946 13.14C147.946 13.2333 147.866 13.3333 147.706 13.44C146.866 14.0133 145.786 14.3 144.466 14.3ZM150.12 14C149.786 14 149.546 13.9333 149.4 13.8C149.266 13.6533 149.2 13.4333 149.2 13.14V0.98C149.2 0.753333 149.24 0.599999 149.32 0.52C149.4 0.44 149.56 0.4 149.8 0.4H151.66C151.9 0.4 152.06 0.44 152.14 0.52C152.233 0.599999 152.28 0.753333 152.28 0.98V5.24C153.146 4.48 154.273 4.1 155.66 4.1C156.753 4.1 157.626 4.4 158.28 5C158.946 5.58667 159.28 6.46667 159.28 7.64V13.14C159.28 13.4333 159.206 13.6533 159.06 13.8C158.926 13.9333 158.7 14 158.38 14H156.88C156.546 14 156.306 13.9333 156.16 13.8C156.026 13.6533 155.96 13.4333 155.96 13.14V7.84C155.96 7.32 155.84 6.94667 155.6 6.72C155.36 6.49333 154.993 6.38 154.5 6.38C153.953 6.38 153.48 6.53333 153.08 6.84C152.693 7.13333 152.5 7.52 152.5 8V13.14C152.5 13.4333 152.433 13.6533 152.3 13.8C152.166 13.9333 151.933 14 151.6 14H150.12Z" fill="#1D884A"/>
</svg>
