<svg width="121" height="13" viewBox="0 0 121 13" fill="none" xmlns="http://www.w3.org/2000/svg">
<path d="M9.336 9.072C9.336 9.712 9.17067 10.2507 8.84 10.688C8.50933 11.1147 8.06133 11.44 7.496 11.664C6.94133 11.888 6.33333 12 5.672 12H0.184V0.639999H6.264C6.79733 0.639999 7.256 0.783999 7.64 1.072C8.03467 1.34933 8.33333 1.712 8.536 2.16C8.74933 2.59733 8.856 3.056 8.856 3.536C8.856 4.08 8.71733 4.59733 8.44 5.088C8.16267 5.57867 7.75733 5.94133 7.224 6.176C7.87467 6.368 8.38667 6.71467 8.76 7.216C9.144 7.71733 9.336 8.336 9.336 9.072ZM7.112 8.656C7.112 8.368 7.05333 8.112 6.936 7.888C6.81867 7.65333 6.65867 7.472 6.456 7.344C6.264 7.20533 6.04 7.136 5.784 7.136H2.392V10.128H5.672C5.93867 10.128 6.17867 10.064 6.392 9.936C6.616 9.79733 6.792 9.616 6.92 9.392C7.048 9.168 7.112 8.92267 7.112 8.656ZM2.392 2.528V5.392H5.336C5.58133 5.392 5.80533 5.33333 6.008 5.216C6.21067 5.09867 6.37067 4.93333 6.488 4.72C6.616 4.50667 6.68 4.25067 6.68 3.952C6.68 3.664 6.62133 3.41333 6.504 3.2C6.39733 2.98667 6.248 2.82133 6.056 2.704C5.87467 2.58667 5.66667 2.528 5.432 2.528H2.392ZM14.739 12.16C14.067 12.16 13.459 12.048 12.915 11.824C12.371 11.5893 11.907 11.2747 11.523 10.88C11.139 10.4747 10.8403 10.016 10.627 9.504C10.4243 8.98133 10.323 8.432 10.323 7.856C10.323 7.056 10.499 6.32533 10.851 5.664C11.2137 5.00267 11.7257 4.47467 12.387 4.08C13.059 3.67467 13.8483 3.472 14.755 3.472C15.6723 3.472 16.4563 3.67467 17.107 4.08C17.7577 4.47467 18.2537 5.00267 18.595 5.664C18.947 6.31467 19.123 7.01867 19.123 7.776C19.123 7.904 19.1177 8.03733 19.107 8.176C19.0963 8.304 19.0857 8.41067 19.075 8.496H12.595C12.6377 8.92267 12.7603 9.296 12.963 9.616C13.1763 9.936 13.443 10.1813 13.763 10.352C14.0937 10.512 14.4457 10.592 14.819 10.592C15.2457 10.592 15.6457 10.4907 16.019 10.288C16.403 10.0747 16.6643 9.79733 16.803 9.456L18.643 9.968C18.4403 10.3947 18.147 10.7733 17.763 11.104C17.3897 11.4347 16.947 11.696 16.435 11.888C15.923 12.0693 15.3577 12.16 14.739 12.16ZM12.547 7.136H16.931C16.8883 6.70933 16.7657 6.34133 16.563 6.032C16.371 5.712 16.115 5.46667 15.795 5.296C15.475 5.11467 15.1177 5.024 14.723 5.024C14.339 5.024 13.987 5.11467 13.667 5.296C13.3577 5.46667 13.1017 5.712 12.899 6.032C12.707 6.34133 12.5897 6.70933 12.547 7.136ZM23.5171 12.16C22.8025 12.16 22.1198 12.0427 21.4691 11.808C20.8185 11.5733 20.2585 11.2267 19.7891 10.768L20.5571 9.376C21.0585 9.78133 21.5491 10.08 22.0291 10.272C22.5198 10.464 22.9891 10.56 23.4371 10.56C23.8531 10.56 24.1838 10.4853 24.4291 10.336C24.6851 10.1867 24.8131 9.96267 24.8131 9.664C24.8131 9.46133 24.7438 9.30667 24.6051 9.2C24.4665 9.08267 24.2638 8.98133 23.9971 8.896C23.7411 8.81067 23.4265 8.71467 23.0531 8.608C22.4345 8.40533 21.9171 8.208 21.5011 8.016C21.0851 7.824 20.7705 7.584 20.5571 7.296C20.3545 6.99733 20.2531 6.61867 20.2531 6.16C20.2531 5.60533 20.3918 5.13067 20.6691 4.736C20.9571 4.33067 21.3518 4.016 21.8531 3.792C22.3651 3.568 22.9625 3.456 23.6451 3.456C24.2425 3.456 24.8078 3.552 25.3411 3.744C25.8745 3.92533 26.3598 4.224 26.7971 4.64L25.9331 6C25.5065 5.66933 25.1011 5.42933 24.7171 5.28C24.3331 5.12 23.9438 5.04 23.5491 5.04C23.3251 5.04 23.1118 5.06667 22.9091 5.12C22.7171 5.17333 22.5571 5.264 22.4291 5.392C22.3118 5.50933 22.2531 5.68 22.2531 5.904C22.2531 6.10667 22.3065 6.26667 22.4131 6.384C22.5305 6.49067 22.7011 6.58667 22.9251 6.672C23.1598 6.75733 23.4425 6.85333 23.7731 6.96C24.4451 7.152 25.0105 7.34933 25.4691 7.552C25.9385 7.75467 26.2905 8.00533 26.5251 8.304C26.7598 8.592 26.8771 8.992 26.8771 9.504C26.8771 10.336 26.5731 10.9867 25.9651 11.456C25.3571 11.9253 24.5411 12.16 23.5171 12.16ZM33.3125 11.568C33.1312 11.6427 32.9125 11.728 32.6565 11.824C32.4005 11.92 32.1232 11.9947 31.8245 12.048C31.5365 12.112 31.2432 12.144 30.9445 12.144C30.5498 12.144 30.1872 12.0747 29.8565 11.936C29.5258 11.7973 29.2592 11.5787 29.0565 11.28C28.8645 10.9707 28.7685 10.5707 28.7685 10.08V5.264H27.6645V3.616H28.7685V0.896H30.9125V3.616H32.6725V5.264H30.9125V9.36C30.9232 9.648 31.0032 9.856 31.1525 9.984C31.3018 10.112 31.4885 10.176 31.7125 10.176C31.9365 10.176 32.1552 10.1387 32.3685 10.064C32.5818 9.98933 32.7525 9.92533 32.8805 9.872L33.3125 11.568ZM46.0649 12H43.9209V7.296C43.9209 6.64533 43.7929 6.16 43.5369 5.84C43.2915 5.52 42.9502 5.36 42.5129 5.36C42.2569 5.36 41.9849 5.43467 41.6969 5.584C41.4089 5.73333 41.1475 5.94133 40.9129 6.208C40.6889 6.464 40.5235 6.76267 40.4169 7.104V12H38.2729V0.32H40.4169V5.168C40.7262 4.63467 41.1475 4.21867 41.6809 3.92C42.2142 3.62133 42.7955 3.472 43.4249 3.472C43.9689 3.472 44.4115 3.568 44.7529 3.76C45.0942 3.94133 45.3609 4.192 45.5529 4.512C45.7449 4.82133 45.8782 5.17333 45.9529 5.568C46.0275 5.952 46.0649 6.352 46.0649 6.768V12ZM51.8171 12.16C51.1451 12.16 50.5371 12.048 49.9931 11.824C49.4491 11.5893 48.9851 11.2747 48.6011 10.88C48.2171 10.4747 47.9185 10.016 47.7051 9.504C47.5025 8.98133 47.4011 8.432 47.4011 7.856C47.4011 7.056 47.5771 6.32533 47.9291 5.664C48.2918 5.00267 48.8038 4.47467 49.4651 4.08C50.1371 3.67467 50.9265 3.472 51.8331 3.472C52.7505 3.472 53.5345 3.67467 54.1851 4.08C54.8358 4.47467 55.3318 5.00267 55.6731 5.664C56.0251 6.31467 56.2011 7.01867 56.2011 7.776C56.2011 7.904 56.1958 8.03733 56.1851 8.176C56.1745 8.304 56.1638 8.41067 56.1531 8.496H49.6731C49.7158 8.92267 49.8385 9.296 50.0411 9.616C50.2545 9.936 50.5211 10.1813 50.8411 10.352C51.1718 10.512 51.5238 10.592 51.8971 10.592C52.3238 10.592 52.7238 10.4907 53.0971 10.288C53.4811 10.0747 53.7425 9.79733 53.8811 9.456L55.7211 9.968C55.5185 10.3947 55.2251 10.7733 54.8411 11.104C54.4678 11.4347 54.0251 11.696 53.5131 11.888C53.0011 12.0693 52.4358 12.16 51.8171 12.16ZM49.6251 7.136H54.0091C53.9665 6.70933 53.8438 6.34133 53.6411 6.032C53.4491 5.712 53.1931 5.46667 52.8731 5.296C52.5531 5.11467 52.1958 5.024 51.8011 5.024C51.4171 5.024 51.0651 5.11467 50.7451 5.296C50.4358 5.46667 50.1798 5.712 49.9771 6.032C49.7851 6.34133 49.6678 6.70933 49.6251 7.136ZM56.9313 9.52C56.9313 8.976 57.0806 8.50133 57.3793 8.096C57.6886 7.68 58.1153 7.36 58.6593 7.136C59.2033 6.912 59.8273 6.8 60.5312 6.8C60.8833 6.8 61.2406 6.82667 61.6033 6.88C61.9659 6.93333 62.2806 7.01867 62.5473 7.136V6.688C62.5473 6.15467 62.3873 5.744 62.0673 5.456C61.7579 5.168 61.2939 5.024 60.6753 5.024C60.2166 5.024 59.7793 5.104 59.3633 5.264C58.9473 5.424 58.5099 5.65867 58.0513 5.968L57.3633 4.56C57.9179 4.19733 58.4833 3.92533 59.0593 3.744C59.6459 3.56267 60.2593 3.472 60.8993 3.472C62.0939 3.472 63.0219 3.77067 63.6833 4.368C64.3553 4.96533 64.6913 5.81867 64.6913 6.928V9.6C64.6913 9.824 64.7286 9.984 64.8033 10.08C64.8886 10.176 65.0219 10.2347 65.2033 10.256V12C65.0113 12.032 64.8353 12.0587 64.6753 12.08C64.5259 12.1013 64.3979 12.112 64.2913 12.112C63.8646 12.112 63.5393 12.016 63.3153 11.824C63.1019 11.632 62.9686 11.3973 62.9153 11.12L62.8673 10.688C62.5046 11.1573 62.0513 11.52 61.5073 11.776C60.9633 12.032 60.4086 12.16 59.8433 12.16C59.2886 12.16 58.7873 12.048 58.3393 11.824C57.9019 11.5893 57.5553 11.2747 57.2993 10.88C57.0539 10.4747 56.9313 10.0213 56.9313 9.52ZM62.1473 9.952C62.2646 9.824 62.3606 9.696 62.4353 9.568C62.5099 9.44 62.5473 9.32267 62.5473 9.216V8.368C62.2913 8.26133 62.0139 8.18133 61.7153 8.128C61.4166 8.064 61.1339 8.032 60.8673 8.032C60.3126 8.032 59.8539 8.15467 59.4913 8.4C59.1393 8.63467 58.9633 8.94933 58.9633 9.344C58.9633 9.55733 59.0219 9.76 59.1393 9.952C59.2566 10.144 59.4273 10.2987 59.6513 10.416C59.8753 10.5333 60.1419 10.592 60.4513 10.592C60.7713 10.592 61.0859 10.5333 61.3953 10.416C61.7046 10.288 61.9553 10.1333 62.1473 9.952ZM66.6788 0.32H68.8228V9.312C68.8228 9.696 68.8868 9.95733 69.0148 10.096C69.1428 10.224 69.3188 10.288 69.5428 10.288C69.7134 10.288 69.8894 10.2667 70.0708 10.224C70.2521 10.1813 70.4121 10.128 70.5508 10.064L70.8388 11.696C70.5508 11.8347 70.2148 11.9413 69.8307 12.016C69.4468 12.0907 69.1001 12.128 68.7908 12.128C68.1188 12.128 67.5961 11.952 67.2228 11.6C66.8601 11.2373 66.6788 10.7253 66.6788 10.064V0.32ZM76.7031 11.568C76.5218 11.6427 76.3031 11.728 76.0471 11.824C75.7911 11.92 75.5138 11.9947 75.2151 12.048C74.9271 12.112 74.6338 12.144 74.3351 12.144C73.9405 12.144 73.5778 12.0747 73.2471 11.936C72.9165 11.7973 72.6498 11.5787 72.4471 11.28C72.2551 10.9707 72.1591 10.5707 72.1591 10.08V5.264H71.0551V3.616H72.1591V0.896H74.3031V3.616H76.0631V5.264H74.3031V9.36C74.3138 9.648 74.3938 9.856 74.5431 9.984C74.6925 10.112 74.8791 10.176 75.1031 10.176C75.3271 10.176 75.5458 10.1387 75.7591 10.064C75.9725 9.98933 76.1431 9.92533 76.2711 9.872L76.7031 11.568ZM85.6118 12H83.4678V7.296C83.4678 6.64533 83.3398 6.16 83.0838 5.84C82.8384 5.52 82.4971 5.36 82.0598 5.36C81.8038 5.36 81.5318 5.43467 81.2438 5.584C80.9558 5.73333 80.6944 5.94133 80.4598 6.208C80.2358 6.464 80.0704 6.76267 79.9638 7.104V12H77.8198V0.32H79.9638V5.168C80.2731 4.63467 80.6944 4.21867 81.2278 3.92C81.7611 3.62133 82.3424 3.472 82.9718 3.472C83.5158 3.472 83.9584 3.568 84.2998 3.76C84.6411 3.94133 84.9078 4.192 85.0998 4.512C85.2918 4.82133 85.4251 5.17333 85.4998 5.568C85.5744 5.952 85.6118 6.352 85.6118 6.768V12ZM91.38 12.16C90.6973 12.16 90.084 12.048 89.54 11.824C88.996 11.5893 88.532 11.2693 88.148 10.864C87.764 10.448 87.4653 9.97867 87.252 9.456C87.0493 8.93333 86.948 8.384 86.948 7.808C86.948 7.01867 87.124 6.29867 87.476 5.648C87.8387 4.98667 88.3507 4.45867 89.012 4.064C89.6733 3.66933 90.4573 3.472 91.364 3.472C92.2707 3.472 93.0493 3.66933 93.7 4.064C94.3507 4.45867 94.836 4.976 95.156 5.616L93.06 6.256C92.8787 5.94667 92.6387 5.712 92.34 5.552C92.0413 5.38133 91.7107 5.296 91.348 5.296C90.9427 5.296 90.5693 5.40267 90.228 5.616C89.8973 5.81867 89.636 6.112 89.444 6.496C89.252 6.86933 89.156 7.30667 89.156 7.808C89.156 8.29867 89.252 8.736 89.444 9.12C89.6467 9.49333 89.9133 9.792 90.244 10.016C90.5747 10.2293 90.9427 10.336 91.348 10.336C91.604 10.336 91.844 10.2933 92.068 10.208C92.3027 10.1227 92.5107 10.0053 92.692 9.856C92.8733 9.70667 93.0067 9.536 93.092 9.344L95.188 9.984C94.996 10.4 94.7133 10.7733 94.34 11.104C93.9773 11.4347 93.5453 11.696 93.044 11.888C92.5533 12.0693 91.9987 12.16 91.38 12.16ZM95.9313 9.52C95.9313 8.976 96.0806 8.50133 96.3793 8.096C96.6886 7.68 97.1153 7.36 97.6593 7.136C98.2033 6.912 98.8273 6.8 99.5312 6.8C99.8833 6.8 100.241 6.82667 100.603 6.88C100.966 6.93333 101.281 7.01867 101.547 7.136V6.688C101.547 6.15467 101.387 5.744 101.067 5.456C100.758 5.168 100.294 5.024 99.6753 5.024C99.2166 5.024 98.7793 5.104 98.3633 5.264C97.9473 5.424 97.5099 5.65867 97.0513 5.968L96.3633 4.56C96.9179 4.19733 97.4833 3.92533 98.0593 3.744C98.6459 3.56267 99.2593 3.472 99.8993 3.472C101.094 3.472 102.022 3.77067 102.683 4.368C103.355 4.96533 103.691 5.81867 103.691 6.928V9.6C103.691 9.824 103.729 9.984 103.803 10.08C103.889 10.176 104.022 10.2347 104.203 10.256V12C104.011 12.032 103.835 12.0587 103.675 12.08C103.526 12.1013 103.398 12.112 103.291 12.112C102.865 12.112 102.539 12.016 102.315 11.824C102.102 11.632 101.969 11.3973 101.915 11.12L101.867 10.688C101.505 11.1573 101.051 11.52 100.507 11.776C99.9633 12.032 99.4086 12.16 98.8433 12.16C98.2886 12.16 97.7873 12.048 97.3393 11.824C96.9019 11.5893 96.5553 11.2747 96.2993 10.88C96.0539 10.4747 95.9313 10.0213 95.9313 9.52ZM101.147 9.952C101.265 9.824 101.361 9.696 101.435 9.568C101.51 9.44 101.547 9.32267 101.547 9.216V8.368C101.291 8.26133 101.014 8.18133 100.715 8.128C100.417 8.064 100.134 8.032 99.8673 8.032C99.3126 8.032 98.8539 8.15467 98.4913 8.4C98.1393 8.63467 97.9633 8.94933 97.9633 9.344C97.9633 9.55733 98.0219 9.76 98.1393 9.952C98.2566 10.144 98.4273 10.2987 98.6513 10.416C98.8753 10.5333 99.1419 10.592 99.4513 10.592C99.7713 10.592 100.086 10.5333 100.395 10.416C100.705 10.288 100.955 10.1333 101.147 9.952ZM110.687 5.472C110.036 5.472 109.455 5.6 108.943 5.856C108.431 6.10133 108.063 6.45867 107.839 6.928V12H105.695V3.616H107.663V5.408C107.961 4.832 108.34 4.37867 108.799 4.048C109.257 3.71733 109.743 3.536 110.255 3.504C110.372 3.504 110.463 3.504 110.527 3.504C110.591 3.504 110.644 3.50933 110.687 3.52V5.472ZM115.661 12.16C114.989 12.16 114.381 12.048 113.837 11.824C113.293 11.5893 112.829 11.2747 112.445 10.88C112.061 10.4747 111.762 10.016 111.549 9.504C111.346 8.98133 111.245 8.432 111.245 7.856C111.245 7.056 111.421 6.32533 111.773 5.664C112.136 5.00267 112.648 4.47467 113.309 4.08C113.981 3.67467 114.77 3.472 115.677 3.472C116.594 3.472 117.378 3.67467 118.029 4.08C118.68 4.47467 119.176 5.00267 119.517 5.664C119.869 6.31467 120.045 7.01867 120.045 7.776C120.045 7.904 120.04 8.03733 120.029 8.176C120.018 8.304 120.008 8.41067 119.997 8.496H113.517C113.56 8.92267 113.682 9.296 113.885 9.616C114.098 9.936 114.365 10.1813 114.685 10.352C115.016 10.512 115.368 10.592 115.741 10.592C116.168 10.592 116.568 10.4907 116.941 10.288C117.325 10.0747 117.586 9.79733 117.725 9.456L119.565 9.968C119.362 10.3947 119.069 10.7733 118.685 11.104C118.312 11.4347 117.869 11.696 117.357 11.888C116.845 12.0693 116.28 12.16 115.661 12.16ZM113.469 7.136H117.853C117.81 6.70933 117.688 6.34133 117.485 6.032C117.293 5.712 117.037 5.46667 116.717 5.296C116.397 5.11467 116.04 5.024 115.645 5.024C115.261 5.024 114.909 5.11467 114.589 5.296C114.28 5.46667 114.024 5.712 113.821 6.032C113.629 6.34133 113.512 6.70933 113.469 7.136Z" fill="#1D884A"/>
</svg>
