<svg width="106" height="106" viewBox="0 0 106 106" fill="none" xmlns="http://www.w3.org/2000/svg">
<g opacity="0.2" clip-path="url(#clip0_18_1284)">
<path d="M83.9167 22.0834H70.6667V17.6667C70.6667 14.1526 69.2707 10.7824 66.7858 8.29752C64.301 5.81266 60.9308 4.41669 57.4167 4.41669H48.5833C45.0692 4.41669 41.699 5.81266 39.2142 8.29752C36.7293 10.7824 35.3333 14.1526 35.3333 17.6667V22.0834H22.0833C16.2286 22.0904 10.6157 24.4192 6.4758 28.5592C2.3359 32.6991 0.00701304 38.312 0 44.1667L0 79.5C0.00701304 85.3547 2.3359 90.9676 6.4758 95.1076C10.6157 99.2475 16.2286 101.576 22.0833 101.583H83.9167C89.7714 101.576 95.3843 99.2475 99.5242 95.1076C103.664 90.9676 105.993 85.3547 106 79.5V44.1667C105.993 38.312 103.664 32.6991 99.5242 28.5592C95.3843 24.4192 89.7714 22.0904 83.9167 22.0834ZM44.1667 17.6667C44.1667 16.4953 44.632 15.3719 45.4603 14.5436C46.2886 13.7153 47.412 13.25 48.5833 13.25H57.4167C58.588 13.25 59.7114 13.7153 60.5397 14.5436C61.368 15.3719 61.8333 16.4953 61.8333 17.6667V22.0834H44.1667V17.6667ZM97.1667 79.5C97.1667 83.0141 95.7707 86.3843 93.2858 88.8692C90.801 91.354 87.4308 92.75 83.9167 92.75H22.0833C18.5692 92.75 15.199 91.354 12.7142 88.8692C10.2293 86.3843 8.83333 83.0141 8.83333 79.5V44.1667C8.83333 40.6526 10.2293 37.2824 12.7142 34.7975C15.199 32.3127 18.5692 30.9167 22.0833 30.9167H83.9167C87.4308 30.9167 90.801 32.3127 93.2858 34.7975C95.7707 37.2824 97.1667 40.6526 97.1667 44.1667V79.5ZM70.6667 61.8334C70.6667 63.0047 70.2013 64.1281 69.3731 64.9564C68.5448 65.7847 67.4214 66.25 66.25 66.25H57.4167V75.0834C57.4167 76.2547 56.9513 77.3781 56.1231 78.2064C55.2948 79.0347 54.1714 79.5 53 79.5C51.8286 79.5 50.7052 79.0347 49.8769 78.2064C49.0487 77.3781 48.5833 76.2547 48.5833 75.0834V66.25H39.75C38.5786 66.25 37.4552 65.7847 36.6269 64.9564C35.7987 64.1281 35.3333 63.0047 35.3333 61.8334C35.3333 60.662 35.7987 59.5386 36.6269 58.7103C37.4552 57.882 38.5786 57.4167 39.75 57.4167H48.5833V48.5834C48.5833 47.412 49.0487 46.2886 49.8769 45.4603C50.7052 44.632 51.8286 44.1667 53 44.1667C54.1714 44.1667 55.2948 44.632 56.1231 45.4603C56.9513 46.2886 57.4167 47.412 57.4167 48.5834V57.4167H66.25C67.4214 57.4167 68.5448 57.882 69.3731 58.7103C70.2013 59.5386 70.6667 60.662 70.6667 61.8334Z" fill="white"/>
</g>
<defs>
<clipPath id="clip0_18_1284">
<rect width="106" height="106" fill="white"/>
</clipPath>
</defs>
</svg>
