<svg width="208" height="33" viewBox="0 0 208 33" fill="none" xmlns="http://www.w3.org/2000/svg">
<path d="M26.2573 0.875488C24.5682 0.901761 22.916 1.37327 21.4674 2.24239C20.0189 3.11152 18.8253 4.34749 18.0073 5.82549C17.1892 4.34749 15.9957 3.11152 14.5471 2.24239C13.0986 1.37327 11.4463 0.901761 9.75726 0.875488C7.06467 0.992474 4.52782 2.17037 2.70094 4.15184C0.874051 6.1333 -0.0943641 8.75728 0.00726165 11.4505C0.00726165 18.271 7.18626 25.72 13.2073 30.7705C14.5516 31.9002 16.2513 32.5195 18.0073 32.5195C19.7632 32.5195 21.4629 31.9002 22.8073 30.7705C28.8283 25.72 36.0073 18.271 36.0073 11.4505C36.1089 8.75728 35.1405 6.1333 33.3136 4.15184C31.4867 2.17037 28.9499 0.992474 26.2573 0.875488ZM20.8798 28.4755C20.0757 29.1526 19.0584 29.5238 18.0073 29.5238C16.9561 29.5238 15.9388 29.1526 15.1348 28.4755C7.42776 22.009 3.00726 15.805 3.00726 11.4505C2.90472 9.55256 3.55681 7.69108 4.82131 6.27204C6.0858 4.85299 7.86011 3.99151 9.75726 3.87549C11.6544 3.99151 13.4287 4.85299 14.6932 6.27204C15.9577 7.69108 16.6098 9.55256 16.5073 11.4505C16.5073 11.8483 16.6653 12.2298 16.9466 12.5111C17.2279 12.7925 17.6094 12.9505 18.0073 12.9505C18.4051 12.9505 18.7866 12.7925 19.0679 12.5111C19.3492 12.2298 19.5073 11.8483 19.5073 11.4505C19.4047 9.55256 20.0568 7.69108 21.3213 6.27204C22.5858 4.85299 24.3601 3.99151 26.2573 3.87549C28.1544 3.99151 29.9287 4.85299 31.1932 6.27204C32.4577 7.69108 33.1098 9.55256 33.0073 11.4505C33.0073 15.805 28.5868 22.009 20.8798 28.4695V28.4755Z" fill="white"/>
<path d="M25.0038 31.6701C25.5351 32.2015 26.2558 32.5 27.0073 32.5C27.7587 32.5 28.4794 32.2015 29.0107 31.6701C29.5421 31.1388 29.8406 30.4181 29.8406 29.6667V27.8333H31.6739C32.4254 27.8333 33.146 27.5348 33.6774 27.0035C34.2088 26.4721 34.5073 25.7514 34.5073 25C34.5073 24.2486 34.2088 23.5279 33.6774 22.9965C33.146 22.4652 32.4254 22.1667 31.6739 22.1667H29.8406V20.3333C29.8406 19.5819 29.5421 18.8612 29.0107 18.3299C28.4794 17.7985 27.7587 17.5 27.0073 17.5C26.2558 17.5 25.5351 17.7985 25.0038 18.3299C24.4724 18.8612 24.1739 19.5819 24.1739 20.3333V22.1667H22.3406C21.5891 22.1667 20.8685 22.4652 20.3371 22.9965C19.8058 23.5279 19.5073 24.2486 19.5073 25C19.5073 25.7514 19.8058 26.4721 20.3371 27.0035C20.8685 27.5348 21.5891 27.8333 22.3406 27.8333H24.1739V29.6667C24.1739 30.4181 24.4724 31.1388 25.0038 31.6701Z" fill="white" stroke="#1D884A"/>
<path d="M47.9273 23C47.6073 23 47.3739 22.9333 47.2273 22.8C47.0939 22.6533 47.0273 22.4333 47.0273 22.14V10.28C47.0273 9.98667 47.0939 9.76667 47.2273 9.62C47.3739 9.47333 47.6073 9.4 47.9273 9.4H53.7873C55.2539 9.4 56.3539 9.74 57.0873 10.42C57.8206 11.0867 58.1873 12.0133 58.1873 13.2C58.1873 13.8267 58.0339 14.3867 57.7273 14.88C57.4339 15.3733 57.0273 15.7267 56.5073 15.94C57.8806 16.3933 58.5673 17.4 58.5673 18.96C58.5673 19.72 58.3873 20.4067 58.0273 21.02C57.6806 21.6333 57.1473 22.12 56.4273 22.48C55.7206 22.8267 54.8406 23 53.7873 23H47.9273ZM53.2273 14.9C53.7606 14.9 54.1739 14.7667 54.4673 14.5C54.7606 14.2333 54.9073 13.8467 54.9073 13.34C54.9073 12.7933 54.7673 12.4067 54.4873 12.18C54.2206 11.94 53.8006 11.82 53.2273 11.82H50.3273V14.9H53.2273ZM53.5473 20.58C54.1339 20.58 54.5673 20.4267 54.8473 20.12C55.1406 19.8 55.2873 19.3867 55.2873 18.88C55.2873 18.3067 55.1206 17.88 54.7873 17.6C54.4539 17.3067 53.9873 17.16 53.3873 17.16H50.3273V20.58H53.5473ZM64.0309 23.3C62.7509 23.3 61.7242 22.9 60.9509 22.1C60.1909 21.3 59.8109 20.1733 59.8109 18.72C59.8109 17.6 60.0709 16.62 60.5909 15.78C61.1109 14.9267 61.8375 14.2667 62.7709 13.8C63.7042 13.3333 64.7842 13.1 66.0109 13.1C66.9575 13.1 67.7909 13.2067 68.5109 13.42C69.2442 13.6333 69.9109 13.94 70.5109 14.34V22.42C70.5109 22.6467 70.4642 22.8 70.3709 22.88C70.2909 22.96 70.1242 23 69.8709 23H68.2909C68.1442 23 68.0309 22.9733 67.9509 22.92C67.8842 22.8667 67.8309 22.78 67.7909 22.66L67.5709 21.96C67.1709 22.4267 66.6842 22.7667 66.1109 22.98C65.5375 23.1933 64.8442 23.3 64.0309 23.3ZM65.2509 21.02C65.8375 21.02 66.3442 20.8533 66.7709 20.52C67.2109 20.1867 67.4309 19.7333 67.4309 19.16V15.66C67.0309 15.46 66.5509 15.36 65.9909 15.36C65.1109 15.36 64.4042 15.6533 63.8709 16.24C63.3509 16.8133 63.0909 17.62 63.0909 18.66C63.0909 19.46 63.2709 20.0533 63.6309 20.44C63.9909 20.8267 64.5309 21.02 65.2509 21.02ZM77.5146 23.3C76.5546 23.3 75.6213 23.1733 74.7146 22.92C73.8213 22.6667 73.1013 22.34 72.5546 21.94V10.28C72.5546 9.98667 72.6213 9.76667 72.7546 9.62C72.9013 9.47333 73.1346 9.4 73.4546 9.4H74.8946C75.2279 9.4 75.4613 9.47333 75.5946 9.62C75.7279 9.75333 75.7946 9.97333 75.7946 10.28V13.84C76.1013 13.6 76.5013 13.42 76.9946 13.3C77.4879 13.1667 78.0013 13.1 78.5346 13.1C80.0813 13.1 81.2613 13.5133 82.0746 14.34C82.9013 15.1533 83.3146 16.3133 83.3146 17.82C83.3146 19.5533 82.8213 20.9 81.8346 21.86C80.8613 22.82 79.4213 23.3 77.5146 23.3ZM77.3546 21.02C78.2613 21.02 78.9346 20.76 79.3746 20.24C79.8146 19.7067 80.0346 18.9133 80.0346 17.86C80.0346 17.0067 79.8613 16.38 79.5146 15.98C79.1813 15.58 78.6279 15.38 77.8546 15.38C77.2946 15.38 76.8079 15.5267 76.3946 15.82C75.9946 16.1 75.7946 16.5133 75.7946 17.06V20.68C75.9813 20.7867 76.2146 20.8733 76.4946 20.94C76.7746 20.9933 77.0613 21.02 77.3546 21.02ZM88.2691 23.3C86.9891 23.3 85.9625 22.9 85.1891 22.1C84.4291 21.3 84.0491 20.1733 84.0491 18.72C84.0491 17.6 84.3091 16.62 84.8291 15.78C85.3491 14.9267 86.0758 14.2667 87.0091 13.8C87.9425 13.3333 89.0225 13.1 90.2491 13.1C91.1958 13.1 92.0291 13.2067 92.7491 13.42C93.4825 13.6333 94.1491 13.94 94.7491 14.34V22.42C94.7491 22.6467 94.7025 22.8 94.6091 22.88C94.5291 22.96 94.3625 23 94.1091 23H92.5291C92.3825 23 92.2691 22.9733 92.1891 22.92C92.1225 22.8667 92.0691 22.78 92.0291 22.66L91.8091 21.96C91.4091 22.4267 90.9225 22.7667 90.3491 22.98C89.7758 23.1933 89.0825 23.3 88.2691 23.3ZM89.4891 21.02C90.0758 21.02 90.5825 20.8533 91.0091 20.52C91.4491 20.1867 91.6691 19.7333 91.6691 19.16V15.66C91.2691 15.46 90.7891 15.36 90.2291 15.36C89.3491 15.36 88.6425 15.6533 88.1091 16.24C87.5891 16.8133 87.3291 17.62 87.3291 18.66C87.3291 19.46 87.5091 20.0533 87.8691 20.44C88.2291 20.8267 88.7691 21.02 89.4891 21.02ZM108.24 23C107.907 23 107.667 22.9333 107.52 22.8C107.387 22.6533 107.32 22.4333 107.32 22.14V11.84H104.04C103.72 11.84 103.5 11.78 103.38 11.66C103.26 11.5267 103.2 11.3067 103.2 11V10.26C103.2 9.95333 103.26 9.73333 103.38 9.6C103.5 9.46667 103.72 9.4 104.04 9.4H113.92C114.24 9.4 114.46 9.46667 114.58 9.6C114.713 9.73333 114.78 9.95333 114.78 10.26V11C114.78 11.2933 114.713 11.5067 114.58 11.64C114.46 11.7733 114.24 11.84 113.92 11.84H110.64V22.14C110.64 22.4333 110.567 22.6533 110.42 22.8C110.287 22.9333 110.053 23 109.72 23H108.24ZM121.312 23.3C120.232 23.3 119.258 23.12 118.392 22.76C117.538 22.3867 116.858 21.8333 116.352 21.1C115.858 20.3533 115.612 19.4333 115.612 18.34C115.612 16.6333 116.078 15.3333 117.012 14.44C117.958 13.5467 119.305 13.1 121.052 13.1C122.772 13.1 124.072 13.5333 124.952 14.4C125.845 15.2667 126.292 16.5 126.292 18.1C126.292 18.66 126.038 18.94 125.532 18.94H118.732C118.732 19.66 118.998 20.22 119.532 20.62C120.078 21.0067 120.825 21.2 121.772 21.2C122.332 21.2 122.818 21.1467 123.232 21.04C123.645 20.92 124.045 20.7533 124.432 20.54C124.565 20.4733 124.658 20.44 124.712 20.44C124.805 20.44 124.892 20.5133 124.972 20.66L125.552 21.74C125.605 21.8333 125.632 21.9133 125.632 21.98C125.632 22.0867 125.558 22.1933 125.412 22.3C124.878 22.6467 124.278 22.9 123.612 23.06C122.945 23.22 122.178 23.3 121.312 23.3ZM123.332 17.22C123.332 16.5533 123.145 16.0333 122.772 15.66C122.398 15.2867 121.832 15.1 121.072 15.1C120.312 15.1 119.732 15.2933 119.332 15.68C118.932 16.0533 118.732 16.5667 118.732 17.22H123.332ZM128.826 23C128.506 23 128.272 22.9333 128.126 22.8C127.992 22.6533 127.926 22.4333 127.926 22.14V10.28C127.926 9.98667 127.992 9.76667 128.126 9.62C128.272 9.47333 128.506 9.4 128.826 9.4H130.326C130.659 9.4 130.892 9.47333 131.026 9.62C131.159 9.75333 131.226 9.97333 131.226 10.28V22.14C131.226 22.4333 131.159 22.6533 131.026 22.8C130.892 22.9333 130.659 23 130.326 23H128.826ZM138.558 23.3C137.478 23.3 136.504 23.12 135.638 22.76C134.784 22.3867 134.104 21.8333 133.598 21.1C133.104 20.3533 132.858 19.4333 132.858 18.34C132.858 16.6333 133.324 15.3333 134.258 14.44C135.204 13.5467 136.551 13.1 138.298 13.1C140.018 13.1 141.318 13.5333 142.198 14.4C143.091 15.2667 143.538 16.5 143.538 18.1C143.538 18.66 143.284 18.94 142.778 18.94H135.978C135.978 19.66 136.244 20.22 136.778 20.62C137.324 21.0067 138.071 21.2 139.018 21.2C139.578 21.2 140.064 21.1467 140.478 21.04C140.891 20.92 141.291 20.7533 141.678 20.54C141.811 20.4733 141.904 20.44 141.958 20.44C142.051 20.44 142.138 20.5133 142.218 20.66L142.798 21.74C142.851 21.8333 142.878 21.9133 142.878 21.98C142.878 22.0867 142.804 22.1933 142.658 22.3C142.124 22.6467 141.524 22.9 140.858 23.06C140.191 23.22 139.424 23.3 138.558 23.3ZM140.578 17.22C140.578 16.5533 140.391 16.0333 140.018 15.66C139.644 15.2867 139.078 15.1 138.318 15.1C137.558 15.1 136.978 15.2933 136.578 15.68C136.178 16.0533 135.978 16.5667 135.978 17.22H140.578ZM146.092 23C145.758 23 145.518 22.9333 145.372 22.8C145.238 22.6533 145.172 22.4333 145.172 22.14V9.98C145.172 9.75333 145.212 9.6 145.292 9.52C145.372 9.44 145.532 9.4 145.772 9.4H147.632C147.872 9.4 148.032 9.44 148.112 9.52C148.205 9.6 148.252 9.75333 148.252 9.98V14.24C149.118 13.48 150.245 13.1 151.632 13.1C152.725 13.1 153.598 13.4 154.252 14C154.918 14.5867 155.252 15.4667 155.252 16.64V22.14C155.252 22.4333 155.178 22.6533 155.032 22.8C154.898 22.9333 154.672 23 154.352 23H152.852C152.518 23 152.278 22.9333 152.132 22.8C151.998 22.6533 151.932 22.4333 151.932 22.14V16.84C151.932 16.32 151.812 15.9467 151.572 15.72C151.332 15.4933 150.965 15.38 150.472 15.38C149.925 15.38 149.452 15.5333 149.052 15.84C148.665 16.1333 148.472 16.52 148.472 17V22.14C148.472 22.4333 148.405 22.6533 148.272 22.8C148.138 22.9333 147.905 23 147.572 23H146.092ZM162.484 23.3C161.404 23.3 160.43 23.12 159.564 22.76C158.71 22.3867 158.03 21.8333 157.524 21.1C157.03 20.3533 156.784 19.4333 156.784 18.34C156.784 16.6333 157.25 15.3333 158.184 14.44C159.13 13.5467 160.477 13.1 162.224 13.1C163.944 13.1 165.244 13.5333 166.124 14.4C167.017 15.2667 167.464 16.5 167.464 18.1C167.464 18.66 167.21 18.94 166.704 18.94H159.904C159.904 19.66 160.17 20.22 160.704 20.62C161.25 21.0067 161.997 21.2 162.944 21.2C163.504 21.2 163.99 21.1467 164.404 21.04C164.817 20.92 165.217 20.7533 165.604 20.54C165.737 20.4733 165.83 20.44 165.884 20.44C165.977 20.44 166.064 20.5133 166.144 20.66L166.724 21.74C166.777 21.8333 166.804 21.9133 166.804 21.98C166.804 22.0867 166.73 22.1933 166.584 22.3C166.05 22.6467 165.45 22.9 164.784 23.06C164.117 23.22 163.35 23.3 162.484 23.3ZM164.504 17.22C164.504 16.5533 164.317 16.0333 163.944 15.66C163.57 15.2867 163.004 15.1 162.244 15.1C161.484 15.1 160.904 15.2933 160.504 15.68C160.104 16.0533 159.904 16.5667 159.904 17.22H164.504ZM172.918 23.3C171.638 23.3 170.611 22.9 169.838 22.1C169.078 21.3 168.698 20.1733 168.698 18.72C168.698 17.6 168.958 16.62 169.478 15.78C169.998 14.9267 170.724 14.2667 171.658 13.8C172.591 13.3333 173.671 13.1 174.898 13.1C175.844 13.1 176.678 13.2067 177.398 13.42C178.131 13.6333 178.798 13.94 179.398 14.34V22.42C179.398 22.6467 179.351 22.8 179.258 22.88C179.178 22.96 179.011 23 178.758 23H177.178C177.031 23 176.918 22.9733 176.838 22.92C176.771 22.8667 176.718 22.78 176.678 22.66L176.458 21.96C176.058 22.4267 175.571 22.7667 174.998 22.98C174.424 23.1933 173.731 23.3 172.918 23.3ZM174.138 21.02C174.724 21.02 175.231 20.8533 175.658 20.52C176.098 20.1867 176.318 19.7333 176.318 19.16V15.66C175.918 15.46 175.438 15.36 174.878 15.36C173.998 15.36 173.291 15.6533 172.758 16.24C172.238 16.8133 171.978 17.62 171.978 18.66C171.978 19.46 172.158 20.0533 172.518 20.44C172.878 20.8267 173.418 21.02 174.138 21.02ZM182.341 23C182.021 23 181.788 22.9333 181.641 22.8C181.508 22.6533 181.441 22.4333 181.441 22.14V10.28C181.441 9.98667 181.508 9.76667 181.641 9.62C181.788 9.47333 182.021 9.4 182.341 9.4H183.841C184.175 9.4 184.408 9.47333 184.541 9.62C184.675 9.75333 184.741 9.97333 184.741 10.28V22.14C184.741 22.4333 184.675 22.6533 184.541 22.8C184.408 22.9333 184.175 23 183.841 23H182.341ZM191.473 23.3C190.26 23.3 189.34 22.9667 188.713 22.3C188.087 21.6333 187.773 20.7133 187.773 19.54V15.72H186.793C186.473 15.72 186.26 15.66 186.153 15.54C186.047 15.42 185.993 15.2067 185.993 14.9V14.24C185.993 13.9333 186.047 13.72 186.153 13.6C186.26 13.4667 186.473 13.4 186.793 13.4H187.773V12.6C187.773 12.3067 187.833 12.02 187.953 11.74C188.087 11.4467 188.273 11.0867 188.513 10.66C188.62 10.4733 188.72 10.3533 188.813 10.3C188.907 10.2333 189.073 10.2 189.313 10.2H190.233C190.54 10.2 190.753 10.2667 190.873 10.4C191.007 10.5333 191.073 10.7467 191.073 11.04V13.4H193.053C193.373 13.4 193.587 13.4667 193.693 13.6C193.8 13.72 193.853 13.9333 193.853 14.24V14.9C193.853 15.2067 193.8 15.42 193.693 15.54C193.587 15.66 193.373 15.72 193.053 15.72H191.073V19.46C191.073 19.98 191.167 20.3533 191.353 20.58C191.54 20.8067 191.853 20.92 192.293 20.92C192.56 20.92 192.78 20.8867 192.953 20.82C193.14 20.7533 193.347 20.6467 193.573 20.5C193.68 20.4333 193.76 20.4 193.813 20.4C193.933 20.4 194.033 20.4733 194.113 20.62L194.853 21.88C194.92 21.9867 194.953 22.0733 194.953 22.14C194.953 22.2333 194.873 22.3333 194.713 22.44C193.873 23.0133 192.793 23.3 191.473 23.3ZM197.127 23C196.794 23 196.554 22.9333 196.407 22.8C196.274 22.6533 196.207 22.4333 196.207 22.14V9.98C196.207 9.75333 196.247 9.6 196.327 9.52C196.407 9.44 196.567 9.4 196.807 9.4H198.667C198.907 9.4 199.067 9.44 199.147 9.52C199.24 9.6 199.287 9.75333 199.287 9.98V14.24C200.154 13.48 201.28 13.1 202.667 13.1C203.76 13.1 204.634 13.4 205.287 14C205.954 14.5867 206.287 15.4667 206.287 16.64V22.14C206.287 22.4333 206.214 22.6533 206.067 22.8C205.934 22.9333 205.707 23 205.387 23H203.887C203.554 23 203.314 22.9333 203.167 22.8C203.034 22.6533 202.967 22.4333 202.967 22.14V16.84C202.967 16.32 202.847 15.9467 202.607 15.72C202.367 15.4933 202 15.38 201.507 15.38C200.96 15.38 200.487 15.5333 200.087 15.84C199.7 16.1333 199.507 16.52 199.507 17V22.14C199.507 22.4333 199.44 22.6533 199.307 22.8C199.174 22.9333 198.94 23 198.607 23H197.127Z" fill="white"/>
</svg>
