<svg width="19" height="19" viewBox="0 0 19 19" fill="none" xmlns="http://www.w3.org/2000/svg">
<path opacity="0.2" d="M9.5 19C8.66015 19 7.85469 18.6664 7.26083 18.0725C6.66696 17.4786 6.33333 16.6732 6.33333 15.8333V12.6667H3.16667C2.32681 12.6667 1.52136 12.333 0.927495 11.7392C0.33363 11.1453 0 10.3399 0 9.5C0 8.66015 0.33363 7.85469 0.927495 7.26083C1.52136 6.66696 2.32681 6.33333 3.16667 6.33333H6.33333V3.16667C6.33333 2.32681 6.66696 1.52136 7.26083 0.927495C7.85469 0.33363 8.66015 0 9.5 0C10.3399 0 11.1453 0.33363 11.7392 0.927495C12.333 1.52136 12.6667 2.32681 12.6667 3.16667V6.33333H15.8333C16.6732 6.33333 17.4786 6.66696 18.0725 7.26083C18.6664 7.85469 19 8.66015 19 9.5C19 10.3399 18.6664 11.1453 18.0725 11.7392C17.4786 12.333 16.6732 12.6667 15.8333 12.6667H12.6667V15.8333C12.6667 16.6732 12.333 17.4786 11.7392 18.0725C11.1453 18.6664 10.3399 19 9.5 19Z" fill="#1D884A"/>
</svg>
