<svg width="39" height="39" viewBox="0 0 39 39" fill="none" xmlns="http://www.w3.org/2000/svg">
<g clip-path="url(#clip0_2_69)">
<path d="M39 14.625C39.0037 13.7304 38.7612 12.852 38.299 12.0861C37.8368 11.3202 37.1727 10.6962 36.3795 10.2824C35.5863 9.86873 34.6946 9.68125 33.802 9.74054C32.9093 9.79982 32.0502 10.1036 31.3187 10.6186C30.5872 11.1336 30.0115 11.8399 29.6547 12.6602C29.2978 13.4806 29.1736 14.3833 29.2956 15.2695C29.4176 16.1558 29.7811 16.9914 30.3463 17.6848C30.9115 18.3783 31.6566 18.9028 32.5 19.201V26C32.5 28.5859 31.4728 31.0658 29.6443 32.8943C27.8158 34.7228 25.3359 35.75 22.75 35.75C20.1641 35.75 17.6842 34.7228 15.8557 32.8943C14.0272 31.0658 13 28.5859 13 26V25.87C15.7041 25.4777 18.1769 24.1258 19.967 22.0613C21.757 19.9969 22.7448 17.3574 22.75 14.625V8.125C22.7474 5.97091 21.8906 3.90578 20.3674 2.38261C18.8442 0.859433 16.7791 0.00258027 14.625 0C14.194 0 13.7807 0.171205 13.476 0.475952C13.1712 0.780698 13 1.19402 13 1.625C13 2.05598 13.1712 2.4693 13.476 2.77405C13.7807 3.0788 14.194 3.25 14.625 3.25C15.9179 3.25 17.1579 3.76361 18.0721 4.67785C18.9864 5.59209 19.5 6.83207 19.5 8.125V14.625C19.5 16.7799 18.644 18.8465 17.1202 20.3702C15.5965 21.894 13.5299 22.75 11.375 22.75C9.22012 22.75 7.15349 21.894 5.62976 20.3702C4.10602 18.8465 3.25 16.7799 3.25 14.625V8.125C3.25 6.83207 3.76362 5.59209 4.67785 4.67785C5.59209 3.76361 6.83207 3.25 8.125 3.25C8.55598 3.25 8.9693 3.0788 9.27405 2.77405C9.5788 2.4693 9.75 2.05598 9.75 1.625C9.75 1.19402 9.5788 0.780698 9.27405 0.475952C8.9693 0.171205 8.55598 0 8.125 0C5.97091 0.00258027 3.90578 0.859433 2.38261 2.38261C0.859433 3.90578 0.00258027 5.97091 0 8.125L0 14.625C0.00522592 17.3574 0.993024 19.9969 2.78304 22.0613C4.57305 24.1258 7.04587 25.4777 9.75 25.87V26C9.75 29.4478 11.1196 32.7544 13.5576 35.1924C15.9956 37.6304 19.3022 39 22.75 39C26.1978 39 29.5044 37.6304 31.9424 35.1924C34.3804 32.7544 35.75 29.4478 35.75 26V19.201C36.6972 18.8661 37.5179 18.2467 38.0996 17.4276C38.6814 16.6085 38.9958 15.6297 39 14.625V14.625ZM34.125 16.25C33.8036 16.25 33.4894 16.1547 33.2222 15.9761C32.955 15.7976 32.7467 15.5438 32.6237 15.2469C32.5007 14.9499 32.4685 14.6232 32.5312 14.308C32.5939 13.9928 32.7487 13.7032 32.976 13.476C33.2032 13.2487 33.4928 13.0939 33.808 13.0312C34.1232 12.9685 34.4499 13.0007 34.7469 13.1237C35.0438 13.2467 35.2976 13.455 35.4761 13.7222C35.6547 13.9894 35.75 14.3036 35.75 14.625C35.75 15.056 35.5788 15.4693 35.2741 15.774C34.9693 16.0788 34.556 16.25 34.125 16.25Z" fill="#F2994A"/>
</g>
<defs>
<clipPath id="clip0_2_69">
<rect width="39" height="39" fill="white"/>
</clipPath>
</defs>
</svg>
