<svg width="56" height="57" viewBox="0 0 56 57" fill="none" xmlns="http://www.w3.org/2000/svg">
<g clip-path="url(#clip0_32_1511)">
<path d="M20.907 56.9271H9.32828C6.85427 56.9271 4.48158 55.9443 2.73219 54.1949C0.982798 52.4455 0 50.0728 0 47.5988V35.9384C0 33.4644 0.982798 31.0918 2.73219 29.3424C4.48158 27.593 6.85427 26.6102 9.32828 26.6102H29.9834C31.2456 26.6108 32.4861 26.9372 33.5852 27.5577C34.6842 28.1783 35.6044 29.0721 36.2567 30.1526L43.759 21.9087C44.3795 21.2263 45.1285 20.6729 45.963 20.2801C46.7975 19.8874 47.7013 19.6629 48.6226 19.6196C49.544 19.5763 50.4648 19.7149 51.3325 20.0277C52.2002 20.3404 52.9978 20.8211 53.6796 21.4423C55.0401 22.6921 55.8554 24.4262 55.95 26.2711C56.0447 28.1161 55.4111 29.9245 54.1857 31.307L38.3276 49.117C36.138 51.5727 33.4542 53.5379 30.452 54.8839C27.4498 56.2298 24.1971 56.9261 20.907 56.9271ZM9.32828 31.2743C8.09127 31.2743 6.90493 31.7657 6.03024 32.6404C5.15554 33.5151 4.66414 34.7014 4.66414 35.9384V47.5988C4.66414 48.8358 5.15554 50.0221 6.03024 50.8968C6.90493 51.7715 8.09127 52.2629 9.32828 52.2629H20.907C23.5374 52.2619 26.1379 51.705 28.538 50.6287C30.9381 49.5524 33.0837 47.9811 34.8341 46.0177L50.7039 28.2053C51.1159 27.7412 51.3292 27.1338 51.2978 26.514C51.2664 25.8942 50.9928 25.3115 50.536 24.8914C50.0714 24.4738 49.4624 24.2538 48.8382 24.2781C48.5288 24.2912 48.2251 24.3658 47.9448 24.4975C47.6645 24.6292 47.4133 24.8155 47.2058 25.0454L36.884 36.4049C36.4309 37.659 35.6457 38.7665 34.6123 39.6093C33.579 40.4521 32.3362 40.9985 31.0165 41.1903L18.9807 42.9113C18.3684 42.9992 17.7463 42.8402 17.2512 42.4693C16.7561 42.0984 16.4286 41.5461 16.3408 40.9337C16.253 40.3214 16.412 39.6993 16.7829 39.2042C17.1537 38.7091 17.7061 38.3817 18.3184 38.2938L30.3566 36.5751C31.0248 36.4817 31.6326 36.1381 32.0573 35.6138C32.482 35.0895 32.6919 34.4236 32.6445 33.7505C32.5971 33.0775 32.296 32.4475 31.8021 31.9879C31.3081 31.5282 30.6581 31.2732 29.9834 31.2743H9.32828ZM25.6528 22.1186C24.5958 22.1214 23.5696 21.7627 22.7447 21.1018C18.7522 17.8976 13.9924 13.0842 13.9924 8.42002C13.9352 6.50391 14.6391 4.64311 15.9502 3.24461C17.2612 1.84611 19.0728 1.02375 20.9886 0.957397C22.7315 0.964186 24.4037 1.64726 25.6528 2.8627C26.9019 1.64726 28.5741 0.964186 30.3169 0.957397C32.2327 1.02375 34.0443 1.84611 35.3554 3.24461C36.6665 4.64311 37.3704 6.50391 37.3131 8.42002C37.3131 13.0842 32.5534 17.8976 28.5585 21.1042C27.7339 21.7636 26.7087 22.1216 25.6528 22.1186ZM20.9886 5.62154C20.3108 5.68955 19.6868 6.02083 19.2507 6.54416C18.8145 7.06749 18.6012 7.74105 18.6566 8.42002C18.6566 10.5189 21.3408 13.9937 25.6668 17.4661C29.9648 13.9937 32.649 10.5189 32.649 8.42002C32.7043 7.74105 32.491 7.06749 32.0549 6.54416C31.6188 6.02083 30.9947 5.68955 30.3169 5.62154C29.6391 5.68955 29.015 6.02083 28.5789 6.54416C28.1428 7.06749 27.9295 7.74105 27.9848 8.42002C27.9848 9.03853 27.7391 9.6317 27.3018 10.069C26.8644 10.5064 26.2713 10.7521 25.6528 10.7521C25.0343 10.7521 24.4411 10.5064 24.0038 10.069C23.5664 9.6317 23.3207 9.03853 23.3207 8.42002C23.376 7.74105 23.1627 7.06749 22.7266 6.54416C22.2905 6.02083 21.6664 5.68955 20.9886 5.62154Z" fill="#1D884A"/>
</g>
<defs>
<clipPath id="clip0_32_1511">
<rect width="55.9697" height="55.9697" fill="white" transform="translate(0 0.957397)"/>
</clipPath>
</defs>
</svg>
