<svg width="36" height="36" viewBox="0 0 36 36" fill="none" xmlns="http://www.w3.org/2000/svg">
<g clip-path="url(#clip0_3_17)">
<path d="M26.25 2.8755C24.5609 2.90178 22.9087 3.37328 21.4601 4.24241C20.0116 5.11154 18.818 6.34751 18 7.8255C17.182 6.34751 15.9884 5.11154 14.5399 4.24241C13.0913 3.37328 11.4391 2.90178 9.75 2.8755C7.05741 2.99249 4.52056 4.17038 2.69367 6.15185C0.866788 8.13332 -0.101627 10.7573 -1.52877e-06 13.4505C-1.52877e-06 20.271 7.179 27.72 13.2 32.7705C14.5443 33.9002 16.244 34.5195 18 34.5195C19.756 34.5195 21.4557 33.9002 22.8 32.7705C28.821 27.72 36 20.271 36 13.4505C36.1016 10.7573 35.1332 8.13332 33.3063 6.15185C31.4794 4.17038 28.9426 2.99249 26.25 2.8755ZM20.8725 30.4755C20.0685 31.1526 19.0511 31.5239 18 31.5239C16.9489 31.5239 15.9315 31.1526 15.1275 30.4755C7.4205 24.009 3 17.805 3 13.4505C2.89746 11.5526 3.54955 9.6911 4.81404 8.27205C6.07854 6.85301 7.85285 5.99153 9.75 5.8755C11.6471 5.99153 13.4215 6.85301 14.686 8.27205C15.9504 9.6911 16.6025 11.5526 16.5 13.4505C16.5 13.8483 16.658 14.2299 16.9393 14.5112C17.2206 14.7925 17.6022 14.9505 18 14.9505C18.3978 14.9505 18.7794 14.7925 19.0607 14.5112C19.342 14.2299 19.5 13.8483 19.5 13.4505C19.3975 11.5526 20.0495 9.6911 21.314 8.27205C22.5785 6.85301 24.3528 5.99153 26.25 5.8755C28.1471 5.99153 29.9215 6.85301 31.186 8.27205C32.4504 9.6911 33.1025 11.5526 33 13.4505C33 17.805 28.5795 24.009 20.8725 30.4695V30.4755Z" fill="#1D884A"/>
<path d="M24.9965 33.6701C25.5279 34.2015 26.2486 34.5 27 34.5C27.7514 34.5 28.4721 34.2015 29.0035 33.6701C29.5348 33.1388 29.8333 32.4181 29.8333 31.6667V29.8333H31.6667C32.4181 29.8333 33.1388 29.5348 33.6701 29.0035C34.2015 28.4721 34.5 27.7514 34.5 27C34.5 26.2486 34.2015 25.5279 33.6701 24.9965C33.1388 24.4652 32.4181 24.1667 31.6667 24.1667H29.8333V22.3333C29.8333 21.5819 29.5348 20.8612 29.0035 20.3299C28.4721 19.7985 27.7514 19.5 27 19.5C26.2486 19.5 25.5279 19.7985 24.9965 20.3299C24.4652 20.8612 24.1667 21.5819 24.1667 22.3333V24.1667H22.3333C21.5819 24.1667 20.8612 24.4652 20.3299 24.9965C19.7985 25.5279 19.5 26.2486 19.5 27C19.5 27.7514 19.7985 28.4721 20.3299 29.0035C20.8612 29.5348 21.5819 29.8333 22.3333 29.8333H24.1667V31.6667C24.1667 32.4181 24.4652 33.1388 24.9965 33.6701Z" fill="#1D884A" stroke="white"/>
</g>
<defs>
<clipPath id="clip0_3_17">
<rect width="36" height="36" fill="white"/>
</clipPath>
</defs>
</svg>
