<svg width="81" height="81" viewBox="0 0 81 81" fill="none" xmlns="http://www.w3.org/2000/svg">
<circle opacity="0.1" cx="40.5" cy="40.5" r="40.5" fill="#333333"/>
<circle cx="40.5" cy="40.5" r="40.5" fill="#E0E0E0"/>
<path d="M36.1406 28.8952H44.8594C45.1258 28.8952 45.3438 29.1124 45.3438 29.3778V31.7904H35.6562V29.3778C35.6562 29.1124 35.8742 28.8952 36.1406 28.8952ZM32.75 29.3778V31.7904H28.875C26.7377 31.7904 25 33.5215 25 35.6507V51.0919C25 53.2211 26.7377 54.9522 28.875 54.9522H52.125C54.2623 54.9522 56 53.2211 56 51.0919V35.6507C56 33.5215 54.2623 31.7904 52.125 31.7904H48.25V29.3778C48.25 27.514 46.7303 26 44.8594 26H36.1406C34.2697 26 32.75 27.514 32.75 29.3778ZM38.5625 38.546C38.5625 38.0152 38.9984 37.5809 39.5312 37.5809H41.4688C42.0016 37.5809 42.4375 38.0152 42.4375 38.546V41.4412H45.3438C45.8766 41.4412 46.3125 41.8755 46.3125 42.4062V44.3364C46.3125 44.8672 45.8766 45.3015 45.3438 45.3015H42.4375V48.1967C42.4375 48.7275 42.0016 49.1618 41.4688 49.1618H39.5312C38.9984 49.1618 38.5625 48.7275 38.5625 48.1967V45.3015H35.6562C35.1234 45.3015 34.6875 44.8672 34.6875 44.3364V42.4062C34.6875 41.8755 35.1234 41.4412 35.6562 41.4412H38.5625V38.546Z" fill="#1D884A"/>
</svg>
