<svg width="24" height="19" viewBox="0 0 24 19" fill="none" xmlns="http://www.w3.org/2000/svg">
<g clip-path="url(#clip0_116_459)">
<path d="M7.33125 16.4951C7.24875 16.4098 7.20375 16.3021 7.14 16.2057C6.9429 16.3564 6.723 16.4854 6.46275 16.5543C4.0395 17.1974 4.04588 17.2193 3.678 17.2193C2.54175 17.2193 1.50675 16.345 1.88625 14.9378C2.65125 12.096 3.86287 9.37884 5.48775 6.86653C6.35213 5.51538 6.438 5.34505 6.9735 5.34505C7.42163 5.34505 7.80037 5.64597 7.80037 6.00188V6.93259C8.04829 6.80887 8.3205 6.73654 8.60625 6.73654C8.96535 6.73654 9.30825 6.84041 9.60075 7.03289L9.60225 6.00311C9.60225 4.65678 8.42625 3.56428 6.97538 3.56428C5.32613 3.56428 4.80113 4.62413 3.972 5.907C2.24738 8.57227 0.958125 11.4594 0.145575 14.4764C0.0483375 14.8363 0 15.2074 0 15.5785C0 17.5204 1.71075 19.0011 3.67725 19.0011C4.35563 19.0011 4.5945 18.8961 6.92813 18.2775C7.7445 18.0612 8.42475 17.595 8.89725 16.9887C8.80121 17.0042 8.70495 17.0168 8.60573 17.0168C8.12625 17.0146 7.6725 16.8291 7.33125 16.4951ZM12.8663 5.59238V0.857227C12.8663 0.398555 12.495 0 11.9663 0C11.4375 0 11.0663 0.398555 11.0663 0.857227V5.59238C11.332 5.43894 11.637 5.34468 11.9325 5.34468C12.228 5.34468 12.6338 5.43652 12.8663 5.59238ZM15.8175 15.6527C16.0519 15.4208 16.0519 15.0453 15.8175 14.8133L15.4959 14.4951C14.7399 13.7469 15.2754 12.4678 16.3445 12.4678H16.8C17.1317 12.4678 17.4 12.2022 17.4 11.874C17.4 11.5458 17.13 11.2479 16.8 11.2479H16.3455C15.2764 11.2479 14.7409 9.96869 15.4969 9.22057L15.8185 8.90228C16.0529 8.67035 16.0529 8.2948 15.8185 8.06287C15.5841 7.83093 15.2042 7.83093 14.9702 8.06287L14.6486 8.38115C13.8938 9.1623 12.6 8.63164 12.6 7.57402V7.12426C12.6 6.79606 12.3317 6.56391 12 6.56391C11.6684 6.56391 11.4 6.82946 11.4 7.12426V7.57402C11.4 8.63201 10.1074 9.16193 9.35138 8.41381L9.03 8.09727C8.79563 7.86533 8.41575 7.86533 8.18175 8.09727C7.94775 8.3292 7.94737 8.70475 8.18175 8.93668L8.50335 9.25497C9.25935 10.0031 8.72389 11.2823 7.65473 11.2823H7.2C6.86835 11.2823 6.6 11.5478 6.6 11.876C6.6 12.2042 6.86835 12.4698 7.2 12.4698H7.6545C8.72363 12.4698 9.25913 13.7489 8.50313 14.497L8.18153 14.8153C7.94715 15.0472 7.94715 15.4228 8.18153 15.6547C8.29871 15.7707 8.45224 15.8287 8.60565 15.8287C8.75906 15.8287 8.9127 15.7707 9.02978 15.6547L9.35138 15.3365C10.1062 14.5877 11.4 15.1184 11.4 16.176V16.6257C11.4 16.9539 11.6684 17.2195 12 17.2195C12.3317 17.2195 12.6 16.9539 12.6 16.6257V16.176C12.6 15.118 13.8926 14.5884 14.6486 15.3362L14.9702 15.6544C15.0874 15.7704 15.2409 15.8284 15.3944 15.8284C15.5478 15.8284 15.7013 15.7678 15.8175 15.6527ZM10.8 11.2479C10.4687 11.2479 10.2 10.9821 10.2 10.6875C10.2 10.3609 10.47 10.0604 10.8 10.0604C11.13 10.0604 11.4 10.3261 11.4 10.6207C11.4 11.0141 11.13 11.2479 10.8 11.2479ZM13.2 13.6229C12.8687 13.6229 12.6 13.3569 12.6 13.0291C12.6 12.7011 12.8687 12.4688 13.2 12.4688C13.5314 12.4688 13.8 12.7346 13.8 13.0625C13.8 13.3891 13.53 13.6229 13.2 13.6229ZM23.8538 14.4764C23.0411 11.459 21.7519 8.57227 20.0287 5.9041C19.1996 4.6216 18.6746 3.56139 17.0254 3.56139C15.5745 3.56139 14.4 4.65426 14.4 6.00059V7.03C14.6923 6.83748 15.0353 6.73364 15.3945 6.73364C15.6804 6.73364 15.9521 6.80612 16.2004 6.92995V6.00059C16.2004 5.64456 16.5788 5.34375 17.0273 5.34375C17.5627 5.34375 17.6483 5.51423 18.513 6.86523C20.1379 9.37865 21.3495 12.0939 22.1145 14.9365C22.494 16.3437 21.4594 17.218 20.3228 17.218C19.9548 17.218 19.9613 17.196 17.5384 16.5534C17.2778 16.4842 17.0576 16.3548 16.8604 16.2037C16.7954 16.3003 16.7532 16.4079 16.6672 16.4931C16.3272 16.8295 15.8752 17.0148 15.3944 17.0148C15.2956 17.0148 15.1989 17.0021 15.1033 16.9867C15.5754 17.5931 16.256 18.0592 17.0724 18.2755C19.4063 18.8961 19.6425 19 20.3213 19C22.29 19 24 17.5193 24 15.5785C23.9663 15.2074 23.9513 14.8363 23.8538 14.4764Z" fill="#1D884A"/>
</g>
<defs>
<clipPath id="clip0_116_459">
<rect width="24" height="19" fill="white"/>
</clipPath>
</defs>
</svg>
