<svg width="20" height="19" viewBox="0 0 20 19" fill="none" xmlns="http://www.w3.org/2000/svg">
<g clip-path="url(#clip0_58_3639)">
<path d="M10 4.75C9.34074 4.75 8.69627 4.93572 8.14811 5.28368C7.59994 5.63164 7.1727 6.1262 6.92041 6.70484C6.66812 7.28347 6.6021 7.92018 6.73072 8.53445C6.85934 9.14873 7.17681 9.71297 7.64298 10.1558C8.10916 10.5987 8.7031 10.9003 9.34971 11.0225C9.99631 11.1447 10.6665 11.082 11.2756 10.8423C11.8847 10.6026 12.4053 10.1967 12.7716 9.67597C13.1378 9.15522 13.3333 8.54297 13.3333 7.91667C13.3333 7.07681 12.9822 6.27136 12.357 5.6775C11.7319 5.08363 10.8841 4.75 10 4.75ZM10 9.5C9.67037 9.5 9.34814 9.40714 9.07406 9.23316C8.79997 9.05918 8.58635 8.8119 8.46021 8.52258C8.33406 8.23327 8.30106 7.91491 8.36536 7.60777C8.42967 7.30064 8.58841 7.01851 8.8215 6.79708C9.05458 6.57565 9.35156 6.42485 9.67486 6.36376C9.99816 6.30266 10.3333 6.33402 10.6378 6.45386C10.9424 6.5737 11.2027 6.77664 11.3858 7.03701C11.5689 7.29739 11.6667 7.60351 11.6667 7.91667C11.6667 8.33659 11.4911 8.73932 11.1785 9.03625C10.866 9.33319 10.442 9.5 10 9.5Z" fill="#828282"/>
<path d="M10 19C9.29829 19.0034 8.60593 18.8471 7.98089 18.544C7.35585 18.241 6.81633 17.8001 6.4075 17.2583C3.23167 13.0965 1.62083 9.96787 1.62083 7.95862C1.62083 5.84744 2.50364 3.82273 4.07504 2.3299C5.64643 0.837076 7.77771 -0.00158691 10 -0.00158691C12.2223 -0.00158691 14.3536 0.837076 15.925 2.3299C17.4964 3.82273 18.3792 5.84744 18.3792 7.95862C18.3792 9.96787 16.7683 13.0965 13.5925 17.2583C13.1837 17.8001 12.6442 18.241 12.0191 18.544C11.3941 18.8471 10.7017 19.0034 10 19ZM10 1.72662C8.26035 1.72851 6.59252 2.38586 5.36239 3.55448C4.13227 4.72309 3.44032 6.30754 3.43833 7.96021C3.43833 9.55146 5.01583 12.4941 7.87917 16.2458C8.12225 16.5639 8.44114 16.8227 8.80976 17.0013C9.17838 17.1798 9.58625 17.2728 10 17.2728C10.4138 17.2728 10.8216 17.1798 11.1902 17.0013C11.5589 16.8227 11.8778 16.5639 12.1208 16.2458C14.9842 12.4941 16.5617 9.55146 16.5617 7.96021C16.5597 6.30754 15.8677 4.72309 14.6376 3.55448C13.4075 2.38586 11.7397 1.72851 10 1.72662Z" fill="#828282"/>
</g>
<defs>
<clipPath id="clip0_58_3639">
<rect width="20" height="19" fill="white"/>
</clipPath>
</defs>
</svg>
