<svg width="300" height="284" viewBox="0 0 300 284" fill="none" xmlns="http://www.w3.org/2000/svg">
<path d="M212.653 226.802C212.509 226.551 212.436 226.266 212.443 225.977C212.449 225.687 212.534 225.405 212.689 225.161C212.845 225.407 212.925 225.695 212.918 225.987C212.912 226.279 212.82 226.562 212.653 226.802Z" fill="#EF6451"/>
<path d="M211.99 268.832C211.835 268.632 211.747 268.389 211.74 268.136C211.732 267.883 211.806 267.634 211.949 267.426C212.104 267.626 212.192 267.869 212.199 268.122C212.206 268.375 212.133 268.624 211.99 268.832Z" fill="#EF6451"/>
<path d="M212.226 273.763C212.069 273.564 211.981 273.319 211.974 273.066C211.967 272.812 212.043 272.563 212.189 272.356C212.345 272.555 212.434 272.799 212.441 273.053C212.447 273.307 212.372 273.556 212.226 273.763Z" fill="#EF6451"/>
<path d="M212.42 231.029C212.281 230.863 212.208 230.651 212.216 230.434C212.224 230.218 212.311 230.012 212.462 229.856C212.601 230.022 212.674 230.234 212.666 230.45C212.658 230.667 212.571 230.873 212.42 231.029Z" fill="#EF6451"/>
<path d="M211.76 264.606C211.608 264.451 211.52 264.245 211.512 264.028C211.505 263.811 211.578 263.599 211.719 263.434C211.867 263.591 211.953 263.796 211.961 264.012C211.969 264.228 211.897 264.439 211.76 264.606Z" fill="#EF6451"/>
<path d="M212.458 277.989C212.309 277.833 212.222 277.626 212.216 277.41C212.209 277.193 212.283 276.982 212.422 276.817C212.572 276.973 212.658 277.18 212.665 277.396C212.672 277.612 212.598 277.824 212.458 277.989Z" fill="#EF6451"/>
<path d="M211.95 237.368C211.885 237.307 211.834 237.232 211.8 237.15C211.766 237.067 211.751 236.978 211.755 236.889C211.759 236.8 211.783 236.713 211.824 236.633C211.865 236.554 211.923 236.485 211.993 236.43C212.058 236.491 212.109 236.565 212.143 236.648C212.176 236.731 212.192 236.82 212.188 236.909C212.183 236.998 212.16 237.085 212.119 237.164C212.078 237.244 212.02 237.313 211.95 237.368Z" fill="#EF6451"/>
<path d="M211.255 245.587C211.189 245.526 211.138 245.452 211.104 245.369C211.071 245.286 211.055 245.197 211.059 245.108C211.063 245.019 211.086 244.932 211.127 244.852C211.167 244.773 211.225 244.703 211.295 244.648C211.36 244.709 211.412 244.783 211.445 244.866C211.479 244.949 211.495 245.038 211.491 245.127C211.487 245.216 211.464 245.303 211.423 245.383C211.382 245.462 211.325 245.532 211.255 245.587Z" fill="#EF6451"/>
<path d="M149.195 227.981C149.253 228.02 149.301 228.075 149.332 228.138C149.364 228.202 149.378 228.272 149.374 228.343C149.37 228.414 149.348 228.483 149.309 228.542C149.271 228.602 149.218 228.65 149.155 228.683C149.099 228.642 149.054 228.587 149.024 228.524C148.995 228.461 148.981 228.391 148.985 228.321C148.989 228.252 149.01 228.184 149.047 228.124C149.083 228.065 149.134 228.016 149.195 227.981Z" fill="#EF6451"/>
<path d="M211.727 239.952C211.668 239.913 211.62 239.859 211.587 239.796C211.555 239.733 211.539 239.662 211.542 239.591C211.546 239.52 211.567 239.451 211.605 239.39C211.643 239.33 211.696 239.281 211.759 239.248C211.816 239.288 211.862 239.343 211.892 239.406C211.923 239.469 211.937 239.538 211.934 239.608C211.931 239.678 211.91 239.746 211.874 239.806C211.838 239.866 211.788 239.916 211.727 239.952Z" fill="#EF6451"/>
<path d="M211.487 242.769C211.43 242.729 211.384 242.675 211.353 242.612C211.322 242.549 211.308 242.479 211.311 242.409C211.314 242.339 211.334 242.271 211.371 242.211C211.407 242.151 211.457 242.101 211.518 242.066C211.769 242.312 211.772 242.547 211.487 242.769Z" fill="#EF6451"/>
<path d="M211.273 257.562C211.213 257.526 211.163 257.476 211.128 257.415C211.092 257.355 211.073 257.287 211.07 257.217C211.068 257.147 211.083 257.078 211.115 257.015C211.146 256.953 211.193 256.899 211.25 256.86C211.312 256.894 211.364 256.944 211.401 257.004C211.438 257.064 211.459 257.133 211.461 257.204C211.464 257.275 211.447 257.345 211.414 257.408C211.381 257.471 211.333 257.524 211.273 257.562Z" fill="#EF6451"/>
<path d="M211.514 260.849C211.453 260.813 211.402 260.763 211.366 260.702C211.33 260.641 211.31 260.572 211.309 260.502C211.307 260.431 211.323 260.361 211.356 260.299C211.389 260.236 211.438 260.183 211.497 260.145C211.558 260.18 211.609 260.231 211.645 260.292C211.681 260.353 211.701 260.422 211.702 260.492C211.704 260.563 211.688 260.633 211.655 260.695C211.622 260.758 211.573 260.81 211.514 260.849Z" fill="#EF6451"/>
<path d="M185.495 200.037C185.339 200.046 185.183 200.055 185.028 200.063L185.495 200.037Z" fill="#EF6451"/>
<path d="M149.155 235.726C149.166 235.882 149.176 236.038 149.186 236.194C149.176 236.038 149.166 235.882 149.155 235.726Z" fill="#EF6451"/>
<path d="M213.315 202.404C213.347 201.708 213.379 201.013 213.411 200.327C214.091 200.133 214.091 200.133 214.518 200.716C213.769 201.011 213.558 201.626 213.594 202.366C213.501 202.379 213.408 202.391 213.315 202.404Z" fill="#EF6451"/>
<path d="M213.315 202.404C213.408 202.391 213.501 202.379 213.594 202.366C213.504 203.262 213.414 204.158 213.325 205.054C213.026 204.575 213.11 203.215 213.315 202.404Z" fill="#EF6451"/>
<path d="M213.594 202.366C213.558 201.626 213.769 201.011 214.518 200.716C214.091 200.133 214.091 200.133 213.411 200.327C213.379 201.012 213.347 201.708 213.315 202.404C213.11 203.215 213.026 204.575 213.324 205.054C213.414 204.158 213.504 203.262 213.594 202.366Z" fill="#EF6451"/>
<path d="M212.458 277.989C212.308 277.833 212.222 277.626 212.215 277.41C212.209 277.193 212.282 276.982 212.422 276.817C212.357 275.799 212.292 274.781 212.226 273.763C212.07 273.564 211.981 273.319 211.974 273.065C211.968 272.812 212.043 272.563 212.189 272.356C212.122 271.181 212.056 270.007 211.99 268.832C211.835 268.632 211.747 268.388 211.74 268.136C211.732 267.883 211.806 267.634 211.949 267.426C211.886 266.486 211.823 265.546 211.76 264.606C211.608 264.451 211.52 264.245 211.512 264.028C211.504 263.811 211.578 263.599 211.719 263.434C211.651 262.572 211.582 261.711 211.514 260.849C211.453 260.813 211.402 260.763 211.366 260.702C211.33 260.641 211.311 260.572 211.309 260.502C211.307 260.431 211.324 260.361 211.357 260.299C211.39 260.236 211.438 260.183 211.497 260.145C211.422 259.284 211.348 258.423 211.273 257.562C211.213 257.526 211.163 257.475 211.128 257.415C211.092 257.355 211.072 257.287 211.07 257.217C211.068 257.147 211.083 257.078 211.115 257.015C211.146 256.953 211.193 256.899 211.25 256.86C210.907 253.11 210.909 249.336 211.255 245.587C211.189 245.526 211.138 245.452 211.104 245.369C211.071 245.286 211.055 245.197 211.059 245.108C211.063 245.019 211.086 244.931 211.127 244.852C211.168 244.773 211.225 244.703 211.295 244.648C211.359 244.022 211.423 243.396 211.487 242.769C211.43 242.729 211.383 242.675 211.353 242.612C211.322 242.549 211.307 242.479 211.31 242.409C211.314 242.339 211.334 242.271 211.37 242.211C211.406 242.151 211.457 242.101 211.518 242.066C211.588 241.361 211.658 240.656 211.727 239.952C211.668 239.913 211.62 239.859 211.587 239.796C211.555 239.732 211.539 239.662 211.542 239.591C211.546 239.52 211.567 239.451 211.605 239.39C211.643 239.33 211.696 239.281 211.759 239.248L211.95 237.368C211.885 237.307 211.834 237.232 211.8 237.15C211.767 237.067 211.751 236.978 211.755 236.889C211.76 236.8 211.783 236.713 211.824 236.633C211.865 236.554 211.923 236.485 211.993 236.43C212.136 234.63 212.278 232.829 212.42 231.029C212.281 230.863 212.208 230.651 212.216 230.434C212.224 230.218 212.311 230.012 212.462 229.856C212.526 228.838 212.59 227.82 212.653 226.802C212.509 226.551 212.436 226.266 212.443 225.976C212.449 225.687 212.534 225.405 212.689 225.16C212.763 221.802 212.824 218.444 212.919 215.086C212.951 213.959 213.028 212.829 213.157 211.708C213.308 210.396 213.481 209.081 213.747 207.789C214.202 205.576 214.754 203.384 215.224 201.174C215.297 200.753 215.274 200.32 215.156 199.909C215.054 199.521 212.907 198.706 212.629 198.964C212.151 199.409 211.617 199.3 211.088 199.307C204.497 199.399 197.906 199.455 191.316 199.588C189.374 199.627 187.435 199.881 185.495 200.037L185.028 200.063C184.182 200.156 183.33 200.211 182.492 200.35C180.385 200.698 178.27 201.02 176.183 201.467C171.053 202.566 166.118 204.18 161.643 207.03C156.522 210.213 152.668 215.082 150.745 220.801C149.979 223.133 149.459 225.54 149.195 227.981C149.253 228.02 149.301 228.075 149.332 228.138C149.364 228.202 149.378 228.272 149.374 228.343C149.37 228.414 149.348 228.482 149.309 228.542C149.271 228.602 149.218 228.65 149.155 228.683C148.902 231.024 148.902 233.385 149.156 235.726C149.166 235.882 149.176 236.038 149.186 236.194C149.341 238.888 149.883 241.516 150.541 244.124C151.723 248.828 153.514 253.358 155.868 257.598C157.829 261.162 160.208 264.479 162.954 267.479C167.672 272.6 173.39 276.245 179.766 278.928C183.741 280.6 187.78 282.1 191.845 283.53H212.654C212.625 281.683 212.525 279.836 212.458 277.989ZM213.315 202.404C213.347 201.708 213.379 201.012 213.411 200.327C214.091 200.133 214.091 200.133 214.518 200.716C213.769 201.011 213.558 201.626 213.594 202.366C213.504 203.262 213.415 204.158 213.325 205.054C213.026 204.575 213.11 203.215 213.315 202.404Z" fill="#1D884A"/>
<path d="M204.946 77.0429C210.98 78.0465 215.526 81.3116 218.78 86.3915C222.591 92.3427 225.632 98.6772 227.547 105.501C227.983 107.202 228.253 108.941 228.355 110.694C228.552 113.17 227.85 115.493 226.762 117.699C225.195 120.879 223.093 123.595 220.031 125.487C218.971 126.142 217.956 126.868 216.865 127.599C217.061 127.857 217.217 128.069 217.38 128.274C218.337 129.479 218.329 130.524 217.244 131.61C215.479 133.377 213.364 134.499 210.859 134.758C209.542 134.894 208.209 134.874 206.892 135.009C206.13 135.087 205.31 135.184 204.645 135.525C199.343 138.242 193.689 139.817 187.855 140.81C187.22 140.918 186.878 141.176 186.664 141.736C186.484 142.211 186.255 142.666 186.065 143.137C184.056 148.13 180.244 150.996 175.125 152.098C170.123 153.176 165.931 151.596 162.789 147.541C160.527 144.621 159.192 141.313 159.435 137.537C159.505 136.409 159.711 135.293 160.049 134.214C160.638 132.44 161.392 130.724 162.301 129.091C163.644 126.612 164.592 123.939 165.111 121.167C165.873 117.106 166.665 113.051 167.464 108.997C167.623 108.193 167.916 107.416 168.056 106.61C168.131 106.175 168.189 105.563 167.955 105.278C166.731 103.786 166.782 102.073 167.019 100.358C167.333 98.0772 167.754 95.8099 168.176 93.5456C168.383 92.3459 168.856 91.2078 169.559 90.2142C170.179 89.2956 171.124 88.6464 172.204 88.3974C173.717 88.0651 175.084 88.2789 176.032 89.6887C176.151 89.8416 176.277 89.9883 176.411 90.1282C176.772 89.8017 177.111 89.5047 177.44 89.1962C181.406 85.4167 185.903 82.2375 190.787 79.7593C193.392 78.4121 196.196 77.4939 199.093 77.04L199.559 76.9956C201.189 76.7291 202.85 76.7293 204.48 76.9962C204.635 77.0117 204.791 77.0273 204.946 77.0429Z" fill="#7A5851"/>
<path d="M197.215 29.5932L193.229 29.5936L191.823 29.573L189.01 29.3547L188.307 29.3332C186.024 29.1123 183.731 28.7779 181.448 29.1207C179.453 29.4203 177.486 29.9148 175.511 30.3397C174.18 30.6259 172.855 30.9391 171.528 31.2449C171.263 31.306 170.93 31.3101 170.753 31.475C170.131 32.0569 169.5 31.8914 168.854 31.61C167.626 29.3631 167.55 26.8229 167.033 24.4038C166.616 22.3835 166.317 20.3407 166.136 18.2856C166.026 17.1347 166.218 15.955 166.274 14.7884C166.282 14.6321 166.291 14.4757 166.3 14.3194C166.597 12.9895 166.85 11.6476 167.21 10.335C167.406 9.70184 167.69 9.09918 168.053 8.54446C168.198 8.2655 168.411 8.02749 168.671 7.8523C168.932 7.67711 169.233 7.57037 169.546 7.54188C172.009 7.36854 174.367 6.69656 176.683 5.89832C179.408 4.95914 182.09 3.89456 184.812 2.9467C188.863 1.5356 193.083 0.669154 197.362 0.37009C199.826 0.194831 202.265 0.324961 204.713 0.458825L205.18 0.491463C208.199 0.461008 211.218 0.439759 214.237 0.393946C215.048 0.381664 215.857 0.294638 216.667 0.241934L218.074 0.227417C219.869 0.231809 221.667 0.170479 223.456 0.267103C224.426 0.342479 225.382 0.543088 226.3 0.863942C227.379 1.21612 228.132 1.91116 227.948 3.21185C227.935 3.40362 227.934 3.59594 227.945 3.78781C228.791 3.92962 229.629 4.03284 230.448 4.2177C231.248 4.38528 232.034 4.61297 232.8 4.89886C234.417 5.53239 235.63 6.55099 235.743 8.47929C236.161 8.63527 236.57 8.76096 236.954 8.93806C237.382 9.12761 237.794 9.34997 238.187 9.60315C238.931 10.0981 239.53 10.717 239.408 11.7078C239.292 12.6544 238.585 13.1377 237.783 13.3662C236.703 13.6742 235.579 13.8307 234.474 14.0523C233.88 13.6587 233.374 13.9439 232.871 14.3369H234.456C235.247 14.5315 236.055 14.6749 236.821 14.9399C237.296 15.1138 237.732 15.3804 238.103 15.7242C239.115 16.6488 239.048 17.9322 237.908 18.7029C237.34 19.0353 236.729 19.287 236.092 19.4508C235.64 19.5665 235.18 19.6513 234.716 19.7046L234.248 19.733L232.372 19.946L231.671 19.9789L229.794 20.1744L229.092 20.2126L227.45 20.4111L226.983 20.4446L225.575 20.6436L225.108 20.686C223.628 20.9105 222.15 21.1452 220.668 21.3572C218.3 21.6961 215.931 22.02 213.341 22.381C213.747 22.6594 213.981 22.8291 214.224 22.9837C215.125 23.5572 215.911 24.2472 216.372 25.2342C216.935 26.4416 216.543 27.4874 215.315 27.9983C214.838 28.1625 214.351 28.2942 213.856 28.3922L213.153 28.4113L212.214 28.415C210.903 28.1222 209.542 28.1238 208.231 28.4197L206.356 28.62L205.654 28.6662L198.387 29.5672L197.215 29.5932Z" fill="#7A5851"/>
<path d="M208.231 28.42C209.542 28.124 210.902 28.1224 212.214 28.4153C210.905 28.7237 209.542 28.7253 208.231 28.42Z" fill="#F2D3B2"/>
<path d="M234.456 14.3372H232.871C233.374 13.9442 233.88 13.6591 234.474 14.0526C234.468 14.1475 234.462 14.2424 234.456 14.3372Z" fill="#ECBE8E"/>
<path d="M218.074 0.227512L216.667 0.242003C216.869 0.0875692 217.115 0.00267503 217.368 6.217e-05C217.622 -0.00255069 217.87 0.0772589 218.074 0.227512Z" fill="#F3D6B6"/>
<path d="M191.823 29.573L193.229 29.5936C193.022 29.7374 192.775 29.8127 192.523 29.809C192.271 29.8053 192.026 29.7228 191.823 29.573Z" fill="#F2D3B2"/>
<path d="M197.215 29.5932L198.387 29.5675C198.226 29.71 198.02 29.7909 197.806 29.7956C197.591 29.8003 197.382 29.7286 197.215 29.5932Z" fill="#F2D3B2"/>
<path d="M231.671 19.9792L232.372 19.9464L231.671 19.9792Z" fill="#F2D3B2"/>
<path d="M229.093 20.213L229.794 20.1747L229.093 20.213Z" fill="#F2D3B2"/>
<path d="M213.152 28.4116L213.856 28.3925C213.819 28.4524 213.769 28.5023 213.708 28.5374C213.648 28.5726 213.579 28.5921 213.509 28.594C213.439 28.5959 213.37 28.5802 213.308 28.5483C213.245 28.5164 213.192 28.4694 213.152 28.4116Z" fill="#F2D3B2"/>
<path d="M205.654 28.6665L206.356 28.6203C206.321 28.6801 206.272 28.7304 206.213 28.7669C206.154 28.8033 206.087 28.8247 206.018 28.8293C205.948 28.8338 205.879 28.8214 205.816 28.793C205.752 28.7646 205.697 28.7212 205.654 28.6665Z" fill="#F2D3B2"/>
<path d="M188.307 29.3333L189.01 29.3548C188.97 29.4117 188.916 29.4578 188.854 29.4889C188.792 29.52 188.723 29.5352 188.653 29.533C188.583 29.5309 188.515 29.5115 188.455 29.4767C188.394 29.4418 188.344 29.3926 188.307 29.3333Z" fill="#F2D3B2"/>
<path d="M205.18 0.491561L204.714 0.458923L205.18 0.491561Z" fill="#EBBA86"/>
<path d="M166.3 14.3195L166.274 14.7884L166.3 14.3195Z" fill="#EFC89D"/>
<path d="M234.248 19.7334L234.716 19.705L234.248 19.7334Z" fill="#F2D3B2"/>
<path d="M226.983 20.445L227.45 20.4115L226.983 20.445Z" fill="#F2D3B2"/>
<path d="M225.108 20.6863L225.575 20.644L225.108 20.6863Z" fill="#F2D3B2"/>
<path d="M199.559 76.9954L199.092 77.0398L199.559 76.9954Z" fill="#EDC292"/>
<path d="M204.946 77.0429L204.479 76.996L204.946 77.0429Z" fill="#EDC292"/>
<path d="M299.098 227.55C298.87 225.829 298.396 224.17 297.327 222.767C294.635 219.164 291.644 215.794 288.387 212.693C285.391 209.889 282.376 207.106 279.341 204.343C277.814 202.944 276.28 201.552 274.708 200.204C270.791 196.843 266.691 193.719 262.517 190.685C252.718 183.564 242.917 176.448 232.846 169.712C227.94 166.431 223.036 163.152 217.694 160.599C210.994 157.398 204.124 154.601 197.189 151.958C194.158 150.802 191.16 149.577 188.414 147.807C187.631 147.302 186.982 146.77 186.746 145.811C186.593 145.285 186.382 144.777 186.116 144.299C185.635 143.348 185.009 143.139 184.111 143.676C181.23 145.4 178.088 146.43 174.863 147.263C173.367 147.65 171.89 148.112 170.349 148.556C169.604 147.213 168.832 145.901 168.134 144.55C166.196 140.801 164.177 137.086 163.205 132.923C163.076 132.352 162.857 131.805 162.557 131.303C162.086 130.532 161.54 130.455 160.773 130.942C160.577 131.067 160.413 131.241 160.228 131.385C159.18 132.201 158.175 133.083 157.068 133.809C155.994 134.513 154.822 134.854 153.568 134.072C149.657 131.632 145.746 129.19 141.8 126.808C139.292 125.293 137.269 123.421 136.164 120.608C135.44 118.877 134.622 117.186 133.713 115.544C131.515 111.356 129.242 107.206 127.062 103.008C124.25 97.5941 121.612 92.0988 119.533 86.3503C117.314 80.2154 115.066 74.0909 112.853 67.9535C112.77 67.6264 112.785 67.2821 112.896 66.9634C113.191 65.9522 113.557 64.9616 113.856 63.9515C113.914 63.7094 114.027 63.484 114.186 63.2929C114.346 63.1017 114.547 62.9502 114.775 62.8499C117.05 61.7243 119.287 60.5215 121.542 59.355C126.886 56.5905 132.192 53.7474 137.591 51.0938C142.397 48.7314 147.134 46.2429 151.802 43.6282C154.66 42.0205 157.535 40.4305 160.485 39.004C163.013 37.7821 165.674 36.8412 168.246 35.7072C170.532 34.699 172.778 33.5985 175.04 32.5342C176.053 32.0579 176.659 31.3242 176.515 30.1327C176.436 29.4759 176.396 28.8112 176.267 28.1641C175.962 26.6331 175.578 25.1175 175.293 23.5831C174.717 20.4759 174.234 17.3504 173.616 14.2519C173.243 12.379 172.749 10.5237 172.194 8.69567C171.729 7.16462 170.693 6.61339 169.122 6.86752C168.543 6.9474 167.969 7.06329 167.404 7.21451C162.126 8.76271 156.823 10.2327 151.585 11.9079C143.704 14.4286 135.842 17.0025 127.791 18.9428C121.15 20.5433 114.544 22.2734 108.068 24.4554C102.593 26.3001 97.1549 28.2543 91.693 30.1383C87.7571 31.4959 83.9916 33.1791 80.6721 35.7447C78.0499 37.7714 75.7166 40.0517 74.2517 43.0937C71.594 48.6127 71.0846 54.3761 72.2191 60.35C73.2116 65.5764 74.6869 70.6744 76.1759 75.7715C78.0376 82.1444 79.8669 88.5269 81.7318 94.8989C83.5747 101.196 85.3752 107.507 87.3213 113.772C89.3875 120.423 92.2213 126.786 94.8852 133.21C97.5494 139.635 100.16 146.08 102.274 152.715C103.708 157.217 105.169 161.712 106.613 166.211C106.709 166.467 106.771 166.734 106.798 167.005C106.951 170.047 107.199 173.09 107.208 176.132C107.228 182.663 107.129 189.193 107.067 195.724C106.999 202.92 106.923 210.115 106.839 217.311C106.786 221.454 106.618 225.598 106.621 229.741C106.627 238.893 106.692 248.045 106.767 257.196C106.8 261.105 106.945 265.013 106.989 268.922C107.032 272.834 107.051 276.748 107 280.66C106.971 281.62 106.892 282.578 106.764 283.53H203.44C203.098 283.352 202.754 283.176 202.415 282.994C196.474 279.849 190.744 276.32 185.261 272.428C179.427 268.239 174.047 263.556 169.619 257.856C166.386 253.693 163.727 249.198 161.966 244.209C160.705 240.635 159.883 236.92 159.519 233.147C159.166 229.542 159.356 225.957 159.639 222.38C159.807 220.255 160.364 218.16 160.755 216.053C160.939 215.063 160.999 215.018 162.019 214.83C163.092 214.632 164.163 214.431 165.235 214.227C169.904 213.331 174.578 212.461 179.24 211.53C184.819 210.417 190.396 209.297 195.956 208.097C201.331 206.937 206.698 205.732 212.035 204.412C213.408 204.027 214.878 204.201 216.123 204.897C220.924 207.349 225.8 209.654 230.662 211.984C233.268 213.233 235.91 214.409 238.525 215.639C242.237 217.384 245.954 219.105 249.348 221.464C250.811 222.481 252.459 223.242 254.051 224.063C254.771 224.435 255.561 224.671 256.547 225.057C254.392 226.444 252.463 227.845 250.389 228.984C246.453 231.149 242.432 233.159 238.451 235.243C237.099 235.951 235.758 236.687 234.716 237.839C233.235 239.462 231.428 240.753 229.414 241.627C228.738 241.932 228.095 242.304 227.493 242.737C226.485 243.457 226.172 244.463 226.581 245.635C226.954 246.703 227.348 247.768 227.81 248.8C229.041 251.546 230.287 254.287 231.578 257.005C232.366 258.662 233.213 260.294 234.105 261.897C234.642 262.861 235.563 263.249 236.669 263.247C237.843 263.246 238.881 262.803 239.904 262.313C242.315 261.201 244.797 260.249 247.333 259.465C249.966 258.61 252.619 257.763 255.144 256.644C260.713 254.174 266.201 251.52 271.735 248.97C275.672 247.156 279.622 245.369 283.584 243.609C286.091 242.495 288.601 241.377 290.601 239.445C292.767 237.353 294.861 235.188 296.96 233.03C298.435 231.513 299.391 229.756 299.098 227.55Z" fill="#1D884A"/>
<path d="M175.653 95.5155L175.664 95.5294C175.893 95.8176 176.122 95.9089 176.368 95.928C176.634 95.9487 176.936 95.8866 177.315 95.7882L177.527 95.6506L177.533 95.6467L177.533 95.6468C177.804 95.476 178.094 95.3077 178.374 95.1452C178.537 95.0502 178.698 94.9572 178.849 94.8667C179.275 94.6119 179.668 94.3554 180.014 94.0584L180.019 94.0537L180.019 94.0537C181.442 92.8659 182.789 91.5894 184.051 90.2317C186.032 88.0286 188.613 86.4516 191.476 85.6938C195.184 84.6636 198.825 83.6513 202.144 81.7829C202.502 81.5706 202.906 81.4484 203.322 81.427C203.74 81.4055 204.157 81.4866 204.536 81.663L204.811 81.791L204.825 82.0942C204.856 82.7932 204.851 83.4934 204.811 84.1918L204.81 84.2028L204.809 84.2137C204.727 85.0171 204.576 85.8142 204.43 86.5854C204.41 86.6952 204.389 86.8045 204.369 86.9133L203.877 86.8213L204.369 86.9133C204.282 87.3776 204.169 87.8517 204.06 88.3112C204.005 88.5407 203.952 88.7666 203.903 88.9859C203.751 89.6616 203.633 90.3096 203.614 90.9499C203.601 91.3753 203.586 91.7984 203.57 92.2195C203.487 94.4808 203.405 96.6852 203.8 98.8863L203.8 98.8876C204.034 100.209 204.426 101.497 204.968 102.724C205.04 102.881 205.14 103.024 205.263 103.146L205.263 103.146C205.396 103.278 205.484 103.266 205.494 103.264C205.501 103.262 205.512 103.258 205.526 103.242C205.542 103.224 205.57 103.184 205.59 103.103C205.699 102.614 205.742 102.112 205.716 101.612L205.716 101.608C205.687 100.924 205.647 100.235 205.606 99.5406C205.464 97.1117 205.319 94.6275 205.643 92.1529C205.712 91.6206 205.838 91.0782 205.957 90.5654C206.009 90.3411 206.06 90.1224 206.104 89.9126L207.084 89.9212C207.292 91.0017 207.385 92.0837 207.474 93.1291C207.486 93.2654 207.497 93.4012 207.509 93.5362C207.612 94.7177 207.73 95.853 208.019 96.9597C208.119 97.3405 208.215 97.7201 208.312 98.0981C208.675 99.5242 209.033 100.928 209.507 102.294C210.504 105.164 212.275 107.587 214.323 109.903C216.733 112.629 217.938 115.926 218.642 119.374C218.776 120 218.772 120.648 218.632 121.273C218.493 121.897 218.22 122.483 217.834 122.991C217.71 123.163 217.562 123.353 217.421 123.533C217.323 123.659 217.229 123.779 217.15 123.885C216.935 124.173 216.757 124.444 216.636 124.724C216.558 124.904 216.481 125.088 216.404 125.275C215.882 126.525 215.313 127.89 214.12 128.902C214.109 128.933 214.098 128.982 214.093 129.043C214.087 129.104 214.089 129.162 214.096 129.206C214.096 129.208 214.096 129.211 214.097 129.213C214.122 129.227 214.159 129.242 214.207 129.256C214.325 129.291 214.439 129.297 214.498 129.289C214.892 129.221 215.268 129.075 215.605 128.859L215.611 128.855L215.617 128.852C216.325 128.426 216.994 127.937 217.616 127.393C218.856 126.251 220.291 125.725 221.9 125.55M175.653 95.5155L221.954 126.048M175.653 95.5155L175.641 95.5023C175.552 95.4062 175.494 95.2861 175.474 95.157C175.453 95.0279 175.471 94.8957 175.526 94.7769L175.537 94.7527L175.545 94.7276C175.809 93.938 176.02 93.132 176.177 92.3147C176.289 91.8281 176.294 91.3228 176.19 90.8342C176.086 90.3458 175.877 89.886 175.577 89.4871C175.254 89.0188 175.165 88.7221 175.179 88.473C175.193 88.2098 175.325 87.8947 175.683 87.3981C175.834 87.1892 175.995 86.9873 176.164 86.7962L176.164 86.7963L176.168 86.7916C178.335 84.2875 180.287 81.605 182.004 78.7726C183.28 76.7245 184.633 74.7751 186.347 73.1231L186.347 73.1232L186.352 73.1183C188.931 70.562 192.213 68.8344 195.779 68.1563L195.779 68.1564L195.788 68.1545C197.344 67.8284 198.958 67.918 200.469 68.4142C201.162 68.6742 201.9 68.7946 202.64 68.7685C203.382 68.7423 204.112 68.5693 204.787 68.2593L175.653 95.5155ZM221.9 125.55L221.954 126.048M221.9 125.55C221.9 125.55 221.9 125.55 221.9 125.55L221.954 126.048M221.9 125.55C223.818 125.342 225.566 124.735 227.023 123.478L227.032 123.47L227.041 123.463C227.274 123.28 227.516 123.11 227.767 122.952L228.288 122.624L228.502 123.201L228.749 123.866M221.954 126.048C223.945 125.832 225.796 125.196 227.35 123.856C227.434 123.79 227.52 123.726 227.606 123.663L227.564 123.549L228.033 123.375L228.299 123.798C228.27 123.817 228.24 123.836 228.211 123.855L228.406 124.38M228.749 123.866C228.639 123.873 228.522 123.878 228.397 123.88L228.406 124.38M228.749 123.866L228.875 124.206L228.406 124.38M228.749 123.866C229.125 123.843 229.42 123.791 229.706 123.697C230.082 123.574 230.472 123.371 231.031 123.022C234.726 120.708 236.792 117.279 237.706 113.058L238.195 113.164M228.406 124.38C229.573 124.359 230.157 124.159 231.296 123.445C235.126 121.048 237.258 117.491 238.195 113.164M204.911 103.502C205.356 103.941 205.934 103.821 206.077 103.216C206.197 102.682 206.243 102.133 206.216 101.587L204.911 103.502ZM204.911 103.502C204.744 103.337 204.609 103.142 204.512 102.928L204.911 103.502ZM238.195 113.164L237.706 113.058C237.842 112.432 237.907 111.786 237.971 111.108L237.98 111.022C238.041 110.379 238.105 109.707 238.236 109.045C238.705 106.684 238.444 104.335 237.979 101.96C237.533 99.6763 236.517 97.5765 235.472 95.4154C235.421 95.3086 235.369 95.2017 235.317 95.0946M238.195 113.164C238.343 112.48 238.41 111.779 238.477 111.077C238.538 110.428 238.6 109.779 238.727 109.142C239.215 106.685 238.939 104.26 238.47 101.864C238.011 99.5148 236.969 97.3612 235.931 95.2153C235.876 95.1024 235.822 94.9895 235.767 94.8766M235.317 95.0946L219.428 68.2233C222.684 69.9144 225.211 72.3396 226.789 75.6754C227.581 77.3484 228.345 79.0343 229.109 80.7201C229.747 82.1277 230.385 83.5353 231.039 84.9354C232.592 88.2602 234.168 91.5739 235.767 94.8766M235.317 95.0946L235.767 94.8766M235.317 95.0946C235.317 95.0944 235.317 95.0942 235.317 95.094L235.767 94.8766" fill="#333333" stroke="#333333"/>
<path d="M234.105 261.897C233.212 260.294 232.365 258.662 231.578 257.005C230.286 254.287 229.041 251.547 227.81 248.8C227.348 247.768 226.953 246.703 226.581 245.635C226.361 245.073 226.354 244.45 226.561 243.883C224.583 244.725 222.576 245.498 220.523 246.156C219.031 246.656 217.435 246.761 215.891 246.46C214.135 246.101 212.411 245.603 210.734 244.971C209.024 244.321 207.414 243.412 205.743 242.652C203.23 241.51 200.795 240.194 197.875 240.265C194.833 240.34 191.786 240.16 188.741 240.163C188.079 240.186 187.432 240.361 186.848 240.673C185.599 241.315 185.16 242.645 185.86 243.855C186.27 244.513 186.822 245.07 187.474 245.487C188.638 246.221 189.966 246.653 191.337 246.747C193.356 246.937 195.381 247.057 197.404 247.201C200.314 247.409 202.616 248.874 204.721 250.747L204.889 250.833C204.853 250.863 204.817 250.892 204.781 250.922C204.752 250.873 204.722 250.824 204.691 250.776C204.315 250.703 203.935 250.644 203.564 250.552C202.581 250.31 201.613 249.93 200.617 249.827C198.408 249.597 196.185 249.494 193.967 249.358C192.566 249.273 191.162 249.223 189.759 249.154C187.967 249.067 186.175 248.924 184.382 248.905C183.118 248.892 181.89 249.169 180.922 250.092C179.799 251.162 179.76 252.654 180.88 253.717C181.349 254.126 181.871 254.47 182.431 254.74C182.972 254.993 183.525 255.218 184.089 255.414C184.055 256.456 184.05 257.508 184.846 258.272C185.436 258.892 186.112 259.424 186.854 259.85C188.006 260.425 189.204 260.901 190.436 261.273C193.045 262.076 195.733 262.537 198.423 262.987C199.805 263.225 201.173 263.535 202.522 263.915C203.348 264.152 204.088 264.622 204.653 265.269C204.4 265.244 204.149 265.205 203.9 265.151C200.315 264.024 196.548 263.592 192.801 263.88C192.141 263.916 191.493 264.068 190.885 264.327C189.75 264.839 189.364 266.021 190.021 267.069C190.379 267.67 190.892 268.163 191.506 268.498C192.622 269.052 193.799 269.473 195.013 269.753C199.321 270.681 203.661 271.461 207.968 272.397C210.75 273.032 213.633 273.099 216.442 272.594C219.755 271.979 222.91 270.815 226.078 269.714C228.084 269.021 229.882 267.831 231.305 266.254C232.469 264.989 233.796 263.884 235.249 262.966C234.761 262.744 234.359 262.369 234.105 261.897Z" fill="#7A5851"/>
<path d="M191.345 128.105C190.054 128.096 188.779 127.813 187.603 127.277C185.892 126.472 184.663 125.243 184.186 123.371C183.897 122.322 183.663 121.258 183.486 120.184C183.359 119.314 183.456 118.392 184.407 117.985C185.328 117.59 186.143 118.019 186.668 118.749C188.318 121.042 190.507 122.697 192.802 124.264C193.366 124.678 193.835 125.208 194.178 125.819C194.674 126.662 194.328 127.416 193.413 127.786C193.233 127.86 193.044 127.911 192.852 127.938C192.351 128.005 191.848 128.051 191.345 128.105Z" fill="white"/>
<path d="M185.463 141.616C183.388 141.257 181.302 140.951 179.242 140.524C177.408 140.143 175.878 139.133 174.409 137.989C170.991 135.325 168.805 131.93 168.082 127.637C167.861 126.327 167.72 125.004 167.547 123.687C167.487 123.381 167.461 123.069 167.468 122.757C167.488 122.67 167.529 122.588 167.588 122.521C167.646 122.453 167.721 122.401 167.805 122.369C167.895 122.367 167.983 122.387 168.063 122.429C168.142 122.47 168.21 122.532 168.259 122.607C168.362 122.941 168.43 123.285 168.462 123.633C168.614 124.717 168.75 125.803 168.905 126.886C169.53 131.252 171.65 134.71 175.151 137.38C176.64 138.515 178.22 139.378 180.056 139.763C182.238 140.219 184.423 140.628 186.674 140.465C186.795 140.465 186.915 140.495 187.022 140.552C187.129 140.609 187.22 140.691 187.289 140.792C187.408 141.157 187.111 141.373 186.773 141.417C186.349 141.472 185.917 141.466 185.489 141.486C185.48 141.53 185.472 141.573 185.463 141.616Z" fill="#582A1B"/>
<path d="M190.064 18.8324C189.441 18.8602 188.816 18.9273 188.195 18.8967C187.939 18.8841 187.516 18.7014 187.477 18.5266C187.369 18.0513 187.802 17.9747 188.158 17.9589C190.741 17.8446 193.31 17.9209 195.812 18.6778C196.378 18.8265 196.935 19.0088 197.479 19.2237C200.656 20.6167 204.061 20.7775 207.435 21.1273C208.715 21.26 209.988 21.4555 211.265 21.624C211.381 21.6343 211.497 21.6565 211.609 21.69C211.956 21.8107 212.516 21.7926 212.394 22.3424C212.271 22.8973 211.778 22.6347 211.413 22.5918C208.662 22.2685 205.915 21.9059 203.159 21.6366C201.334 21.4422 199.543 21.0055 197.833 20.3381C195.329 19.3908 192.759 18.7986 190.064 18.8324Z" fill="#582A1B"/>
<path d="M223.985 7.88204C226.39 8.02116 230.011 8.22745 233.63 8.44484C233.98 8.46067 234.325 8.52325 234.658 8.63091C234.736 8.67564 234.801 8.73931 234.847 8.81599C234.894 8.89267 234.92 8.97987 234.924 9.06946C234.908 9.20332 234.705 9.35533 234.55 9.42024C234.397 9.44557 234.241 9.44021 234.09 9.40446C229.767 9.1888 225.446 8.95497 221.122 8.76651C219.096 8.67817 217.066 8.63657 215.038 8.65458C214.033 8.66352 213.03 8.87987 212.023 8.94682C211.771 8.9636 211.505 8.76581 211.245 8.66663C211.429 8.45413 211.588 8.09014 211.801 8.05482C212.833 7.85335 213.879 7.73632 214.929 7.70491C217.541 7.70454 220.154 7.79917 223.985 7.88204Z" fill="#582A1B"/>
<path d="M185.372 254.838C188.614 255.3 191.855 255.762 195.097 256.224C197.065 256.505 199.04 256.748 200.999 257.083C202.572 257.352 204.127 257.731 205.689 258.063C205.765 258.079 205.84 258.1 205.914 258.125C206.255 258.238 206.669 258.369 206.482 258.814C206.412 258.979 205.957 259.096 205.711 259.051C204.946 258.912 204.207 258.629 203.441 258.502C200.481 258.01 197.517 257.542 194.549 257.096C191.735 256.677 188.914 256.305 186.095 255.909C185.746 255.888 185.4 255.825 185.064 255.723C184.866 255.643 184.741 255.378 184.583 255.196C184.767 255.083 184.946 254.96 185.137 254.862C185.196 254.831 185.29 254.867 185.367 254.873L185.372 254.838Z" fill="#582A1B"/>
<path d="M194.121 91.7475C194.491 91.8533 194.848 91.9982 195.188 92.1798C197.229 93.4504 198.79 95.3643 199.626 97.6205C199.789 98.0585 199.841 98.5299 199.78 98.9932C199.67 99.7695 198.982 100.001 198.402 99.4757C198.093 99.1777 197.835 98.8312 197.638 98.4501C196.801 96.8484 195.575 95.4829 194.074 94.4788C193.617 94.1801 193.227 93.7887 192.931 93.3299C192.413 92.5097 192.893 91.7601 194.121 91.7475Z" fill="#333333"/>
<path d="M210.719 109.936C211.089 110.042 211.447 110.187 211.786 110.369C213.828 111.639 215.389 113.553 216.225 115.809C216.388 116.247 216.44 116.719 216.378 117.182C216.269 117.958 215.581 118.19 215.001 117.665C214.692 117.366 214.434 117.02 214.237 116.639C213.4 115.037 212.174 113.672 210.672 112.668C210.215 112.369 209.826 111.977 209.53 111.519C209.012 110.698 209.492 109.949 210.719 109.936Z" fill="#333333"/>
<path d="M223.017 14.7912C220.439 14.7912 217.861 14.7774 215.283 14.7998C214.544 14.8063 213.806 14.9229 213.067 14.9773C212.797 15.007 212.524 15.0046 212.254 14.9699C212.133 14.9494 211.946 14.7726 211.951 14.6745C211.959 14.507 212.057 14.2494 212.184 14.2005C212.51 14.0735 212.855 14.0013 213.205 13.9869C215.39 13.912 217.576 13.8084 219.762 13.8123C223.394 13.8187 227.025 13.8956 230.657 13.9533C231.047 13.9522 231.437 14.0006 231.816 14.0974C231.993 14.1468 232.116 14.3888 232.264 14.5435C232.083 14.702 231.886 14.8415 231.676 14.9598C231.552 15.0159 231.371 14.9372 231.215 14.932C228.483 14.8414 225.752 14.7519 223.02 14.6636C223.019 14.7062 223.018 14.7487 223.017 14.7912Z" fill="#582A1B"/>
<path d="M188.608 102.516C188.583 101.101 189.669 100.091 191.138 100.003C192.48 99.9228 193.701 101.347 193.702 102.406C193.704 103.705 192.496 104.893 191.103 104.931C190.78 104.94 190.459 104.883 190.158 104.766C189.857 104.649 189.582 104.472 189.35 104.248C189.117 104.023 188.932 103.754 188.805 103.457C188.677 103.159 188.61 102.84 188.608 102.516Z" fill="#582A1B"/>
<path d="M218.542 4.66399C216.24 4.66399 213.938 4.64795 211.636 4.67467C211.016 4.71485 210.399 4.78885 209.787 4.89635C209.462 4.93609 209.089 4.94014 209.08 4.52603C209.108 4.4044 209.167 4.29198 209.25 4.19945C209.334 4.10693 209.44 4.03738 209.558 3.99741C210.556 3.83744 211.564 3.74678 212.575 3.72607C216.789 3.74317 221.002 3.80794 225.215 3.86507C225.644 3.86821 226.07 3.91422 226.489 4.0024C226.615 4.02996 226.747 4.2705 226.772 4.4299C226.787 4.52195 226.61 4.7133 226.49 4.74347C226.224 4.80068 225.952 4.82554 225.68 4.8175C223.3 4.82229 220.921 4.82316 218.541 4.82013L218.542 4.66399Z" fill="#582A1B"/>
<path d="M208.233 116.226C209.512 116.227 210.566 117.176 210.587 118.346C210.608 119.539 209.499 120.641 208.25 120.666C207.947 120.677 207.644 120.627 207.361 120.518C207.078 120.409 206.82 120.243 206.602 120.032C206.384 119.82 206.211 119.567 206.093 119.287C205.976 119.007 205.916 118.706 205.918 118.402C205.938 117.238 207.015 116.226 208.233 116.226Z" fill="#582A1B"/>
<path d="M194.33 120.436C193.98 120.461 193.629 120.455 193.281 120.418C193.099 120.385 192.95 120.169 192.786 120.036C192.937 119.846 193.115 119.679 193.314 119.539C193.467 119.46 193.695 119.531 193.89 119.528C194.241 119.522 194.593 119.526 194.942 119.5C197.023 119.345 198.071 118.457 198.424 116.385C198.687 114.566 199.343 112.825 200.344 111.283C200.553 110.955 200.806 110.658 201.095 110.398C201.226 110.286 201.507 110.351 201.72 110.336C201.726 110.55 201.804 110.799 201.722 110.97C201.553 111.231 201.366 111.48 201.161 111.715C200.389 112.845 199.845 114.115 199.559 115.455C199.511 115.683 199.474 115.915 199.433 116.145C198.876 119.239 197.466 120.427 194.33 120.436Z" fill="#582A1B"/>
<path d="M171.159 91.2765C171.303 90.8653 171.601 90.7763 171.894 90.9994C172.204 91.2289 172.465 91.5194 172.659 91.853C173.492 93.3713 173.237 95.4303 171.94 96.583C170.955 97.458 170.547 98.513 170.393 99.7463C170.344 100.29 170.255 100.829 170.129 101.359C170.073 101.561 169.787 101.699 169.606 101.865C169.475 101.662 169.207 101.437 169.235 101.259C169.395 100.064 169.629 98.8796 169.936 97.7136C170.087 97.1902 170.527 96.7106 170.933 96.3079C172.482 94.7676 172.612 93.2685 171.287 91.5778C171.231 91.4837 171.188 91.3823 171.159 91.2765Z" fill="#582A1B"/>
<path d="M214.508 130.374C214.654 130.356 214.802 130.369 214.943 130.412C215.148 130.553 215.341 130.711 215.518 130.885C215.318 131.024 215.119 131.284 214.918 131.284C213.449 131.286 212.222 131.937 211.012 132.656C210.555 132.95 210.083 133.221 209.599 133.468C209.498 133.498 209.392 133.502 209.289 133.479C209.187 133.456 209.092 133.408 209.013 133.338C208.978 133.24 208.969 133.134 208.987 133.031C209.005 132.928 209.05 132.832 209.116 132.752C210.782 131.688 212.409 130.52 214.508 130.374Z" fill="#582A1B"/>
<path d="M229.014 102.677L228.662 103.167C228.467 103.013 228.174 102.897 228.099 102.698C227.964 102.29 227.879 101.867 227.845 101.439C227.547 98.9872 226.735 96.6261 225.464 94.5094C223.667 91.4449 221.829 88.4053 220.428 85.1213C219.7 83.5139 218.685 82.053 217.433 80.8105C217.164 80.5317 216.568 80.2182 217.002 79.7789C217.491 79.2851 217.821 79.9117 218.118 80.2089C219.488 81.5554 220.59 83.151 221.363 84.9103C222.647 87.902 224.276 90.7017 225.965 93.4671C227.589 96.1492 228.612 99.1518 228.965 102.268C228.974 102.346 228.983 102.423 229.014 102.677Z" fill="white"/>
<path d="M201.161 75.1535C200.755 75.3515 200.516 75.5508 200.258 75.5811C195.968 76.0842 192.352 78.0717 189.006 80.6592C188.636 80.9451 188.29 81.2624 187.932 81.5629C187.801 81.7069 187.646 81.8257 187.473 81.9134C187.386 81.9411 187.295 81.949 187.205 81.9367C187.115 81.9244 187.029 81.8921 186.953 81.8422C186.909 81.7647 186.883 81.6782 186.878 81.5892C186.872 81.5003 186.887 81.4113 186.922 81.3291C187.016 81.159 187.146 81.0113 187.303 80.8964C190.675 77.8686 194.519 75.7397 198.972 74.7846C199.468 74.6852 199.973 74.6424 200.479 74.657C200.649 74.6598 200.815 74.8911 201.161 75.1535Z" fill="white"/>
<path d="M224.454 107.849C224.272 109.237 224.094 110.626 223.903 112.013C223.888 112.247 223.818 112.474 223.7 112.676C223.639 112.763 223.56 112.836 223.467 112.887C223.375 112.939 223.271 112.969 223.165 112.976C223.022 112.945 222.911 112.658 222.831 112.465C222.794 112.375 222.859 112.238 222.888 112.125C223.87 108.258 223.382 104.452 222.408 100.667C222.327 100.491 222.28 100.3 222.269 100.106C222.337 99.9034 222.437 99.7129 222.567 99.5424C222.751 99.6532 223.036 99.7229 223.101 99.8824C223.309 100.387 223.469 100.911 223.576 101.447C223.808 102.634 224.033 103.825 224.185 105.025C224.303 105.951 224.305 106.893 224.359 107.828L224.454 107.849Z" fill="white"/>
<path d="M162.653 196.947C162.614 197.406 162.585 197.584 162.585 197.761C162.565 205.513 161.864 213.224 161.283 220.945C160.919 225.779 160.636 230.619 160.435 235.464C160.168 242.067 160.012 248.675 159.83 255.282C159.695 260.207 159.589 265.134 159.48 270.061C159.393 273.971 159.326 277.882 159.238 281.792C159.23 282.181 159.171 282.567 159.064 282.941C159.018 283.018 158.952 283.082 158.874 283.127C158.796 283.172 158.708 283.197 158.618 283.198C158.48 283.177 158.331 282.971 158.263 282.814C158.208 282.685 158.267 282.508 158.271 282.352C158.352 278.442 158.421 274.531 158.518 270.621C158.657 264.991 158.818 259.362 158.967 253.732C159.102 248.65 159.235 243.567 159.366 238.485C159.545 231.327 160.072 224.193 160.654 217.059C161.106 211.526 161.394 205.979 161.667 200.433C161.77 198.329 161.646 196.211 161.581 194.101C161.523 193.676 161.405 193.261 161.23 192.869C158.063 183.459 154.833 174.07 151.742 164.636C149.465 157.722 147.843 150.61 146.897 143.393C146.837 143.126 146.815 142.852 146.831 142.58C146.862 142.386 147.053 142.219 147.173 142.04C147.354 142.149 147.517 142.285 147.657 142.443C147.735 142.622 147.776 142.816 147.777 143.012C148.909 151.735 151.162 160.187 153.958 168.505C156.562 176.248 159.167 183.991 161.83 191.713C163.986 197.964 166.813 203.934 169.602 209.917C169.767 210.271 169.943 210.622 170.086 210.985C170.223 211.335 170.498 211.784 169.961 211.982C169.448 212.171 169.334 211.663 169.177 211.319C168.461 209.755 167.741 208.193 167.041 206.622C165.736 203.695 164.446 200.761 163.144 197.832C163.043 197.604 162.903 197.394 162.653 196.947Z" fill="white"/>
<path d="M118.488 112.254C117.948 120.015 117.453 127.779 116.857 135.535C116.276 143.102 115.288 150.623 113.987 158.101C113.959 158.412 113.888 158.718 113.776 159.009C113.714 159.098 113.635 159.173 113.543 159.23C113.451 159.287 113.349 159.324 113.242 159.339C113.16 159.353 112.959 159.076 112.937 158.915C112.913 158.643 112.933 158.369 112.994 158.102C114.674 149.016 115.675 139.847 116.295 130.635C117.024 119.792 117.706 108.946 118.41 98.1015C118.424 97.5936 118.471 97.0872 118.549 96.5853C118.592 96.3696 118.815 96.0441 118.981 96.0273C119.401 95.9851 119.444 96.3593 119.426 96.6848C119.358 97.9338 119.283 99.1824 119.202 100.431C118.95 104.371 118.697 108.311 118.441 112.251L118.488 112.254Z" fill="white"/>
<path d="M141.359 265.915C141.221 266.082 141.13 266.269 140.983 266.343C140.911 266.361 140.836 266.361 140.765 266.342C140.693 266.323 140.627 266.286 140.574 266.235C140.367 265.954 140.187 265.654 140.035 265.339C134.976 255.103 130.707 244.494 127.266 233.605C126.172 230.138 125.13 226.655 124.069 223.178C123.965 222.884 123.898 222.578 123.869 222.267C123.863 222.119 124.053 221.828 124.133 221.835C124.238 221.842 124.341 221.87 124.435 221.919C124.528 221.967 124.611 222.034 124.677 222.116C124.826 222.434 124.941 222.768 125.018 223.11C127.436 231.325 130.06 239.471 133.151 247.461C135.438 253.372 138.076 259.126 140.857 264.817C141.027 265.165 141.18 265.521 141.359 265.915Z" fill="white"/>
<path d="M103.2 117.655C103.2 116.717 103.195 115.779 103.204 114.841C103.193 114.61 103.224 114.378 103.296 114.159C103.322 114.084 103.37 114.019 103.433 113.973C103.497 113.926 103.573 113.9 103.652 113.898C103.731 113.896 103.809 113.918 103.875 113.961C103.941 114.004 103.992 114.067 104.021 114.14C104.133 114.428 104.187 114.736 104.181 115.046C104.185 121.671 105.078 128.226 105.705 134.804C106.269 140.72 106.756 146.644 107.272 152.565C107.52 155.409 107.767 158.254 107.991 161.099C108.024 161.515 108.367 162.203 107.694 162.275C106.929 162.357 107.131 161.557 107.091 161.123C106.747 157.425 106.455 153.721 106.125 150.021C105.614 144.296 105.094 138.571 104.564 132.848C104.097 127.788 103.623 122.728 103.142 117.669L103.2 117.655Z" fill="white"/>
<path d="M169.419 148.868C170.451 148.955 170.455 148.977 170.182 149.966C169.363 152.939 168.398 155.884 167.786 158.9C167.166 161.958 166.859 165.084 166.49 168.19C165.948 172.738 165.055 177.223 164.192 181.716C163.713 184.206 163.454 186.738 163.097 189.252C163.087 189.329 163.122 189.435 163.082 189.481C162.926 189.665 162.749 189.83 162.579 190.001C162.444 189.836 162.202 189.676 162.193 189.503C162.156 188.957 162.176 188.409 162.254 187.867C162.69 185.126 163.054 182.369 163.633 179.658C164.795 174.217 165.488 168.712 166.143 163.198C166.531 159.931 167.075 156.707 168.209 153.59C168.764 152.065 169.034 150.437 169.434 148.855L169.419 148.868Z" fill="white"/>
<path d="M123.763 170.908C123.824 170.641 123.849 170.527 123.876 170.413C125.479 163.724 126.959 156.999 129.386 150.542C131.503 144.947 134.049 139.524 137.001 134.322C137.161 134.01 137.355 133.716 137.58 133.446C137.652 133.391 137.737 133.355 137.827 133.342C137.917 133.328 138.009 133.338 138.094 133.369C138.16 133.43 138.21 133.505 138.241 133.589C138.271 133.674 138.281 133.764 138.27 133.853C138.204 134.076 138.103 134.288 137.969 134.479C132.636 143.891 128.648 153.827 126.285 164.401C125.842 166.385 125.357 168.359 124.89 170.337C124.868 170.57 124.803 170.797 124.699 171.006C124.527 171.18 124.328 171.325 124.11 171.437C123.975 171.231 123.839 171.024 123.763 170.908Z" fill="white"/>
<path d="M169.434 148.855C169.072 148.899 168.716 148.981 168.372 149.101C166.231 150.108 164.4 151.574 162.635 153.119C161.49 154.121 160.416 155.205 159.281 156.22C158.907 156.562 158.48 156.842 158.018 157.051C157.202 157.405 156.571 157.132 156.218 156.3C156.03 155.871 155.909 155.415 155.858 154.949C155.67 152.889 155.506 150.826 155.365 148.761C155.238 146.931 155.173 145.096 155.033 143.266C154.863 141.041 154.74 138.82 155.134 136.607C155.178 136.298 155.266 135.998 155.396 135.714C155.447 135.64 155.516 135.58 155.597 135.54C155.678 135.5 155.767 135.481 155.857 135.485C155.989 135.518 156.091 135.749 156.16 135.912C156.183 136.027 156.174 136.146 156.135 136.257C155.542 138.976 155.866 141.699 156.061 144.428C156.259 147.193 156.344 149.966 156.545 152.731C156.629 153.881 156.63 155.072 157.281 156.299C157.708 156.076 158.148 155.936 158.471 155.66C159.331 154.925 160.138 154.129 160.97 153.361C163.273 151.234 165.689 149.264 168.563 147.939C168.705 147.874 168.84 147.748 168.983 147.741C169.265 147.727 169.666 147.669 169.809 147.823C170.088 148.125 169.754 148.365 169.525 148.581C169.459 148.644 169.453 148.771 169.419 148.868L169.434 148.855Z" fill="white"/>
<path d="M176.347 163.22C175.272 163.271 174.724 162.861 174.458 162.225C174.025 161.225 173.679 160.19 173.425 159.131C173.057 157.493 172.884 155.812 172.51 154.177C172.18 152.735 171.69 151.331 171.267 149.911C171.223 149.762 171.104 149.615 171.115 149.475C171.116 149.385 171.135 149.296 171.172 149.213C171.208 149.13 171.261 149.056 171.327 148.994C171.412 148.969 171.502 148.966 171.588 148.986C171.674 149.005 171.753 149.047 171.818 149.106C172.075 149.449 172.273 149.832 172.406 150.239C172.92 152.202 173.412 154.17 173.864 156.148C174.081 157.099 174.155 158.082 174.362 159.036C174.518 159.8 174.742 160.549 175.029 161.274C175.518 162.468 176.042 162.577 177.069 161.753C177.467 161.438 177.832 161.083 178.158 160.693C180.021 158.432 181.886 156.173 183.709 153.879C184.813 152.49 185.529 150.882 186.113 149.213C186.246 148.835 186.279 148.195 186.857 148.361C187.523 148.553 187.187 149.132 187.037 149.541C186.299 151.647 185.199 153.608 183.785 155.334C182.454 156.92 181.179 158.552 179.847 160.136C179.179 160.951 178.458 161.721 177.688 162.44C177.246 162.841 176.637 163.057 176.347 163.22Z" fill="white"/>
<path d="M256.672 196.621C256.883 196.632 257.092 196.667 257.295 196.725C257.361 196.758 257.419 196.807 257.463 196.867C257.506 196.926 257.536 196.995 257.548 197.068C257.546 197.142 257.525 197.215 257.489 197.279C257.452 197.343 257.4 197.397 257.337 197.437C257.045 197.541 256.742 197.61 256.434 197.642C250.73 198.309 245.031 199.011 239.321 199.618C235.204 200.056 231.074 200.366 226.949 200.733C226.679 200.771 226.406 200.795 226.133 200.804C225.677 200.795 224.937 201.218 224.876 200.478C224.821 199.803 225.628 199.968 226.082 199.902C227.048 199.761 228.023 199.674 228.996 199.603C235.311 199.145 241.602 198.473 247.871 197.587C250.77 197.176 253.694 196.942 256.672 196.621Z" fill="white"/>
<path d="M213.72 201.306C213.881 199.868 214.118 198.434 214.189 196.992C214.501 190.604 215.71 184.339 216.72 178.046C216.773 177.58 216.857 177.119 216.97 176.664C217.018 176.501 217.287 176.404 217.455 176.277C217.578 176.447 217.819 176.63 217.803 176.786C217.707 177.719 217.555 178.646 217.417 179.574C216.776 183.867 216.058 188.151 215.516 192.456C215.12 195.596 214.951 198.764 214.689 201.92C214.659 202.272 214.72 202.703 214.216 202.693C213.715 202.683 213.773 202.245 213.762 201.898C213.755 201.702 213.76 201.507 213.76 201.311L213.72 201.306Z" fill="white"/>
<path d="M279.731 217.128C278.098 217.128 276.462 217.066 274.832 217.144C272.953 217.254 271.13 217.829 269.527 218.817C265.908 220.973 262.171 222.924 258.334 224.661C257.986 224.835 257.623 224.978 257.25 225.09C257.16 225.091 257.071 225.07 256.992 225.027C256.912 224.984 256.845 224.922 256.796 224.847C256.776 224.76 256.777 224.669 256.8 224.583C256.824 224.497 256.867 224.418 256.928 224.353C257.146 224.189 257.385 224.057 257.64 223.962C261.388 222.308 265.023 220.412 268.524 218.285C271.994 216.138 275.774 215.838 279.695 216.255C279.851 216.249 280.005 216.285 280.141 216.361C280.294 216.498 280.498 216.733 280.466 216.879C280.434 217.028 280.147 217.131 279.961 217.232C279.904 217.263 279.809 217.225 279.731 217.218V217.128Z" fill="white"/>
<path d="M161.094 11.9765C161.253 12.1464 161.38 12.3431 161.47 12.5576C161.615 13.2052 161.664 13.8745 161.81 14.5219C162.805 18.9457 163.809 23.3673 164.823 27.7868C165.278 29.7658 165.782 31.7338 166.233 33.7137C166.259 33.8343 166.257 33.9593 166.227 34.0789C166.196 34.1985 166.139 34.3094 166.059 34.4031C165.711 34.6337 165.481 34.3426 165.36 34.033C165.198 33.6352 165.064 33.2261 164.96 32.8091C163.742 27.5538 162.519 22.2996 161.333 17.0368C161.024 15.6654 160.838 14.2661 160.606 12.8777C160.548 12.5265 160.521 12.1625 161.094 11.9765Z" fill="white"/>
<path d="M92.7603 49.6034C93.0309 49.7401 93.2933 49.8923 93.5462 50.0594C96.0181 51.8421 98.5161 53.5909 100.941 55.4364C103.209 57.1635 105.404 58.9888 107.616 60.7889C108.002 61.1174 108.352 61.4857 108.66 61.8879C108.698 61.9697 108.714 62.0599 108.707 62.1497C108.699 62.2396 108.669 62.326 108.619 62.4007C108.54 62.4453 108.453 62.4732 108.363 62.4826C108.273 62.492 108.182 62.4828 108.096 62.4554C107.96 62.4233 107.849 62.2752 107.734 62.1715C103.128 58.0386 98.144 54.4 93.0555 50.8973C92.7896 50.7359 92.5448 50.5419 92.3271 50.3196C92.0894 50.0448 92.2752 49.6472 92.7603 49.6034Z" fill="white"/>
<path d="M235.124 241.083C235.39 241.292 235.632 241.529 235.847 241.789C236.76 243.244 237.745 244.665 238.519 246.192C239.985 249.083 241.333 252.033 242.708 254.969C243.036 255.678 243.314 256.409 243.541 257.157C243.594 257.331 243.363 257.593 243.263 257.815C243.073 257.714 242.876 257.623 242.696 257.507C242.642 257.472 242.633 257.368 242.601 257.297C241.159 254.136 239.78 250.944 238.253 247.825C237.328 245.937 236.173 244.162 235.121 242.337C235.005 242.135 234.808 241.945 234.787 241.736C234.77 241.567 234.962 241.377 235.124 241.083Z" fill="white"/>
<path d="M104.638 45.0241C104.86 45.1495 105.066 45.3025 105.251 45.4795C105.691 46.0251 106.096 46.5982 106.464 47.1953C108.385 50.5095 109.839 54.0389 111.175 57.6193C111.303 57.9616 111.564 58.4452 111.046 58.6297C110.536 58.8117 110.449 58.2796 110.301 57.9341C109.165 55.2859 108.094 52.6068 106.869 50.0008C106.228 48.6376 105.314 47.4032 104.527 46.1083C104.428 45.9452 104.27 45.7593 104.287 45.5997C104.306 45.4164 104.49 45.2506 104.638 45.0241Z" fill="white"/>
<path d="M271.481 213.768C271.436 213.83 271.376 213.992 271.259 214.065C271.057 214.18 270.841 214.271 270.617 214.336C266.736 215.619 263.501 217.819 261.017 221.091C260.924 221.214 260.837 221.381 260.71 221.429C260.542 221.49 260.357 221.488 260.19 221.423C260.135 221.374 260.094 221.312 260.071 221.242C260.047 221.173 260.041 221.099 260.054 221.027C260.14 220.767 260.268 220.525 260.435 220.309C263.032 217.003 266.572 214.567 270.585 213.323C271.151 213.141 271.5 213.314 271.481 213.768Z" fill="white"/>
<path d="M192.651 278.274C192.601 277 192.399 276.799 191.141 276.772C187.655 276.699 184.169 276.654 180.684 276.581C173.043 276.422 165.402 276.258 157.762 276.088C150.3 275.926 142.838 275.764 135.376 275.601C131.087 275.505 126.798 275.391 122.509 275.282C122.244 275.275 121.979 275.246 121.589 275.219C121.447 274.732 121.289 274.231 121.157 273.723C115.817 253.176 110.478 232.629 105.14 212.082C102.982 203.776 100.825 195.471 98.6671 187.166C98.5934 186.816 98.4932 186.472 98.3672 186.137H0.436035C0.452796 186.194 0.4696 186.25 0.486449 186.306C9.49335 216.129 18.4977 245.952 27.4993 275.777C28.2869 278.386 29.1309 281.264 29.9084 283.877C29.9084 283.877 82.5387 284.018 89.6447 283.998C97.0188 283.978 104.393 283.957 111.767 283.935C118.694 283.916 125.622 283.897 132.549 283.878C140.191 283.856 147.834 283.835 155.476 283.813C162.582 283.793 169.688 283.773 176.794 283.753C181.263 283.739 185.732 283.728 190.201 283.69C190.95 283.684 191.697 283.548 192.611 283.455C192.675 283.073 192.718 282.687 192.738 282.299C192.724 280.957 192.704 279.615 192.651 278.274Z" fill="#333333"/>
<path d="M45.2347 230.712L65.8935 230.957C66.2611 230.961 66.6246 230.879 66.9549 230.718C67.2852 230.556 67.5731 230.32 67.7956 230.027C68.0181 229.734 68.169 229.393 68.2363 229.031C68.3035 228.669 68.2852 228.297 68.1828 227.943L67.1149 224.257C66.9742 223.772 66.6811 223.344 66.2789 223.038C65.8767 222.732 65.3867 222.563 64.8815 222.557L44.2226 222.312C43.855 222.308 43.4915 222.389 43.1612 222.551C42.8309 222.712 42.543 222.949 42.3205 223.242C42.098 223.535 41.947 223.876 41.8798 224.238C41.8126 224.6 41.8309 224.972 41.9333 225.325L43.0012 229.011C43.1419 229.497 43.4351 229.925 43.8373 230.231C44.2395 230.537 44.7294 230.706 45.2347 230.712Z" fill="white"/>
</svg>
