<svg width="56" height="57" viewBox="0 0 56 57" fill="none" xmlns="http://www.w3.org/2000/svg">
<g clip-path="url(#clip0_32_1515)">
<path d="M54.2673 38.8419C55.361 39.9356 55.9324 41.5074 55.9697 42.9347C55.9347 44.3619 55.3703 45.9244 54.2836 47.0088L48.2715 52.8903C47.8191 53.3334 47.2291 53.5549 46.6414 53.5549C46.0351 53.5549 45.4311 53.3194 44.974 52.853C44.0738 51.9318 44.0901 50.4579 45.0113 49.5554L49.3979 45.2644H44.3117C40.4544 45.2644 37.3155 48.4034 37.3155 52.2606V54.5927C37.3155 55.8823 36.273 56.9247 34.9834 56.9247C33.6937 56.9247 32.6513 55.8823 32.6513 54.5927V52.2606C32.6513 45.8311 37.8821 40.6003 44.3117 40.6003H49.3979L45.0113 36.3092C44.0901 35.4067 44.0761 33.9305 44.974 33.0117C45.8788 32.0905 47.355 32.0765 48.2715 32.9744L54.2649 38.8395L54.2673 38.8419ZM34.9811 5.62154C32.4088 5.62154 30.3169 7.7134 30.3169 10.2857V44.1007C30.3169 51.1715 24.5614 56.9271 17.4905 56.9271C11.8423 56.9271 6.96123 53.2984 5.2868 47.9836C2.00325 45.8358 0 42.2024 0 38.2705C0 36.2043 0.548036 34.2197 1.5998 32.4403C0.550369 30.661 0 28.6764 0 26.6102C0 22.9535 1.75372 19.5207 4.66414 17.3309V17.2819C4.66414 12.858 7.7588 9.1453 11.8982 8.19148C12.852 4.05439 16.567 0.957397 20.9886 0.957397C23.7731 0.957397 26.2754 2.18407 27.9848 4.12202C29.6942 2.18173 32.1966 0.957397 34.9811 0.957397C39.4027 0.957397 43.1176 4.05205 44.0715 8.19148C48.2086 9.1453 51.3055 12.858 51.3055 17.2819V17.3309C54.216 19.5207 55.9697 22.9512 55.9697 26.6102C55.9697 27.6013 55.8391 28.5878 55.5849 29.5416C55.3074 30.5863 54.3652 31.2743 53.3344 31.2743C53.1339 31.2743 52.9333 31.2487 52.7304 31.195C51.4874 30.8639 50.7458 29.5859 51.0793 28.3406C51.2286 27.7762 51.3055 27.1932 51.3055 26.6078C51.3055 24.1125 49.9273 21.7874 47.7072 20.5375C46.8443 20.0524 46.3825 19.0753 46.5551 18.1004C46.6018 17.8323 46.6414 17.5617 46.6414 17.2796C46.6414 14.7073 44.5495 12.6154 41.9773 12.6154C40.6876 12.6154 39.6452 11.5706 39.6452 10.2833C39.6452 7.71107 37.5533 5.61921 34.9811 5.61921V5.62154ZM25.6528 10.2857C25.6528 7.7134 23.5609 5.62154 20.9886 5.62154C18.4164 5.62154 16.3245 7.7134 16.3245 10.2857C16.3245 11.573 15.2821 12.6177 13.9924 12.6177C11.4201 12.6177 9.32828 14.7096 9.32828 17.2819C9.32828 17.5641 9.37026 17.8346 9.41457 18.1028C9.58714 19.0776 9.12539 20.0547 8.26252 20.5398C6.04239 21.7874 4.66414 24.1149 4.66414 26.6102C4.66414 28.1843 5.20984 29.6932 6.24762 30.9758C6.93791 31.8317 6.93791 33.0513 6.24762 33.9072C5.21218 35.1875 4.66414 36.6964 4.66414 38.2705C4.66414 40.8265 6.08903 43.1772 8.38846 44.4062C8.9808 44.7257 9.40757 45.2831 9.55916 45.9384C10.4174 49.6627 13.6823 52.2629 17.4905 52.2629C21.9914 52.2629 25.6528 48.6016 25.6528 44.1007V10.2857Z" fill="#1D884A"/>
</g>
<defs>
<clipPath id="clip0_32_1515">
<rect width="55.9697" height="55.9697" fill="white" transform="translate(0 0.957397)"/>
</clipPath>
</defs>
</svg>
