<svg width="21" height="19" viewBox="0 0 21 19" fill="none" xmlns="http://www.w3.org/2000/svg">
<g clip-path="url(#clip0_114_4)">
<path d="M10.4672 6.53125C12.2391 6.53125 13.6427 5.06914 13.6427 3.26562C13.6427 1.46211 12.2719 0 10.4672 0C8.66251 0 7.29168 1.46211 7.29168 3.26562C7.29168 5.06914 8.72814 6.53125 10.4672 6.53125ZM10.4672 1.78125C11.2715 1.78125 11.8927 2.44699 11.8927 3.26562C11.8927 4.08389 11.2387 4.75 10.4672 4.75C9.69574 4.75 9.00887 4.08574 9.00887 3.26562C9.00887 2.44699 9.69429 1.78125 10.4672 1.78125ZM20.0922 17.2188H0.875014C0.391941 17.2188 0.0328261 17.6173 0.0328261 18.1094C0.0328261 18.6011 0.424753 19 0.875014 19H20.0922C20.5753 19 20.9344 18.6011 20.9344 18.1094C20.9672 17.6158 20.6099 17.2188 20.0922 17.2188ZM0.875014 12.7656C1.07666 12.7656 1.27934 12.6949 1.44449 12.5511C2.47517 11.6189 4.21824 10.6615 6.38387 10.0604L6.41668 16.0312H8.13387V9.69668C8.92137 9.58164 9.70522 9.5 10.5328 9.5C11.3327 9.5 12.0954 9.57778 12.833 9.69004V16.0312H14.583L14.583 10.0492C16.7635 10.6411 18.5168 11.6163 19.5668 12.5014C19.9358 12.8122 20.4907 12.7641 20.7984 12.3837C21.1071 12.0052 21.0559 11.4433 20.6833 11.1294C18.2255 9.0584 14.2406 7.71875 10.5328 7.71875C6.74481 7.71875 2.7271 9.08475 0.306264 11.1989C-0.0605073 11.5189 -0.102799 12.0813 0.211691 12.4546C0.38392 12.6617 0.62892 12.7656 0.875014 12.7656ZM10.4672 13.9531C10.4672 14.4448 10.8591 14.8438 11.3094 14.8438C11.7925 14.8438 12.1516 14.4448 12.1516 13.9531C12.1516 13.4611 11.7597 13.0625 11.3094 13.0625C10.8901 13.0625 10.4672 13.4596 10.4672 13.9531ZM17.7589 8.3125C18.2419 8.3125 18.6011 7.91357 18.6011 7.42188C18.6011 6.9298 18.2091 6.53125 17.7589 6.53125C17.2758 6.53125 16.9167 6.9298 16.9167 7.42188C16.8839 7.91543 17.3068 8.3125 17.7589 8.3125ZM2.04168 8.90625C2.52475 8.90625 2.88387 8.50732 2.88387 8.01562C2.88387 7.52355 2.49194 7.125 2.04168 7.125C1.59142 7.125 1.16668 7.52207 1.16668 8.01562C1.16668 8.50918 1.55861 8.90625 2.04168 8.90625Z" fill="#1D884A"/>
</g>
<defs>
<clipPath id="clip0_114_4">
<rect width="21" height="19" fill="white"/>
</clipPath>
</defs>
</svg>
