<svg width="19" height="19" viewBox="0 0 19 19" fill="none" xmlns="http://www.w3.org/2000/svg">
<path d="M18.768 17.6486L14.0426 12.9232C15.3303 11.3482 15.9635 9.33857 15.811 7.3099C15.6586 5.28123 14.7323 3.38875 13.2237 2.02391C11.7151 0.659066 9.73956 -0.0737151 7.7058 -0.0228649C5.67205 0.0279853 3.73564 0.858576 2.29711 2.29711C0.858584 3.73564 0.0279929 5.67204 -0.0228572 7.70579C-0.0737074 9.73955 0.659074 11.715 2.02392 13.2237C3.38876 14.7323 5.28124 15.6586 7.30991 15.811C9.33858 15.9635 11.3482 15.3303 12.9232 14.0426L17.6486 18.768C17.7979 18.9122 17.9979 18.992 18.2055 18.9902C18.4131 18.9884 18.6116 18.9052 18.7584 18.7584C18.9052 18.6116 18.9884 18.4131 18.9902 18.2055C18.9921 17.9979 18.9123 17.7979 18.768 17.6486ZM7.91667 14.25C6.66406 14.25 5.43957 13.8786 4.39806 13.1826C3.35655 12.4867 2.54479 11.4976 2.06543 10.3403C1.58608 9.18306 1.46066 7.90964 1.70503 6.68109C1.9494 5.45254 2.55259 4.32405 3.43833 3.43832C4.32406 2.55259 5.45255 1.94939 6.6811 1.70502C7.90965 1.46065 9.18307 1.58607 10.3403 2.06542C11.4976 2.54478 12.4867 3.35654 13.1826 4.39805C13.8786 5.43956 14.25 6.66405 14.25 7.91666C14.2481 9.59579 13.5803 11.2056 12.3929 12.3929C11.2056 13.5802 9.5958 14.2481 7.91667 14.25Z" fill="#828282"/>
</svg>
