<svg width="445" height="276" viewBox="0 0 445 276" fill="none" xmlns="http://www.w3.org/2000/svg">
<path d="M208.731 202.026C182.926 165.197 191.891 114.239 228.715 88.4312C265.54 62.6234 316.493 71.5889 342.299 108.417C368.104 145.246 359.139 196.204 322.315 222.012C285.49 247.82 234.537 238.854 208.731 202.026ZM321.112 123.265C314.793 114.246 305.941 107.304 295.676 103.316C285.411 99.3284 274.194 98.4744 263.444 100.862C252.694 103.25 242.893 108.772 235.281 116.731C227.669 124.689 222.587 134.726 220.679 145.573C218.771 156.419 220.122 167.588 224.56 177.667C228.999 187.746 236.327 196.282 245.617 202.196C254.907 208.11 265.741 211.136 276.751 210.892C287.76 210.647 298.45 207.144 307.468 200.823C319.547 192.337 327.768 179.406 330.326 164.866C332.884 150.326 329.57 135.365 321.112 123.265Z" fill="#333333"/>
<path d="M429.525 34.0071L325.465 106.936L335.363 121.062L439.423 48.1329L429.525 34.0071Z" fill="#333333"/>
<path d="M417.306 105.702L444.569 39.8279C444.933 38.9477 445.068 37.9902 444.964 37.0436C444.86 36.0971 444.518 35.1921 443.972 34.4124C443.425 33.6327 442.691 33.0034 441.836 32.5826C440.982 32.1619 440.036 31.9633 439.084 32.0051L367.862 35.1493C366.362 35.2193 364.951 35.8807 363.938 36.9886C362.925 38.0965 362.392 39.5608 362.456 41.0608C362.488 41.8045 362.667 42.5345 362.982 43.209C363.297 43.8834 363.743 44.4891 364.292 44.9912C364.842 45.4933 365.485 45.8819 366.185 46.135C366.885 46.388 367.628 46.5004 368.372 46.4656L430.702 43.7132L406.841 101.366C406.554 102.054 406.405 102.792 406.403 103.537C406.402 104.282 406.547 105.021 406.831 105.71C407.115 106.399 407.533 107.025 408.059 107.552C408.586 108.08 409.211 108.498 409.9 108.783C410.588 109.068 411.326 109.215 412.071 109.214C412.817 109.214 413.554 109.066 414.242 108.78C414.93 108.494 415.555 108.074 416.081 107.546C416.607 107.018 417.023 106.391 417.306 105.702Z" fill="#333333"/>
<path d="M264.304 102.037C290.11 138.865 281.145 189.824 244.32 215.631C207.496 241.439 156.542 232.474 130.737 195.645C104.931 158.817 113.896 107.859 150.721 82.0507C187.546 56.2427 238.499 65.2086 264.304 102.037ZM151.924 180.797C158.243 189.816 167.095 196.759 177.36 200.747C187.625 204.734 198.842 205.588 209.592 203.201C220.342 200.813 230.143 195.291 237.755 187.332C245.367 179.374 250.449 169.337 252.357 158.49C254.265 147.643 252.914 136.474 248.475 126.396C244.037 116.317 236.709 107.781 227.419 101.867C218.129 95.9527 207.295 92.9265 196.285 93.1709C185.276 93.4152 174.586 96.9191 165.568 103.239C153.488 111.725 145.268 124.657 142.71 139.197C140.152 153.737 143.466 168.697 151.924 180.797Z" fill="#1D884A"/>
<path d="M137.673 183.001L147.571 197.127L50.573 265.106C48.7 266.419 46.3823 266.933 44.1298 266.537C41.8773 266.141 39.8745 264.866 38.562 262.992C37.2494 261.119 36.7347 258.801 37.131 256.549C37.5272 254.296 38.8021 252.293 40.6751 250.98L137.673 183.001Z" fill="#1D884A"/>
<path d="M92.1213 273.763L47.1505 209.583C46.3516 208.442 46.0384 207.031 46.2797 205.66C46.5209 204.289 47.297 203.07 48.4371 202.271C49.0016 201.875 49.6386 201.595 50.3115 201.445C50.9844 201.296 51.6802 201.28 52.3591 201.4C53.038 201.519 53.6867 201.771 54.2682 202.141C54.8498 202.512 55.3526 202.993 55.7482 203.557L100.719 267.737C101.518 268.877 101.831 270.288 101.59 271.659C101.349 273.031 100.573 274.25 99.4327 275.049C98.8682 275.445 98.2312 275.725 97.5583 275.875C96.8853 276.024 96.1895 276.04 95.5106 275.92C94.8317 275.801 94.1829 275.549 93.6014 275.179C93.0198 274.808 92.5169 274.327 92.1213 273.763Z" fill="#1D884A"/>
<path d="M30.141 16.977C30.141 16.977 29.2396 12.9979 27.8923 12.3836C26.545 11.7692 22.9646 10.6445 24.1961 8.47916C25.4276 6.31382 28.4963 5.08666 29.4973 8.13059C30.4984 11.1745 31.9097 14.0923 34.0221 14.5069C36.1345 14.9214 30.4715 19.5531 30.141 16.977Z" fill="#1D884A"/>
<path d="M29.3508 27.0729C29.3508 27.0729 25.5255 25.5137 24.2409 26.2468C22.9563 26.9799 19.9646 29.2198 18.8721 26.9832C17.7797 24.7467 18.5224 21.5683 21.6276 22.51C24.7329 23.4516 27.969 23.9901 29.5271 22.5256C31.0852 21.0611 31.6821 28.2864 29.3508 27.0729Z" fill="#1D884A"/>
<path d="M50.3931 15.5808C50.3931 15.5808 54.4684 14.8632 55.149 13.5637C55.8296 12.2643 57.1229 8.78953 59.2675 10.0932C61.4121 11.3969 62.5267 14.4681 59.3958 15.3236C56.2649 16.1791 53.2446 17.4436 52.7342 19.5043C52.2237 21.5649 47.7652 15.7965 50.3931 15.5808Z" fill="#1D884A"/>
<path d="M54.7801 22.5627C54.7801 22.5627 58.0083 25.1153 59.4501 24.7661C60.8919 24.4169 64.4011 23.0926 64.8132 25.5411C65.2253 27.9895 63.6076 30.8355 60.8948 29.0745C58.182 27.3135 55.229 25.9033 53.3165 26.8791C51.404 27.8548 52.8877 20.7545 54.7801 22.5627Z" fill="#1D884A"/>
<path d="M44.5395 36.7093C44.5395 36.7093 42.7589 40.3898 43.4355 41.6913C44.112 42.9928 46.2275 46.0515 43.9025 47.0093C41.5774 47.9671 38.3928 47.071 39.5096 44.0664C40.6264 41.0617 41.3412 37.9075 39.9372 36.2989C38.5332 34.6904 45.8915 34.48 44.5395 36.7093Z" fill="#1D884A"/>
<path d="M53.3172 35.0431C59.5563 28.8993 59.5563 18.9382 53.3172 12.7943C47.0782 6.65049 36.9626 6.65049 30.7236 12.7943C24.4845 18.9382 24.4845 28.8993 30.7236 35.0431C36.9626 41.187 47.0782 41.187 53.3172 35.0431Z" fill="#1D884A"/>
<path d="M39.2503 13.1028C39.2503 13.1028 41.956 8.72568 41.2796 7.01289C40.6032 5.3001 38.3562 1.20845 41.3881 0.304474C44.42 -0.5995 48.2852 0.922986 46.4976 4.53885C44.7099 8.1547 43.4054 12.0086 44.9515 14.1971C46.4975 16.3856 37.2694 15.7196 39.2503 13.1028Z" fill="#1D884A"/>
<path d="M53.1343 27.9606C53.1343 27.9606 55.1433 32.6876 56.9483 33.1543C58.7534 33.6209 63.436 34.2328 62.3986 37.1803C61.3612 40.1277 57.8398 42.3144 55.9176 38.7662C53.9954 35.2179 51.5937 31.915 48.8868 31.8621C46.1799 31.8092 52.1467 24.845 53.1343 27.9606Z" fill="#1D884A"/>
<path d="M35.9946 31.4955C35.9946 31.4955 31.1961 33.4779 30.7238 35.2558C30.2514 37.0337 29.6342 41.6454 26.6402 40.6264C23.6461 39.6074 21.4224 36.1418 25.024 34.2457C28.6256 32.3496 31.9775 29.9818 32.0289 27.3163C32.0803 24.6508 39.1576 30.5202 35.9946 31.4955Z" fill="#1D884A"/>
<path d="M31.9973 107.646C36.4521 107.646 40.0634 104.09 40.0634 99.7027C40.0634 95.3159 36.4521 91.7597 31.9973 91.7597C27.5425 91.7597 23.9312 95.3159 23.9312 99.7027C23.9312 104.09 27.5425 107.646 31.9973 107.646Z" fill="#333333"/>
<path d="M32.9486 59.8044L36.8752 58.9668C37.4548 58.8431 38.0605 58.9513 38.5591 59.2674C39.0578 59.5836 39.4084 60.0818 39.534 60.6526L39.55 60.7255C39.6756 61.2963 39.5658 61.8927 39.2447 62.3837C38.9237 62.8747 38.4177 63.22 37.8381 63.3437L33.9123 64.1812C33.3326 64.3048 32.7268 64.1966 32.2281 63.8805C31.7294 63.5643 31.3787 63.0659 31.2531 62.4951L31.237 62.4222C31.1115 61.8515 31.2213 61.2551 31.5423 60.7642C31.8633 60.2733 32.3691 59.9281 32.9486 59.8045L32.9486 59.8044Z" fill="#333333"/>
<path d="M24.9767 61.7755L28.8054 60.5778C29.0853 60.4903 29.3799 60.4579 29.6725 60.4824C29.9651 60.507 30.2499 60.5881 30.5107 60.7211C30.7714 60.8541 31.0031 61.0363 31.1923 61.2574C31.3815 61.4786 31.5247 61.7342 31.6136 62.0098L31.6365 62.081C31.8161 62.6375 31.7637 63.2415 31.491 63.7601C31.2184 64.2786 30.7476 64.6693 30.1825 64.8461L26.3538 66.0437C25.7885 66.2206 25.1751 66.169 24.6485 65.9005C24.1219 65.6319 23.7252 65.1684 23.5456 64.6118L23.5227 64.5406C23.3431 63.9841 23.3955 63.3801 23.6681 62.8615C23.9408 62.343 24.4116 61.9523 24.9767 61.7755L24.9767 61.7755Z" fill="#333333"/>
<path d="M23.7333 64.1242C23.9248 64.3435 24.0705 64.5977 24.1622 64.8724C24.2539 65.1471 24.2897 65.4369 24.2677 65.7253C24.2456 66.0136 24.1661 66.2949 24.0337 66.5529C23.9013 66.811 23.7185 67.0409 23.4959 67.2294L20.45 69.8088C20.0003 70.1896 19.4155 70.3788 18.8241 70.335C18.2328 70.2911 17.6833 70.0178 17.2966 69.575L17.2472 69.5184C17.0558 69.2991 16.91 69.0449 16.8183 68.7702C16.7267 68.4955 16.6908 68.2057 16.7129 67.9174C16.7349 67.629 16.8144 67.3478 16.9468 67.0897C17.0793 66.8316 17.262 66.6017 17.4847 66.4132L20.5306 63.8338C20.9802 63.4531 21.565 63.2638 22.1564 63.3076C22.7478 63.3515 23.2972 63.6249 23.6839 64.0676L23.7333 64.1242Z" fill="#333333"/>
<path d="M11.3524 70.8234L14.8638 68.9014C15.3821 68.6176 15.9936 68.5483 16.5639 68.7086C17.1341 68.8689 17.6163 69.2457 17.9044 69.7561L17.9412 69.8213C18.0839 70.0741 18.1746 70.352 18.2082 70.6393C18.2418 70.9266 18.2176 71.2176 18.137 71.4957C18.0563 71.7737 17.9209 72.0334 17.7384 72.26C17.5558 72.4865 17.3297 72.6754 17.0731 72.8159L13.5618 74.7379C13.0435 75.0216 12.4319 75.0909 11.8617 74.9306C11.2915 74.7704 10.8093 74.3936 10.5212 73.8832L10.4843 73.8178C10.3416 73.5651 10.2509 73.2871 10.2173 72.9999C10.1838 72.7126 10.208 72.4216 10.2886 72.1436C10.3692 71.8655 10.5046 71.6058 10.6872 71.3793C10.8697 71.1528 11.0957 70.9639 11.3524 70.8234Z" fill="#333333"/>
<path d="M4.51665 73.8009L8.34231 72.5944C8.62198 72.5062 8.91656 72.4731 9.20922 72.497C9.50188 72.5209 9.7869 72.6013 10.048 72.7337C10.3091 72.8661 10.5412 73.0478 10.7309 73.2685C10.9207 73.4892 11.0645 73.7445 11.1541 74.0199L11.1772 74.091C11.2667 74.3663 11.3003 74.6564 11.2761 74.9445C11.2518 75.2327 11.1701 75.5133 11.0357 75.7703C10.9013 76.0274 10.7168 76.2559 10.4927 76.4427C10.2687 76.6296 10.0094 76.7711 9.72979 76.8593L5.90378 78.0659C5.339 78.244 4.7255 78.1939 4.19825 77.9266C3.67099 77.6593 3.27317 77.1967 3.0923 76.6405L3.06918 76.5694C2.88831 76.0133 2.9392 75.4092 3.21066 74.89C3.48211 74.3708 3.95189 73.979 4.51665 73.8009Z" fill="#333333"/>
<path d="M95.8919 42.8591C95.8708 42.872 95.8487 42.8847 95.8272 42.8967C95.5601 43.0471 95.2655 43.1443 94.9602 43.1826C94.655 43.2209 94.345 43.1996 94.0481 43.12C93.7512 43.0403 93.4732 42.9039 93.2298 42.7184C92.9865 42.5329 92.7826 42.302 92.6299 42.0389C90.6921 38.7 86.8024 36.4694 85.9431 36.0961C85.376 35.8499 84.9302 35.3936 84.7023 34.8261C84.4743 34.2586 84.4826 33.6255 84.7253 33.0639C84.967 32.5052 85.4238 32.0636 85.9956 31.836C86.5674 31.6083 87.2074 31.6132 87.7756 31.8494C87.8331 31.8728 93.634 34.4701 96.6987 39.7489C97.0005 40.2691 97.085 40.8844 96.9345 41.4648C96.7839 42.0452 96.41 42.5453 95.8919 42.8591Z" fill="#1D884A"/>
<path d="M86.8011 49.444C86.78 49.4569 86.7579 49.4696 86.7364 49.4816C86.4693 49.632 86.1747 49.7292 85.8694 49.7675C85.5642 49.8058 85.2542 49.7845 84.9573 49.7049C84.6604 49.6252 84.3824 49.4888 84.139 49.3033C83.8957 49.1178 83.6918 48.887 83.5391 48.6239C81.6013 45.2849 77.7115 43.0543 76.8523 42.681C76.2852 42.4348 75.8394 41.9785 75.6114 41.411C75.3835 40.8435 75.3918 40.2104 75.6345 39.6489C75.8762 39.0902 76.333 38.6486 76.9048 38.421C77.4765 38.1933 78.1166 38.1981 78.6848 38.4344C78.7423 38.4577 84.5432 41.055 87.6079 46.3339C87.9097 46.854 87.9942 47.4693 87.8437 48.0498C87.6931 48.6302 87.3192 49.1302 86.8011 49.444Z" fill="#1D884A"/>
<path d="M76.5317 59.9477C76.1635 60.1701 75.7401 60.288 75.3082 60.2884C74.8762 60.2887 74.4526 60.1714 74.0841 59.9495C73.7156 59.7276 73.4166 59.4097 73.2201 59.0309C73.0236 58.6521 72.9373 58.2272 72.9707 57.8032C73.2722 53.9642 71.502 50.2502 71.0051 49.4677C70.3222 48.3942 70.8008 47.2263 71.8963 46.5633L71.9306 46.5425C73.0113 45.8885 74.2466 45.9107 74.9395 46.9623C75.6525 48.0445 78.1435 53.0238 77.7289 58.2979C77.6687 59.0637 77.1484 59.5745 76.5317 59.9477Z" fill="#1D884A"/>
<path d="M68.5972 70.3869C68.2558 70.5929 67.8666 70.7093 67.4665 70.7251C67.0665 70.7409 66.669 70.6555 66.312 70.4771C65.9549 70.2987 65.6502 70.0333 65.427 69.706C65.2037 69.3788 65.0692 69.0007 65.0365 68.6077C64.7188 64.7733 62.1574 61.1305 61.5401 60.4341C61.1307 59.9779 60.9209 59.3809 60.9565 58.7731C60.9921 58.1654 61.2702 57.5961 61.7302 57.1893C62.1902 56.7825 62.7948 56.5712 63.4122 56.6015C64.0297 56.6317 64.61 56.901 65.0267 57.3508C65.0682 57.3966 69.2043 62.1666 69.707 68.2322C69.7422 68.6573 69.6571 69.0836 69.4612 69.4639C69.2653 69.8443 68.9663 70.1637 68.5972 70.3869Z" fill="#1D884A"/>
<path d="M61.5556 76.3014C61.069 76.5948 60.4905 76.7034 59.9285 76.6068C59.3665 76.5102 58.8595 76.2151 58.5027 75.7767C56.0583 72.7723 51.8675 71.1677 50.9609 70.932C50.3617 70.7763 49.8489 70.3945 49.5336 69.8692C49.2182 69.344 49.1256 68.7175 49.2759 68.1255C49.4253 67.5364 49.8058 67.0297 50.334 66.7164C50.8622 66.4031 51.4949 66.3088 52.0936 66.4541C53.3657 66.7643 58.8016 68.7647 62.159 72.8911C62.3515 73.1275 62.4948 73.3989 62.5807 73.6898C62.6666 73.9808 62.6935 74.2855 62.6598 74.5867C62.6261 74.8878 62.5324 75.1795 62.3842 75.445C62.236 75.7106 62.0361 75.9447 61.796 76.1341C61.7195 76.1947 61.6392 76.2506 61.5556 76.3014Z" fill="#1D884A"/>
<path d="M55.1077 83.3921C54.7751 83.5935 54.3964 83.7093 54.0064 83.7291C50.1043 83.9332 46.3364 86.349 45.6102 86.9376C45.1322 87.3263 44.518 87.5138 43.9006 87.4596C43.2832 87.4053 42.7123 87.1137 42.3118 86.6478C41.9135 86.1844 41.7179 85.5844 41.7679 84.9792C41.8179 84.3741 42.1094 83.8131 42.5785 83.4192C43.5796 82.579 48.4021 79.4002 53.7581 79.1212C54.2785 79.094 54.7932 79.2385 55.2208 79.5316C55.6485 79.8248 55.9647 80.2499 56.1196 80.7399C56.2744 81.2298 56.2589 81.7566 56.0757 82.237C55.8924 82.7173 55.5518 83.1238 55.1077 83.3922L55.1077 83.3921Z" fill="#1D884A"/>
<path d="M60.4139 105.044C60.0774 105.247 59.6945 105.362 59.3007 105.38C58.9069 105.397 58.5149 105.317 58.1612 105.145C57.8075 104.974 57.5035 104.717 57.2775 104.399C57.0515 104.081 56.9107 103.712 56.8684 103.326C56.7342 102.042 56.8058 96.327 59.6084 91.8206C59.933 91.2987 60.4549 90.9252 61.0591 90.7822C61.6634 90.6391 62.3006 90.7384 62.8306 91.058C63.3606 91.3776 63.7399 91.8915 63.8851 92.4865C64.0304 93.0816 63.9296 93.7091 63.605 94.231C61.5634 97.5124 61.4491 101.941 61.5301 102.86C61.5679 103.291 61.4835 103.723 61.2864 104.108C61.0893 104.494 60.7872 104.818 60.4139 105.044Z" fill="#1D884A"/>
<path d="M77.0531 107.567C76.6266 107.826 76.1263 107.943 75.6269 107.9C75.1275 107.856 74.6558 107.655 74.2823 107.325C73.3049 106.465 69.4514 102.191 68.4444 96.999C68.3867 96.7014 68.3891 96.3955 68.4514 96.0987C68.5137 95.802 68.6348 95.5203 68.8077 95.2696C68.9806 95.0189 69.2019 94.8043 69.4591 94.6379C69.7162 94.4714 70.0041 94.3565 70.3064 94.2997C70.6086 94.2428 70.9193 94.2451 71.2206 94.3065C71.5219 94.3679 71.8081 94.4871 72.0626 94.6574C72.3171 94.8276 72.5351 95.0456 72.7041 95.2988C72.8731 95.552 72.9898 95.8356 73.0476 96.1332C73.7808 99.914 76.7223 103.264 77.411 103.891C77.8667 104.304 78.1386 104.878 78.1678 105.487C78.1969 106.097 77.9809 106.693 77.5667 107.147C77.4163 107.31 77.2434 107.451 77.0531 107.567Z" fill="#1D884A"/>
<path d="M89.3957 104.43C88.9692 104.69 88.4689 104.806 87.9695 104.763C87.4701 104.719 86.9984 104.518 86.6249 104.189C85.6475 103.328 81.794 99.0541 80.7871 93.8622C80.6715 93.2615 80.8027 92.6402 81.152 92.1348C81.5012 91.6293 82.0398 91.281 82.6496 91.1663C83.2594 91.0515 83.8906 91.1798 84.4044 91.523C84.9182 91.8661 85.2728 92.396 85.3902 92.9963C86.1234 96.7771 89.0649 100.127 89.7536 100.754C90.2093 101.167 90.4812 101.741 90.5103 102.351C90.5395 102.96 90.3235 103.556 89.9093 104.01C89.7589 104.173 89.586 104.315 89.3957 104.43Z" fill="#1D884A"/>
<path d="M103.643 99.0573C103.216 99.3168 102.716 99.4335 102.217 99.39C101.717 99.3464 101.246 99.145 100.872 98.8158C99.8947 97.9554 96.0412 93.6813 95.0343 88.4894C94.9766 88.1918 94.9789 87.8859 95.0412 87.5891C95.1036 87.2924 95.2246 87.0107 95.3975 86.76C95.7467 86.2538 96.2858 85.9049 96.8962 85.7901C97.5066 85.6752 98.1384 85.8039 98.6524 86.1478C98.907 86.318 99.125 86.536 99.294 86.7892C99.463 87.0424 99.5797 87.3259 99.6374 87.6236C100.371 91.4044 103.312 94.7542 104.001 95.3809C104.457 95.7945 104.728 96.3682 104.758 96.9777C104.787 97.5873 104.571 98.1836 104.157 98.6375C104.006 98.8004 103.833 98.9417 103.643 99.0573Z" fill="#1D884A"/>
<path d="M118.248 85.3954C117.919 85.5946 117.544 85.7093 117.158 85.729C117.095 85.7324 110.726 85.905 105.62 82.4839C105.106 82.1397 104.752 81.6087 104.636 81.0076C104.52 80.4065 104.651 79.7845 105 79.2785C105.35 78.7726 105.889 78.4241 106.5 78.3097C107.11 78.1952 107.742 78.3243 108.255 78.6685C111.485 80.8323 115.974 81.1565 116.913 81.1208C117.431 81.0988 117.943 81.2469 118.367 81.5417C118.791 81.8365 119.104 82.2615 119.257 82.7502C119.409 83.2388 119.393 83.7635 119.211 84.2422C119.028 84.7208 118.69 85.1264 118.248 85.3954V85.3954Z" fill="#1D884A"/>
<path d="M127.098 71.3738C126.768 71.5729 126.393 71.6876 126.007 71.7074C125.945 71.7107 119.576 71.8834 114.47 68.4623C113.958 68.1173 113.606 67.5866 113.49 66.9864C113.375 66.3862 113.507 65.7655 113.855 65.2605C114.204 64.7555 114.742 64.4072 115.351 64.2922C115.961 64.1772 116.591 64.3047 117.105 64.6468C120.334 66.8106 124.824 67.1348 125.762 67.0992C126.281 67.0772 126.792 67.2252 127.216 67.5201C127.641 67.8149 127.954 68.2399 128.106 68.7285C128.259 69.2172 128.243 69.7419 128.06 70.2205C127.878 70.6992 127.539 71.1047 127.098 71.3737V71.3738Z" fill="#1D884A"/>
<path d="M121.309 58.9054C120.99 59.0984 120.662 59.2808 120.326 59.4527C120.052 59.5923 119.754 59.6774 119.447 59.7032C119.14 59.7291 118.831 59.6951 118.537 59.6032C118.244 59.5113 117.972 59.3633 117.736 59.1677C117.501 58.9721 117.307 58.7327 117.166 58.4632C117.024 58.1938 116.938 57.8995 116.913 57.5973C116.887 57.2951 116.922 56.9908 117.016 56.7019C117.109 56.413 117.26 56.1452 117.459 55.9137C117.658 55.6822 117.901 55.4916 118.175 55.3528C121.657 53.5812 124.073 49.8559 124.488 49.0279C124.761 48.48 125.243 48.0603 125.828 47.8596C126.414 47.659 127.056 47.6936 127.615 47.9561C128.172 48.2173 128.601 48.6851 128.808 49.257C129.015 49.829 128.984 50.4585 128.721 51.0076C128.2 52.0919 125.512 56.3613 121.309 58.9054Z" fill="#1D884A"/>
<path d="M118.123 46.7511C117.804 46.9441 117.477 47.1265 117.14 47.2984C116.588 47.5774 115.947 47.6295 115.356 47.4432C114.765 47.257 114.273 46.8475 113.988 46.3047C113.704 45.7619 113.649 45.1301 113.837 44.5478C114.025 43.9654 114.439 43.4802 114.99 43.1985C118.463 41.4272 120.888 37.702 121.302 36.8736C121.576 36.3257 122.057 35.906 122.643 35.7053C123.228 35.5047 123.87 35.5393 124.43 35.8018C124.987 36.063 125.415 36.5308 125.623 37.1027C125.83 37.6747 125.798 38.3041 125.535 38.8533C125.014 39.9377 122.327 44.2071 118.123 46.7511Z" fill="#1D884A"/>
<path d="M108.498 39.1971C108.052 39.467 107.527 39.5824 107.007 39.5247C106.487 39.467 106.002 39.2396 105.629 38.8788C105.255 38.5179 105.015 38.0444 104.946 37.5335C104.878 37.0227 104.985 36.504 105.251 36.0601C107.236 32.7441 107.276 28.3162 107.178 27.3976C107.114 26.7906 107.295 26.183 107.682 25.7064C108.069 25.2299 108.631 24.9228 109.247 24.8518C109.859 24.781 110.475 24.9522 110.96 25.3277C111.444 25.7032 111.758 26.2525 111.832 26.8552C111.988 28.1365 112.014 33.8511 109.287 38.4039C109.094 38.7278 108.823 39.0002 108.498 39.1971Z" fill="#1D884A"/>
<path d="M118.702 46.5011C104.938 14.4734 76.8824 57.1082 66.0074 67.6338C61.1525 72.3273 51.0851 76.7444 51.3402 84.6103C51.5777 91.9311 61.1528 97.3813 67.5769 98.6531C87.2864 102.555 112.834 81.9739 119.288 64.7056C121.443 58.9391 121.157 52.2171 118.702 46.5011Z" fill="#E8F3ED"/>
<path d="M95.6429 93.8277L95.6406 93.8291C85.7022 99.8439 75.5918 102.18 67.2486 100.529C60.2558 99.1441 49.7609 93.1342 49.4874 84.7026C49.2701 78.0099 55.0204 73.7496 60.1026 70.0058C61.838 68.7276 63.4723 67.5113 64.6998 66.3247C66.5208 64.5625 68.8774 61.8183 71.6097 58.6452C78.1972 50.9945 86.3944 41.4703 94.7469 36.4154C100.12 33.1635 104.986 32.1886 109.21 33.5196C113.775 34.958 117.55 39.083 120.429 45.7823C123.124 52.056 123.39 59.2519 121.088 65.4095C117.296 75.5576 107.332 86.7535 95.6429 93.8277ZM96.7084 39.5583C88.8651 44.3051 80.8815 53.5777 74.4658 61.0286C71.6751 64.27 69.2649 67.0694 67.3213 68.9503C65.9136 70.311 64.1769 71.5906 62.3379 72.9453C57.776 76.3059 53.0588 79.7807 53.2133 84.5517C53.4106 90.6271 62.0754 95.7168 67.9714 96.8846C75.3827 98.3512 84.518 96.158 93.6462 90.6336L93.6485 90.6321C104.666 83.9643 114.034 73.5287 117.554 64.1088C119.502 58.8987 119.282 52.5804 116.988 47.2407C114.555 41.5776 111.551 38.1399 108.073 37.0446C104.936 36.0563 101.109 36.895 96.7084 39.5583Z" fill="#1D884A"/>
<g style="mix-blend-mode:multiply" opacity="0.8">
<path d="M101.828 55.6926C104.761 55.6926 107.139 53.3512 107.139 50.4629C107.139 47.5747 104.761 45.2333 101.828 45.2333C98.8953 45.2333 96.5176 47.5747 96.5176 50.4629C96.5176 53.3512 98.8953 55.6926 101.828 55.6926Z" fill="#1D884A"/>
</g>
<g style="mix-blend-mode:multiply" opacity="0.8">
<path d="M89.2614 67.3346C91.0793 66.2953 91.6974 64.0016 90.6421 62.2114C89.5867 60.4213 87.2574 59.8126 85.4395 60.8519C83.6216 61.8911 83.0035 64.1848 84.0589 65.975C85.1143 67.7651 87.4435 68.3738 89.2614 67.3346Z" fill="#1D884A"/>
</g>
<g style="mix-blend-mode:multiply" opacity="0.8">
<path d="M74.43 86.2946C77.5569 85.5655 79.4916 82.4782 78.7511 79.3991C78.0107 76.3199 74.8756 74.4148 71.7487 75.1439C68.6218 75.873 66.6871 78.9602 67.4276 82.0394C68.168 85.1186 71.3031 87.0237 74.43 86.2946Z" fill="#1D884A"/>
</g>
<g style="mix-blend-mode:multiply" opacity="0.8">
<path d="M92.1161 81.8932C92.4215 80.6331 91.6318 79.3678 90.3522 79.067C89.0726 78.7662 87.7877 79.5439 87.4823 80.8039C87.1768 82.064 87.9665 83.3293 89.2461 83.6301C90.5257 83.9309 91.8106 83.1532 92.1161 81.8932Z" fill="#1D884A"/>
</g>
<path d="M41.7556 19.6137C41.7556 21.6588 40.0699 23.3298 37.9743 23.3298C35.8786 23.3298 34.1929 21.6588 34.1929 19.6137C34.1929 17.5687 35.8786 15.8977 37.9743 15.8977C40.0699 15.8977 41.7556 17.5687 41.7556 19.6137Z" stroke="white"/>
<path d="M49.2012 25.0213C49.2012 26.3071 48.1406 27.3625 46.8159 27.3625C45.4913 27.3625 44.4307 26.3071 44.4307 25.0213C44.4307 23.7355 45.4913 22.68 46.8159 22.68C48.1406 22.68 49.2012 23.7355 49.2012 25.0213Z" stroke="white"/>
<path d="M47.712 16.4059C47.712 17.2867 46.9848 18.0139 46.0714 18.0139C45.1579 18.0139 44.4307 17.2867 44.4307 16.4059C44.4307 15.525 45.1579 14.7979 46.0714 14.7979C46.9848 14.7979 47.712 15.525 47.712 16.4059Z" stroke="white"/>
</svg>
