<svg width="19" height="19" viewBox="0 0 19 19" fill="none" xmlns="http://www.w3.org/2000/svg">
<g clip-path="url(#clip0_116_461)">
<path d="M14.7658 3.59028C12.6766 3.36763 10.8434 4.51987 10.001 6.23433H9.5C8.02305 6.23433 6.82812 5.0394 6.82812 3.56245V0.857178C6.82812 0.365479 6.4292 -0.0334473 5.9709 -0.0334473C5.5126 -0.0334473 5.04687 0.398877 5.04687 0.857178V3.56245C5.04687 6.02169 7.04076 8.01558 9.5 8.01558H9.52783C9.52226 8.11948 9.5 8.20854 9.5 8.27905V10.6207C9.5 12.1644 8.30508 13.3593 6.82812 13.3593H4.45312C1.99389 13.3593 0 15.3521 0 17.7791V18.076C0 18.6029 0.398926 19 0.857226 19C1.31553 19 1.78125 18.6029 1.78125 18.1093V17.7707C1.78125 15.8525 4.00707 14.7927 5.4959 16.0021L7.02258 17.2419C8.07723 18.0984 9.3241 18.7237 10.6686 18.92C15.1443 19.5714 19 16.1054 19 11.7562L19 8.52546C19 6.05991 17.215 3.8519 14.7658 3.59028ZM11.7562 17.2187C10.5057 17.2187 9.28105 16.7808 8.3125 15.9941L7.23633 15.122C8.96674 14.9643 10.4047 13.8139 10.9918 12.246L11.0011 12.2739C11.901 11.9352 13.0191 12.0605 13.7101 12.5847C14.4567 13.1506 15.4449 13.4426 16.4376 13.4426C16.6046 13.4426 16.7716 13.4194 16.9341 13.4009C16.2353 15.6044 14.1906 17.2187 11.7562 17.2187ZM17.2187 11.5447C16.3745 11.7673 15.4097 11.6375 14.7881 11.1643C13.8455 10.4574 12.5244 10.1753 11.2812 10.372V8.31245C11.2812 6.67519 12.6127 5.3437 14.25 5.3437C15.8873 5.3437 17.2187 6.67519 17.2187 8.31245V11.5447Z" fill="#1D884A"/>
</g>
<defs>
<clipPath id="clip0_116_461">
<rect width="19" height="19" fill="white"/>
</clipPath>
</defs>
</svg>
