<svg width="387" height="284" viewBox="0 0 387 284" fill="none" xmlns="http://www.w3.org/2000/svg">
<g clip-path="url(#clip0_292_1340)">
<path d="M191.509 220.888C191.71 221.297 191.818 221.745 191.826 222.201C191.833 222.657 191.739 223.109 191.552 223.524C191.338 223.119 191.223 222.669 191.216 222.211C191.208 221.753 191.309 221.3 191.509 220.888Z" fill="white"/>
<path d="M191.837 195.686C192.007 195.894 192.097 196.156 192.091 196.425C192.086 196.693 191.985 196.951 191.806 197.152C191.623 196.95 191.524 196.686 191.53 196.413C191.535 196.14 191.645 195.88 191.837 195.686Z" fill="white"/>
<path d="M191.787 227.628C192.21 228.101 192.173 228.591 191.842 229.092C191.425 228.619 191.46 228.129 191.787 227.628Z" fill="white"/>
<path d="M192.128 190.998C192.455 191.402 192.469 191.794 192.081 192.17C191.749 191.765 191.738 191.373 192.128 190.998Z" fill="white"/>
<path d="M192.711 184.257C193.003 184.568 192.997 184.862 192.659 185.135C192.344 184.822 192.357 184.529 192.711 184.257Z" fill="white"/>
<path d="M192.08 232.026C192.416 232.305 192.413 232.598 192.115 232.903C191.766 232.624 191.761 232.332 192.08 232.026Z" fill="white"/>
<path d="M192.367 235.25C192.707 235.527 192.705 235.82 192.406 236.126C192.065 235.849 192.049 235.557 192.367 235.25Z" fill="white"/>
<path d="M259.45 197.481C259.533 197.176 259.617 196.871 259.701 196.565C260.072 196.996 259.773 197.242 259.45 197.481Z" fill="white"/>
<path d="M259.984 177.518C259.908 177.31 259.832 177.101 259.756 176.892C260.105 177.001 260.378 177.138 259.984 177.518Z" fill="white"/>
<path d="M192.99 181.913C192.977 182.108 192.964 182.303 192.95 182.498C192.963 182.303 192.977 182.108 192.99 181.913Z" fill="white"/>
<path d="M192.408 187.481C192.401 187.676 192.394 187.872 192.387 188.067C192.394 187.872 192.401 187.676 192.408 187.481Z" fill="white"/>
<path d="M242.684 271.847C244.665 264.782 246.485 257.671 248.374 250.579C249.597 245.986 250.853 241.4 252.033 236.796C252.83 233.683 253.538 230.547 254.252 227.413C255.083 223.763 255.916 220.112 256.67 216.445C257.09 214.408 257.237 212.31 257.706 210.287C258.687 206.067 259.051 201.774 259.449 197.481C259.533 197.176 259.617 196.871 259.701 196.565C259.89 193.467 260.195 190.37 260.239 187.27C260.284 184.021 260.079 180.769 259.984 177.518C259.908 177.31 259.832 177.101 259.756 176.892C259.721 175.919 259.798 174.925 259.63 173.975C259.042 170.629 258.487 167.269 257.703 163.966C256.305 158.07 254.183 152.41 251.668 146.905C249.802 142.822 247.715 138.858 245.02 135.237C240.255 128.835 233.861 125.756 225.942 125.65C222.939 125.609 220.044 126.165 217.161 126.906C216.611 127.077 216.028 127.114 215.46 127.015C213.356 126.487 211.536 127.002 209.823 128.244C208.052 129.528 206.732 131.199 205.569 133.015C202.606 137.639 201.177 142.868 199.764 148.085C198.966 151.034 198.371 154.04 197.733 157.03C196.341 163.547 194.946 170.064 193.628 176.597C193.276 178.341 193.195 180.14 192.99 181.914C192.977 182.108 192.964 182.303 192.95 182.498C192.871 183.084 192.791 183.67 192.712 184.257C193.003 184.568 192.997 184.862 192.659 185.135C192.575 185.917 192.491 186.699 192.408 187.481C192.401 187.676 192.394 187.872 192.387 188.067C192.3 189.044 192.214 190.021 192.128 190.998C192.455 191.402 192.469 191.794 192.081 192.17C191.999 193.342 191.918 194.514 191.837 195.686C192.007 195.894 192.097 196.156 192.091 196.425C192.086 196.693 191.985 196.951 191.806 197.152C191.707 205.064 191.608 212.976 191.509 220.888C191.71 221.297 191.818 221.745 191.825 222.201C191.833 222.657 191.739 223.109 191.551 223.524C191.63 224.892 191.708 226.26 191.787 227.628C192.21 228.101 192.173 228.591 191.842 229.092C191.921 230.07 192 231.048 192.08 232.026C192.416 232.305 192.413 232.598 192.115 232.903C192.199 233.685 192.283 234.468 192.367 235.25C192.707 235.527 192.705 235.82 192.406 236.126C192.503 236.892 192.598 237.657 192.697 238.422C193.008 240.828 193.262 243.243 193.644 245.637C194.906 253.62 196.82 261.487 199.367 269.157C200.503 272.568 201.459 276.04 202.519 279.477C202.993 281.014 203.48 282.547 203.968 284.08H238.87C240.193 280.018 241.532 275.959 242.684 271.847Z" fill="white"/>
<path d="M275.753 283.121C276.323 279.247 276.877 275.37 277.45 271.496C277.62 270.35 277.834 269.211 278.028 268.068L278.077 267.487C278.352 265.532 278.628 263.577 278.903 261.622C278.921 261.428 278.938 261.234 278.956 261.04C279.345 257.874 279.704 254.704 280.134 251.544C280.459 249.154 280.88 246.777 281.248 244.393C281.667 241.675 282.08 238.957 282.486 236.237C282.959 233.091 283.416 229.943 283.896 226.798C284.063 225.704 284.278 224.617 284.47 223.527C284.486 223.333 284.502 223.139 284.517 222.945C284.697 221.674 284.876 220.402 285.056 219.131L285.104 218.55C285.286 217.18 285.468 215.81 285.65 214.441C285.662 214.247 285.675 214.054 285.688 213.86C285.769 213.273 285.851 212.686 285.932 212.098C285.945 211.904 285.958 211.71 285.971 211.515C286.063 210.732 286.155 209.948 286.246 209.164C286.256 208.972 286.266 208.779 286.276 208.587C286.357 207.901 286.439 207.216 286.521 206.53C286.535 206.239 286.548 205.947 286.561 205.655C286.648 204.774 286.734 203.893 286.82 203.013C286.832 202.721 286.843 202.43 286.855 202.139C286.937 201.161 287.019 200.183 287.102 199.205C287.114 198.815 287.126 198.425 287.138 198.035C287.213 196.58 287.328 195.126 287.355 193.67C287.474 187.306 287.728 180.94 287.141 174.584C287.129 174.39 287.118 174.195 287.106 174.001C286.714 171.718 286.329 169.435 285.929 167.154C285.445 164.387 285.044 161.601 284.433 158.862C283.392 154.197 280.72 150.805 276.222 148.988C274.79 148.41 273.353 147.835 271.886 147.356C266.374 145.558 260.855 143.784 255.328 142.034C252.882 141.257 250.389 140.614 247.827 140.435C244.804 140.223 241.986 140.805 239.708 143.049C239.252 143.535 238.678 143.895 238.042 144.092C237.057 144.323 236.013 144.3 234.995 144.384L234.412 144.41C233.726 144.492 233.041 144.575 232.355 144.658L231.779 144.686C230.118 144.877 228.457 145.069 226.796 145.26C226.602 145.269 226.408 145.279 226.214 145.289L224.161 145.552L223.58 145.579L215.081 146.419L214.211 146.454L208.934 147.004L208.061 147.051C207.376 147.134 206.691 147.216 206.006 147.298L205.429 147.328L201.029 147.885L200.448 147.936C200.029 148.051 199.547 148.071 199.207 148.302C198.665 148.67 197.817 148.784 197.807 149.699C197.907 149.79 198.007 149.882 198.107 149.974H198.107L202.354 149.807C201.109 150.492 199.741 150.466 198.392 150.541C198.296 150.772 198.2 151.003 198.039 151.39L199.845 151.494L200.313 151.576C200.157 151.71 200.001 151.844 199.846 151.979C196.771 154.865 195.435 158.403 195.734 162.616C196.033 166.815 198.545 169.396 202.099 170.934C204.987 172.183 208.115 172.829 211.282 173.111L211.868 173.13L220.359 173.132L221.238 173.103L223.288 172.846L223.873 172.807C224.347 172.722 224.819 172.627 225.295 172.553C228.4 172.073 231.43 171.329 234.3 170.015C234.483 169.885 234.665 169.755 234.928 169.567C235.092 169.889 235.182 170.244 235.192 170.606C235.202 170.967 235.13 171.326 234.984 171.657C234.895 173.317 234.807 174.977 234.719 176.638C234.711 177.126 234.703 177.615 234.696 178.104C234.661 179.061 234.625 180.018 234.59 180.974C234.489 181.146 234.385 181.468 234.287 181.466C233.645 181.455 233.004 181.374 232.363 181.316C230.704 181.228 229.045 181.139 227.387 181.051L225.629 181.019L220.945 180.754C220.356 180.74 219.767 180.725 219.178 180.711L215.09 180.473L213.332 180.435L208.942 180.169L207.477 180.141C203.2 179.931 198.923 179.723 194.646 179.514C192.167 179.394 189.687 179.295 187.208 179.156C186.63 179.124 186.128 179.101 185.908 180.053C187.533 180.32 189.19 180.168 190.788 180.449L192.247 180.477L196.351 180.74L197.811 180.767C203.058 181.037 208.304 181.32 213.552 181.572C220.405 181.901 227.258 182.217 234.113 182.52C234.246 182.624 234.494 182.729 234.493 182.832C234.489 183.403 234.424 183.974 234.38 184.545C234.293 186.11 234.206 187.675 234.12 189.24C234.111 189.727 234.102 190.214 234.093 190.701C233.923 194.11 233.742 197.518 233.585 200.927C233.36 205.799 233.164 210.673 232.936 215.545C232.675 221.098 232.402 226.651 232.118 232.203C231.909 236.441 231.698 240.679 231.485 244.917C231.475 245.404 231.466 245.891 231.457 246.378C231.287 250.029 231.092 253.68 230.953 257.333C230.711 263.718 230.503 270.104 230.28 276.489C230.224 278.097 230.148 279.704 230.106 281.312C230.081 282.235 230.059 283.158 230.058 284.08H275.609C275.657 283.76 275.706 283.441 275.753 283.121ZM233.796 169.031C230.848 170.39 227.724 171.093 224.55 171.575C220.899 172.158 217.196 172.352 213.503 172.154C209.607 171.915 205.759 171.418 202.221 169.583L201.137 169.11C201.177 168.998 201.216 168.887 201.256 168.775L202.208 169.049C205.362 169.311 208.52 169.841 211.668 169.783C219.339 169.619 226.924 168.134 234.091 165.391C234.364 165.288 234.641 165.195 234.917 165.097C235.02 165.144 235.123 165.192 235.225 165.24C235.186 165.773 235.187 166.308 235.229 166.842C235.409 168.032 234.784 168.576 233.796 169.031ZM236.037 146.208C236.122 146.073 236.164 145.941 236.213 145.938C236.532 145.919 236.851 145.928 237.433 145.928C236.833 146.575 236.462 146.547 236.037 146.208V146.208Z" fill="#1D884A"/>
<path d="M239.803 129.434C239.88 130.699 240.001 131.964 240.02 133.23C240.033 134.103 239.912 134.979 239.837 135.852C239.793 136.465 239.605 137.058 239.288 137.584C238.972 138.11 238.536 138.554 238.015 138.879C232.949 142.256 227.429 143.522 221.445 142.215C220.161 141.92 218.946 141.378 217.87 140.618C215.562 138.991 213.396 137.163 211.159 135.436C210.34 134.804 210.091 134.014 210.202 133.003C210.666 128.784 211.096 124.562 211.53 120.34C211.759 118.109 212.02 115.879 212.166 113.642C212.189 112.763 212.096 111.885 211.891 111.03C211.795 110.574 211.611 110.141 211.348 109.757C211.084 109.372 210.748 109.044 210.357 108.79C204.301 104.627 200.043 98.9102 196.443 92.625C196.177 92.1593 195.904 91.6967 195.651 91.2238C195.452 90.8316 195.173 90.4856 194.832 90.208C194.491 89.9305 194.096 89.7276 193.671 89.6126C192.219 89.1584 190.919 88.3164 189.909 87.1774C187.424 84.5329 185.528 81.5734 184.927 77.9112C184.539 75.5529 185.483 73.2921 188.149 72.6471C188.735 72.5054 189.313 72.4099 189.471 71.6973C189.856 71.3058 189.85 70.9164 189.465 70.529C189.363 70.0095 189.254 69.4914 189.162 68.9701C189.072 68.456 188.858 67.9146 188.941 67.4263C190.52 58.0979 194.839 50.4482 202.819 45.1303C206.529 42.6576 210.715 41.6345 215.137 41.5348C216.55 41.503 217.965 41.5171 219.377 41.5734C220.11 41.6161 220.843 41.4742 221.508 41.1607C222.173 40.8472 222.748 40.372 223.183 39.7786C223.942 38.8245 224.636 37.8144 225.442 36.9027C226.57 35.6264 227.683 34.3109 228.965 33.201C233.06 29.6566 237.612 29.5827 241.87 32.9006C245.433 35.6771 247.572 39.4077 248.775 43.6799C249.273 45.4456 249.369 47.3207 249.756 49.1228C250.242 51.3874 250.685 53.5792 252.661 55.2865C257.223 59.2282 258.549 64.5239 258.277 70.3483C258.259 70.7384 258.23 71.128 258.203 71.5175C258.179 71.8571 258.151 72.1964 258.128 72.508C258.206 72.6158 258.251 72.7482 258.32 72.7624C261.21 73.3558 262.328 76.3774 261.201 79.3106C260.724 80.4812 260.055 81.564 259.222 82.5147C257.866 84.1085 256.346 85.5627 254.891 87.0706C254.675 87.3365 254.42 87.5675 254.134 87.7552C252.556 88.582 251.862 90.0612 251.149 91.575C249.63 94.8008 247.944 97.937 245.733 100.757C243.544 103.509 241.003 105.962 238.176 108.053C237.946 108.227 237.735 108.426 237.472 108.649C237.553 109.235 237.632 109.811 237.71 110.386L237.745 110.972C237.83 111.558 237.914 112.145 237.998 112.731L238.038 113.317C238.124 113.903 238.21 114.489 238.296 115.075C238.312 115.271 238.329 115.466 238.346 115.661C238.46 116.917 238.574 118.173 238.689 119.429C238.768 119.638 238.847 119.847 238.926 120.056C239.014 120.74 239.101 121.424 239.189 122.108L239.229 122.693L239.475 124.746C239.491 125.038 239.507 125.331 239.523 125.623C239.603 126.503 239.684 127.383 239.765 128.263C239.777 128.653 239.79 129.044 239.803 129.434Z" fill="#7A5851"/>
<path d="M252.952 181.613C253.636 181.525 254.321 181.438 255.006 181.35L255.585 181.314C256.75 181.225 257.913 181.1 259.079 181.063C259.663 181.057 260.245 181.126 260.812 181.267C262.761 181.712 263.474 183.532 262.376 185.21C261.796 186.072 260.924 186.694 259.922 186.963C258.151 187.484 256.358 187.954 254.55 188.323C248.112 189.634 241.653 190.843 235.223 192.191C231.366 192.999 227.565 194.078 223.706 194.87C221.665 195.289 219.555 195.388 217.47 195.567C215.912 195.701 214.407 196.2 213.077 197.025C210.37 198.671 207.644 200.286 204.954 201.958C204.046 202.523 203.243 203.253 202.357 203.855C200.129 205.366 199.358 204.848 198.837 202.656C197.787 198.247 196.844 193.812 195.925 189.374C195.305 186.381 194.8 183.363 194.222 180.238C194.389 180.057 194.572 179.892 194.768 179.743C198.379 177.335 201.104 174.133 203.15 170.332C203.937 168.872 204.719 167.405 205.401 165.896C206.718 163.058 208.519 160.471 210.722 158.252C213.841 155.026 216.874 151.716 219.973 148.47C220.717 147.699 221.519 146.987 222.373 146.341C223.108 145.78 223.994 145.601 224.844 146.089C225.763 146.617 226.006 147.562 225.852 148.506C225.725 149.421 225.433 150.306 224.991 151.117C224.168 152.442 223.275 153.722 222.316 154.951C221.264 156.366 220.251 157.794 219.757 159.519C219.281 161.183 219.8 161.994 221.532 161.965C222.504 161.949 223.463 161.742 224.355 161.356C227.649 159.893 230.932 158.398 234.15 156.776C238.806 154.43 243.393 151.947 248.03 149.561C248.945 149.112 249.898 148.743 250.877 148.458C251.778 148.177 252.652 148.352 253.239 149.152C253.841 149.972 253.671 150.884 253.116 151.61C252.453 152.51 251.683 153.326 250.823 154.04C246.968 157.105 243.056 160.097 239.177 163.133C238.257 163.854 237.367 164.618 236.503 165.407C236.128 165.811 235.783 166.244 235.473 166.701C236.775 167.295 237.902 167.108 238.938 166.798C241.735 165.962 244.508 165.042 247.266 164.086C251.362 162.665 255.429 161.163 259.524 159.744C260.635 159.386 261.768 159.102 262.916 158.895C263.442 158.804 263.979 158.799 264.506 158.879C266.715 159.172 266.83 160.95 266.058 162.488C265.72 163.161 265.078 163.681 264.526 164.328C265.269 166.334 264.385 167.935 262.959 169.258C261.592 170.579 260.117 171.783 258.55 172.858C254.922 175.233 251.192 177.453 247.51 179.746C246.492 180.38 245.497 181.05 244.206 181.888C247.198 182.482 249.781 181.881 252.373 181.65L252.952 181.613Z" fill="#7A5851"/>
<path d="M38.1815 176.333L33.7916 176.589L32.0367 176.615C26.2405 176.71 20.4444 176.851 14.6481 176.865C13.4145 176.867 12.155 176.49 10.9569 176.125C10.3655 175.904 9.85346 175.511 9.4858 174.997C8.60407 173.82 9.04266 172.327 10.4662 171.984C11.9842 171.648 13.5297 171.451 15.0835 171.396C18.1962 171.234 21.3146 171.179 24.4307 171.08C25.0544 171.356 25.6531 171.373 26.2133 170.741H24.4293C21.684 170.356 18.9378 169.978 16.1937 169.586C13.5936 169.213 10.995 168.831 8.39788 168.437C7.91791 168.354 7.44612 168.23 6.98792 168.064C4.61783 167.258 3.91484 166.257 3.93949 163.668C3.66884 163.561 3.35966 163.457 3.0663 163.319C2.52255 163.11 2.00125 162.846 1.5103 162.532C0.0162907 161.411 0.113536 159.515 1.81368 158.758C2.96907 158.247 4.21283 157.964 5.47577 157.928C8.63661 157.86 11.8016 158.018 14.9653 158.047C18.4723 158.079 21.9798 158.074 25.4871 158.068C25.8254 158.038 26.1603 157.976 26.4874 157.884C26.7049 157.846 26.9225 157.807 27.14 157.768L27.1249 157.604L26.482 157.561C22.5308 156.779 18.5796 155.996 14.6285 155.214C12.2007 154.732 9.76156 154.298 7.35264 153.734C6.27465 153.453 5.23027 153.056 4.23778 152.549C3.51906 152.204 3.00825 151.59 3.05787 150.689C3.06275 150.268 3.20816 149.86 3.47101 149.53C3.73387 149.201 4.09912 148.969 4.50881 148.871C5.76965 148.533 7.0632 148.332 8.36703 148.272C9.91309 148.22 11.4672 148.408 13.0178 148.491L13.892 148.528L18.5766 149.068L19.1591 149.113L25.013 149.937L25.6461 150.197C28.7085 150.586 31.7701 150.982 34.8343 151.357C35.359 151.421 35.8948 151.395 36.4254 151.41L37.0102 151.446C37.4142 151.498 37.8182 151.549 38.2221 151.601C38.4441 151.611 38.6662 151.621 38.8884 151.631C38.9025 151.568 38.9165 151.505 38.9306 151.442L38.2649 151.065C36.4155 149.631 34.5502 148.217 32.7253 146.753C32.0898 146.221 31.5002 145.637 30.9625 145.007C30.6432 144.638 30.3825 144.222 30.1894 143.773C29.2552 141.649 30.5489 139.763 32.8335 140.096C34.3724 140.316 35.8741 140.745 37.2969 141.372C39.2919 142.265 41.1817 143.401 43.0902 144.48C46.7084 146.526 50.4045 148.381 54.5089 149.244C57.8957 149.956 61.3483 150.307 64.809 150.292C65.4326 150.289 66.0563 150.291 66.6112 150.291C68.2233 154.813 69.1643 159.331 70.1749 163.829C70.7198 166.255 71.2774 168.682 71.6869 171.132C71.8932 172.366 71.8293 173.655 71.7974 174.916C71.7763 175.75 71.2491 176.107 70.4719 176.003C69.7557 175.907 69.0363 175.836 68.3184 175.754L67.148 175.729L63.6365 175.464L62.4656 175.428C58.1645 175.352 53.8636 175.267 49.5622 175.212C48.983 175.243 48.4068 175.315 47.8379 175.428L47.253 175.465L42.8637 176.014L41.9874 176.066L39.3509 176.297L38.1815 176.333Z" fill="#7A5851"/>
<path d="M189.465 70.529C189.85 70.9164 189.856 71.3058 189.471 71.6973C189.469 71.3079 189.467 70.9185 189.465 70.529Z" fill="#E9B57E"/>
<path d="M239.803 129.434C239.79 129.044 239.777 128.653 239.765 128.263C239.849 128.334 239.917 128.422 239.965 128.522C240.013 128.621 240.039 128.73 240.043 128.84C240.046 128.95 240.027 129.06 239.985 129.163C239.944 129.265 239.882 129.357 239.803 129.434Z" fill="#F1D2AF"/>
<path d="M239.522 125.623C239.506 125.331 239.491 125.038 239.475 124.746C239.491 125.038 239.507 125.331 239.522 125.623Z" fill="#F1D2AF"/>
<path d="M237.745 110.972L237.71 110.386C237.722 110.581 237.734 110.777 237.745 110.972Z" fill="#EFCBA3"/>
<path d="M238.038 113.317L237.998 112.731L238.038 113.317Z" fill="#EFCBA3"/>
<path d="M238.346 115.661C238.329 115.466 238.313 115.271 238.296 115.075C238.313 115.271 238.329 115.466 238.346 115.661Z" fill="#EFCBA3"/>
<path d="M238.926 120.056C238.847 119.847 238.768 119.638 238.688 119.429C239.048 119.531 239.252 119.693 238.926 120.056Z" fill="#F1D2AF"/>
<path d="M239.229 122.693L239.188 122.108C239.202 122.303 239.216 122.498 239.229 122.693Z" fill="#F1D2AF"/>
<path d="M255.585 181.314L255.005 181.35L255.585 181.314Z" fill="#EBBD8B"/>
<path d="M252.951 181.613L252.373 181.65L252.951 181.613Z" fill="#EBBD8B"/>
<path d="M231.602 21.9454L233.138 22.0175C232.629 20.7536 232.243 19.6328 231.732 18.5724C231.143 17.3495 230.572 16.1439 230.345 14.7812C229.939 12.3382 230.527 10.2006 232.29 8.48238C233.677 7.11068 234.909 5.59065 235.964 3.94961C237.606 1.44482 239.911 0.13417 242.975 0.220288C243.893 0.203819 244.808 0.0974335 245.705 -0.0973876C248.961 -0.655506 252.265 1.46555 252.832 4.69624C253.054 5.96004 253.853 6.88489 254.645 7.81846C256.269 9.73469 257.138 11.9621 256.741 14.4491C256.473 16.0511 255.965 17.6035 255.236 19.0543C254.106 21.3164 252.326 23.0734 250.165 24.4106C249.051 25.0995 247.929 25.7749 246.679 26.5369C247.03 26.7663 247.286 26.9351 247.544 27.1017C250.705 29.1427 253.371 31.6807 255.279 34.9516C256.754 37.4816 257.45 40.2804 257.94 43.1374C258.444 46.0736 259.042 48.9743 260.497 51.6282C261.082 52.6955 261.592 53.8075 262.083 54.9225C264.03 59.344 264.061 63.8391 262.458 68.3518C261.881 69.8715 260.898 71.2028 259.616 72.1997C258.04 73.4851 256.723 74.9436 255.848 76.7937C255.68 77.1467 255.446 77.4643 255.159 77.7293C254.725 78.1244 254.194 77.949 254.06 77.3652C253.976 76.9347 253.943 76.4957 253.963 76.0575C253.964 75.3739 254 74.6909 254.071 74.0111C254.303 72.0702 253.844 70.2714 253.049 68.5245C252.723 67.845 252.442 67.1446 252.209 66.428C251.123 62.845 249.111 59.8411 246.526 57.1882C245.402 56.035 244.239 54.9187 243.15 53.7336C240.317 50.6505 238.377 47.0984 237.626 42.9395C237.56 42.5767 237.435 42.2246 237.272 41.6276C237.018 41.9046 236.793 42.2059 236.598 42.5271C234.536 47.2673 230.987 50.5605 226.483 52.8912C224.624 53.8529 222.7 54.6896 220.793 55.5533C217.801 56.8734 214.994 58.5794 212.444 60.6278C209.585 62.9971 206.358 64.8842 202.893 66.215C200.127 67.2622 197.83 68.8867 196.112 71.3289C195.623 72.0611 195.022 72.7114 194.33 73.2559C193.22 74.0773 193.01 75.168 192.991 76.4102C192.983 76.9478 193.237 77.6674 192.423 77.863C191.624 78.0548 191.438 77.377 191.245 76.8439C190.95 76.0725 190.467 75.3876 189.839 74.8517C188.434 73.629 187.327 72.1002 186.604 70.3828C186.025 68.9289 184.924 67.9027 183.862 66.818C182.91 65.8462 182.027 64.8086 181.22 63.7129C180.279 62.4326 179.981 60.8906 179.826 59.3405C179.45 55.5965 180.341 52.1679 182.676 49.2157C183.893 47.693 185.228 46.2683 186.668 44.955C188.315 43.4994 189.702 41.7737 190.771 39.8519C191.254 38.949 191.774 38.0661 192.283 37.1773C195.896 30.8673 201.199 26.3947 207.616 23.1866C210.193 21.8987 212.962 21.2689 215.858 20.9874C218.562 20.7595 221.283 20.8608 223.962 21.2891C226.297 21.6257 228.665 21.7207 231.019 21.9226L231.602 21.9454Z" fill="#333333"/>
<path d="M207.237 280.834C207.226 271.176 207.241 261.518 207.281 251.86C207.316 239.325 207.366 226.791 207.428 214.256C207.43 213.834 207.588 213.427 207.87 213.114C208.632 212.405 208.823 211.549 208.749 210.59C208.711 209.714 208.614 208.842 208.458 207.98C207.136 201.938 205.715 195.917 204.453 189.863C203.42 184.906 202.551 179.914 201.651 174.931C201.611 174.503 201.725 174.076 201.973 173.726C203.126 172.079 203.797 170.142 203.908 168.134C203.923 167.844 203.938 167.554 203.953 167.264C204.037 166.382 204.121 165.5 204.205 164.619C204.219 164.328 204.232 164.038 204.245 163.747C204.439 162.184 204.632 160.621 204.826 159.059C204.841 158.766 204.857 158.473 204.873 158.18C204.955 157.203 205.037 156.226 205.119 155.249C205.129 154.956 205.14 154.662 205.151 154.369C205.238 153.588 205.324 152.807 205.411 152.026L205.448 151.439C206.281 145.553 207.48 139.725 209.037 133.988C209.924 130.647 211.02 127.361 212.002 124.044C212.17 123.477 212.506 122.871 211.969 122.23C210.267 122.984 208.691 123.913 207.475 125.216C205.506 127.326 203.056 128.298 200.342 128.843C200.057 128.9 199.776 128.984 199.495 129.062C192.749 130.979 186.106 133.241 179.593 135.841C174.744 137.745 169.925 139.726 165.11 141.715C162.765 142.701 160.638 144.142 158.853 145.956C157.404 147.402 155.927 148.822 154.536 150.323C154.274 150.633 153.942 150.876 153.567 151.032C153.193 151.188 152.787 151.253 152.382 151.221C146.196 151.078 140.007 151.017 133.82 150.891C130.656 150.827 127.493 150.684 124.329 150.576L122.866 150.529C121.89 150.448 120.914 150.367 119.938 150.285L118.766 150.247C117.497 150.157 116.228 150.067 114.959 149.977L113.788 149.963C112.324 149.875 110.861 149.788 109.397 149.7L107.933 149.663C106.664 149.575 105.395 149.486 104.127 149.398L102.955 149.369L99.1498 149.114L97.6851 149.077L93.0015 148.815C92.318 148.803 91.6347 148.79 90.9517 148.778C85.4904 148.705 80.0291 148.567 74.5684 148.587C72.0415 148.596 69.5127 148.878 66.992 149.114C66.2673 149.205 65.5642 149.422 64.9145 149.756C64.0663 150.167 63.9852 150.62 64.309 151.524C64.4136 151.888 64.478 152.262 64.501 152.64C64.6791 154.088 64.764 155.554 65.0368 156.983C65.7861 160.908 66.6315 164.815 67.4027 168.736C67.9014 171.271 68.324 173.821 68.8035 176.36C68.9149 177.093 69.2287 177.78 69.7094 178.344C70.1901 178.908 70.8186 179.326 71.5241 179.552C73.1685 180.093 74.9068 180.349 76.6038 180.729L77.1894 180.77L79.2389 181.009L80.1177 181.04L83.3378 181.308L84.5096 181.339L106.466 182.189C107.052 182.2 107.638 182.211 108.224 182.221L112.908 182.49L114.371 182.524L118.178 182.769C118.666 182.782 119.154 182.795 119.643 182.809L123.155 183.066C123.546 183.078 123.937 183.09 124.327 183.102C125.303 183.189 126.278 183.276 127.254 183.362L128.133 183.401C128.913 183.488 129.694 183.574 130.475 183.66L131.061 183.69C131.84 183.785 132.619 183.879 133.398 183.973C133.433 184.092 133.468 184.21 133.504 184.328C133.003 185.221 132.501 186.114 132 187.007C129.463 191.512 127.097 196.123 124.352 200.497C119.813 207.729 116.552 215.443 114.791 223.787C113.891 228.052 113.316 232.356 114.094 236.713C114.739 240.323 116.187 243.549 119.133 245.866C123.285 249.131 128.06 250.311 133.282 249.781C136.784 249.426 139.99 248.134 143.105 246.597C150.068 243.162 156.742 239.218 163.289 235.053C163.717 234.781 164.166 234.543 164.724 234.221C164.999 239.672 165.253 244.882 165.527 250.091C165.707 253.5 166.045 256.907 166.081 260.317C166.138 265.635 165.997 270.955 165.94 276.274C166.277 277.225 166.26 278.265 165.891 279.203C165.862 280.818 165.834 282.435 165.805 284.08H207.313C207.272 282.998 207.238 281.916 207.237 280.834Z" fill="#1D884A"/>
<path d="M205.119 155.249L205.151 154.369C205.14 154.662 205.129 154.955 205.119 155.249Z" fill="#F0B7B3"/>
<path d="M204.826 159.058C204.842 158.765 204.857 158.472 204.873 158.179C204.857 158.472 204.842 158.765 204.826 159.058Z" fill="#F0B7B3"/>
<path d="M204.206 164.618L204.245 163.747C204.232 164.038 204.219 164.328 204.206 164.618Z" fill="#E88D89"/>
<path d="M203.908 168.134C203.923 167.844 203.938 167.554 203.953 167.263C203.938 167.554 203.923 167.844 203.908 168.134Z" fill="#E88D89"/>
<path d="M205.411 152.025C205.423 151.83 205.435 151.634 205.448 151.439C205.435 151.634 205.423 151.83 205.411 152.025Z" fill="#F0B7B3"/>
<path d="M76.604 180.729L77.1894 180.77L76.604 180.729Z" fill="#EFAFAC"/>
<path d="M130.475 183.66L131.061 183.69C130.866 183.68 130.67 183.67 130.475 183.66Z" fill="#F0B7B3"/>
<path d="M133.398 183.973C133.433 184.091 133.468 184.21 133.504 184.328C133.469 184.21 133.433 184.091 133.398 183.973Z" fill="#F0B7B3"/>
<path d="M238.061 127.993C238.157 126.681 238.27 125.37 238.346 124.057C238.432 122.596 239.148 122.199 240.426 122.825C243.113 124.141 245.849 125.357 248.525 126.694C251.57 128.215 254.567 129.831 257.592 131.391C259.401 132.323 261.252 133.179 263.037 134.156C265.293 135.391 267.574 136.606 269.701 138.043C271.006 138.974 272.177 140.079 273.183 141.328C275.499 144.077 277.727 146.903 279.921 149.752C280.628 150.744 281.255 151.791 281.797 152.883C282.022 153.315 282.162 153.785 282.209 154.27C282.364 155.732 281.69 156.247 280.291 155.763C279.985 155.624 279.688 155.465 279.402 155.288C276.715 153.949 274.054 152.526 271.08 151.924C269.524 151.599 267.948 151.376 266.363 151.256C264.422 151.122 262.461 151.253 260.522 151.099C258.479 150.938 256.601 150.167 254.816 149.151C253.808 148.578 252.727 148.136 251.695 147.602C249.994 146.722 248.263 147.002 246.624 147.632C244.501 148.448 242.465 149.486 240.376 150.391C239.272 150.885 238.143 151.319 236.992 151.688C236.076 151.97 235.256 151.244 235.204 150.104C235.213 149.276 235.275 148.449 235.389 147.629C235.397 147.434 235.405 147.238 235.413 147.043C235.603 145.579 235.796 144.116 235.982 142.652C236.186 141.047 236.371 139.439 236.588 137.835C236.774 136.47 237.009 135.11 237.193 133.745C237.409 132.138 237.595 130.527 237.794 128.918C237.883 128.886 237.962 128.834 238.027 128.765C238.091 128.697 238.138 128.614 238.164 128.524C238.19 128.434 238.194 128.339 238.176 128.246C238.158 128.154 238.119 128.067 238.061 127.993Z" fill="#1D884A"/>
<path d="M221.547 90.9592C220.007 90.7167 218.462 90.5113 216.918 90.3C215.621 90.1226 214.589 90.498 214.281 91.3096C213.845 92.4555 214.591 93.1533 215.341 93.8011C217.312 95.4818 219.594 96.7573 222.057 97.5547C222.523 97.681 222.996 97.778 223.474 97.8451C224.609 97.8195 225.716 97.4856 226.676 96.879C228.868 95.5966 230.852 93.9861 232.557 92.1034C232.792 91.8551 232.993 91.5768 233.155 91.2759C233.644 90.3218 233.27 89.6036 232.209 89.5392C231.625 89.5211 231.041 89.5741 230.47 89.6972C229.466 89.8853 228.479 90.1663 227.474 90.3461C225.515 90.6967 223.581 91.2795 221.547 90.9592Z" fill="white"/>
<path d="M200.469 51.1039C195.752 54.2467 192.967 58.7821 191.193 64.0401C191.084 64.3619 191.024 64.7 190.916 65.1351C191.013 65.3116 191.144 65.5494 191.275 65.7873C191.546 65.6567 191.795 65.4841 192.012 65.2757C192.177 65.0582 192.188 64.7269 192.281 64.4506C194.011 59.3295 196.79 54.9973 201.343 51.8802C202.812 50.8745 204.082 49.5469 205.329 48.2568C206.581 46.9626 207.651 45.4936 208.872 44.1671C212.554 40.1665 216.799 36.9711 221.99 35.1632C222.271 35.0914 222.536 34.9671 222.771 34.797C222.851 34.7159 222.909 34.6172 222.943 34.5089C222.977 34.4006 222.984 34.2859 222.965 34.1741C222.91 34.0763 222.832 33.9936 222.737 33.9332C222.642 33.8728 222.534 33.8367 222.422 33.8279C222.086 33.8652 221.757 33.9511 221.445 34.0828C218.796 34.9857 216.393 36.3547 214.103 37.9479C210.625 40.3684 207.773 43.428 205.125 46.698C203.805 48.3949 202.235 49.8806 200.469 51.1039Z" fill="white"/>
<path d="M215.66 63.5785C215.744 63.0748 215.626 62.558 215.331 62.1411C214.995 61.7247 214.556 61.4037 214.058 61.21C210.343 59.601 206.591 59.7836 202.841 61.0879C201.901 61.415 201.479 62.1079 201.612 63.1979C201.873 63.285 202.14 63.3505 202.412 63.3936C204.102 63.5274 205.796 63.6152 207.484 63.7708C209.321 63.9401 211.151 64.1779 212.986 64.3613C213.513 64.4505 214.051 64.4486 214.577 64.3556C214.994 64.2469 215.563 63.922 215.66 63.5785Z" fill="#333333"/>
<path d="M234.989 65.0267C235.562 65.129 236.146 65.1403 236.722 65.0604C239.349 64.5734 241.974 64.1425 244.655 64.0692C245.794 64.0381 246.478 63.4646 246.522 62.7793C246.565 62.105 245.954 61.52 244.78 61.3464C243.343 61.1341 241.887 61.0493 240.658 60.9305C239.46 61.018 238.468 60.9792 237.531 61.1882C236.455 61.4474 235.407 61.8108 234.401 62.2729C234.099 62.3861 233.846 62.6025 233.688 62.8841C233.53 63.1657 233.476 63.4942 233.536 63.8116C233.677 64.6038 234.281 64.9286 234.989 65.0267Z" fill="#333333"/>
<path d="M185.395 54.8933C187.398 51.5743 190.08 48.9314 193.275 46.7608C194.336 46.0659 195.311 45.2482 196.18 44.3248C198.423 41.8503 200.805 39.5719 203.745 37.9328C204.143 37.7106 204.74 37.4392 204.394 36.8408C204.041 36.2326 203.552 36.6465 203.133 36.8731C203.09 36.8963 203.05 36.924 203.008 36.9494C200.624 38.4085 198.409 40.0801 196.571 42.2042C195.226 43.7524 193.682 45.1151 191.979 46.2566C188.973 48.283 186.444 50.9395 184.567 54.042C184.344 54.3583 184.172 54.7085 184.06 55.0793C184.015 55.2782 184.252 55.5394 184.466 55.9921C184.801 55.6486 185.112 55.2814 185.395 54.8933Z" fill="white"/>
<path d="M264.308 163.97C256.609 167.372 248.909 170.774 241.21 174.176C240.89 174.292 240.586 174.446 240.305 174.636C240.218 174.71 240.15 174.803 240.105 174.907C240.06 175.012 240.04 175.125 240.047 175.239C240.088 175.416 240.367 175.537 240.542 175.682C240.923 175.534 241.244 175.423 241.554 175.288C249.128 171.966 256.702 168.642 264.274 165.316C264.554 165.232 264.815 165.094 265.042 164.912C265.214 164.658 265.346 164.38 265.434 164.087C265.145 164.003 264.859 163.907 264.566 163.845C264.492 163.83 264.397 163.931 264.308 163.97Z" fill="#582A1B"/>
<path d="M246.862 39.9359C246.565 39.6848 246.243 39.4647 245.902 39.279C245.815 39.2479 245.722 39.2394 245.631 39.2541C245.54 39.2689 245.455 39.3066 245.382 39.3635C245.319 39.4585 245.276 39.5654 245.255 39.6776C245.235 39.7898 245.237 39.905 245.262 40.0163C245.374 40.2302 245.542 40.4096 245.747 40.5355C247.93 42.205 249.442 44.3835 250.543 46.869C251.249 48.4778 252.272 49.9276 253.55 51.1317C255.477 52.9376 256.949 55.1749 257.845 57.66C257.965 58.0292 258.131 58.3817 258.339 58.709C258.451 58.8711 258.79 59.0427 258.927 58.9828C259.144 58.888 259.277 58.6022 259.429 58.418C259.298 58.0529 259.203 57.7788 259.101 57.5072C258.167 55.0151 256.874 52.7217 254.949 50.8786C253.342 49.3177 252.048 47.4642 251.136 45.4176C250.154 43.2838 248.691 41.4073 246.862 39.9359Z" fill="white"/>
<path d="M208.573 68.2727C206.677 68.2633 205.057 69.7853 205.126 71.5117C205.189 73.084 206.606 74.3306 208.301 74.3053C210.139 74.2779 211.665 72.8302 211.653 71.127C211.64 69.5111 210.314 68.2813 208.573 68.2727Z" fill="#582A1B"/>
<path d="M243.368 20.2501C246.148 19.0415 248.389 17.2637 249.28 14.2098C249.892 12.1121 250.442 9.99588 250.998 7.88212C251.338 6.58548 251.399 5.27488 250.87 4.01456C250.77 3.77605 250.384 3.65756 250.13 3.4837C250.005 3.7681 249.761 4.06006 249.779 4.33542C249.852 4.93384 249.966 5.52656 250.12 6.10953C249.995 6.68878 249.885 7.3098 249.726 7.91783C249.258 9.70346 248.712 11.4706 248.307 13.2698C247.816 15.4518 246.567 17.0399 244.734 18.2178C244.164 18.5845 243.519 18.8394 242.963 19.2239C242.741 19.3772 242.666 19.7431 242.524 20.0123C242.809 20.0993 243.16 20.3404 243.368 20.2501Z" fill="white"/>
<path d="M239.918 73.8481C241.48 73.8472 242.664 72.7221 242.661 71.2421C242.635 70.5053 242.323 69.8076 241.792 69.2966C241.261 68.7857 240.552 68.5016 239.816 68.5046C238.333 68.5085 237.045 69.7361 237.046 71.144C237.047 72.6172 238.355 73.849 239.918 73.8481Z" fill="#582A1B"/>
<path d="M222.671 71.066C222.55 71.4882 222.486 71.9245 222.481 72.3636C222.42 74.614 221.794 76.8127 220.659 78.7563C220.111 79.6914 219.885 80.7807 220.015 81.8568C220.203 83.6581 221.424 84.6744 222.843 85.5099C223.02 85.6142 223.363 85.436 223.629 85.3887C223.561 85.0926 223.579 84.7217 223.404 84.5176C223.126 84.1939 222.708 83.9942 222.367 83.7195C221.562 83.0713 221.037 82.252 221.2 81.1898C221.275 80.4665 221.485 79.7637 221.819 79.1183C223.224 76.7739 223.582 74.1921 223.75 71.5452C223.75 71.3993 223.804 71.2198 223.739 71.1144C223.585 70.9007 223.415 70.7 223.229 70.5144C223.035 70.6959 222.743 70.845 222.671 71.066Z" fill="#582A1B"/>
<path d="M186.717 79.9063C186.962 80.514 187.526 80.1932 187.977 80.0222C188.159 79.9528 188.35 79.9134 188.545 79.9056C189.142 79.8871 189.705 79.9306 190.045 80.5597C190.806 81.9692 191.599 83.3621 192.368 84.7677C192.576 85.1482 192.71 85.6893 193.294 85.3777C193.803 85.1059 193.638 84.6218 193.428 84.2242C193.088 83.5795 192.706 82.9574 192.346 82.3233C191.922 81.5743 191.546 80.7991 191.22 80.0024C190.6 78.4979 189.714 77.0365 188.071 76.3314C187.768 76.1831 187.442 76.0885 187.106 76.0516C186.995 76.0599 186.887 76.0958 186.793 76.1562C186.699 76.2166 186.622 76.2995 186.568 76.3974C186.557 76.5086 186.573 76.6207 186.613 76.7248C186.654 76.8289 186.718 76.922 186.801 76.9968C187.013 77.1786 187.34 77.2197 187.575 77.3829C188.034 77.7015 188.464 78.0628 189.127 78.579C188.623 78.6534 188.124 78.7574 187.632 78.8904C187.156 79.0602 186.418 79.1659 186.717 79.9063Z" fill="#582A1B"/>
<path d="M235.348 22.7803C238.881 23.0854 242.265 23.8651 245.261 25.8922C245.618 26.1337 246.063 26.4483 246.394 25.9107C246.707 25.4013 246.286 25.1171 245.903 24.8734C245.739 24.7689 245.568 24.6757 245.403 24.5725C242.396 22.6912 239.061 21.9062 235.574 21.6068C235.382 21.5733 235.186 21.5779 234.997 21.6206C234.732 21.7714 234.482 21.9457 234.249 22.1412C234.458 22.359 234.681 22.5626 234.918 22.7507C235.017 22.8218 235.202 22.7677 235.348 22.7803Z" fill="white"/>
<path d="M237.137 15.7366C237.252 15.6351 237.34 15.5067 237.393 15.363C237.446 15.2192 237.463 15.0645 237.442 14.9127C237.156 13.777 237.324 12.6876 237.616 11.594C238.176 9.4993 239.015 7.55122 240.465 5.89596C240.64 5.69676 240.74 5.18921 240.614 5.0186C240.326 4.6295 239.928 4.80948 239.62 5.11971C239.516 5.22218 239.417 5.33006 239.324 5.44288C237.405 7.83106 236.412 10.5855 236.058 13.7184C236.126 14.1458 236.176 14.68 236.305 15.1942C236.406 15.5954 236.687 15.9692 237.137 15.7366Z" fill="white"/>
<path d="M258.763 76.2502C258.065 76.8382 257.28 77.4433 256.862 78.2214C255.978 79.8694 255.691 81.8147 254.381 83.2745C254.273 83.3951 254.459 83.7795 254.508 84.0412C254.77 83.9909 255.164 84.0322 255.273 83.8753C255.938 82.9215 256.754 81.992 257.098 80.919C257.445 79.8376 258.119 79.3262 259.002 78.8996C259.259 78.7755 259.593 78.8021 259.836 78.6626C259.933 78.6029 260.016 78.5223 260.079 78.4267C260.142 78.3311 260.183 78.2228 260.199 78.1095C260.199 77.9355 259.983 77.7231 259.81 77.5994C259.632 77.519 259.441 77.4706 259.246 77.4565C259.302 77.3574 259.37 77.2653 259.449 77.1823C259.775 76.9314 260.133 76.5983 259.779 76.2413C259.605 76.0649 258.974 76.0723 258.763 76.2502Z" fill="#582A1B"/>
<path d="M238.061 127.993C238.119 128.067 238.159 128.154 238.177 128.246C238.194 128.339 238.19 128.434 238.164 128.524C238.138 128.614 238.091 128.697 238.027 128.765C237.963 128.834 237.883 128.886 237.795 128.918C237.884 128.61 237.973 128.302 238.061 127.993Z" fill="#F1B8B4"/>
<path d="M235.413 147.043C235.405 147.238 235.397 147.434 235.389 147.629C235.397 147.434 235.405 147.238 235.413 147.043Z" fill="#ECA19D"/>
<path d="M231.602 21.9454L231.019 21.923L231.602 21.9454Z" fill="#B88B7E"/>
<path d="M231.485 244.917C231.476 245.404 231.466 245.891 231.457 246.378C231.277 246.175 231.18 245.913 231.185 245.642C231.19 245.371 231.297 245.112 231.485 244.917Z" fill="#F5D0CD"/>
<path d="M287.102 199.205C287.114 198.815 287.126 198.425 287.138 198.035C287.223 198.108 287.29 198.199 287.335 198.302C287.38 198.405 287.402 198.516 287.398 198.628C287.395 198.741 287.366 198.851 287.315 198.95C287.264 199.05 287.191 199.137 287.102 199.205Z" fill="#F5CDC9"/>
<path d="M286.521 206.53C286.535 206.239 286.548 205.947 286.561 205.655C286.888 205.962 286.866 206.254 286.521 206.53Z" fill="#F5D0CD"/>
<path d="M286.82 203.013C286.832 202.721 286.843 202.43 286.855 202.139C287.17 202.443 287.162 202.734 286.82 203.013Z" fill="#F5CDC9"/>
<path d="M287.141 174.584C287.129 174.389 287.118 174.195 287.106 174.001C287.118 174.195 287.129 174.389 287.141 174.584Z" fill="#F5CDC9"/>
<path d="M286.246 209.164C286.256 208.972 286.266 208.779 286.276 208.587C286.266 208.779 286.256 208.972 286.246 209.164Z" fill="#F5D0CD"/>
<path d="M285.933 212.099C285.946 211.904 285.959 211.71 285.972 211.515C285.959 211.71 285.946 211.904 285.933 212.099Z" fill="#F5D0CD"/>
<path d="M285.65 214.441C285.663 214.247 285.675 214.054 285.688 213.86C285.675 214.054 285.663 214.247 285.65 214.441Z" fill="#F5CDC9"/>
<path d="M285.056 219.131C285.072 218.937 285.088 218.743 285.104 218.55C285.088 218.743 285.072 218.937 285.056 219.131Z" fill="#F5D0CD"/>
<path d="M284.471 223.527L284.518 222.945L284.471 223.527Z" fill="#F5D0CD"/>
<path d="M278.903 261.622C278.921 261.428 278.938 261.234 278.956 261.04C278.938 261.234 278.921 261.428 278.903 261.622Z" fill="#F5D0CD"/>
<path d="M278.028 268.068C278.044 267.875 278.061 267.681 278.077 267.487C278.061 267.681 278.044 267.875 278.028 268.068Z" fill="#F5D0CD"/>
<path d="M192.05 180.214C194.789 178.722 197.51 177.196 200.227 175.666C200.674 175.414 201.344 175.118 200.954 174.468C200.594 173.869 200.103 174.379 199.7 174.598C195.722 176.764 191.745 178.931 187.769 181.099C186.57 181.751 185.379 182.426 184.136 182.985C182.989 183.502 181.8 184.165 180.59 184.258C177.388 184.505 174.158 184.375 170.952 184.581C164.065 185.024 157.207 184.54 150.343 184.138C145.524 183.856 140.703 183.617 135.882 183.365C135.494 183.327 135.102 183.336 134.716 183.393C134.6 183.409 134.492 183.463 134.411 183.547C134.329 183.632 134.279 183.741 134.267 183.858C134.256 183.975 134.284 184.092 134.347 184.191C134.411 184.289 134.506 184.364 134.617 184.402C134.942 184.497 135.279 184.542 135.617 184.536C141.752 184.871 147.884 185.249 154.022 185.516C158.501 185.711 162.984 185.821 167.47 185.847C170.296 185.867 173.124 185.672 175.951 185.581C176.495 185.563 177.039 185.578 177.584 185.578C177.601 185.677 177.619 185.777 177.636 185.876C177.318 186.061 177.002 186.252 176.681 186.432C172.419 188.797 168.005 190.876 163.468 192.655C156.177 195.536 148.877 198.394 141.568 201.23C141.251 201.352 140.922 201.441 140.587 201.496C135.444 202.363 130.663 204.279 125.993 206.519C125.597 206.706 125.22 206.929 124.865 207.186C124.743 207.276 124.636 207.589 124.699 207.685C124.811 207.857 125.081 208.069 125.241 208.038C125.663 207.93 126.072 207.782 126.465 207.595C129.12 206.505 131.774 205.413 134.427 204.318L135.136 204.046C135.14 204.187 135.143 204.328 135.147 204.468C135.021 204.53 134.894 204.591 134.767 204.653C129.93 207.83 125.969 211.895 122.663 216.623C122.415 216.923 122.21 217.257 122.056 217.616C122.024 217.747 122.024 217.884 122.057 218.015C122.09 218.146 122.155 218.267 122.245 218.367C122.369 218.412 122.503 218.424 122.633 218.402C122.763 218.381 122.886 218.326 122.989 218.244C123.368 217.799 123.716 217.329 124.03 216.836C128.29 210.749 133.635 205.952 140.52 203.011C144.057 201.499 147.567 199.897 151.185 198.606C163.338 194.246 175.174 189.051 186.611 183.057C188.425 182.111 190.254 181.192 192.05 180.214Z" fill="white"/>
<path d="M268.266 194.423C268.756 194.487 269.428 194.931 269.627 194.168C269.815 193.447 269.101 193.346 268.582 193.265C266.754 192.979 264.93 192.612 263.09 192.473C257.742 192.068 252.391 191.721 247.035 191.432C244.261 191.286 241.477 191.322 238.697 191.306C238.213 191.325 237.734 191.411 237.274 191.559C237.158 191.592 237.035 191.872 237.05 192.025C237.067 192.114 237.104 192.197 237.159 192.269C237.214 192.341 237.284 192.399 237.366 192.438C237.602 192.488 237.845 192.501 238.085 192.478C241.206 192.522 244.328 192.546 247.448 192.617C248.992 192.653 250.535 192.777 252.196 192.868C252.075 193.33 252.013 193.652 251.907 193.958C248.573 203.581 245.265 213.213 241.887 222.821C238.913 231.278 236.021 239.768 232.434 247.995C232.356 248.174 232.212 248.362 232.227 248.534C232.23 248.648 232.257 248.76 232.305 248.863C232.353 248.966 232.422 249.058 232.508 249.133C232.613 249.168 232.726 249.175 232.835 249.153C232.945 249.132 233.047 249.083 233.131 249.011C233.416 248.618 233.651 248.191 233.83 247.74C235.205 244.302 236.673 240.895 237.904 237.405C242.057 225.643 246.116 213.848 250.228 202.071C251.285 199.043 252.403 196.037 253.523 192.937C255.696 193.073 257.788 193.134 259.864 193.351C262.671 193.646 265.466 194.061 268.266 194.423Z" fill="white"/>
<path d="M153.885 152.016C154.402 152.16 154.935 152.242 155.472 152.259C160.925 152.596 166.397 152.462 171.827 151.859C176.281 151.328 180.735 150.804 185.19 150.287C190.614 149.664 196.04 149.063 201.464 148.442C202.868 148.282 204.273 148.112 205.666 147.877C205.893 147.839 206.06 147.439 206.255 147.206C206.05 147.031 205.827 146.88 205.588 146.755C205.397 146.717 205.199 146.725 205.011 146.777C203.995 146.904 202.981 147.043 201.965 147.168C199.356 147.49 196.746 147.81 194.135 148.127C193.773 148.222 193.606 148.146 193.808 147.749C193.924 147.43 194.029 147.106 194.158 146.792C196.311 141.552 198.977 136.566 201.677 131.597C201.816 131.341 202.052 131.111 202.108 130.841C202.129 130.531 202.106 130.218 202.039 129.914C201.751 130.008 201.402 130.031 201.192 130.213C200.964 130.467 200.78 130.756 200.648 131.071C197.894 136.066 195.208 141.096 193.049 146.387C192.795 147.011 192.599 147.658 192.354 148.359C192.151 148.389 191.865 148.439 191.577 148.471C185.715 149.127 179.849 149.746 173.993 150.444C168.365 151.116 162.729 151.468 157.063 151.152C156.042 151.095 155.025 150.955 154.004 150.933C153.754 150.927 153.497 151.237 153.243 151.401C153.455 151.614 153.632 151.939 153.885 152.016Z" fill="white"/>
<path d="M207.004 213.121C206.781 213.167 206.597 213.379 206.387 213.501C203.86 214.971 201.394 216.563 198.79 217.881C191.706 221.467 184.578 224.966 177.438 228.438C174.593 229.821 171.666 231.035 168.783 232.339C168.371 232.525 167.658 232.608 167.893 233.261C168.169 234.023 168.813 233.544 169.273 233.405C169.827 233.218 170.365 232.989 170.884 232.719C179.275 228.708 187.664 224.695 196.053 220.68C196.521 220.456 196.995 220.245 197.584 219.973C198.068 221.198 198.555 222.308 198.95 223.449C201.217 229.985 203.473 236.525 205.719 243.068C205.932 243.713 206.198 244.34 206.514 244.941C206.606 245.038 206.721 245.111 206.848 245.15C206.975 245.19 207.111 245.196 207.241 245.168C207.339 245.08 207.414 244.969 207.458 244.845C207.502 244.721 207.514 244.587 207.494 244.457C207.368 243.942 207.09 243.467 206.926 242.959C204.396 235.074 201.721 227.239 198.637 219.383C199.06 219.141 199.393 218.953 199.724 218.761C202.042 217.417 204.36 216.071 206.678 214.724C207.031 214.56 207.353 214.336 207.631 214.062C207.794 213.862 207.743 213.487 207.788 213.189C207.531 213.127 207.267 213.104 207.004 213.121Z" fill="white"/>
<path d="M167.963 157.339C167.579 156.967 167.134 156.175 166.565 156.795C166.032 157.376 166.81 157.829 167.2 158.195C169.331 160.2 171.427 162.248 173.653 164.142C177.624 167.522 181.675 170.807 185.706 174.117C186.077 174.427 186.502 174.667 186.959 174.823C187.148 174.884 187.45 174.595 187.7 174.466L187.898 174.006C187.589 173.865 187.289 173.707 186.998 173.532C186.311 173.07 185.614 172.616 184.969 172.098C179.11 167.399 173.365 162.567 167.963 157.339Z" fill="white"/>
<path d="M275.105 210.726C274.142 209.903 273.105 209.16 272.192 208.285C268.074 204.338 263.988 200.356 259.892 196.385C259.612 196.114 259.377 195.766 259.05 195.583C258.817 195.453 258.463 195.539 258.163 195.529C258.172 195.8 258.201 196.07 258.249 196.337C258.279 196.461 258.433 196.557 258.535 196.661C263.527 201.81 268.552 206.923 274.105 211.48C274.344 211.721 274.636 211.903 274.957 212.01C275.192 212.052 275.478 211.806 275.879 211.627C275.642 211.31 275.384 211.009 275.105 210.726Z" fill="white"/>
<path d="M252.252 139.709C251.907 138.644 251.513 137.592 251.092 136.555C249.937 133.713 248.776 130.872 247.572 128.05C247.273 127.385 246.888 126.761 246.428 126.194C246.277 126.002 245.843 126.031 245.538 125.959C245.525 126.255 245.406 126.601 245.517 126.838C246.282 128.464 247.189 130.029 247.872 131.687C249.205 134.923 250.42 138.206 251.685 141.47C246.964 142.149 242.242 142.828 237.522 143.508C236.989 143.563 236.462 143.661 235.946 143.803C235.742 143.869 235.622 144.195 235.464 144.403C235.66 144.584 235.883 144.734 236.125 144.846C236.367 144.869 236.611 144.845 236.843 144.774C238.433 144.547 240.023 144.32 241.613 144.091C246.189 143.433 250.766 142.774 255.342 142.115C258.52 141.655 261.691 141.147 264.875 140.737C265.977 140.595 267.112 140.718 268.226 140.64C268.468 140.623 268.686 140.264 268.916 140.063C268.72 139.872 268.537 139.533 268.328 139.516C267.459 139.411 266.581 139.4 265.709 139.483C261.325 140.092 256.95 140.763 252.572 141.412C252.504 140.838 252.397 140.269 252.252 139.709Z" fill="white"/>
<path d="M210.357 108.79C210.748 109.044 211.084 109.372 211.348 109.757C211.611 110.141 211.796 110.574 211.891 111.03C212.096 111.885 212.189 112.763 212.167 113.642C212.053 115.372 211.872 117.098 211.689 118.824C221.902 118.92 230.344 115.199 237.473 108.649C227.877 112.343 218.759 112.908 210.357 108.79Z" fill="#74524B"/>
<path d="M196.856 283.999C196.791 283.622 196.747 283.243 196.725 282.861C196.732 281.54 196.745 280.218 196.79 278.897C196.833 277.643 197.03 277.444 198.27 277.411C201.702 277.321 205.134 277.258 208.566 277.168C216.09 276.972 223.613 276.77 231.137 276.563C238.484 276.365 245.832 276.167 253.179 275.967C257.402 275.85 261.625 275.716 265.848 275.586C266.11 275.578 266.37 275.548 266.755 275.519C266.891 275.039 267.044 274.545 267.172 274.044C272.324 253.786 277.475 233.528 282.624 213.269C284.706 205.08 286.788 196.892 288.869 188.703C288.94 188.358 289.037 188.019 289.159 187.689C289.364 187.208 311.572 187.007 321.381 186.697C328.419 186.474 335.458 186.26 342.497 186.054C347.776 185.892 353.054 185.726 358.333 185.556C367.086 185.273 375.84 184.987 384.593 184.698C384.769 184.692 384.945 184.681 385.121 184.681C386.425 184.68 386.594 184.978 385.992 186.11C385.804 186.506 385.657 186.92 385.551 187.345C376.836 216.756 368.124 246.167 359.414 275.578C358.652 278.152 357.836 280.99 357.084 283.567C357.084 283.567 305.256 283.979 298.258 283.997C290.996 284.015 283.734 284.033 276.472 284.05C269.65 284.067 262.828 284.084 256.006 284.102C248.48 284.121 240.954 284.139 233.428 284.157C226.43 284.174 219.432 284.192 212.434 284.209C208.033 284.219 203.632 284.231 199.231 284.217C198.494 284.215 197.757 284.085 196.856 283.999Z" fill="#333333"/>
<path d="M341.714 231.3L321.371 231.649C321.009 231.655 320.651 231.576 320.325 231.419C319.999 231.262 319.714 231.03 319.493 230.743C319.273 230.456 319.122 230.121 319.054 229.765C318.986 229.409 319.002 229.042 319.101 228.694L320.134 225.059C320.27 224.58 320.556 224.158 320.951 223.854C321.345 223.551 321.827 223.382 322.324 223.374L342.667 223.025C343.029 223.019 343.388 223.097 343.714 223.254C344.04 223.412 344.325 223.643 344.545 223.931C344.766 224.218 344.916 224.553 344.984 224.909C345.052 225.264 345.036 225.631 344.937 225.98L343.905 229.614C343.769 230.093 343.482 230.516 343.088 230.819C342.693 231.123 342.212 231.291 341.714 231.3Z" fill="white"/>
</g>
<defs>
<clipPath id="clip0_292_1340">
<rect width="386" height="284" fill="white" transform="translate(0.436035)"/>
</clipPath>
</defs>
</svg>
