<svg width="18" height="19" viewBox="0 0 18 19" fill="none" xmlns="http://www.w3.org/2000/svg">
<g clip-path="url(#clip0_116_309)">
<path fill-rule="evenodd" clip-rule="evenodd" d="M3.67877 18.5476C3.68465 18.7335 3.74696 18.8648 3.90725 18.9513L14.0915 18.9513C14.2526 18.8655 14.3144 18.7339 14.3206 18.5481C14.3325 18.2536 14.3285 17.9587 14.3084 17.6647C14.304 17.6227 14.3086 17.5803 14.3218 17.5402C14.3349 17.5002 14.3565 17.4634 14.3849 17.4324C14.9381 16.7691 15.3929 16.0287 15.7351 15.2343C16.9543 12.433 17.4633 9.5011 17.3149 6.4483C17.2523 5.16276 16.6726 4.21537 15.5608 3.58291C15.006 3.27654 14.4265 3.01774 13.8284 2.80923C13.5906 2.72276 13.3492 2.64706 13.1077 2.57136C12.6759 2.436 12.2441 2.30063 11.8332 2.10362C11.6747 2.03123 11.5346 1.9236 11.4236 1.78886C11.3125 1.65411 11.2332 1.49575 11.1918 1.32573C11.1277 1.06893 11.118 0.801429 11.1634 0.540611C11.2111 0.207862 11.1058 0.0828325 10.7766 0.0826503L7.93783 0.082473C7.85939 0.0824745 7.78093 0.0821497 7.70248 0.0818249C7.5184 0.0810628 7.33432 0.0803007 7.15032 0.0837533C6.90894 0.0882883 6.78825 0.243266 6.82424 0.484886C6.84051 0.59409 6.8539 0.704068 6.86092 0.814192C6.90029 1.43094 6.63474 1.88398 6.08153 2.14094C5.75345 2.28738 5.41624 2.41218 5.07204 2.51455C4.13618 2.80845 3.20325 3.11264 2.35995 3.63282C1.64327 4.0749 1.06746 4.63976 0.840372 5.48706C0.706225 5.98757 0.663261 6.50277 0.652628 7.01846C0.611819 9.20006 0.926206 11.3737 1.58333 13.4532C2.03651 14.9072 2.65256 16.2807 3.63861 17.4596C3.66083 17.4882 3.67684 17.5212 3.6856 17.5564C3.69435 17.5916 3.69565 17.6283 3.68942 17.664C3.67156 17.9583 3.66944 18.2524 3.67877 18.5476ZM2.7713 14.8575C3.05318 15.5068 3.40724 16.1219 3.8267 16.691C3.84104 16.6373 3.85424 16.5869 3.86684 16.5388C3.89393 16.4353 3.91823 16.3426 3.94505 16.2506C3.98439 16.1155 4.02766 15.9815 4.0717 15.8478C4.59756 14.2518 4.61425 12.6485 4.07097 11.0603C4.04836 10.9942 4.02571 10.9282 4.00307 10.8621C3.65461 9.84518 3.30682 8.83022 3.08563 7.7754C3.03715 7.5442 3.11363 7.38203 3.2982 7.3387C3.49688 7.29207 3.63775 7.39693 3.69238 7.64025C3.90499 8.60291 4.18532 9.54917 4.53124 10.4719C5.24255 12.3434 5.27884 14.2281 4.64012 16.126C4.41764 16.7833 4.30107 17.4721 4.29481 18.1664C4.29361 18.2941 4.32384 18.3281 4.45294 18.3279C7.48718 18.3243 10.5214 18.3242 13.5556 18.3276C13.675 18.3277 13.706 18.2971 13.7051 18.1768C13.696 17.4581 13.5731 16.7454 13.341 16.0657C12.7607 14.3268 12.7479 12.579 13.3401 10.8461C13.3571 10.7963 13.3741 10.7466 13.3911 10.6969C13.7386 9.68079 14.0855 8.6667 14.3109 7.61428C14.3591 7.38936 14.5128 7.27062 14.6929 7.31293C14.8867 7.35845 14.9694 7.52562 14.9179 7.76265C14.6923 8.79134 14.3922 9.80207 14.0201 10.7868C13.4871 12.1766 13.3863 13.6965 13.7311 15.1452C13.8128 15.4966 13.9187 15.8423 14.0257 16.1916C14.075 16.3523 14.1244 16.5137 14.1718 16.6768C14.542 16.2348 15.0454 15.324 15.3748 14.5191C15.9017 13.2319 16.243 11.8933 16.4562 10.5215C16.6782 9.09259 16.7903 7.65756 16.6569 6.20987C16.5861 5.44036 16.2524 4.83717 15.6295 4.38489C15.0145 3.93829 14.3224 3.65844 13.617 3.40102C13.3762 3.31317 13.1316 3.23689 12.8869 3.1606C12.4638 3.02869 12.0407 2.89677 11.6376 2.70499C10.8614 2.33577 10.5137 1.70775 10.5081 0.867957C10.5072 0.739934 10.4841 0.706248 10.3544 0.70714C9.46307 0.713245 8.57166 0.715235 7.68041 0.705919C7.5166 0.704195 7.49221 0.746704 7.48938 0.90534C7.47491 1.71312 7.13738 2.3277 6.39323 2.68979C6.01333 2.87466 5.61349 3.00078 5.21354 3.12694C5.07968 3.16916 4.94581 3.21139 4.81267 3.25583C4.02625 3.51829 3.24447 3.7941 2.54743 4.25957C2.01576 4.61459 1.58519 5.05372 1.43112 5.70476C1.36182 6.01634 1.32033 6.33352 1.30715 6.65252C1.24273 7.82191 1.32434 8.98386 1.48742 10.1414C1.7166 11.7681 2.10384 13.3517 2.7713 14.8575Z" fill="#1D884A"/>
<path d="M5.56 12.5869C5.57557 11.7244 5.91452 10.8995 6.50897 10.2776C6.68093 10.0933 6.85786 10.0699 7.00255 10.2054C7.14635 10.34 7.13356 10.5238 6.96779 10.705C5.92335 11.8468 5.92201 13.456 6.967 14.614C7.07828 14.7373 7.1449 14.864 7.06331 15.0273C6.99811 15.1578 6.88758 15.2069 6.74602 15.1937C6.64721 15.1845 6.58171 15.1215 6.51744 15.0546C5.90928 14.4211 5.55972 13.5469 5.56 12.5869Z" fill="#1D884A"/>
<path d="M12.4401 12.6645C12.418 13.5825 12.1119 14.3803 11.4865 15.0484C11.321 15.2253 11.1321 15.2494 10.9921 15.1147C10.8522 14.9799 10.8675 14.7978 11.0342 14.6143C12.0754 13.4688 12.074 11.8624 11.0309 10.704C10.8531 10.5066 10.8599 10.2885 11.0473 10.1724C11.1836 10.0879 11.3358 10.116 11.4719 10.2596C12.1108 10.9339 12.4215 11.7422 12.4401 12.6645Z" fill="#1D884A"/>
<path d="M10.2478 6.0059C10.2478 5.63148 10.247 5.25705 10.248 4.88263C10.2487 4.63397 10.3634 4.48906 10.5578 4.4866C10.754 4.48414 10.8716 4.62708 10.872 4.87461C10.8729 5.56822 10.8727 6.26182 10.8715 6.95542C10.8695 7.1335 10.8838 7.31139 10.9142 7.48683C10.9958 7.93598 11.2726 8.22827 11.6777 8.40361C11.8446 8.47587 12.0221 8.52335 12.1945 8.58323C12.3791 8.64739 12.4715 8.79869 12.4275 8.96219C12.3815 9.13342 12.2366 9.21914 12.045 9.18845C10.9558 9.014 10.2855 8.2553 10.2526 7.14746C10.2414 6.76725 10.2509 6.38641 10.2509 6.00586L10.2478 6.0059Z" fill="#1D884A"/>
<path d="M7.75087 6.1083C7.73611 6.46646 7.76821 6.9081 7.73009 7.34987C7.65365 8.23565 7.16517 8.78199 6.35503 9.06919C6.21795 9.1197 6.07725 9.15968 5.93415 9.18877C5.89543 9.1983 5.85521 9.19997 5.81584 9.19368C5.77647 9.18739 5.73874 9.17327 5.70485 9.15215C5.67097 9.13103 5.64161 9.10333 5.61849 9.07066C5.59537 9.038 5.57896 9.00103 5.57021 8.96191C5.52845 8.8049 5.61569 8.65146 5.78722 8.59001C5.89021 8.55311 5.99718 8.52747 6.10033 8.49094C6.83388 8.23116 7.11548 7.84653 7.12383 7.06575C7.1317 6.32922 7.12795 5.59253 7.12515 4.85593C7.12453 4.69199 7.17337 4.56415 7.33338 4.50615C7.54669 4.42884 7.74578 4.58001 7.74933 4.82804C7.75505 5.22696 7.75087 5.62602 7.75087 6.1083Z" fill="#1D884A"/>
<path d="M7.243 16.5533C7.11305 16.3577 6.99443 16.187 6.88412 16.0111C6.73669 15.776 6.82312 15.5599 7.0915 15.4902C7.47429 15.3909 7.85774 15.294 8.24184 15.1998C8.47833 15.1418 8.64025 15.2288 8.6835 15.4291C8.72345 15.6141 8.61419 15.7568 8.3857 15.8151C8.13962 15.8778 7.89315 15.9391 7.63365 16.0043C7.75826 16.1948 7.87456 16.3665 7.98461 16.5422C8.13246 16.7783 8.05093 16.9959 7.78506 17.0659C7.40249 17.1666 7.01844 17.2618 6.63418 17.3558C6.4044 17.4121 6.23444 17.3195 6.19228 17.1226C6.15485 16.9478 6.26614 16.7987 6.47946 16.744C6.72663 16.6805 6.97459 16.6202 7.243 16.5533Z" fill="#1D884A"/>
<path d="M10.7581 16.5524C11.0353 16.622 11.2949 16.686 11.5538 16.7526C11.6975 16.7896 11.7919 16.8818 11.8091 17.0312C11.817 17.0926 11.8058 17.155 11.7771 17.2098C11.7484 17.2645 11.7036 17.3091 11.6487 17.3372C11.6112 17.358 11.5698 17.371 11.5272 17.3754C11.4845 17.3797 11.4414 17.3754 11.4004 17.3626C10.9983 17.2652 10.5961 17.1676 10.1965 17.0603C9.95217 16.9947 9.8696 16.7727 10.0034 16.5567C10.1157 16.3754 10.2378 16.2002 10.3682 16.0032C10.1006 15.9367 9.84793 15.8757 9.5963 15.8107C9.39855 15.7596 9.29092 15.6281 9.30715 15.466C9.32572 15.2804 9.4757 15.146 9.66523 15.1879C10.1044 15.2849 10.5417 15.3935 10.9742 15.517C11.1875 15.5779 11.2462 15.7933 11.1236 15.9939C11.0122 16.1763 10.8899 16.352 10.7581 16.5524Z" fill="#1D884A"/>
<path d="M11.1892 12.6651C11.1719 13.2442 10.9828 13.7482 10.5898 14.1688C10.4339 14.3356 10.2481 14.3546 10.1102 14.2215C9.97966 14.0957 9.98659 13.9118 10.128 13.7471C10.708 13.0718 10.7106 12.2673 10.1352 11.5842C9.98636 11.4075 9.98184 11.2231 10.1233 11.0971C10.2633 10.9724 10.449 10.9991 10.6032 11.1678C10.9784 11.5753 11.1876 12.1098 11.1892 12.6651Z" fill="#1D884A"/>
<path d="M6.80927 12.6574C6.82503 12.0973 7.00519 11.6021 7.38187 11.184C7.54547 11.0024 7.72952 10.9688 7.87383 11.0956C8.01934 11.2235 8.01143 11.4123 7.85282 11.5973C7.40084 12.1245 7.31048 12.7805 7.60826 13.3743C7.67908 13.5101 7.76736 13.6358 7.87084 13.7484C8.01337 13.909 8.01398 14.0987 7.87998 14.2223C7.74168 14.35 7.56456 14.3315 7.41287 14.1735C7.02811 13.7632 6.81241 13.2214 6.80927 12.6574Z" fill="#1D884A"/>
<path fill-rule="evenodd" clip-rule="evenodd" d="M9.31339 9.77429C9.31327 9.57909 9.31314 9.38388 9.31314 9.18868C9.31375 8.40268 9.31354 7.61668 9.3125 6.83068C9.31545 6.75717 9.31002 6.68356 9.29631 6.61129C9.28471 6.54376 9.24898 6.48281 9.19586 6.4399C9.14273 6.39699 9.07585 6.37506 9.00778 6.37823C8.84697 6.37487 8.73885 6.45479 8.70222 6.61248C8.68798 6.69087 8.68261 6.77064 8.6862 6.85026C8.68386 8.43454 8.68444 10.0188 8.68794 11.6031C8.6882 11.7193 8.66233 11.7848 8.55097 11.8436C8.36626 11.9428 8.22064 12.1023 8.13808 12.2958C8.05552 12.4894 8.04095 12.7054 8.09676 12.9084C8.15037 13.1087 8.26821 13.2856 8.43199 13.4117C8.59577 13.5379 8.79635 13.6061 9.00262 13.6059C9.20889 13.6057 9.40932 13.537 9.57284 13.4105C9.73636 13.2841 9.85383 13.1069 9.90703 12.9065C9.96079 12.703 9.94462 12.4872 9.86113 12.2942C9.77765 12.1011 9.63175 11.9421 9.44712 11.8429C9.33531 11.784 9.31013 11.7177 9.31077 11.6019C9.31417 10.9927 9.31378 10.3835 9.31339 9.77429ZM8.78266 12.8857C8.84192 12.9444 8.92186 12.9772 9.00505 12.9769C9.0881 12.9739 9.16663 12.9381 9.22354 12.8772C9.28045 12.8163 9.31114 12.7352 9.30894 12.6516C9.30594 12.5699 9.27117 12.4926 9.21209 12.4364C9.15302 12.3803 9.07438 12.3496 8.99308 12.3512C8.91179 12.3527 8.83434 12.3863 8.77741 12.4447C8.72049 12.5031 8.68863 12.5816 8.6887 12.6634C8.68962 12.7471 8.7234 12.827 8.78266 12.8857Z" fill="#1D884A"/>
</g>
<defs>
<clipPath id="clip0_116_309">
<rect width="18" height="19" fill="white"/>
</clipPath>
</defs>
</svg>
