<svg width="18" height="19" viewBox="0 0 18 19" fill="none" xmlns="http://www.w3.org/2000/svg">
<g clip-path="url(#clip0_116_480)">
<path fill-rule="evenodd" clip-rule="evenodd" d="M0.0636389 5.73969C0.0576584 5.7747 0.0517798 5.80911 0.00579297 5.82356L0.0057373 6.67657C0.0102553 6.68034 0.0156504 6.68388 0.0210458 6.68742C0.0326037 6.69501 0.044163 6.70259 0.0471043 6.71252C0.476907 8.16284 1.36812 8.81264 2.92986 8.81274C3.17779 8.81276 3.42572 8.81292 3.67365 8.81307C4.42464 8.81355 5.17564 8.81402 5.92661 8.81062C5.9323 8.8106 5.9379 8.81056 5.94342 8.81053C6.11763 8.8095 6.20815 8.80897 6.14371 9.04985C5.93531 9.8289 6.10114 10.5545 6.60633 11.1958C6.71382 11.3323 6.70331 11.4002 6.60236 11.5273C6.38564 11.7874 6.22793 12.0879 6.1393 12.4097C6.05068 12.7315 6.03308 13.0675 6.08765 13.3962C6.27736 14.5702 7.0968 15.3536 8.33877 15.5722C8.34644 15.5735 8.35391 15.5748 8.36118 15.5761C8.50096 15.6002 8.56501 15.6112 8.51483 15.8057C8.08419 17.4754 9.3291 18.9948 11.1419 18.9997C14.8805 19.01 18.619 19.0099 22.3575 18.9993C23.9893 18.9947 25.4477 18.5266 26.6272 17.3998C26.7269 17.3046 26.8305 17.3034 26.9487 17.3035C27.7498 17.3043 28.5509 17.3043 29.3521 17.3036C30.0443 17.303 30.389 16.9732 30.389 16.3092C30.3896 12.0631 30.3896 7.81703 30.389 3.57096C30.389 2.91209 30.0423 2.58539 29.3441 2.58438C29.2293 2.58422 29.1145 2.58402 28.9998 2.58382C28.3233 2.58264 27.6468 2.58146 26.9704 2.58716C26.8983 2.59229 26.826 2.58106 26.7593 2.55436C26.6926 2.52767 26.6334 2.48627 26.5866 2.43352C26.2521 2.08408 25.8768 1.77257 25.4682 1.50511C23.8787 0.444421 22.0942 0.0325776 20.181 0.036066C17.5997 0.0368513 15.0183 0.0372442 12.4369 0.0372442C12.3632 0.0372442 12.2894 0.0366917 12.2157 0.0361392C12.052 0.0349133 11.8883 0.0336874 11.7249 0.0384967C11.1246 0.0561591 10.7764 0.412235 10.79 0.984204C10.7997 1.26823 10.8354 1.55089 10.8967 1.82893C11.0402 2.50842 11.3289 3.15209 11.7447 3.71944H11.3843C8.52605 3.71875 5.66776 3.71884 2.80946 3.71971C1.41564 3.72013 0.438078 4.43089 0.0701594 5.70845C0.0672467 5.71857 0.0654382 5.72916 0.0636389 5.73969ZM14.8877 1.74036C14.1645 1.74095 13.4404 1.74153 12.7149 1.74153C12.9878 2.81732 13.8193 3.51564 14.9669 3.66683C15.4304 3.7279 15.8951 3.72299 16.3598 3.71807C16.6066 3.71546 16.8534 3.71285 17.1 3.72012C17.3299 3.72048 17.5506 3.80625 17.7159 3.95941C17.8811 4.11257 17.978 4.32117 17.986 4.54134C17.9908 4.76139 17.9074 4.97483 17.753 5.13771C17.5985 5.30059 17.3847 5.4005 17.1557 5.41686C17.0765 5.42391 16.9965 5.42284 16.9166 5.42176C16.8876 5.42137 16.8585 5.42098 16.8295 5.42098L2.88406 5.42121C2.85814 5.42121 2.8322 5.42093 2.80624 5.42065C2.73315 5.41987 2.66002 5.41909 2.58745 5.4245C2.37388 5.44134 2.17413 5.53249 2.02586 5.68075C1.8776 5.82902 1.79109 6.02416 1.78264 6.22935C1.76285 6.76065 2.17195 7.12019 2.80852 7.12049C5.92403 7.11949 9.03951 7.12007 12.155 7.12223C12.6949 7.1226 13.0791 7.47148 13.0863 7.95157C13.0934 8.43166 12.717 8.7895 12.1798 8.81193C12.1246 8.81423 12.0693 8.81371 12.014 8.81318C11.9901 8.81296 11.9663 8.81273 11.9425 8.81273C11.6343 8.81275 11.3261 8.8124 11.018 8.81204C10.2777 8.81118 9.53752 8.81032 8.79734 8.81476C8.2642 8.81796 7.88893 9.11978 7.83903 9.5615C7.77991 10.0847 8.18059 10.5004 8.7674 10.5038C9.45373 10.5078 10.1401 10.5072 10.8265 10.5066C11.2083 10.5063 11.5901 10.5059 11.9719 10.5064C12.0904 10.5034 12.209 10.5094 12.3265 10.5242C12.5463 10.553 12.7465 10.6606 12.887 10.8251C13.0274 10.9897 13.0977 11.1991 13.0836 11.4112C13.0695 11.6234 12.9722 11.8226 12.8112 11.9688C12.6501 12.115 12.4373 12.1974 12.2155 12.1994C11.4561 12.2055 10.6966 12.2046 9.93717 12.2038C9.60867 12.2034 9.28017 12.2031 8.95168 12.2033C8.85284 12.1999 8.75388 12.2017 8.65526 12.2088C8.42604 12.2261 8.21271 12.3278 8.05999 12.4925C7.90727 12.6572 7.827 12.8721 7.836 13.0923C7.84345 13.3128 7.94155 13.5214 8.10891 13.6729C8.27627 13.8243 8.49932 13.9061 8.72941 13.9006C9.45356 13.9047 10.1777 13.9041 10.9019 13.9036C11.3151 13.9033 11.7284 13.903 12.1416 13.9035C12.7441 13.9043 13.1431 14.2484 13.1397 14.7594C13.1364 15.2685 12.7386 15.6024 12.1309 15.6046C12.0061 15.605 11.8814 15.6042 11.7566 15.6034C11.5252 15.6019 11.2939 15.6005 11.0627 15.607C10.9313 15.609 10.8019 15.6392 10.6842 15.6952C10.5664 15.7513 10.4632 15.8319 10.3821 15.9311C10.301 16.0303 10.2441 16.1456 10.2155 16.2686C10.1869 16.3916 10.1874 16.5192 10.2168 16.642C10.3086 17.0435 10.6743 17.3026 11.1645 17.3031C12.5105 17.3043 13.8564 17.3041 15.2024 17.3039C15.7059 17.3038 16.2095 17.3037 16.713 17.3037C17.2677 17.3037 17.8223 17.3042 18.377 17.3046C19.6718 17.3056 20.9667 17.3067 22.2615 17.3021C23.6043 17.2974 24.7929 16.9434 25.6641 15.8855C25.8319 15.6818 26.075 15.6027 26.348 15.6039C26.6153 15.605 26.8826 15.6047 27.1499 15.6043C27.5551 15.6038 27.9604 15.6033 28.3656 15.608C28.5401 15.61 28.6201 15.5915 28.6197 15.3867C28.6127 11.7567 28.6125 8.12662 28.6189 4.49658C28.6192 4.31409 28.5634 4.27944 28.3869 4.28205C27.9771 4.28812 27.5672 4.2874 27.1572 4.28668C26.8946 4.28621 26.6319 4.28575 26.3693 4.28707C26.2207 4.29341 26.0727 4.26468 25.9384 4.20339C25.8041 4.1421 25.6876 4.05013 25.599 3.93558C24.8491 3.00125 23.8444 2.42956 22.6936 2.06856C22.055 1.86335 21.3869 1.75489 20.7134 1.74708C18.7739 1.73723 16.8343 1.73879 14.8877 1.74036Z" fill="#1D884A"/>
<path fill-rule="evenodd" clip-rule="evenodd" d="M1.85389 12.6909C1.11062 13.7693 0.396365 14.8631 0.00585938 16.1167V16.856C0.0655832 16.8892 0.0685192 16.9423 0.07142 16.9947C0.0726604 17.0172 0.0738944 17.0395 0.0795603 17.0601C0.40765 18.2526 1.5809 19.0731 2.80105 18.9988C4.57847 18.8905 5.81477 17.1618 5.11221 15.5207C4.68275 14.5175 4.09993 13.5997 3.47946 12.7007C3.02051 12.0357 2.30892 12.0308 1.85389 12.6909ZM2.75194 14.7883C2.72153 14.7385 2.69105 14.6887 2.66062 14.6387C2.39581 15.0583 2.15768 15.4929 1.94755 15.9401C1.89515 16.0515 1.8502 16.1661 1.81298 16.2831C1.76898 16.4439 1.77911 16.614 1.84193 16.769C1.90474 16.924 2.01704 17.0561 2.16279 17.1463C2.30695 17.2477 2.48085 17.3028 2.65964 17.3037C2.83842 17.3047 3.01295 17.2515 3.1583 17.1517C3.44909 16.9625 3.60759 16.6231 3.51687 16.3192C3.35353 15.7719 3.05675 15.2867 2.75194 14.7883Z" fill="#1D884A"/>
</g>
<defs>
<clipPath id="clip0_116_480">
<rect width="18" height="19" fill="white"/>
</clipPath>
</defs>
</svg>
