<svg width="14" height="19" viewBox="0 0 14 19" fill="none" xmlns="http://www.w3.org/2000/svg">
<g clip-path="url(#clip0_116_472)">
<path d="M7 0C3.13542 0 0 3.19141 0 7.125V13.6562C0 16.6064 2.35156 19 5.25 19C8.14844 19 10.5 16.6064 10.5 13.6562V13.2898C12.5927 12.0568 14 9.75977 14 7.125C14 3.19141 10.8646 0 7 0ZM9.62135 11.7488L8.75 12.2646V13.6562C8.75 15.6208 7.1801 17.2188 5.25 17.2188C3.3199 17.2188 1.75 15.6208 1.75 13.6562V7.125C1.75 4.17852 4.10521 1.78125 7 1.78125C9.89479 1.78125 12.25 4.17852 12.25 7.125C12.25 9.02129 11.2437 10.7914 9.62135 11.7488ZM7.29167 2.96875H6.70833C4.61927 2.96875 2.91667 4.70176 2.91667 6.82812V8.60826C2.91667 8.97564 3.13301 9.30035 3.46792 9.43506L4.52448 9.86478C4.6651 9.92219 4.69751 10.047 4.70491 10.0979C4.71232 10.1487 4.71673 10.277 4.5986 10.3732L3.24479 11.4742C2.86854 11.7817 2.80729 12.3433 3.10785 12.7263C3.27432 12.9363 3.53208 13.0625 3.79896 13.0625C3.99401 13.0625 4.18068 12.995 4.33891 12.8672L5.69333 11.7647C6.26682 11.2975 6.545 10.5772 6.43708 9.83799C6.32917 9.09922 5.85521 8.49063 5.17344 8.21231L4.66667 8.00449V6.82812C4.66667 5.68145 5.58177 4.75 6.70833 4.75H7.29167C8.41823 4.75 9.33333 5.68145 9.33333 6.82812C9.33333 7.31908 9.72599 7.71875 10.2083 7.71875C10.6907 7.71875 11.0833 7.31908 11.0833 6.82812C11.0833 4.70176 9.38073 2.96875 7.29167 2.96875ZM3.79896 12.7656C3.784 12.7656 3.77147 12.7566 3.75674 12.7555C3.79881 12.7588 3.84132 12.7578 3.88442 12.7511C3.85365 12.7545 3.82448 12.7656 3.79896 12.7656Z" fill="#1D884A"/>
</g>
<defs>
<clipPath id="clip0_116_472">
<rect width="14" height="19" fill="white"/>
</clipPath>
</defs>
</svg>
