<svg width="15" height="19" viewBox="0 0 15 19" fill="none" xmlns="http://www.w3.org/2000/svg">
<g clip-path="url(#clip0_116_420)">
<path d="M14.3281 18.5302C14.1192 18.4341 14.0502 18.2649 14.0517 18.0278C14.0589 16.8809 14.0556 15.7339 14.0548 14.587C14.054 13.3678 13.4428 12.421 12.3644 11.9733C11.6048 11.6579 10.8443 11.345 10.0829 11.0345C9.57715 10.8272 9.34497 10.4356 9.31194 9.86174C9.26129 8.98196 9.49318 8.20291 9.92647 7.45902C10.6617 6.19669 10.8986 4.80991 10.7378 3.34763C10.6101 2.18601 9.8873 1.32643 8.76701 1.0215C7.70874 0.733462 6.64513 0.789325 5.59936 1.09921C4.8086 1.33353 4.39123 1.92086 4.2877 2.77462C4.21767 3.3521 4.21926 3.93674 4.1214 4.51115C4.03571 5.01413 3.86798 5.47863 3.57226 5.88886C3.54247 5.9302 3.42217 5.9776 3.52261 6.05022C3.60868 6.11246 3.66151 6.2741 3.81839 6.18108C4.12442 5.99797 4.44481 5.84293 4.776 5.71769C5.31847 5.51493 5.87322 5.39482 6.44897 5.50224C7.25861 5.6533 7.77621 6.19265 8.11362 6.95021C8.46376 7.73637 8.56553 8.57878 8.58883 9.43512C8.61453 10.5578 8.52249 11.6801 8.31438 12.7814C8.18471 13.4873 8.23152 14.2061 8.26542 14.9193C8.315 15.9626 8.40583 17.0027 8.51808 18.0405C8.54262 18.2673 8.44138 18.4089 8.28475 18.5302H8.04575C7.83473 18.4937 7.75476 18.3366 7.73561 18.1369C7.68182 17.5759 7.63451 17.0142 7.58513 16.4528C7.52681 15.7898 7.49352 15.1251 7.45842 14.4607C7.41671 13.7768 7.45802 13.09 7.58133 12.4172C7.70743 11.7279 7.78095 11.029 7.8012 10.3274C7.83038 9.69244 7.80224 9.05602 7.71714 8.42672C7.66193 8.00942 7.54286 7.60435 7.36456 7.22733C7.24418 6.98097 7.07772 6.76292 6.87524 6.58635C6.55459 6.3025 6.17778 6.25668 5.78046 6.31157C5.31915 6.37531 4.88515 6.53285 4.46394 6.73759C4.32252 6.80633 4.25877 6.89661 4.26718 7.06993C4.28372 7.4111 4.27484 7.41239 4.57944 7.27206C4.86928 7.13169 5.1722 7.0236 5.48329 6.94953C6.17533 6.79857 6.67661 7.0906 6.9286 7.78882C7.09466 8.24897 7.15627 8.72996 7.17292 9.21797C7.21262 10.3811 7.07928 11.5308 6.92102 12.678C6.81565 13.4419 6.81648 14.2073 6.8579 14.9766C6.91179 15.9774 7.00663 16.9739 7.10027 17.9708C7.10761 18.0426 7.10621 18.115 7.09612 18.1864C7.06617 18.3871 6.98661 18.471 6.78973 18.5115C6.73038 18.5116 6.67103 18.5117 6.61169 18.5115C6.40361 18.4735 6.32524 18.4013 6.29246 18.1788C6.22339 17.7102 6.19612 17.2366 6.15402 16.7648C6.0986 16.1439 6.04418 15.5216 6.02915 14.899C6.00715 13.9882 5.96146 13.0743 6.14349 12.1708C6.33619 11.2142 6.3823 10.2434 6.35315 9.26899C6.34827 8.98663 6.31778 8.70542 6.26209 8.42919C6.24484 8.34097 6.22209 8.25405 6.19401 8.16899C6.0823 7.85044 5.93376 7.75902 5.61453 7.82407C5.34999 7.87799 5.10565 7.99624 4.86088 8.10945C4.73076 8.16963 4.59753 8.22339 4.47253 8.29568C4.44242 8.3131 4.40671 8.33271 4.40606 8.37147C4.40521 8.42209 4.44946 8.43712 4.48649 8.45126C4.57285 8.48244 4.66365 8.49766 4.75491 8.49625C4.92561 8.49722 5.09634 8.4943 5.26701 8.49742C5.53609 8.50234 5.70336 8.64018 5.72504 8.92442C5.76049 9.3072 5.75812 9.69283 5.71797 10.0751C5.65657 10.5801 5.38225 10.9176 4.93553 11.0987C4.19191 11.4 3.44975 11.7055 2.70401 12.0008C1.61766 12.431 0.993268 13.3731 0.993186 14.5995C0.993116 15.6985 0.993098 16.7975 0.993131 17.8965C0.993131 17.9685 0.995066 18.0407 0.990708 18.1126C0.975591 18.3624 0.894183 18.4681 0.670813 18.5302H0.465936C0.273772 18.4155 0.212692 18.2436 0.214517 18.0112C0.223967 16.8104 0.204022 15.6091 0.225924 14.4086C0.251979 12.9792 1.08553 11.7649 2.35409 11.2489C3.1158 10.939 3.87589 10.6245 4.64042 10.3225C4.84388 10.2422 4.94877 10.1115 4.94866 9.88469C4.94859 9.72271 4.94493 9.56056 4.9506 9.39879C4.95364 9.31213 4.91453 9.30443 4.84783 9.30379C4.68346 9.3022 4.51905 9.31651 4.35509 9.27737C4.11945 9.22566 3.90711 9.09193 3.75212 8.89764C3.59714 8.70334 3.5085 8.45975 3.50043 8.20594C3.49052 7.87 3.49093 7.53335 3.49935 7.19735C3.50303 7.14431 3.49351 7.09118 3.47174 7.04322C3.44997 6.99525 3.41671 6.95412 3.37524 6.92389C3.22786 6.80165 3.07822 6.68054 2.94335 6.54378C2.61257 6.20838 2.60673 5.88081 2.91292 5.52414C3.26703 5.11162 3.37008 4.59774 3.43749 4.07019C3.50961 3.50579 3.52989 2.93483 3.64089 2.37514C3.83081 1.41746 4.33897 0.733409 5.22628 0.431873C6.59127 -0.0319913 7.97932 -0.103093 9.34363 0.412278C10.5986 0.886353 11.2988 1.87913 11.4582 3.26644C11.6467 4.90638 11.3533 6.45184 10.5459 7.87927C10.3918 8.13789 10.2604 8.41084 10.1533 8.69473C9.99775 9.13685 10.055 9.59573 10.0635 10.0493C10.0658 10.1761 10.1873 10.2285 10.2839 10.2779C10.6416 10.4609 11.0187 10.5934 11.3885 10.745C11.864 10.94 12.3538 11.102 12.8148 11.3294C14.0394 11.9337 14.7199 12.9628 14.7681 14.3909C14.81 15.6323 14.7771 16.8764 14.7821 18.1194C14.7829 18.3212 14.6733 18.4321 14.533 18.5302L14.3281 18.5302Z" fill="#1D884A"/>
<path d="M6.78648 18.4995C6.7839 18.5095 6.78256 18.5198 6.78249 18.5302H6.61178C6.60946 18.5205 6.60788 18.5106 6.60706 18.5006L6.78648 18.4995Z" fill="#1D884A"/>
</g>
<defs>
<clipPath id="clip0_116_420">
<rect width="15" height="19" fill="white"/>
</clipPath>
</defs>
</svg>
