<svg width="27" height="17" viewBox="0 0 27 17" fill="none" xmlns="http://www.w3.org/2000/svg">
<g clip-path="url(#clip0_116_367)">
<path d="M23.9124 5.0469C23.9129 5.18121 23.8625 5.31048 23.772 5.40751C23.6814 5.50454 23.5576 5.56176 23.4267 5.56713C23.3604 5.56942 23.2943 5.55827 23.2321 5.5343C23.17 5.51033 23.1131 5.47403 23.0647 5.42746C23.0163 5.3809 22.9774 5.325 22.9501 5.26297C22.9229 5.20093 22.9078 5.13399 22.9058 5.06598C22.9039 4.99797 22.915 4.93023 22.9386 4.86664C22.9623 4.80306 22.9979 4.74489 23.0435 4.69547C23.0892 4.64604 23.1438 4.60634 23.2045 4.57863C23.2651 4.55093 23.3304 4.53577 23.3968 4.53403C23.4639 4.53153 23.5307 4.54298 23.5934 4.56767C23.656 4.59236 23.7131 4.62979 23.7613 4.6777C23.8095 4.72562 23.8477 4.78303 23.8736 4.84647C23.8996 4.90992 23.9128 4.9781 23.9124 5.0469Z" fill="#1D884A"/>
<path fill-rule="evenodd" clip-rule="evenodd" d="M0.563208 8.36668C2.29337 5.63386 4.50009 3.41711 7.31228 1.86995C9.58395 0.620156 12.0118 0.0770868 14.5866 0.296767C16.8841 0.492797 18.9854 1.29695 20.9415 2.52476C21.2022 2.68839 21.4563 2.86332 21.7101 3.03811L21.7103 3.0382L21.7441 3.06149C22.058 3.27757 22.1465 3.59107 21.9727 3.84875C21.7933 4.11481 21.5019 4.14203 21.173 3.91417C20.6539 3.54756 20.1142 3.21245 19.5568 2.91056C19.5404 2.90188 19.5245 2.8911 19.5083 2.88015L19.5082 2.88013C19.455 2.84413 19.399 2.8063 19.3167 2.83533L19.4177 2.95194C19.4905 3.03605 19.5616 3.11822 19.6335 3.19966C19.7877 3.3743 19.8489 3.57261 19.7539 3.79491C19.6592 4.01651 19.4747 4.09872 19.2468 4.11413C18.6628 4.15359 18.2287 4.51313 18.0931 5.05984C18.0224 5.33967 18.0474 5.63588 18.1637 5.89919C18.2801 6.16249 18.4809 6.37702 18.7327 6.50707C18.9845 6.63713 19.2721 6.67488 19.5478 6.61404C19.8234 6.55319 20.0705 6.39743 20.2478 6.17266C20.262 6.1548 20.2757 6.13662 20.2895 6.11846C20.3474 6.04198 20.4048 5.96613 20.4936 5.91853C20.8026 5.75291 21.1314 5.91037 21.2321 6.28837C21.7607 8.27166 21.6026 10.1962 20.7577 12.0621C20.4315 12.7663 20.0093 13.4194 19.5037 14.0017C19.6294 14.0328 19.7164 13.976 19.7984 13.9225L19.7985 13.9224C19.8122 13.9134 19.8258 13.9045 19.8395 13.8962C22.0121 12.5628 23.7744 10.7843 25.2319 8.67371C25.315 8.55346 25.2892 8.48384 25.2124 8.38893C25.0386 8.17438 24.867 7.95803 24.6954 7.74167L24.6951 7.74125L24.6949 7.74102C24.6012 7.62288 24.5075 7.50473 24.4135 7.38688C24.1785 7.09247 24.176 6.79046 24.4081 6.58523C24.6445 6.37627 24.9357 6.42178 25.179 6.70871C25.5712 7.17125 25.9427 7.6508 26.2933 8.14736C26.4539 8.37405 26.4895 8.60048 26.3319 8.84037C24.2131 12.067 21.5278 14.6141 17.9205 15.9726C14.1708 17.3847 10.5285 16.9893 7.05029 15.0214C4.44289 13.5461 2.37747 11.4604 0.725203 8.93291C0.687658 8.87548 0.651147 8.81733 0.614636 8.75918L0.563194 8.67751L0.563208 8.36668ZM20.4312 7.37482C20.5824 8.2886 20.5536 9.22415 20.3465 10.1263C19.6739 13.0593 17.4352 15.1773 14.5129 15.6564C10.8084 16.2638 7.1501 13.5216 6.57259 9.70461C6.01021 5.98754 8.15498 2.53439 11.6918 1.57192C14.0969 0.917426 16.2668 1.47965 18.1628 3.13509C18.1755 3.14613 18.1896 3.15667 18.2036 3.1671C18.277 3.22183 18.3465 3.27364 18.178 3.38011C17.0883 4.0689 16.7302 5.37092 17.3117 6.47152C17.8964 7.57822 19.1754 7.97745 20.3362 7.41577C20.3504 7.40893 20.3649 7.40284 20.3863 7.39386L20.4312 7.37482ZM7.09373 13.8593C7.21315 13.9359 7.33257 14.0125 7.45126 14.0902C4.76322 10.358 4.76195 6.67541 7.48599 2.97521C7.36338 2.99427 7.27429 3.0598 7.1879 3.12335C7.15485 3.14766 7.12221 3.17167 7.08823 3.19269C4.94993 4.51528 3.21751 6.27702 1.77618 8.35452C1.68977 8.47907 1.68961 8.56409 1.77609 8.68909C3.03416 10.5076 4.52758 12.0844 6.32383 13.3495C6.57552 13.5268 6.83463 13.6931 7.09373 13.8593Z" fill="#1D884A"/>
<path fill-rule="evenodd" clip-rule="evenodd" d="M13.4886 11.9234C15.3092 11.9366 16.8146 10.3959 16.8133 8.52072C16.8116 7.62219 16.4637 6.76074 15.8454 6.12393C15.227 5.48713 14.3883 5.12654 13.5119 5.12068C11.6925 5.10793 10.1843 6.65024 10.1851 8.52275C10.1883 9.42123 10.5369 10.2822 11.1554 10.9188C11.7738 11.5555 12.6122 11.9164 13.4886 11.9234ZM13.4494 10.8831C14.6868 10.9363 15.7376 9.90874 15.7982 8.58629C15.8569 7.3052 14.8456 6.21406 13.55 6.16069C12.3116 6.10968 11.2593 7.13806 11.2 8.45738C11.1424 9.73814 12.1524 10.8273 13.4494 10.8831Z" fill="#1D884A"/>
</g>
<defs>
<clipPath id="clip0_116_367">
<rect width="27" height="17" fill="white"/>
</clipPath>
</defs>
</svg>
