<svg width="19" height="19" viewBox="0 0 19 19" fill="none" xmlns="http://www.w3.org/2000/svg">
<g clip-path="url(#clip0_116_349)">
<path d="M0.250671 14.4071C0.35364 14.1831 0.533102 14.1152 0.772332 14.116C2.49189 14.1214 4.21148 14.1187 5.93106 14.119C6.33359 14.119 6.47113 14.2733 6.42733 14.6736C6.27779 16.0402 7.25201 17.4483 8.61213 17.8315C10.37 18.3267 12.1064 17.2924 12.5032 15.5105C12.5688 15.2171 12.5822 14.9144 12.5428 14.6163C12.5032 14.3149 12.6594 14.1211 12.9605 14.1204C14.4816 14.1171 16.0028 14.117 17.524 14.12C17.7843 14.1204 17.9572 14.2817 17.9556 14.5044C17.9539 14.7344 17.7819 14.8837 17.5023 14.8841C16.1796 14.8859 14.8568 14.8878 13.5341 14.8809C13.3794 14.8801 13.3352 14.9186 13.3228 15.074C13.1866 16.775 12.3039 17.9192 10.7125 18.5247C10.4643 18.6153 10.2054 18.6735 9.94231 18.6979C9.9097 18.7014 9.86816 18.6838 9.85007 18.7303H9.05616C8.59988 18.7028 8.15454 18.5795 7.74928 18.3685C6.55548 17.7328 5.83686 16.756 5.62833 15.4145C5.61443 15.325 5.61617 15.2349 5.60861 15.1453C5.59295 14.9598 5.56182 14.9288 5.37486 14.9277C4.96593 14.9254 4.55698 14.927 4.14803 14.927C3.01742 14.9269 1.8868 14.9269 0.756195 14.9269C0.629333 14.9269 0.505416 14.9242 0.393607 14.846C0.300686 14.781 0.277544 14.6847 0.250671 14.5872V14.4071Z" fill="#1D884A"/>
<path fill-rule="evenodd" clip-rule="evenodd" d="M3.59974 18.3114C3.78277 18.536 4.03254 18.6388 4.29254 18.7303H4.65341C4.67299 18.7236 4.69252 18.7167 4.71205 18.7099C4.75388 18.6953 4.7957 18.6807 4.8379 18.6673C5.07132 18.5941 5.2749 18.4477 5.41845 18.2499C5.562 18.0521 5.63789 17.8134 5.63487 17.5692C5.63363 17.3851 5.58807 17.204 5.50203 17.0411C5.41599 16.8783 5.29199 16.7384 5.14049 16.6334C4.98898 16.5284 4.81441 16.4613 4.63149 16.4378C4.44857 16.4142 4.26265 16.4349 4.08941 16.4981C3.91618 16.5613 3.76069 16.6651 3.63607 16.8008C3.51145 16.9366 3.42134 17.1002 3.37333 17.278C3.32533 17.4557 3.32084 17.6424 3.36024 17.8223C3.39964 18.0021 3.48178 18.1699 3.59974 18.3114ZM4.2202 17.3065C4.14929 17.3768 4.10857 17.4719 4.10665 17.5717C4.10541 17.6714 4.14332 17.7676 4.21225 17.8398C4.28119 17.912 4.37569 17.9544 4.47555 17.958C4.57823 17.9578 4.67675 17.9174 4.75004 17.8456C4.82332 17.7738 4.86556 17.6763 4.86771 17.5738C4.86318 17.4745 4.82153 17.3805 4.75097 17.3104C4.68042 17.2402 4.58608 17.199 4.48659 17.1949C4.38665 17.1962 4.29111 17.2362 4.2202 17.3065Z" fill="#1D884A"/>
<path fill-rule="evenodd" clip-rule="evenodd" d="M0.877196 15.7881C0.525348 15.9698 0.348187 16.2751 0.250671 16.6408V17.0011C0.285523 17.0264 0.291369 17.064 0.297123 17.1009C0.299605 17.1168 0.30207 17.1326 0.30684 17.1473C0.360172 17.3182 0.452834 17.4742 0.57741 17.6029C0.701985 17.7316 0.855015 17.8294 1.02425 17.8885C1.19349 17.9476 1.37423 17.9663 1.55201 17.9432C1.72979 17.92 1.89968 17.8557 2.04807 17.7552C2.19646 17.6548 2.31924 17.5211 2.40658 17.3648C2.49392 17.2085 2.54339 17.0339 2.55103 16.8551C2.55868 16.6763 2.52428 16.4982 2.4506 16.3351C2.37692 16.1719 2.26601 16.0282 2.12673 15.9155C1.95289 15.7764 1.74248 15.6903 1.5208 15.6677C1.29912 15.6451 1.07562 15.6869 0.877196 15.7881ZM1.14378 17.083C1.21654 17.1515 1.31335 17.1887 1.41334 17.1866C1.51327 17.1839 1.60827 17.1427 1.67833 17.0715C1.74839 17.0003 1.78805 16.9048 1.78896 16.805C1.78447 16.7055 1.74264 16.6114 1.6718 16.5413C1.60096 16.4713 1.5063 16.4304 1.40664 16.4268C1.30387 16.4291 1.20613 16.4717 1.13457 16.5454C1.06302 16.619 1.02341 16.7179 1.02431 16.8205C1.0281 16.9202 1.07101 17.0145 1.14378 17.083Z" fill="#1D884A"/>
<path fill-rule="evenodd" clip-rule="evenodd" d="M16.5461 18.0957C16.7262 18.4489 17.0313 18.624 17.3925 18.7302L17.7534 18.7302C17.7726 18.7232 17.7918 18.7161 17.811 18.7089C17.8524 18.6934 17.8938 18.6779 17.9358 18.6643C18.0843 18.6154 18.2213 18.5368 18.3383 18.4333C18.4554 18.3297 18.55 18.2034 18.6165 18.0621C18.6829 17.9209 18.7198 17.7675 18.7249 17.6115C18.7299 17.4555 18.7031 17.3001 18.6459 17.1548C18.4171 16.557 17.6941 16.2604 17.1095 16.5245C16.9667 16.5879 16.8382 16.6795 16.732 16.7939C16.6257 16.9082 16.5437 17.0429 16.491 17.1898C16.4384 17.3367 16.4161 17.4927 16.4256 17.6484C16.435 17.8041 16.4761 17.9563 16.5461 18.0957ZM17.7834 17.2594C17.7202 17.2177 17.646 17.1958 17.5703 17.1963C17.4706 17.1994 17.3759 17.2403 17.3054 17.3107C17.235 17.3812 17.1941 17.4758 17.1913 17.5753C17.1908 17.6509 17.213 17.7249 17.2548 17.7879C17.2966 17.8509 17.3562 17.9001 17.4261 17.9292C17.496 17.9583 17.573 17.966 17.6473 17.9513C17.7215 17.9366 17.7898 17.9002 17.8433 17.8467C17.8968 17.7932 17.9331 17.725 17.9477 17.6509C17.9623 17.5767 17.9545 17.4999 17.9252 17.4302C17.896 17.3605 17.8466 17.301 17.7834 17.2594Z" fill="#1D884A"/>
<path fill-rule="evenodd" clip-rule="evenodd" d="M9.13046 4.30751C7.90135 7.4552 7.28216 10.725 7.18022 14.0978C7.18022 14.183 7.17984 14.2682 7.17947 14.3533C7.17865 14.5383 7.17783 14.7233 7.18087 14.9083C7.18674 15.4359 7.37372 15.9456 7.71062 16.3523C8.04752 16.7589 8.51394 17.038 9.03205 17.1428C9.55016 17.2476 10.0886 17.1718 10.5575 16.9282C11.0264 16.6845 11.3974 16.2877 11.6086 15.8039C11.7867 15.3944 11.8405 14.9418 11.7635 14.502C11.6864 14.0623 11.4818 13.6547 11.1751 13.3299C11.101 13.2521 11.0441 13.1596 11.0081 13.0584C10.2444 10.9925 10.0604 8.85641 10.2587 6.68061C10.4014 5.13354 10.7338 3.60982 11.2486 2.14362C11.3993 1.71469 11.5639 1.29096 11.7423 0.872419C11.8596 0.597163 11.7466 0.345449 11.4868 0.2951C11.2792 0.254869 11.1479 0.371584 11.042 0.532324C10.2614 1.71835 9.64553 2.98845 9.13046 4.30751ZM9.40656 7.88171C9.42594 7.09 9.49207 6.30011 9.60461 5.51617C9.60445 5.50501 9.60762 5.49267 9.6108 5.48034C9.61968 5.44584 9.62856 5.41135 9.56454 5.4025C9.09777 6.70471 8.73349 8.04129 8.47502 9.40007C8.24744 10.5717 8.09501 11.7566 8.01867 12.9477C8.01491 13.0064 8.01107 13.0652 8.00724 13.124C7.96497 13.7716 7.92266 14.42 7.97179 15.0689C8.03998 15.9697 9.00808 16.6103 9.88349 16.3694C10.989 16.0652 11.4365 14.6734 10.5633 13.8079C10.4774 13.7326 10.4089 13.6395 10.3624 13.5352C9.66363 11.7147 9.36773 9.82678 9.40656 7.88171Z" fill="#1D884A"/>
<path d="M9.6046 5.51617C9.57973 5.48232 9.61912 5.4259 9.56451 5.40249C9.57598 5.35769 9.58478 5.31198 9.59978 5.2684C9.61237 5.23093 9.63848 5.19947 9.67304 5.18018L9.6046 5.51617Z" fill="#1D884A"/>
<path fill-rule="evenodd" clip-rule="evenodd" d="M13.6818 15.9974C13.4657 16.2125 13.3439 16.5044 13.3431 16.809C13.3444 17.112 13.4647 17.4025 13.6781 17.6181C13.8915 17.8336 14.181 17.9571 14.4846 17.9619C15.108 17.9726 15.6508 17.4348 15.6485 16.8086C15.6476 16.504 15.5257 16.2122 15.3096 15.9971C15.0935 15.7821 14.8008 15.6613 14.4956 15.6614C14.1905 15.6614 13.8978 15.7823 13.6818 15.9974ZM14.768 17.0708C14.8371 16.9989 14.8747 16.9025 14.8726 16.8028C14.8698 16.7032 14.8287 16.6085 14.7578 16.5384C14.6869 16.4683 14.5916 16.4281 14.4918 16.4263C14.3921 16.4305 14.2976 16.4718 14.227 16.5421C14.1563 16.6124 14.1146 16.7066 14.1101 16.8061C14.1108 16.8569 14.1216 16.9071 14.1418 16.9538C14.162 17.0005 14.1913 17.0427 14.2279 17.0781C14.2645 17.1134 14.3078 17.1412 14.3552 17.1598C14.4026 17.1784 14.4533 17.1874 14.5042 17.1864C14.604 17.1843 14.6989 17.1427 14.768 17.0708Z" fill="#1D884A"/>
<path d="M1.61236 5.34302C1.47825 5.45545 1.35971 5.58519 1.25987 5.72882C0.930672 6.18249 0.757615 6.73044 0.766629 7.29054C0.766394 8.82149 0.766222 10.3524 0.766113 11.8834C0.76611 11.9364 0.776572 11.9889 0.796904 12.038C0.817235 12.087 0.847037 12.1315 0.884608 12.169C0.922179 12.2065 0.966783 12.2362 1.01587 12.2565C1.06496 12.2768 1.11758 12.2873 1.17071 12.2873L5.53571 12.2873C5.58404 12.2873 5.6319 12.2778 5.67655 12.2593C5.7212 12.2409 5.76177 12.2138 5.79595 12.1797C5.83012 12.1456 5.85723 12.1051 5.87572 12.0605C5.89421 12.016 5.90373 11.9682 5.90373 11.9199C5.90416 10.3742 5.90382 8.82838 5.90272 7.2826C5.9028 7.08701 5.88292 6.89192 5.84339 6.70034C5.78708 6.42763 5.68496 6.16639 5.54134 5.92769C5.41378 5.70727 5.25025 5.50966 5.05749 5.34301M1.61236 5.34302C1.64718 5.38421 1.63542 5.43399 1.63547 5.48045C1.63624 6.25715 1.63975 7.03388 1.63451 7.81054C1.62515 8.21708 1.75831 8.61412 2.01098 8.93309C2.27151 9.26828 2.65284 9.4887 3.07375 9.5474C3.3116 9.5872 3.55527 9.57473 3.78779 9.51086C4.02031 9.447 4.23608 9.33328 4.42005 9.17762C4.51017 9.10741 4.5905 9.0255 4.6589 8.93407C4.91312 8.61264 5.04635 8.2124 5.0354 7.80302C5.02993 7.02887 5.03359 6.25465 5.03438 5.48046C5.03442 5.434 5.02267 5.38421 5.05749 5.34301M1.61236 5.34302C1.61302 6.17079 1.61242 6.99851 1.61057 7.82628C1.60778 7.97993 1.62491 8.13329 1.66152 8.28255C1.71959 8.53386 1.83945 8.76678 2.01028 8.96027M1.61236 5.34302C1.63288 5.22591 1.66151 5.11032 1.69808 4.99717C1.84645 4.61908 2.13325 4.38624 2.50679 4.26358C3.08426 4.07393 3.66694 4.07358 4.23745 4.29246C4.69659 4.46864 4.97842 4.79983 5.04458 5.29727C5.04775 5.31279 5.05207 5.32812 5.05749 5.34301M5.05749 5.34301C5.05749 6.21065 5.06313 7.07828 5.05488 7.94584C5.05135 8.31698 4.91418 8.64874 4.68419 8.94089C4.67679 8.94839 4.66855 8.95502 4.65965 8.96065M2.01028 8.96027C2.03341 8.95352 2.05328 8.9386 2.06618 8.91829C2.20853 8.75063 2.38342 8.61349 2.5803 8.51513C2.77718 8.41676 2.99197 8.35922 3.21173 8.34596C3.7646 8.30834 4.23121 8.50621 4.6038 8.91859C4.61683 8.93877 4.63663 8.95368 4.65965 8.96065M2.01028 8.96027C2.21279 8.69153 2.49701 8.49546 2.82044 8.40137C3.32474 8.24161 3.80503 8.31067 4.25197 8.58949C4.41368 8.68162 4.55291 8.80837 4.65965 8.96065M2.01028 8.96027C2.13829 9.14199 2.31382 9.2689 2.50385 9.3759C2.82931 9.5588 3.2064 9.62866 3.57593 9.5745C3.8133 9.54444 4.04095 9.46178 4.24219 9.33257C4.4003 9.23097 4.5517 9.1195 4.65965 8.96065" stroke="#1D884A" stroke-miterlimit="10"/>
</g>
<defs>
<clipPath id="clip0_116_349">
<rect width="19" height="19" fill="white"/>
</clipPath>
</defs>
</svg>
