<svg width="19" height="19" viewBox="0 0 19 19" fill="none" xmlns="http://www.w3.org/2000/svg">
<g clip-path="url(#clip0_116_285)">
<path d="M8.70116 18.9992C7.45432 18.9992 5.2111 18.718 4.26186 16.8203C3.91664 16.1299 3.81401 15.2998 3.9569 14.3539C4.08017 13.5398 4.05808 13.348 4.05513 13.3291C3.971 13.0428 3.8668 12.7626 3.74329 12.4905C3.3582 12.569 2.95856 12.5417 2.58822 12.4115C2.21789 12.2812 1.89118 12.0531 1.64397 11.7522C1.45686 11.5449 1.25159 11.3541 1.03052 11.1821C0.265939 10.5555 -0.246741 9.98062 0.121999 8.28331C0.490308 6.58317 0.471649 6.10389 0.470657 6.08457C0.463297 5.75169 0.448074 3.03505 1.72928 2.16056C3.03019 1.27306 4.09335 0.854229 5.17715 0.801519C6.03997 0.759967 6.72249 0.159433 6.75104 0.133834L6.89738 0.00338015L12.0767 0L12.2417 0.128035C12.2771 0.159433 12.9597 0.759967 13.8225 0.801519C14.9063 0.854173 15.9694 1.27306 17.2703 2.16056C18.5515 3.03505 18.5363 5.75169 18.5304 6.05896C18.5279 6.10389 18.5093 6.58317 18.8776 8.28379C19.2464 9.98055 18.7337 10.5555 17.969 11.1821C17.748 11.3541 17.5428 11.5449 17.3557 11.7522C17.1085 12.0531 16.7818 12.2812 16.4114 12.4114C16.0411 12.5417 15.6414 12.569 15.2564 12.4905C15.1326 12.7637 15.0282 13.0451 14.944 13.3326C14.9416 13.348 14.9195 13.5398 15.0427 14.3534C15.1856 15.2999 15.083 16.1299 14.7378 16.8203C13.6618 18.9709 10.9236 19.0468 9.859 18.9881C9.60951 18.9753 9.35951 18.9756 9.11005 18.9891C8.99154 18.995 8.85371 18.9992 8.70116 18.9992ZM4.26376 11.2048L4.4813 11.6783C4.56036 11.8503 4.95813 12.7281 5.04162 13.1383C5.07256 13.2905 5.09024 13.5828 4.95175 14.4993C4.83929 15.2428 4.91099 15.8767 5.16438 16.3835C6.16863 18.3904 9.39889 17.9745 9.43131 17.9701L9.49931 17.9706L9.56831 17.9696C9.59924 17.9745 12.8364 18.3808 13.8352 16.3835C14.0886 15.8767 14.1603 15.2428 14.0479 14.4988C13.9094 13.5828 13.9271 13.2905 13.958 13.1383C14.0415 12.7281 14.4392 11.8502 14.5183 11.6782L14.7358 11.2048L15.2058 11.442C15.4405 11.5491 15.7053 11.5747 15.9567 11.5145C16.2081 11.4543 16.4313 11.3118 16.5897 11.1106C16.8137 10.8601 17.0599 10.6297 17.3253 10.4221C17.9013 9.94959 18.164 9.73411 17.8944 8.49005C17.4932 6.63868 17.5178 6.09177 17.5271 6.00091C17.5418 5.08489 17.3326 3.40746 16.6967 2.97311C15.5599 2.19769 14.6583 1.83244 13.7733 1.78992C12.8123 1.74355 12.0409 1.23432 11.7221 0.989435H7.27801C6.9652 1.23053 6.19124 1.74362 5.22631 1.78992C4.3414 1.83244 3.4398 2.19769 2.30297 2.97311C1.64101 3.42484 1.4593 5.23418 1.47496 6.03956C1.48184 6.09173 1.5064 6.63864 1.10518 8.48953C0.835588 9.7341 1.09831 9.94955 1.67434 10.4221C1.93977 10.6297 2.18594 10.8602 2.40997 11.1106C2.56781 11.3126 2.791 11.4556 3.04262 11.5159C3.29425 11.5761 3.55925 11.5501 3.7938 11.4421L4.26376 11.2048Z" fill="#1D884A"/>
<path d="M13.8237 8.75279C13.1876 9.06432 12.4899 9.23519 11.7795 9.25345C10.9961 9.27042 10.2055 8.76835 9.81157 8.1305C9.78713 8.09515 9.76413 8.05979 9.74257 8.02443C9.68727 8.13652 9.62585 8.24558 9.55857 8.35113C9.26841 8.70609 8.86277 8.95183 8.40998 9.04696C8.04128 9.13278 7.66558 9.18626 7.28727 9.20677C6.89611 9.25327 6.50001 9.24039 6.11282 9.16859C5.71958 9.06573 5.35753 8.87065 5.05767 8.60005C4.53078 8.07 4.19716 7.3832 4.1089 6.64691C4.4151 7.2791 4.81329 7.88017 5.37249 8.21395C5.63004 8.38307 5.92558 8.48792 6.23357 8.51943C6.55291 8.53403 6.87276 8.50451 7.18377 8.43175C7.86229 8.2988 8.5753 8.17152 8.77655 7.79956C9.03818 7.41346 9.08706 6.68369 9.1345 6.02039L10.1336 6.07979L10.1408 6.11656L10.1537 6.22404L10.1868 6.43901C10.2114 6.58245 10.2435 6.72454 10.2831 6.86472C10.3603 7.136 10.4684 7.39787 10.6051 7.6454C10.7246 7.87648 10.8984 8.07611 11.1122 8.22766C11.326 8.3792 11.5736 8.47827 11.8342 8.5166C12.4444 8.56147 13.0578 8.50116 13.6469 8.3384C14.2262 8.18566 14.8099 7.79956 14.8889 7.12919C15.0427 7.81653 14.4289 8.45577 13.8237 8.75279Z" fill="#1D884A"/>
<path d="M10.1336 6.07832V6.07974L9.13448 6.02034V6.01892L10.1336 6.07832Z" fill="#1D884A"/>
</g>
<defs>
<clipPath id="clip0_116_285">
<rect width="19" height="19" fill="white"/>
</clipPath>
</defs>
</svg>
