<svg width="14" height="19" viewBox="0 0 14 19" fill="none" xmlns="http://www.w3.org/2000/svg">
<g clip-path="url(#clip0_116_305)">
<path d="M7.18796 19.0584C6.99287 18.9709 6.77997 18.9783 6.57679 18.9322C5.0761 18.5919 3.829 17.787 2.7841 16.6265C1.54572 15.251 0.7795 13.6163 0.439391 11.7609C0.24361 10.6929 0.248656 9.61596 0.364222 8.53936C0.4991 7.28289 0.796829 6.07081 1.32045 4.92855C2.21987 2.96652 3.56572 1.4785 5.49972 0.624425C5.9677 0.421902 6.45386 0.269294 6.95086 0.1689C7.33381 0.0883675 7.64128 0.279132 7.71033 0.636345C7.77701 0.981197 7.56811 1.27791 7.18889 1.36146C4.59371 1.93319 2.96329 3.64555 2.05808 6.1908C1.52177 7.69877 1.31614 9.27346 1.50082 10.8681C1.81569 13.587 3.03259 15.7422 5.31934 17.1434C6.24025 17.7178 7.31922 17.9472 8.38014 17.794C8.46771 17.7823 8.55464 17.7659 8.64059 17.7447C9.31562 17.5758 9.61183 17.1705 9.59148 16.4394C9.5856 16.1603 9.54375 15.8833 9.46709 15.616C9.39548 15.3724 9.43063 15.1579 9.55781 14.9443C9.70736 14.6932 9.84224 14.4324 9.98928 14.1653C9.64213 14.0079 9.30211 13.8573 8.96551 13.6986C8.88622 13.6613 8.86701 13.6999 8.83514 13.7598C8.74615 13.927 8.66006 14.0972 8.55641 14.2542C8.51488 14.3205 8.46118 14.3773 8.39845 14.4214C8.33572 14.4656 8.26523 14.4961 8.19113 14.5112C8.11703 14.5262 8.04081 14.5256 7.96694 14.5093C7.89308 14.4929 7.82306 14.4613 7.76101 14.4161C7.50307 14.2379 7.41248 13.8789 7.58787 13.5981C8.30702 12.4467 8.29297 11.2386 7.869 9.99121C7.81232 9.82443 7.73289 9.66127 7.77426 9.47118C7.83463 9.19387 8.02914 8.999 8.28017 8.97579C8.40715 8.95977 8.53558 8.98889 8.64499 9.0585C8.7544 9.12812 8.83849 9.23422 8.88386 9.35991C8.92541 9.4622 8.96125 9.56694 8.99119 9.67361C9.01401 9.75862 9.04639 9.76009 9.11653 9.72707C9.433 9.5781 9.75073 9.43182 10.0713 9.29298C10.1569 9.25593 10.1703 9.2054 10.1558 9.12168C10.1159 8.89029 10.0818 8.65777 10.0419 8.42637C9.96625 7.98759 10.0988 7.74988 10.5029 7.60165C10.989 7.42335 11.4478 7.18916 11.8581 6.8585C12.0016 6.74891 12.1261 6.61432 12.2264 6.46055C12.385 6.20448 12.3735 5.96255 12.1864 5.72698C11.9919 5.48199 11.7464 5.29673 11.5031 5.112C10.443 4.30703 9.50902 3.37216 8.77955 2.22301C8.52454 1.82129 8.28912 1.40743 8.07331 0.981436C7.88915 0.617145 7.97021 0.256642 8.27602 0.0860517C8.58343 -0.0854423 8.91014 0.0390146 9.09677 0.409297C9.52346 1.25591 10.0288 2.04355 10.6542 2.74357C11.1247 3.27003 11.6626 3.71277 12.21 4.14457C12.5212 4.38999 12.8344 4.63388 13.0848 4.95232C13.616 5.62763 13.6376 6.51275 13.1358 7.21428C12.7088 7.81117 12.1253 8.19141 11.4902 8.48924C11.3087 8.57436 11.2162 8.65182 11.2855 8.87855C11.3407 9.05923 11.348 9.2558 11.3801 9.44466C11.4389 9.79112 11.3238 10.0405 11.0185 10.1836C10.5033 10.425 9.98586 10.6611 9.46625 10.8921C9.33911 10.9486 9.28152 11.0037 9.29938 11.1713C9.34635 11.5596 9.33603 11.9532 9.26877 12.3382C9.24006 12.4897 9.29847 12.5291 9.40549 12.5767C9.93048 12.8102 10.4543 13.0466 10.9768 13.286C11.3976 13.4779 11.5111 13.8352 11.2841 14.2497C11.1021 14.582 10.9245 14.9174 10.7309 15.2421C10.6458 15.3849 10.6347 15.5157 10.6672 15.6761C10.7701 16.184 10.7978 16.6973 10.6746 17.2056C10.4315 18.208 9.76112 18.7203 8.84496 18.9472C8.65951 18.9931 8.46564 18.9883 8.28505 19.0584H8.14348C8.13918 19.0529 8.13378 19.0485 8.12766 19.0454C8.12154 19.0424 8.11486 19.0408 8.1081 19.0408C8.10133 19.0408 8.09465 19.0424 8.08853 19.0454C8.08241 19.0485 8.07701 19.0529 8.07271 19.0584H7.71881C7.68524 19.0433 7.64913 19.0356 7.61264 19.0356C7.57615 19.0356 7.54003 19.0433 7.50647 19.0584L7.18796 19.0584Z" fill="#1D884A"/>
</g>
<defs>
<clipPath id="clip0_116_305">
<rect width="14" height="19" fill="white"/>
</clipPath>
</defs>
</svg>
