<svg width="19" height="19" viewBox="0 0 19 19" fill="none" xmlns="http://www.w3.org/2000/svg">
<g clip-path="url(#clip0_116_289)">
<path d="M9.11196 18.9506C9.14229 18.9232 9.18175 18.908 9.22268 18.908C9.26361 18.908 9.30308 18.9232 9.3334 18.9506H9.11196Z" fill="#1D884A"/>
<path d="M0.0633865 11.037L0.0459193 11.0415L0.0327835 11.0292V10.845C0.0813171 10.9029 0.0758812 10.9694 0.0633865 11.037Z" fill="#1D884A"/>
<path d="M9.62867 18.9505C9.64036 18.9377 9.6546 18.9274 9.67049 18.9204C9.68638 18.9134 9.70356 18.9098 9.72094 18.9098C9.73831 18.9098 9.7555 18.9134 9.77138 18.9204C9.78727 18.9274 9.80152 18.9377 9.8132 18.9505H9.62867Z" fill="#1D884A"/>
<path d="M8.92741 18.9506C8.95202 18.8951 8.97662 18.903 9.00123 18.9506H8.92741Z" fill="#1D884A"/>
<path d="M9.96084 18.9506C9.98544 18.903 10.01 18.8951 10.0347 18.9506H9.96084Z" fill="#1D884A"/>
<path fill-rule="evenodd" clip-rule="evenodd" d="M0.0327884 10.4397C0.0708213 10.3877 0.0825947 10.3275 0.0943662 10.2673C0.100916 10.2338 0.107464 10.2003 0.118535 10.1682C0.348363 9.50248 0.792964 9.05491 1.47438 8.85804C1.58597 8.8258 1.61372 8.77821 1.61299 8.66923C1.61092 8.35612 1.61162 8.04299 1.61232 7.72986C1.61321 7.33091 1.61409 6.93195 1.60926 6.53306C1.57792 3.94966 2.82952 2.17008 5.09165 1.05161C6.69085 0.260913 8.40358 0.00226592 10.1762 0.112411C11.6796 0.205828 13.108 0.56948 14.4131 1.34012C15.7908 2.15369 16.7631 3.29088 17.1716 4.86413C17.2993 5.37656 17.36 5.90336 17.3522 6.43137C17.3509 6.75115 17.3511 7.07093 17.3513 7.39072C17.3515 7.8137 17.3518 8.23667 17.3487 8.65963C17.3478 8.77726 17.3788 8.82522 17.4973 8.85908C17.9346 8.98096 18.316 9.25057 18.5763 9.62188C18.8366 9.99319 18.9597 10.4432 18.9246 10.895C18.8896 11.3469 18.6985 11.7726 18.384 12.0994C18.0695 12.4263 17.6511 12.634 17.2002 12.6872C17.0798 12.7027 17.0605 12.7674 17.0345 12.8543L17.0319 12.8632C16.559 14.44 15.7481 15.8139 14.5386 16.9395C13.3046 18.088 11.853 18.7685 10.1623 18.9147C10.1365 18.9169 10.1148 18.9211 10.1084 18.9505H10.0346C10.0301 18.9451 10.0245 18.9407 10.0181 18.9377C10.0117 18.9347 10.0048 18.9331 9.99772 18.9331C9.99066 18.9331 9.9837 18.9347 9.97732 18.9377C9.97093 18.9407 9.9653 18.9451 9.96081 18.9505H9.81318C9.78469 18.9357 9.75304 18.928 9.72091 18.928C9.68879 18.928 9.65714 18.9357 9.62864 18.9505H9.33339C9.29838 18.9356 9.26072 18.9279 9.22267 18.9279C9.18461 18.9279 9.14695 18.9356 9.11194 18.9505H9.00122C8.99674 18.9451 8.9911 18.9407 8.98472 18.9377C8.97834 18.9347 8.97137 18.9331 8.96432 18.9331C8.95726 18.9331 8.95029 18.9347 8.94391 18.9377C8.93753 18.9407 8.9319 18.9451 8.92741 18.9505H8.77978C8.69098 18.939 8.60204 18.9287 8.51311 18.9184C8.23838 18.8867 7.96377 18.855 7.6939 18.7852C6.39503 18.4548 5.20801 17.7844 4.25536 16.8432C3.12324 15.7368 2.35255 14.4182 1.89523 12.9108C1.86037 12.7959 1.80049 12.7477 1.68041 12.724C0.933874 12.5768 0.39483 12.1691 0.117213 11.4469C0.0668923 11.3147 0.0446205 11.1735 0.0518091 11.0323C0.0486982 11.0101 0.0502903 10.9875 0.0518825 10.9649C0.054759 10.924 0.0576358 10.883 0.0327835 10.8449L0.0327884 10.4397ZM16.5699 10.0387V10.0388C16.5768 10.6495 16.5837 11.2608 16.4544 11.8619C15.8774 14.5464 14.4927 16.6522 11.8751 17.6944C9.50063 18.6398 7.24216 18.2431 5.26024 16.6196C3.7145 15.3534 2.82369 13.6811 2.48028 11.7191C2.42178 11.3739 2.39336 11.0242 2.39534 10.6741L2.39569 10.1434C2.39628 9.44237 2.39687 8.74134 2.39144 8.04038C2.39042 7.90969 2.42521 7.86716 2.55546 7.84342C3.3163 7.70475 4.07 7.53928 4.78008 7.2166C5.82797 6.74885 6.74747 6.03586 7.46068 5.13803C7.54237 5.03521 7.58328 5.01315 7.69499 5.11046C9.23149 6.44923 11.0113 7.25429 13.0381 7.49675C14.06 7.61897 15.0838 7.72468 16.1075 7.83037L16.1076 7.83038L16.3918 7.85974C16.5299 7.87402 16.574 7.91428 16.571 8.05719C16.5638 8.40747 16.565 8.75792 16.5662 9.10837C16.5667 9.24296 16.5672 9.37755 16.5672 9.51214C16.5659 9.6874 16.5679 9.86295 16.5699 10.0385V10.0386V10.0387ZM5.25122 1.8571C3.03185 3.03708 2.24427 4.83491 2.40853 7.06877L2.56386 7.03869C2.67433 7.01721 2.78447 6.9958 2.89481 6.97546C4.20956 6.73316 5.35896 6.16696 6.32011 5.23256C6.63415 4.92088 6.91872 4.58094 7.17019 4.21706C7.34522 3.96957 7.59267 3.95099 7.8168 4.15471C7.8506 4.18544 7.88322 4.21748 7.91584 4.24952C7.94461 4.27777 7.97339 4.30603 8.00298 4.3334C9.09311 5.35027 10.4165 6.08466 11.8571 6.47218C12.5427 6.65874 13.2429 6.73662 13.9456 6.81027C14.7766 6.89857 15.6073 6.99014 16.4376 7.08498C16.5457 7.09733 16.573 7.06671 16.5695 6.9616C16.5652 6.8325 16.5656 6.70326 16.5661 6.57402V6.57385C16.5664 6.45752 16.5668 6.34119 16.5637 6.22495C16.5442 5.47312 16.3813 4.75584 16.03 4.0864C15.4496 2.98046 14.535 2.23592 13.4256 1.71027C12.3057 1.17962 11.1167 0.928678 9.88233 0.883869C8.25842 0.824939 6.69617 1.08887 5.25122 1.8571ZM17.2897 11.5935L17.2897 11.5935C17.2971 11.5527 17.3044 11.512 17.3088 11.4712C17.3568 11.0202 17.3536 10.5681 17.3504 10.1162V10.1161C17.3496 10.0036 17.3488 9.89117 17.3488 9.77873C17.3488 9.64851 17.378 9.63521 17.4904 9.69059C17.9022 9.89346 18.1818 10.3737 18.1395 10.8211C18.0901 11.3435 17.7586 11.7468 17.2734 11.8704C17.2566 11.776 17.2732 11.6845 17.2897 11.5935ZM0.822389 10.8205C0.871011 11.3385 1.20153 11.7394 1.69128 11.8686C1.69467 11.8448 1.69568 11.8207 1.69432 11.7967C1.60175 11.2076 1.60662 10.6143 1.61149 10.0214C1.61215 9.94014 1.61282 9.85889 1.61324 9.77767C1.61393 9.64206 1.57956 9.6398 1.47125 9.69248C1.05961 9.89278 0.780268 10.3718 0.822389 10.8205Z" fill="#1D884A"/>
<path d="M9.4951 15.0174C9.11321 15.023 8.73551 15.0977 8.38034 15.2379C8.34861 15.247 8.3198 15.2642 8.2967 15.2877C8.2736 15.3113 8.257 15.3404 8.24854 15.3722C8.09921 15.8738 7.74651 16.2205 7.33998 16.5191C7.3004 16.5488 7.25534 16.5704 7.20739 16.5827C7.15943 16.595 7.10952 16.5977 7.06051 16.5908C7.0115 16.5838 6.96434 16.5672 6.92175 16.542C6.87915 16.5168 6.84194 16.4835 6.81226 16.444C6.74883 16.3673 6.71794 16.2689 6.72621 16.1698C6.73447 16.0707 6.78122 15.9787 6.85648 15.9136C6.99147 15.7886 7.14222 15.6811 7.2644 15.5416C7.58779 15.1723 7.59064 14.863 7.26062 14.5007C7.15049 14.3852 7.03304 14.2769 6.90898 14.1765C6.70638 14.0049 6.66657 13.7778 6.81427 13.5966C6.96042 13.4172 7.19171 13.4052 7.40263 13.566C7.69855 13.7915 7.96091 14.0482 8.13361 14.3821C8.17613 14.4643 8.21846 14.4621 8.29354 14.4363C9.05957 14.1669 9.89463 14.1657 10.6614 14.4329C10.7649 14.4677 10.7996 14.4401 10.8433 14.3574C11.0253 14.0129 11.3046 13.7549 11.6134 13.5279C11.654 13.4974 11.7003 13.4752 11.7496 13.4626C11.7988 13.45 11.8501 13.4471 11.9004 13.4543C11.9508 13.4615 11.9992 13.4785 12.043 13.5043C12.0867 13.5302 12.1249 13.5644 12.1555 13.605C12.2176 13.683 12.2466 13.7821 12.2364 13.8813C12.2261 13.9804 12.1773 14.0715 12.1005 14.1351C11.9486 14.2691 11.7863 14.3914 11.6573 14.5495C11.3918 14.8751 11.3883 15.1491 11.6469 15.4789C11.7651 15.6204 11.8989 15.748 12.0458 15.8595C12.2623 16.035 12.2985 16.27 12.1436 16.4529C11.994 16.6296 11.7636 16.6368 11.5533 16.4704C11.1723 16.1688 10.8389 15.8302 10.705 15.3444C10.6839 15.268 10.6249 15.2566 10.5713 15.2352C10.2288 15.098 9.8641 15.0242 9.4951 15.0174Z" fill="#1D884A"/>
<path d="M5.39899 9.9175C5.22064 9.74323 5.06008 9.59115 4.90506 9.43362C4.71779 9.24333 4.70846 9.01262 4.8753 8.8479C5.03814 8.68715 5.27511 8.70015 5.46483 8.88363C5.58846 9.0032 5.713 9.12244 5.82828 9.24977C5.90499 9.3345 5.95729 9.35371 6.04291 9.25524C6.16351 9.11655 6.29863 8.98989 6.4326 8.86344C6.60652 8.69927 6.8379 8.69362 6.99494 8.84329C7.16062 9.0012 7.16098 9.23299 6.98803 9.4166C6.85331 9.55961 6.71409 9.69888 6.56986 9.83226C6.50417 9.893 6.50681 9.93002 6.56925 9.98896C6.71215 10.1238 6.85207 10.2622 6.9874 10.4047C7.15944 10.5857 7.16078 10.8219 6.99756 10.9792C6.83897 11.132 6.6121 11.1278 6.43625 10.9617C6.29339 10.8267 6.15437 10.6878 6.0192 10.5448C5.96005 10.4823 5.92263 10.4744 5.85947 10.5423C5.72562 10.686 5.58536 10.8242 5.44234 10.959C5.25898 11.1317 5.02541 11.1331 4.86771 10.9692C4.71494 10.8104 4.71652 10.5819 4.88533 10.4085C5.04774 10.2417 5.22172 10.086 5.39899 9.9175Z" fill="#1D884A"/>
<path d="M13.5577 9.9184C13.7301 10.0802 13.8947 10.2275 14.051 10.3833C14.2414 10.5729 14.2542 10.8042 14.0928 10.9704C13.9246 11.1436 13.6939 11.1299 13.4915 10.9325C13.3684 10.8124 13.2406 10.6959 13.1284 10.5662C13.0439 10.4686 12.9919 10.4881 12.9154 10.5723C12.7958 10.704 12.6671 10.8278 12.5381 10.9506C12.3522 11.1278 12.1257 11.1367 11.963 10.9783C11.7955 10.8153 11.8037 10.582 11.988 10.3911C12.1203 10.2541 12.2545 10.1189 12.3931 9.98836C12.4556 9.92947 12.4581 9.8924 12.3926 9.83178C12.2483 9.69838 12.1097 9.55861 11.9741 9.41645C11.8053 9.23962 11.7996 9.01824 11.953 8.85717C12.1079 8.6944 12.3482 8.69363 12.5284 8.86255C12.6672 8.99275 12.8038 9.12612 12.9317 9.26686C13.0052 9.34781 13.0502 9.33821 13.1191 9.26328C13.2437 9.12778 13.3761 8.99912 13.5093 8.87176C13.6897 8.69913 13.9259 8.69112 14.0852 8.84741C14.2483 9.00747 14.2438 9.23514 14.0705 9.42106C13.9909 9.50636 13.9069 9.58764 13.8232 9.6689C13.7439 9.74587 13.6622 9.8204 13.5577 9.9184Z" fill="#1D884A"/>
</g>
<defs>
<clipPath id="clip0_116_289">
<rect width="19" height="19" fill="white"/>
</clipPath>
</defs>
</svg>
