<svg width="16" height="23" viewBox="0 0 16 23" fill="none" xmlns="http://www.w3.org/2000/svg">
<g clip-path="url(#clip0_116_323)">
<path d="M2.6723 20.5168C2.74641 20.5 2.76292 20.5394 2.75763 20.6001L2.6723 20.5168Z" fill="#1D884A"/>
<path d="M3.29803 21.1273C3.34665 21.1169 3.37323 21.1279 3.35491 21.1828L3.29803 21.1273Z" fill="#1D884A"/>
<path d="M12.6556 21.2105C12.6353 21.1537 12.6623 21.1431 12.7125 21.155L12.6556 21.2105Z" fill="#1D884A"/>
<path d="M13.2813 20.6C13.269 20.551 13.2799 20.5246 13.3382 20.5445L13.2813 20.6Z" fill="#1D884A"/>
<path fill-rule="evenodd" clip-rule="evenodd" d="M2.5585 20.4058C2.4937 20.2551 2.39302 20.1277 2.29227 20.0003C2.2362 19.9293 2.18012 19.8584 2.13019 19.7833C1.38912 18.6699 0.989896 17.4518 0.985408 16.1262C0.983512 15.5653 0.981052 15.0044 0.978591 14.4435C0.96745 11.9037 0.956308 9.36383 0.997632 6.82481C1.03301 4.65114 1.99957 2.87654 3.77362 1.56154C6.19549 -0.233645 9.44695 -0.331507 11.9404 1.33111C13.9145 2.64741 15.0033 4.50483 15.0438 6.84437C15.0979 9.97018 15.0752 13.0977 15.0484 16.2242C15.035 17.7845 14.4701 19.1718 13.4532 20.3797C13.4495 20.3841 13.4453 20.3884 13.4412 20.3927L13.4412 20.3927C13.4229 20.4115 13.405 20.4299 13.4235 20.4613L13.3382 20.5446C13.3305 20.5439 13.3228 20.5448 13.3156 20.5474C13.3083 20.5499 13.3018 20.554 13.2963 20.5593C13.2909 20.5646 13.2867 20.571 13.2841 20.578C13.2815 20.5851 13.2805 20.5926 13.2813 20.6001L12.7124 21.1552C12.7048 21.1544 12.6971 21.1554 12.6898 21.1579C12.6826 21.1605 12.676 21.1645 12.6706 21.1698C12.6651 21.1751 12.661 21.1815 12.6584 21.1886C12.6558 21.1957 12.6548 21.2032 12.6555 21.2107L12.5133 21.3494C12.2028 21.605 11.8711 21.835 11.5215 22.0369C10.6581 22.5181 9.69986 22.815 8.71016 22.9082C7.21304 23.0501 5.81038 22.7461 4.49838 22.0292C4.16733 21.8484 3.87358 21.62 3.57921 21.3912L3.52549 21.3494L3.35484 21.1829C3.35557 21.1755 3.35461 21.1679 3.35201 21.1609C3.34941 21.1538 3.34524 21.1474 3.3398 21.1421C3.33437 21.1368 3.3278 21.1327 3.32056 21.1302C3.31333 21.1276 3.30561 21.1267 3.29795 21.1274L2.75755 20.6001C2.75603 20.5785 2.74656 20.5582 2.73087 20.5429C2.71519 20.5276 2.69435 20.5183 2.67222 20.5169L2.5585 20.4058ZM3.73145 3.16472C5.96543 0.983808 9.28134 0.764379 11.5736 2.5194C13.0652 3.66136 13.829 5.17676 13.8521 7.02899C13.8628 7.87826 13.861 8.72768 13.8592 9.57711C13.8581 10.0877 13.857 10.5983 13.8586 11.1089C13.8634 11.156 13.8529 11.2035 13.8287 11.2446C13.8045 11.2856 13.7677 11.3183 13.7235 11.338C12.0375 12.2826 10.3536 13.2307 8.67182 14.1823C8.55594 14.248 8.47674 14.2488 8.36588 14.1862C6.35389 13.0491 4.34067 11.914 2.32623 10.7811C2.242 10.7336 2.18223 10.6877 2.18288 10.573C2.18542 10.1251 2.18437 9.67724 2.18332 9.22934V9.22931C2.18146 8.43488 2.1796 7.64048 2.19777 6.84651C2.23205 5.34999 2.82943 4.07511 3.73145 3.16472ZM2.89743 12.4602L2.18325 12.0569L2.18405 12.711C2.18504 13.4199 2.186 14.1111 2.18311 14.8023C2.18267 14.9111 2.24753 14.9476 2.32392 14.9906L2.32449 14.9909C5.44542 16.747 8.56515 18.5051 11.6837 20.2651C11.7875 20.3238 11.851 20.3214 11.9414 20.2388C12.4815 19.7477 12.9284 19.1673 13.2616 18.5244C13.3384 18.3766 13.3111 18.323 13.1713 18.2445C10.2408 16.5969 7.3111 14.9481 4.3821 13.2981C3.89016 13.021 3.39856 12.7433 2.89743 12.4602ZM10.7035 21.0695C6.72642 23.0277 2.34639 20.2312 2.20798 16.2839L10.7035 21.0695ZM13.867 12.6129L9.72438 14.9463L13.7471 17.212C13.8781 16.2471 13.8672 15.2934 13.8563 14.3365C13.8498 13.7641 13.8432 13.1906 13.867 12.6129Z" fill="#1D884A"/>
<path fill-rule="evenodd" clip-rule="evenodd" d="M4.75192 3.83596C5.39913 3.20537 6.22344 2.77622 7.12062 2.60277C8.0178 2.42932 8.94754 2.51936 9.79227 2.86151C10.637 3.20366 11.3588 3.78256 11.8663 4.52498C12.3739 5.26741 12.6444 6.14002 12.6437 7.03246C12.6429 7.92491 12.371 8.7971 11.8623 9.53874C11.3535 10.2804 10.6308 10.8582 9.78553 11.199C8.94025 11.5399 8.01036 11.6285 7.11347 11.4537C6.21657 11.2788 5.39295 10.8484 4.74676 10.2168C4.31762 9.79757 3.97734 9.29993 3.74534 8.75233C3.51335 8.20473 3.39418 7.61789 3.39466 7.02535C3.39514 6.4328 3.51525 5.84615 3.74813 5.29891C3.98101 4.75167 4.3221 4.25455 4.75192 3.83596ZM9.84694 9.82975C9.6581 8.64572 8.99638 7.99767 7.99084 8.012C7.00824 8.02601 6.35234 8.68891 6.19466 9.82729C5.18603 9.28077 4.30756 7.8519 4.6928 6.26183C4.86823 5.53576 5.2881 4.88805 5.88528 4.42228C6.48245 3.9565 7.22244 3.69956 7.98691 3.69253C8.75139 3.68551 9.49621 3.9288 10.1023 4.38352C10.7083 4.83823 11.1406 5.47811 11.33 6.20083C11.7444 7.76935 10.9172 9.22789 9.84694 9.82975ZM8.14502 10.3475C8.2609 10.3234 8.36683 10.2662 8.44942 10.1833C8.50512 10.1286 8.54906 10.0637 8.57865 9.99219C8.60824 9.92072 8.62289 9.8442 8.62173 9.76713C8.62057 9.69006 8.60363 9.61399 8.57191 9.5434C8.54019 9.47281 8.49432 9.40912 8.437 9.35607C8.35195 9.27556 8.24435 9.22145 8.12779 9.20059C8.01124 9.17974 7.89096 9.19307 7.78217 9.2389C7.67337 9.28474 7.58095 9.36101 7.51658 9.45809C7.4522 9.55517 7.41877 9.66869 7.42051 9.78431C7.42224 9.89992 7.45907 10.0124 7.52633 10.1076C7.59359 10.2028 7.68827 10.2764 7.79839 10.3191C7.90851 10.3618 8.02914 10.3717 8.14502 10.3475Z" fill="#1D884A"/>
<path d="M7.03434 6.22267C7.09033 6.27631 7.1349 6.34022 7.16548 6.41072C7.19607 6.48123 7.21207 6.55694 7.21257 6.6335C7.21306 6.71006 7.19804 6.78596 7.16836 6.85683C7.13868 6.92771 7.09494 6.99216 7.03965 7.04648C6.92524 7.15815 6.77008 7.22095 6.60825 7.22108C6.44643 7.22122 6.29116 7.15869 6.17654 7.04721C6.06881 6.93373 6.00978 6.78425 6.01162 6.62956C6.01345 6.47488 6.07602 6.32677 6.18642 6.21575C6.30038 6.10805 6.45319 6.04841 6.61183 6.0497C6.77048 6.051 6.92224 6.11312 7.03434 6.22267Z" fill="#1D884A"/>
<path d="M8.99982 7.04702C8.94446 6.99277 8.90063 6.92839 8.87086 6.85757C8.84109 6.78675 8.82595 6.71088 8.82632 6.63433C8.8267 6.55779 8.84257 6.48206 8.87303 6.41152C8.90349 6.34098 8.94794 6.27701 9.00382 6.22328C9.1157 6.11356 9.2673 6.05118 9.42591 6.04959C9.58452 6.04801 9.73741 6.10735 9.85156 6.21481C9.96438 6.32825 10.0273 6.48023 10.0268 6.63831C10.0263 6.79638 9.96257 6.94801 9.84908 7.06082C9.73348 7.16674 9.58013 7.22454 9.42158 7.22196C9.26303 7.21938 9.11174 7.15663 8.99982 7.04702Z" fill="#1D884A"/>
</g>
<defs>
<clipPath id="clip0_116_323">
<rect width="16" height="23" fill="white"/>
</clipPath>
</defs>
</svg>
