<svg width="26" height="19" viewBox="0 0 26 19" fill="none" xmlns="http://www.w3.org/2000/svg">
<path d="M13.2801 1.00407C17.6921 1.12327 21.5885 2.59414 24.9451 5.4835C25.0536 5.57684 25.0934 5.63143 24.9735 5.75573C24.7104 6.02848 24.4566 6.31191 24.2194 6.60742C24.0942 6.76342 24.0201 6.73765 23.8858 6.62097C22.0757 5.04812 20.0327 3.87835 17.7222 3.24581C11.9673 1.67026 6.77732 2.78508 2.15232 6.59027C1.98399 6.72923 1.89109 6.7559 1.74505 6.56935C1.52714 6.29105 1.28545 6.03063 1.04293 5.77295C0.935761 5.65908 0.919459 5.59828 1.05373 5.48222C3.56028 3.31594 6.43845 1.92551 9.68824 1.31093C10.8724 1.08895 12.0756 0.986153 13.2801 1.00407Z" fill="#1D884A"/>
<path fill-rule="evenodd" clip-rule="evenodd" d="M0.783898 10.3639L0.783896 10.3639L0.783896 10.3639C0.561169 10.6693 0.337946 10.9754 0.0690442 11.244L0.0690308 11.2947C0.183654 11.4271 0.299328 11.5587 0.415002 11.6903L0.415013 11.6903C0.666405 11.9763 0.917797 12.2623 1.15841 12.5571C2.70588 14.4533 4.5947 15.8883 6.85668 16.8217C9.39572 17.8695 12.0318 18.2292 14.7596 17.9383C16.8436 17.715 18.8631 17.0806 20.7018 16.0715C22.8098 14.9273 24.3584 13.1805 25.8596 11.3737C25.9231 11.2973 25.9032 11.251 25.8494 11.1822C25.6784 10.9638 25.511 10.7424 25.3437 10.5209L25.3436 10.5209L25.3436 10.5208L25.3436 10.5208C25.0179 10.0898 24.6922 9.65886 24.34 9.25094C20.2957 4.56697 13.5891 2.85668 7.79775 5.02136C5.00886 6.06379 2.70811 7.76333 0.929009 10.1659C0.880367 10.2316 0.832161 10.2977 0.783932 10.3638L0.783916 10.3638L0.783898 10.3639ZM11.4287 5.88682C10.3712 6.20703 9.43828 6.84712 8.75743 7.71952C8.86462 7.78121 8.97054 7.84235 9.07559 7.903L9.07568 7.90305L9.07571 7.90306L9.0758 7.90311C9.34837 8.06046 9.61513 8.21446 9.88331 8.3659C9.99189 8.4272 10.0479 8.4758 9.96272 8.61313C9.74993 8.95611 9.55086 9.30804 9.35729 9.66243C9.29215 9.78161 9.23959 9.79359 9.12543 9.72378C8.9573 9.62096 8.78649 9.52258 8.61567 9.4242L8.61567 9.4242L8.61565 9.42419C8.45157 9.32969 8.28748 9.23518 8.12578 9.13674C8.00664 9.06419 7.96511 9.0855 7.91956 9.21503C7.48928 10.4079 7.48652 11.7139 7.91176 12.9086C7.96657 13.0686 8.02508 13.0667 8.15543 12.9856C8.32536 12.8799 8.49904 12.7803 8.67274 12.6807L8.67275 12.6807L8.67276 12.6807C8.81975 12.5964 8.96675 12.5121 9.11149 12.4241C9.2266 12.3541 9.28963 12.3503 9.36156 12.4834C9.55376 12.839 9.75503 13.1891 9.96538 13.5337C10.0393 13.6548 10.009 13.7033 9.89842 13.7645C9.734 13.8556 9.57135 13.95 9.40871 14.0443L9.4087 14.0443C9.23706 14.1439 9.06542 14.2434 8.8917 14.3391C8.78376 14.3986 8.76655 14.4417 8.85025 14.54C9.6678 15.5187 10.8009 16.1798 12.0533 16.4087C12.2063 16.4383 12.2371 16.3799 12.2341 16.239C12.2298 16.0402 12.2304 15.8414 12.231 15.6426C12.2315 15.4615 12.232 15.2804 12.2289 15.0994C12.2269 14.9831 12.2502 14.9365 12.3794 14.9391C12.7916 14.9476 13.2042 14.947 13.6165 14.9394C13.7413 14.9371 13.7713 14.9786 13.7692 15.0974C13.7658 15.2842 13.7663 15.4711 13.7668 15.658V15.6581C13.7673 15.8511 13.7678 16.0441 13.764 16.2369C13.7613 16.374 13.785 16.4391 13.9423 16.4091C15.1951 16.1823 16.3288 15.5213 17.1455 14.5417C17.2256 14.4476 17.2219 14.4008 17.1087 14.3387C16.9503 14.2517 16.794 14.1607 16.6378 14.0696L16.6377 14.0696L16.6376 14.0695C16.4673 13.9703 16.2969 13.871 16.1237 13.777C15.9947 13.707 15.9561 13.6529 16.043 13.5126C16.2512 13.1766 16.4469 12.8325 16.6362 12.4854C16.7058 12.3578 16.7656 12.3465 16.8864 12.4207C17.0696 12.5331 17.256 12.6405 17.4423 12.7478L17.4423 12.7479L17.4425 12.7479L17.4425 12.748C17.5837 12.8293 17.7249 12.9107 17.8648 12.9943C17.9672 13.0555 18.0221 13.0823 18.0753 12.931C18.5107 11.7307 18.5115 10.415 18.0776 9.21419C18.0288 9.07426 17.9811 9.07534 17.8699 9.14249C17.6976 9.2465 17.5233 9.34709 17.349 9.44769C17.1958 9.53606 17.0427 9.62443 16.8909 9.71513C16.7809 9.78089 16.7129 9.79917 16.6378 9.65854C16.4475 9.30244 16.2439 8.95308 16.0337 8.60837C15.9613 8.48965 15.9859 8.44171 16.0986 8.37879C16.3713 8.22658 16.6409 8.06881 16.9171 7.9072L16.9172 7.90713L16.9173 7.90709L16.9176 7.9069C17.0248 7.84421 17.1329 7.78094 17.2426 7.7172C16.3681 6.64042 15.2699 5.98214 13.928 5.72727C13.7795 5.69906 13.7625 5.7651 13.7645 5.88884C13.7672 6.0632 13.7667 6.23762 13.7662 6.41204C13.7656 6.61753 13.765 6.82302 13.7696 7.02839C13.7726 7.16074 13.7364 7.20512 13.6019 7.19798C13.4897 7.19202 13.3772 7.19337 13.2647 7.19471C13.1667 7.19588 13.0687 7.19706 12.9708 7.1934C12.894 7.19054 12.8091 7.20022 12.7247 7.20986C12.5439 7.23049 12.365 7.25091 12.2705 7.14762C12.1894 7.05895 12.2043 6.88294 12.2193 6.70557L12.2193 6.70555C12.2262 6.62291 12.2333 6.53996 12.2306 6.46542C12.2278 6.38638 12.2378 6.29485 12.2477 6.20395C12.2684 6.01481 12.2888 5.82843 12.1927 5.76314C12.0386 5.65847 11.8172 5.74283 11.6078 5.82266C11.5464 5.84606 11.486 5.86908 11.4287 5.88682ZM18.4854 15.3916C20.4124 12.5691 20.4472 9.73978 18.5819 6.87616C18.6403 6.86753 18.6949 6.8988 18.75 6.93033C18.769 6.94122 18.7881 6.95215 18.8074 6.96147C20.8124 7.92847 22.5043 9.279 23.8243 11.085L23.8374 11.1028C23.8925 11.1769 23.9323 11.2303 23.8465 11.3383C22.4599 13.084 20.7763 14.4432 18.7226 15.3245C18.7047 15.3322 18.687 15.3417 18.6692 15.3512C18.6135 15.381 18.5565 15.4115 18.4854 15.3916ZM6.52751 14.9723C6.84867 15.148 7.18406 15.2962 7.53009 15.4152C5.58305 12.5681 5.54916 9.73875 7.42122 6.86811C7.38979 6.8757 7.35889 6.88539 7.32874 6.89711C5.24736 7.87158 3.50207 9.26048 2.14095 11.1249C2.07669 11.2129 2.09228 11.2596 2.15445 11.338C3.35893 12.8566 4.79341 14.0963 6.52751 14.9723Z" fill="#1D884A"/>
<path fill-rule="evenodd" clip-rule="evenodd" d="M15.3162 11.0393C15.3127 9.78566 14.2674 8.75374 13.0003 8.75281C11.7348 8.75189 10.6871 9.78356 10.6816 11.0361C10.6758 12.358 11.6723 13.3698 12.9845 13.3741C14.3151 13.3785 15.3199 12.3723 15.3162 11.0393ZM13.7063 11.373C13.7452 11.2792 13.7652 11.1786 13.7651 11.0771C13.7663 10.976 13.7476 10.8756 13.71 10.7818C13.6725 10.688 13.6169 10.6025 13.5463 10.5302C13.4758 10.458 13.3917 10.4005 13.299 10.3609C13.2062 10.3213 13.1066 10.3004 13.0058 10.2995C12.905 10.2986 12.805 10.3177 12.7116 10.3556C12.6181 10.3935 12.533 10.4496 12.4612 10.5205C12.3894 10.5915 12.3323 10.6759 12.2931 10.7691C12.2538 10.8622 12.2333 10.9622 12.2327 11.0633C12.2308 11.1649 12.249 11.2658 12.2862 11.3602C12.3235 11.4547 12.379 11.5408 12.4496 11.6136C12.5202 11.6864 12.6045 11.7445 12.6976 11.7844C12.7907 11.8243 12.8907 11.8454 12.992 11.8463C13.0933 11.8472 13.1937 11.828 13.2875 11.7897C13.3813 11.7514 13.4666 11.6949 13.5385 11.6234C13.6104 11.5519 13.6674 11.4668 13.7063 11.373Z" fill="#1D884A"/>
</svg>
