<svg width="16" height="19" viewBox="0 0 16 19" fill="none" xmlns="http://www.w3.org/2000/svg">
<g clip-path="url(#clip0_116_384)">
<path d="M2.73558 3.29224C2.78084 3.49349 2.82163 3.66569 2.85808 3.83875C2.94744 4.26297 2.6141 4.59305 2.17255 4.51688C1.7184 4.43853 1.26425 4.35999 0.811017 4.27681C0.462369 4.21283 0.251195 3.93619 0.310723 3.63207C0.374185 3.30777 0.66253 3.12557 1.02025 3.18611C1.19228 3.21522 1.36354 3.24864 1.56077 3.28478C1.52116 3.09736 1.48759 2.93118 1.45085 2.76565C1.35017 2.31201 1.66986 1.98306 2.13622 2.06354C2.58416 2.14085 3.03186 2.21953 3.47929 2.29959C3.82891 2.3623 4.04768 2.63609 3.99261 2.937C3.93209 3.2677 3.63516 3.45481 3.27058 3.39065C3.1037 3.36129 2.9373 3.32944 2.73558 3.29224Z" fill="#1D884A"/>
<path d="M13.2604 3.29322C13.0664 3.32868 12.9009 3.35911 12.7354 3.38908C12.3671 3.45574 12.073 3.27661 12.0067 2.94548C11.9451 2.63773 12.1666 2.36204 12.5276 2.29797C12.9813 2.21744 13.4348 2.13553 13.8891 2.05742C13.9825 2.03872 14.0792 2.04308 14.1704 2.0701C14.2616 2.09712 14.3444 2.14593 14.4111 2.21204C14.4777 2.27816 14.5262 2.35946 14.5521 2.4485C14.5779 2.53753 14.5803 2.63143 14.559 2.72158C14.5328 2.85388 14.5008 2.98525 14.4663 3.11577C14.436 3.23039 14.429 3.3071 14.5966 3.25746C14.719 3.22701 14.8432 3.2036 14.9684 3.18735C15.3344 3.12365 15.6304 3.31065 15.6889 3.64191C15.7426 3.94544 15.5267 4.21559 15.1758 4.27883C14.7222 4.36057 14.2684 4.44065 13.8142 4.51907C13.3862 4.59284 13.0528 4.26138 13.1374 3.8467C13.1736 3.66881 13.216 3.49207 13.2604 3.29322Z" fill="#1D884A"/>
<path d="M14.7607 7.91476C14.9603 7.9683 15.1424 8.01334 15.322 8.06616C15.6477 8.16191 15.8213 8.44864 15.7397 8.74754C15.6594 9.04119 15.3466 9.21122 15.0229 9.12976C14.5652 9.01459 14.1076 8.89866 13.6526 8.77394C13.2249 8.65669 13.0782 8.23447 13.3391 7.88642C13.45 7.73847 13.5681 7.59559 13.6962 7.43362C13.5038 7.38379 13.3301 7.34161 13.158 7.2936C12.8107 7.19667 12.6264 6.90143 12.717 6.59243C12.8045 6.29414 13.1143 6.14074 13.4583 6.22859C13.8972 6.34067 14.336 6.45319 14.7737 6.56942C15.2368 6.69239 15.3848 7.11182 15.0986 7.4854C14.99 7.62715 14.8778 7.76618 14.7607 7.91476Z" fill="#1D884A"/>
<path d="M1.2404 7.91711C1.11101 7.75353 0.992955 7.61054 0.88188 7.46262C0.62147 7.11585 0.769169 6.69214 1.19603 6.57543C1.65103 6.45103 2.10852 6.33505 2.56604 6.2196C2.88206 6.13986 3.18763 6.29925 3.27783 6.58383C3.37108 6.87802 3.20254 7.17902 2.88284 7.27704C2.69804 7.33371 2.50968 7.37943 2.30397 7.43522C2.42157 7.58437 2.53404 7.72321 2.64229 7.86508C2.92785 8.2393 2.77944 8.65703 2.31542 8.78031C1.8776 8.89663 1.43903 9.0103 0.999707 9.12132C0.656978 9.20869 0.346925 9.05371 0.259788 8.75525C0.169621 8.44641 0.354809 8.15137 0.702503 8.05529C0.872268 8.00837 1.04376 7.9674 1.2404 7.91711Z" fill="#1D884A"/>
<path fill-rule="evenodd" clip-rule="evenodd" d="M7.39761 18.8845C7.47466 18.895 7.55171 18.9056 7.61885 18.9514L8.34055 18.9514C8.34293 18.9486 8.34522 18.945 8.34751 18.9415C8.35246 18.9338 8.35742 18.9262 8.36329 18.9255C9.12104 18.8314 9.73505 18.4873 10.2152 17.9163C10.2723 17.8483 10.3345 17.847 10.4075 17.8453L10.4145 17.8452C10.5695 17.8416 10.7246 17.8435 10.8797 17.8454C11.1801 17.849 11.4804 17.8527 11.7801 17.8169C13.3524 17.6291 14.6275 16.3561 14.7642 14.8806C14.9205 13.194 13.8274 11.767 12.3088 11.3346C12.2628 11.3215 12.2107 11.3153 12.1588 11.3092C12.0497 11.2963 11.9416 11.2835 11.8937 11.2069C11.8422 11.1246 11.8414 11.0123 11.8407 10.9001C11.8404 10.8514 11.84 10.8028 11.8356 10.7566C11.7298 9.65677 11.6236 8.55697 11.5168 7.45722C11.4876 7.15691 11.4586 6.85659 11.4296 6.55627C11.3377 5.60406 11.2457 4.65184 11.1486 3.70013C11.1362 3.57864 11.1264 3.45676 11.1167 3.33485C11.088 2.9737 11.0592 2.61231 10.96 2.26001C10.5775 0.901863 9.21284 -0.0238523 7.76206 0.0897342C6.30184 0.204054 5.10921 1.30191 4.95735 2.69448C4.87003 3.49522 4.79333 4.29706 4.71663 5.0989C4.6811 5.47027 4.64558 5.84163 4.609 6.2129C4.57284 6.57989 4.53655 6.94687 4.50025 7.31384C4.37523 8.57784 4.25022 9.84185 4.13089 11.1064C4.11929 11.2294 4.06463 11.2576 3.96482 11.2755C3.52361 11.3583 3.10435 11.5273 2.73249 11.7721C1.59915 12.4977 1.02099 13.8504 1.28 15.1724C1.53307 16.4642 2.62303 17.5206 3.95594 17.7777C4.3491 17.8535 4.74445 17.8489 5.13982 17.8442C5.28146 17.8426 5.42309 17.8409 5.56463 17.843C5.61362 17.8403 5.66254 17.8493 5.70705 17.8694C5.75156 17.8894 5.79027 17.9198 5.81976 17.9579C6.19624 18.4015 6.70758 18.7185 7.28081 18.8636C7.31886 18.8737 7.35824 18.8791 7.39761 18.8845ZM3.24172 16.2726C3.67775 16.6014 4.22103 16.7674 4.77263 16.7403C4.80492 16.7403 4.83723 16.7399 4.86953 16.7395C4.94492 16.7387 5.0203 16.7379 5.09543 16.7416C5.17591 16.7455 5.20827 16.7274 5.19173 16.6408C5.1712 16.5321 5.15859 16.4221 5.15399 16.3117C5.13353 15.8372 5.00297 15.6935 4.52578 15.6294C4.38309 15.6129 4.25177 15.5457 4.15705 15.4409C4.06234 15.3361 4.01092 15.201 4.01269 15.0616C4.01889 14.7682 4.21905 14.5627 4.53511 14.5309C4.71189 14.5137 4.89042 14.5321 5.05957 14.5848C5.79626 14.8083 6.26848 15.4189 6.29037 16.1794C6.31715 17.1102 7.04034 17.8304 7.96303 17.845C8.41431 17.8543 8.85097 17.6897 9.17735 17.3873C9.50373 17.0849 9.69322 16.6693 9.70429 16.2317C9.71767 15.72 9.89226 15.2846 10.2886 14.9423C10.5863 14.6792 10.9738 14.5319 11.3766 14.5289C11.7161 14.5232 11.972 14.7479 11.9851 15.0573C11.9979 15.3611 11.7575 15.6057 11.4199 15.6324C11.1066 15.6573 10.8911 15.8316 10.8539 16.1056C10.8398 16.2087 10.8325 16.3126 10.8251 16.4165C10.8194 16.4962 10.8138 16.5759 10.8051 16.6553C10.7982 16.719 10.8112 16.7419 10.8801 16.7412C10.9393 16.7407 10.9984 16.7407 11.0576 16.7407C11.3586 16.7408 11.6593 16.7409 11.9555 16.6645C13.0472 16.3831 13.7427 15.3706 13.6199 14.2356C13.5118 13.2361 12.566 12.3669 11.533 12.3178C10.9686 12.291 10.8171 12.1378 10.7701 11.5958C10.716 10.9731 10.6546 10.3509 10.5933 9.72881C10.5714 9.5077 10.5496 9.28659 10.5282 9.06545C10.408 7.81873 10.2863 6.57214 10.1632 5.32568C10.1399 5.08954 10.1179 4.85321 10.096 4.61688C10.0379 3.99114 9.97986 3.36535 9.89587 2.74289C9.77444 1.84317 8.92477 1.17913 7.97261 1.18913C7.03369 1.19899 6.20903 1.87684 6.09977 2.77747C5.99729 3.62219 5.91618 4.46939 5.83507 5.31653C5.81144 5.56338 5.7878 5.81021 5.76364 6.05699C5.5823 7.93315 5.4006 9.80928 5.21856 11.6854C5.1755 12.1291 4.98381 12.3015 4.52326 12.3166C3.16122 12.3613 2.12719 13.6526 2.39701 14.949C2.50592 15.4741 2.80569 15.9438 3.24172 16.2726Z" fill="#1D884A"/>
</g>
<defs>
<clipPath id="clip0_116_384">
<rect width="16" height="19" fill="white"/>
</clipPath>
</defs>
</svg>
