<svg width="17" height="19" viewBox="0 0 17 19" fill="none" xmlns="http://www.w3.org/2000/svg">
<g clip-path="url(#clip0_116_375)">
<path d="M14.9033 12.0561C14.7754 12.0588 14.651 12.0131 14.5542 11.9278C14.4032 11.8104 14.2491 11.6967 14.1043 11.5719C14.0291 11.5071 13.9782 11.5011 13.9 11.5688C13.7511 11.6978 13.5939 11.817 13.4363 11.9351C13.1842 12.124 12.8741 12.0912 12.6959 11.8612C12.5107 11.6222 12.5527 11.3017 12.8034 11.1001C13.0879 10.8712 13.3753 10.646 13.6654 10.4244C13.8918 10.2514 14.1032 10.2523 14.3314 10.421C14.4693 10.5169 14.6014 10.6212 14.7269 10.7334C14.8485 10.8486 14.9429 10.8601 15.0687 10.7376C15.1936 10.6248 15.3254 10.5202 15.4634 10.4245C15.7225 10.2297 16.0325 10.2662 16.2131 10.5097C16.3877 10.7451 16.3425 11.0612 16.0986 11.2575C15.8141 11.4864 15.5253 11.7098 15.2373 11.9341C15.1442 12.0147 15.0255 12.0581 14.9033 12.0561Z" fill="#1D884A"/>
<path d="M3.85848 12.057C3.73879 12.0657 3.62554 12.0116 3.52234 11.9316C3.36647 11.8109 3.20853 11.6924 3.05872 11.5642C2.98652 11.5023 2.93797 11.5066 2.86797 11.5658C2.72186 11.6894 2.56935 11.8054 2.4172 11.9214C2.16971 12.1101 1.94789 12.1095 1.70746 11.9167C1.43588 11.6989 1.16598 11.479 0.897757 11.2568C0.655012 11.0561 0.610704 10.7439 0.787343 10.5074C0.969415 10.2635 1.28125 10.2284 1.53802 10.4271C1.68478 10.5407 1.8299 10.657 1.96936 10.7797C2.04141 10.843 2.09102 10.8552 2.17081 10.7852C2.32339 10.6515 2.48526 10.528 2.64885 10.4082C2.85497 10.2572 3.07084 10.2528 3.27402 10.4059C3.58419 10.6396 3.88985 10.8796 4.191 11.1257C4.27642 11.1927 4.33798 11.2864 4.3663 11.3924C4.39462 11.4983 4.38815 11.6109 4.34789 11.7128C4.31192 11.8151 4.24535 11.9033 4.15755 11.9651C4.06976 12.0269 3.96516 12.059 3.85848 12.057Z" fill="#1D884A"/>
<path fill-rule="evenodd" clip-rule="evenodd" d="M0.163275 17.87C0.156811 18.1969 0.271119 18.4241 0.576547 18.5404L16.4224 18.5404C16.7283 18.4243 16.8413 18.1964 16.8356 17.8697C16.8272 17.38 16.8291 16.8902 16.831 16.4003C16.8317 16.2263 16.8323 16.0524 16.8325 15.8785C16.8379 15.7199 16.8205 15.5613 16.7809 15.4077C16.5201 14.5132 15.907 13.9743 15.0574 13.7162C14.1715 13.4471 13.2791 13.2001 12.3868 12.9531C12.1808 12.8961 11.9748 12.8391 11.7689 12.7818C11.6487 12.7484 11.6044 12.7055 11.606 12.5724C11.6138 11.9205 11.6109 11.2684 11.6079 10.6164C11.6057 10.5763 11.6117 10.5362 11.6256 10.4986C11.6395 10.461 11.6609 10.4268 11.6886 10.3982C12.5124 9.50673 12.9135 8.44445 12.9135 7.22242C12.914 5.18999 12.9139 3.15755 12.9133 1.12511C12.9132 0.689109 12.7177 0.491911 12.2897 0.491878C10.4506 0.491284 8.61146 0.491316 6.77235 0.491972C5.23264 0.492523 4.09224 1.64207 4.08638 3.20723C4.08134 4.55238 4.08349 5.89758 4.08589 7.24273C4.08811 8.4923 4.51371 9.56878 5.37228 10.4635C5.40091 10.491 5.42337 10.5245 5.43811 10.5616C5.45284 10.5988 5.4595 10.6388 5.45763 10.6788C5.45401 11.3132 5.45311 11.9476 5.45813 12.582C5.45902 12.6936 5.43255 12.7411 5.3185 12.7722C4.44653 13.009 3.57635 13.2523 2.70795 13.5022C2.60163 13.5328 2.49415 13.5602 2.38663 13.5876C2.06997 13.6684 1.75292 13.7492 1.46382 13.9117C0.63727 14.3761 0.128565 15.0384 0.162956 16.0551C0.183398 16.6595 0.175237 17.2652 0.163275 17.87ZM10.5716 11.2751C9.21669 11.9537 7.86948 11.9671 6.50358 11.3137C6.49931 11.3291 6.49621 11.3447 6.4943 11.3606C6.49448 11.9246 6.49419 12.4886 6.49342 13.0526C6.49296 13.3999 6.36616 13.5751 6.04144 13.6661C4.81157 14.0138 3.58056 14.3572 2.34841 14.6963C1.99973 14.7923 1.69481 14.953 1.45527 15.2316C1.28806 15.4132 1.19716 15.6542 1.20196 15.9031C1.2113 16.3788 1.20899 16.8549 1.20159 17.3307C1.19967 17.4538 1.23078 17.4858 1.35272 17.4857C6.11555 17.482 10.8784 17.4822 15.6412 17.4865C15.7786 17.4866 15.7987 17.4419 15.7969 17.3179C15.7901 16.8363 15.7913 16.3544 15.7956 15.8727C15.7985 15.6838 15.7408 15.499 15.6311 15.3466C15.3932 15.0061 15.0654 14.8074 14.6746 14.6977C13.8921 14.4781 13.1102 14.2562 12.3284 14.0343C11.9087 13.9152 11.489 13.7961 11.0692 13.6774C10.6828 13.5681 10.5718 13.4219 10.5717 13.0136C10.5715 12.612 10.5715 12.2103 10.5716 11.8025L10.5716 11.2751ZM8.50347 4.85418C8.76609 4.85418 9.02871 4.85444 9.29133 4.8547H9.2914C10.0895 4.8555 10.8875 4.8563 11.6855 4.84971C11.8515 4.84834 11.8816 4.90167 11.8787 5.05554C11.8725 5.38593 11.8752 5.71649 11.8778 6.04703C11.882 6.56233 11.8861 7.0776 11.8566 7.59221C11.7713 9.08307 10.5707 10.4306 9.1226 10.6779C7.27268 10.9938 5.60407 9.85673 5.19637 8.00205C5.14472 7.7489 5.1204 7.49076 5.12384 7.23223C5.12326 6.9786 5.12354 6.72496 5.12383 6.47133C5.12438 5.99076 5.12493 5.51019 5.11954 5.02969C5.11784 4.87734 5.16683 4.85031 5.30407 4.85104C6.11782 4.85539 6.93159 4.85493 7.74535 4.85446L8.50347 4.85418ZM7.71945 3.79634C7.97344 3.79651 8.22744 3.79667 8.48143 3.79667C8.73114 3.79667 8.98086 3.79655 9.23057 3.79642C10.0587 3.79599 10.8867 3.79556 11.7148 3.79984C11.8439 3.8005 11.8802 3.76794 11.8788 3.63482C11.8719 2.98893 11.8737 2.34291 11.8777 1.69697C11.8783 1.59002 11.8618 1.5459 11.7395 1.54625C10.9592 1.5485 10.179 1.5485 9.39874 1.5485C8.49025 1.54851 7.58177 1.54851 6.6733 1.55206C5.95229 1.55488 5.34535 2.06098 5.17159 2.77446C5.12597 2.96179 5.12582 3.15147 5.12567 3.34115C5.1256 3.43271 5.12553 3.52427 5.12034 3.61556C5.11204 3.76168 5.15608 3.80095 5.29995 3.80009C6.10643 3.79528 6.91294 3.79581 7.71945 3.79634Z" fill="#1D884A"/>
<path d="M9.68188 15.4431C9.67318 15.6606 9.57711 15.8234 9.37971 15.9143C9.18244 16.0052 8.99858 15.9704 8.83154 15.8347C8.71132 15.7371 8.62456 15.5303 8.49253 15.5389C8.37862 15.5464 8.28005 15.7341 8.16706 15.8331C8.069 15.9218 7.94119 15.9686 7.81014 15.9639C7.6791 15.9591 7.55488 15.9032 7.46326 15.8076C7.37069 15.7095 7.31805 15.5793 7.31598 15.4433C7.31391 15.3073 7.36255 15.1755 7.45209 15.0745C7.54904 14.9623 7.73934 14.873 7.72905 14.7443C7.72005 14.6316 7.54484 14.5354 7.44894 14.4266C7.3615 14.3276 7.31366 14.1988 7.31489 14.0656C7.31611 13.9325 7.3663 13.8046 7.45556 13.7073C7.54807 13.6088 7.67452 13.5507 7.80827 13.5452C7.94201 13.5398 8.07261 13.5874 8.17255 13.6781C8.26313 13.7598 8.34915 13.8465 8.43022 13.938C8.48061 13.9939 8.51588 13.999 8.56744 13.94C8.63621 13.8612 8.71161 13.7883 8.78632 13.7151C9.01064 13.4954 9.32052 13.4869 9.52943 13.6933C9.73889 13.9004 9.73356 14.2317 9.5161 14.4641C9.46398 14.5268 9.40638 14.5845 9.344 14.6366C9.22383 14.725 9.2584 14.7883 9.34941 14.8758C9.51085 15.031 9.69846 15.1761 9.68188 15.4431Z" fill="#1D884A"/>
</g>
<defs>
<clipPath id="clip0_116_375">
<rect width="17" height="19" fill="white"/>
</clipPath>
</defs>
</svg>
