<svg width="16" height="19" viewBox="0 0 16 19" fill="none" xmlns="http://www.w3.org/2000/svg">
<g clip-path="url(#clip0_116_465)">
<path d="M15.2893 4.29352C14.8965 2.56571 13.5961 1.15666 11.9768 0.703188C10.9007 0.439712 9.77467 0.712465 8.62503 1.61571C8.56253 1.66439 8.24788 1.87918 8.0311 2.07475L6.6136 1.10397C5.7286 0.60893 4.85895 0.474223 4.02324 0.702817C2.4061 1.15629 1.10574 2.56534 0.712884 4.29315C0.373598 5.78309 0.645919 7.26858 1.48181 8.47537C1.99396 9.21422 2.28074 10.142 2.38788 11.4C2.50731 12.7311 2.67585 14.3082 3.02074 15.905L3.24953 16.9697C3.43467 17.8162 4.13574 18.4062 4.95717 18.4062C5.76645 18.4062 6.46503 17.8277 6.65467 17.002L7.66824 12.6639C7.74638 12.3206 8.25074 12.323 8.33467 12.6662L9.34574 17.0006C9.53931 17.8273 10.2357 18.4062 11.0465 18.4062C11.859 18.4062 12.5765 17.7998 12.7518 16.9682L12.9828 15.9062C13.3355 14.2722 13.5039 12.6372 13.6125 11.3974C13.7241 10.1379 14.0132 9.20903 14.5221 8.47612C15.3429 7.28825 15.625 5.76676 15.2893 4.29352ZM13.1286 7.43297C12.4332 8.43715 12.0436 9.64432 11.9022 11.2367C11.7995 12.3908 11.6388 13.9839 11.3082 15.5154L11.0113 16.5823L9.99778 12.2739C9.76674 11.302 8.9442 10.6236 7.99992 10.6236C7.04778 10.6236 6.22528 11.3053 6.00099 12.2783L4.92063 16.6127L4.69185 15.5506C4.36817 14.0488 4.20756 12.5426 4.09363 11.2719C3.9586 9.68551 3.57006 8.47723 2.87149 7.46823C2.33324 6.65368 2.15788 5.68512 2.3811 4.70543C2.63217 3.60366 3.45145 2.70858 4.46431 2.42543C4.8661 2.31644 5.30574 2.39528 5.73538 2.63184L8.68395 4.65541C9.07895 4.92675 9.61038 4.81313 9.87145 4.40262C10.1325 3.99212 10.0232 3.44 9.62813 3.16873L9.55445 3.11886C9.58794 3.09219 9.62253 3.06553 9.65824 3.0377C10.3772 2.47401 10.9897 2.27251 11.5322 2.42428C12.5511 2.70839 13.3704 3.60362 13.6215 4.70428C13.8465 5.68512 13.6715 6.65739 13.1286 7.43297Z" fill="#1D884A"/>
<path d="M5.05265 4.75C4.35265 4.75 3.78949 5.32756 3.78949 6.04545C3.78949 6.76335 4.35265 7.34091 5.05265 7.34091C5.75265 7.34091 6.31581 6.76335 6.31581 6.04545C6.31581 5.32756 5.75265 4.75 5.05265 4.75Z" fill="#1D884A"/>
</g>
<defs>
<clipPath id="clip0_116_465">
<rect width="16" height="19" fill="white"/>
</clipPath>
</defs>
</svg>
