<svg width="19" height="19" viewBox="0 0 19 19" fill="none" xmlns="http://www.w3.org/2000/svg">
<g clip-path="url(#clip0_116_406)">
<path d="M0.0496521 4.65686C0.0767658 4.68665 0.0917421 4.72511 0.0917421 4.76495C0.0917421 4.80479 0.0767658 4.84325 0.0496521 4.87304V4.65686Z" fill="#1D884A"/>
<path d="M0.0496521 5.08923C0.0766461 5.11907 0.0915434 5.15751 0.0915434 5.19732C0.0915434 5.23713 0.0766461 5.27557 0.0496521 5.30541V5.08923Z" fill="#1D884A"/>
<path d="M0.0816016 4.36689L0.0797421 4.47418C0.071312 4.49241 0.0613724 4.49419 0.0496521 4.47682V4.36873C0.0593993 4.35315 0.070049 4.35254 0.0816016 4.36689Z" fill="#1D884A"/>
<path d="M0.081582 4.36684C0.0709634 4.36789 0.0603201 4.36851 0.0496521 4.36868V4.29663C0.0952557 4.30487 0.0851928 4.33726 0.081582 4.36684Z" fill="#1D884A"/>
<path d="M0.0496521 4.47675C0.0596558 4.4755 0.0696858 4.47462 0.0797421 4.47412C0.086648 4.50551 0.083782 4.53315 0.0496521 4.5488V4.47675Z" fill="#1D884A"/>
<path d="M0.0496521 5.41345C0.0852322 5.42795 0.0867666 5.45614 0.0808621 5.48733C0.0695463 5.50161 0.0591428 5.501 0.0496521 5.48551V5.41345Z" fill="#1D884A"/>
<path d="M0.0496521 5.4856C0.0600701 5.48614 0.0704785 5.48675 0.0808768 5.48742C0.0851831 5.51706 0.0925328 5.54799 0.0496521 5.55765V5.4856Z" fill="#1D884A"/>
<path fill-rule="evenodd" clip-rule="evenodd" d="M0.132298 3.74542C0.120401 3.88377 0.108507 4.02209 0.0496717 4.1525L0.0496521 4.29658C0.0692393 4.31427 0.0688461 4.33637 0.0684529 4.35846C0.0683322 4.36524 0.0682116 4.37202 0.0686679 4.37867L0.0686927 4.46664C0.0682273 4.47331 0.0683425 4.48011 0.0684577 4.48691C0.0688321 4.509 0.0692065 4.53109 0.0496521 4.54877V4.65685C0.0645892 4.69102 0.0722894 4.72779 0.0722894 4.76494C0.0722894 4.80209 0.0645892 4.83885 0.0496521 4.87302V5.0892C0.0645892 5.12337 0.0722894 5.16013 0.0722894 5.19728C0.0722894 5.23443 0.0645892 5.2712 0.0496521 5.30537V5.41345C0.0686296 5.43007 0.0685904 5.45147 0.0685512 5.47288L0.0686728 5.48547C0.068525 5.48972 0.0685314 5.49401 0.0685379 5.4983C0.06857 5.51964 0.0686021 5.54099 0.0496521 5.55756V5.73769C0.0714852 5.76087 0.0702028 5.78825 0.0689293 5.81545C0.0685369 5.82383 0.0681453 5.8322 0.0684312 5.84041C0.086852 6.44151 0.217925 7.03422 0.455161 7.58922C0.689967 8.13636 0.996119 8.63867 1.47003 9.02817C2.04353 9.49954 2.70705 9.74994 3.44814 9.83152C4.41021 9.93742 5.25546 9.71193 5.9341 9.01388C6.74895 8.17574 6.93896 7.20596 6.55119 6.11985C6.50393 5.98751 6.43485 5.86594 6.36641 5.7455C6.33251 5.68586 6.29877 5.62649 6.26792 5.56622C6.27576 5.55793 6.2855 5.55156 6.29634 5.54763C6.30718 5.54369 6.31882 5.54231 6.33031 5.5436C6.72694 5.58047 7.09543 5.75972 7.36439 6.04662C7.63335 6.33352 7.78362 6.70765 7.7861 7.09652C7.79191 7.7316 7.79032 8.36674 7.78872 9.00187C7.78821 9.20697 7.78769 9.41206 7.78742 9.61715C7.78715 9.83011 7.76852 9.84046 7.54724 9.87103C6.93567 9.95552 6.33772 10.0875 5.78793 10.3777C5.0794 10.7516 4.61835 11.3069 4.50111 12.0971C4.36233 13.0325 4.65815 13.8486 5.25279 14.5759C5.68796 15.1081 6.24855 15.4805 6.8643 15.7815C7.48189 16.0834 7.77802 16.577 7.78709 17.2422C7.79005 17.4594 7.78942 17.6767 7.78879 17.8939C7.7884 18.0308 7.788 18.1676 7.7885 18.3044C7.78854 18.3151 7.78836 18.3258 7.78818 18.3365L7.78818 18.3365C7.78705 18.4035 7.78591 18.4712 7.83788 18.5271H11.1599C11.1599 18.3876 11.1593 18.2481 11.1586 18.1085C11.1572 17.7917 11.1557 17.4749 11.1625 17.1582C11.164 16.9231 11.2197 16.6914 11.3253 16.4802C11.431 16.269 11.5839 16.0836 11.7729 15.9379C11.884 15.8481 12.0117 15.7854 12.1396 15.7225L12.1398 15.7224C12.1709 15.7072 12.202 15.6919 12.2329 15.6762C13.1608 15.2051 13.91 14.5588 14.2789 13.5766C14.7771 12.2498 14.4272 10.7965 12.6843 10.2008C12.2425 10.0537 11.7854 9.9546 11.3213 9.90538L11.3001 9.90313C11.2204 9.89497 11.1536 9.88814 11.1551 9.75703C11.1601 9.29731 11.1598 8.83753 11.1595 8.37776C11.1592 7.94287 11.1589 7.50798 11.1632 7.07313C11.1679 6.58473 11.3784 6.18038 11.7577 5.86327C12.0681 5.60384 12.5253 5.45637 12.839 5.5102L12.7871 5.58536C12.5315 5.95077 12.3718 6.37195 12.3222 6.81179C12.2726 7.25163 12.3346 7.69663 12.5027 8.10757C12.6708 8.51852 12.9399 8.8828 13.2862 9.16832C13.6326 9.45384 14.0456 9.65184 14.4888 9.74486C16.1234 10.0997 17.8188 9.23879 18.4555 7.65182C19.1413 5.94243 19.1427 4.18608 18.5411 2.45533C17.9994 0.896663 16.7389 0.0748167 15.0554 0.0815571C13.0366 0.0896119 11.6996 2.17241 12.5766 3.94628C12.6283 4.05088 12.6888 4.15132 12.7502 4.2531L12.7502 4.25311C12.779 4.30084 12.8079 4.34887 12.8362 4.39775C11.1988 4.42297 9.97772 5.72058 10.0465 7.2994C10.0688 7.80946 10.0638 8.32062 10.0589 8.83183C10.0562 9.11356 10.0535 9.3953 10.0553 9.67689C10.056 9.78719 10.0304 9.8189 9.91415 9.81463C9.64387 9.80471 9.3726 9.80368 9.10242 9.81482C8.9723 9.82019 8.94102 9.78557 8.94194 9.65921C8.94805 8.80657 8.94879 7.95395 8.94416 7.10135C8.94277 6.50573 8.73992 5.92721 8.36711 5.45565C7.9943 4.98409 7.47239 4.64588 6.88244 4.49352C6.64182 4.43523 6.39538 4.40283 6.14753 4.39692L6.23084 4.2741C6.45547 3.94318 6.60259 3.56798 6.66171 3.17523C6.72083 2.78249 6.6905 2.38185 6.57288 2.00185C6.45527 1.62184 6.25326 1.27183 5.98124 0.976717C5.70922 0.681608 5.37388 0.448667 4.9991 0.294481C3.86677 -0.172474 2.28294 0.140983 1.36857 1.0182C0.648985 1.70853 0.330347 2.58425 0.157897 3.52827C0.144812 3.5999 0.138555 3.67266 0.132298 3.74542ZM11.9226 11.1065C11.1271 10.9235 10.3166 10.8967 9.60166 10.8892C8.88285 10.8902 8.2623 10.9123 7.64657 11C7.17145 11.0677 6.70359 11.1666 6.27927 11.4001C5.83923 11.6423 5.61809 12.0103 5.62302 12.5065C5.6244 12.8073 5.69531 13.1039 5.83047 13.3742C6.13752 13.9887 6.6472 14.3987 7.25573 14.7053L7.29844 14.7268C7.51909 14.8377 7.73929 14.9484 7.93047 15.1058C8.60567 15.6617 8.94583 16.3737 8.93931 17.2334C8.93788 17.4221 8.99316 17.4622 9.17062 17.4501C9.39769 17.4338 9.6257 17.4339 9.85275 17.4506C10.0297 17.4643 10.0544 17.3991 10.0565 17.2444C10.072 16.1267 10.5786 15.2952 11.6022 14.7782C11.8785 14.6474 12.1405 14.4896 12.3841 14.3072C12.8399 13.9476 13.1835 13.5128 13.3226 12.9454C13.518 12.1484 13.2352 11.6013 12.4641 11.2787C12.2891 11.2061 12.1079 11.1485 11.9226 11.1065ZM1.1569 4.83199C1.16607 4.1531 1.24597 3.376 1.56206 2.63743C2.06639 1.45902 3.15063 1.0367 4.24006 1.19936C5.05329 1.32078 5.64076 2.09146 5.58227 2.90527C5.52471 3.70627 4.83462 4.36646 4.01484 4.40112C3.84299 4.40838 3.67057 4.40678 3.49853 4.40343C3.41412 4.40179 3.36538 4.40811 3.36865 4.51546C3.37742 4.80323 3.37531 5.09149 3.36948 5.37941C3.36765 5.46937 3.39974 5.48682 3.48479 5.48768C3.5486 5.48832 3.61242 5.48748 3.67625 5.48663C3.85766 5.48423 4.03908 5.48183 4.22031 5.51367C4.62394 5.58431 4.98647 5.79832 5.23798 6.11444C5.4895 6.43055 5.61217 6.82637 5.58235 7.22554C5.55252 7.62472 5.37231 7.99898 5.07647 8.27613C4.78063 8.55329 4.39012 8.7137 3.98026 8.72643C2.65565 8.76378 1.76085 8.08672 1.38306 6.75756C1.21435 6.16402 1.15799 5.55639 1.1569 4.83199ZM17.4369 7.24834C17.7516 6.50904 17.829 5.73195 17.8422 4.98646C17.8359 4.3356 17.7824 3.73391 17.6173 3.14553C17.2399 1.80031 16.3323 1.11517 14.9941 1.16451C14.1931 1.19404 13.5182 1.81622 13.4186 2.61711C13.3247 3.37121 13.8453 4.12051 14.6025 4.33649C14.8494 4.40691 15.0991 4.40532 15.3492 4.40373C15.399 4.40341 15.4489 4.4031 15.4988 4.40335C15.5822 4.40379 15.6324 4.40684 15.6291 4.51505C15.6202 4.80282 15.6225 5.0911 15.6282 5.37901C15.63 5.46838 15.5994 5.49007 15.5133 5.48734C15.3413 5.4819 15.1689 5.48248 14.9969 5.48839C14.5913 5.50761 14.2068 5.67065 13.9155 5.94691C13.6243 6.22317 13.4464 6.59367 13.4151 6.98888C13.3606 7.80568 13.9461 8.56995 14.7617 8.69113C15.8581 8.85405 16.9383 8.41966 17.4369 7.24834Z" fill="#1D884A"/>
</g>
<defs>
<clipPath id="clip0_116_406">
<rect width="19" height="19" fill="white"/>
</clipPath>
</defs>
</svg>
