<svg width="19" height="19" viewBox="0 0 19 19" fill="none" xmlns="http://www.w3.org/2000/svg">
<g clip-path="url(#clip0_116_392)">
<path d="M0.050499 9.1842C0.0776971 9.21462 0.0927297 9.25396 0.0927297 9.29473C0.0927297 9.3355 0.0776971 9.37485 0.050499 9.40526V9.1842Z" fill="#1D884A"/>
<path d="M0.050499 8.85254C0.112706 8.87403 0.0791734 8.92219 0.0807026 8.96059C0.072159 8.97987 0.0620219 8.97985 0.050499 8.96305V8.85254Z" fill="#1D884A"/>
<path d="M0.050499 8.96302C0.0604283 8.96097 0.0705719 8.96014 0.0807026 8.96055C0.0882695 8.99291 0.0882495 9.02227 0.050499 9.03672V8.96302Z" fill="#1D884A"/>
<path d="M0.050499 9.88416C0.0640831 9.8909 0.074745 9.90235 0.0804964 9.91637C0.0862478 9.93039 0.0866963 9.94601 0.0817582 9.96033C0.0701366 9.97453 0.0597726 9.97301 0.050499 9.95784V9.88416Z" fill="#1D884A"/>
<path d="M0.050499 9.95776C0.0609334 9.95857 0.0713598 9.95939 0.0817778 9.96023C0.0816792 9.98463 0.0815919 10.009 0.0815163 10.0334C0.0702103 10.0479 0.0598712 10.0472 0.050499 10.0314V9.95776Z" fill="#1D884A"/>
<path d="M0.050499 10.0315C0.0608118 10.0326 0.0711524 10.0332 0.0815211 10.0335C0.0815014 10.0579 0.0814834 10.0823 0.081467 10.1067C0.0703682 10.1216 0.0600455 10.1211 0.050499 10.1052V10.0315Z" fill="#1D884A"/>
<path d="M0.050499 10.1052C0.0608282 10.1058 0.0711561 10.1063 0.081482 10.1068C0.086104 10.1372 0.0978833 10.1707 0.050499 10.1789V10.1052Z" fill="#1D884A"/>
<path fill-rule="evenodd" clip-rule="evenodd" d="M1.9329 18.9475H17.0663C17.1144 18.8962 17.1148 18.8325 17.1153 18.7693L17.1154 18.7564C17.127 17.725 17.132 16.6937 16.9311 15.6753C16.9163 15.6071 16.9178 15.5364 16.9355 15.4688C16.9532 15.4013 16.9866 15.3389 17.033 15.2867C17.5202 14.6528 17.9275 13.9615 18.2455 13.2284C18.9134 11.7174 19.0651 10.1277 18.9386 8.50505C18.8489 7.35388 18.503 6.26451 17.9816 5.23626C17.4844 4.26025 16.8208 3.37802 16.0205 2.62905C15.345 1.99105 14.5817 1.45253 13.7538 1.02978C12.0945 0.178925 10.3204 -0.0547038 8.48524 0.0924939C7.35681 0.183007 6.28935 0.51773 5.27691 1.01653C4.00131 1.65315 2.88443 2.56639 2.008 3.68943C1.13156 4.81247 0.517734 6.11691 0.211437 7.50728C0.146346 7.79969 0.115557 8.0952 0.0847557 8.39082C0.0738352 8.49564 0.0629132 8.60047 0.0504602 8.70518V8.85255C0.0716183 8.87377 0.0704757 8.89909 0.069333 8.92441C0.0688599 8.9349 0.0683868 8.94538 0.0694959 8.95558C0.0691267 8.96179 0.0692046 8.96811 0.0692824 8.97444C0.0695571 8.99674 0.0698319 9.01905 0.0504602 9.03676V9.18413C0.0653951 9.21908 0.0730942 9.25667 0.0730942 9.29466C0.0730942 9.33265 0.0653951 9.37025 0.0504602 9.40519V9.88415C0.0698678 9.90196 0.069576 9.92434 0.0692843 9.94672C0.0692018 9.95305 0.0691194 9.95937 0.0694813 9.96559V10.0313V10.0972C0.0691015 10.1035 0.0691828 10.1099 0.0692642 10.1163C0.0695483 10.1387 0.0698324 10.1611 0.0504456 10.1789V10.3263C0.0676322 10.3517 0.0744507 10.3827 0.0695106 10.413C0.0932872 10.9519 0.180264 11.4862 0.328659 12.0049C0.658602 13.2152 1.22658 14.348 1.99949 15.337C2.05878 15.4131 2.09664 15.4882 2.07662 15.5895C1.87337 16.6182 1.86753 17.6595 1.88178 18.7019C1.88197 18.7156 1.88176 18.7293 1.88156 18.7431C1.8805 18.8148 1.87943 18.887 1.9329 18.9475ZM4.16483 3.10862C0.775679 5.96278 0.28175 10.7334 2.55379 14.1227C2.72235 13.7802 2.9346 13.461 3.18524 13.1729C3.43301 12.8831 3.72046 12.6296 4.03911 12.42C4.11415 12.3713 4.08448 12.3267 4.0562 12.2842C4.04883 12.2731 4.04156 12.2621 4.03625 12.2513C2.8702 9.86995 3.29045 7.15702 5.12455 5.2565C5.69664 4.66371 6.39122 4.41867 7.21309 4.54051C8.29777 4.70129 9.14511 5.65521 9.17372 6.749C9.18885 7.32762 8.99726 7.82628 8.63026 8.27086C8.49011 8.43992 8.40504 8.64767 8.38643 8.86632C8.36783 9.08497 8.41659 9.30407 8.52618 9.4943C8.6367 9.69088 8.80351 9.85004 9.00524 9.95138C9.20697 10.0527 9.43441 10.0916 9.65843 10.0631C9.8786 10.0302 10.0839 9.93243 10.248 9.78224C10.4121 9.63205 10.5274 9.43633 10.5792 9.2202C10.6691 8.84866 10.5764 8.51813 10.3358 8.22391C9.92556 7.72243 9.74393 7.14446 9.84697 6.50756C9.99914 5.56702 10.5387 4.91653 11.4509 4.62617C12.3712 4.3332 13.1899 4.5555 13.8633 5.24619C15.701 7.13121 16.1328 9.8758 14.9688 12.2367C14.9154 12.345 14.9213 12.4001 15.0267 12.47C15.4667 12.7657 15.8431 13.1461 16.134 13.5888C16.2108 13.7034 16.2803 13.8228 16.3502 13.9429L16.3502 13.9429L16.3502 13.943L16.3503 13.9431C16.3822 13.998 16.4142 14.053 16.4471 14.1078C18.5401 11.0622 18.3875 6.42556 15.1742 3.40657C12.1746 0.588336 7.31437 0.456231 4.16483 3.10862ZM9.49967 17.8422C7.40835 17.8422 5.31703 17.8436 3.22571 17.8462C3.06479 17.8467 3.02489 17.8121 3.02988 17.6484C3.05615 16.787 3.14159 15.9326 3.37001 15.1011C3.54632 14.4634 3.92113 13.8983 4.44028 13.4872C4.95944 13.0761 5.59606 12.8404 6.25819 12.8141C6.73549 12.7868 7.20659 12.9327 7.58458 13.2249C8.13589 13.6495 8.81301 13.879 9.50932 13.8772C10.2056 13.8754 10.8816 13.6425 11.4307 13.2152C12.0471 12.7427 12.7398 12.7193 13.4461 12.9326C14.7397 13.3234 15.4843 14.2131 15.7339 15.5288C15.8712 16.2337 15.9498 16.9488 15.9688 17.6666C15.972 17.8118 15.9359 17.8459 15.7921 17.8456C13.6946 17.8407 11.5972 17.8396 9.49967 17.8422ZM5.94189 6.00541C4.98333 6.97874 4.51229 8.15559 4.49313 9.38495C4.49935 10.3075 4.67549 11.0576 5.03188 11.7661C5.08439 11.8705 5.1325 11.9006 5.25143 11.8687C6.38196 11.565 7.42925 11.6798 8.38072 12.4326C8.93889 12.8742 9.58288 12.9152 10.2449 12.655C10.4145 12.5884 10.5572 12.4817 10.7001 12.3749C10.7632 12.3278 10.8263 12.2806 10.8917 12.2369C11.7763 11.6458 12.7367 11.598 13.7352 11.862L13.7399 11.8632C13.8392 11.8895 13.9011 11.9059 13.9643 11.7842C14.9508 9.88384 14.5584 7.45084 13.019 5.96429C12.8058 5.74643 12.515 5.62153 12.21 5.61682C11.7004 5.61182 11.3018 5.82685 11.066 6.28286C10.8305 6.73816 10.9059 7.16571 11.2234 7.56729C11.9905 8.53765 11.8627 9.90044 10.9165 10.6635C10.2122 11.2314 9.40969 11.3658 8.58721 10.972C7.74559 10.569 7.27855 9.88232 7.28285 8.92263C7.28117 8.42697 7.4562 7.94688 7.77662 7.56822C8.02462 7.26912 8.12882 6.93824 8.0351 6.5593C7.92104 6.09821 7.62588 5.79559 7.17213 5.66502C6.69863 5.52877 6.28275 5.65931 5.94189 6.00541Z" fill="#1D884A"/>
</g>
<defs>
<clipPath id="clip0_116_392">
<rect width="19" height="19" fill="white"/>
</clipPath>
</defs>
</svg>
