<svg width="19" height="19" viewBox="0 0 19 19" fill="none" xmlns="http://www.w3.org/2000/svg">
<path d="M17.6899 0.755072C16.2983 -0.381588 14.1463 -0.21942 12.7952 1.13544L3.90378 10.0862C3.68706 10.3089 3.56311 10.6095 3.56311 10.9249L3.56314 14.1798L0.260773 17.4832C-0.0871277 17.8312 -0.0871277 18.3972 0.260773 18.7405C0.608599 19.0885 1.17441 19.0885 1.51767 18.7405L4.82003 15.437L8.03519 15.437C8.34939 15.437 8.65083 15.3125 8.87349 15.0907L17.9616 6.06943C19.2559 4.74248 19.5268 2.26765 17.6899 0.755072ZM16.7028 4.77216L7.79284 13.6561H5.34362V11.1661L6.64245 9.85726L7.89192 11.1067C8.00807 11.2218 8.16022 11.2811 8.31237 11.2811C8.46452 11.2811 8.61622 11.2232 8.73208 11.1072C8.96401 10.8752 8.96401 10.4993 8.73208 10.2678L7.48112 9.01376L9.0104 7.47224L10.2691 8.73099C10.3831 8.84677 10.5352 8.90615 10.6874 8.90615C10.8395 8.90615 10.9912 8.84818 11.1071 8.73218C11.339 8.50025 11.339 8.12433 11.1071 7.89276L9.84499 6.63067L11.3743 5.08915L12.6423 6.35718C12.7581 6.47177 12.9102 6.53115 13.0624 6.53115C13.2145 6.53115 13.3662 6.47318 13.4821 6.35718C13.714 6.12524 13.714 5.74933 13.4821 5.51776L12.2111 4.24677L14.055 2.3887C14.7646 1.6788 15.8641 1.56747 16.5551 2.12894C17.5007 2.90779 17.3374 4.13759 16.7028 4.77216Z" fill="#1D884A"/>
</svg>
